%TF.GenerationSoftware,KiCad,Pcbnew,7.0.11+dfsg-1build4*%
%TF.CreationDate,2025-01-29T15:52:53-06:00*%
%TF.ProjectId,TriacControl,54726961-6343-46f6-9e74-726f6c2e6b69,rev?*%
%TF.SameCoordinates,Original*%
%TF.FileFunction,Copper,L2,Bot*%
%TF.FilePolarity,Positive*%
%FSLAX46Y46*%
G04 Gerber Fmt 4.6, Leading zero omitted, Abs format (unit mm)*
G04 Created by KiCad (PCBNEW 7.0.11+dfsg-1build4) date 2025-01-29 15:52:53*
%MOMM*%
%LPD*%
G01*
G04 APERTURE LIST*
%TA.AperFunction,ComponentPad*%
%ADD10C,1.600000*%
%TD*%
%TA.AperFunction,ComponentPad*%
%ADD11O,1.600000X1.600000*%
%TD*%
%TA.AperFunction,ComponentPad*%
%ADD12R,1.600000X1.600000*%
%TD*%
%TA.AperFunction,ComponentPad*%
%ADD13R,3.000000X3.000000*%
%TD*%
%TA.AperFunction,ComponentPad*%
%ADD14C,3.000000*%
%TD*%
%TA.AperFunction,ComponentPad*%
%ADD15R,1.700000X1.700000*%
%TD*%
%TA.AperFunction,ComponentPad*%
%ADD16O,1.700000X1.700000*%
%TD*%
%TA.AperFunction,ComponentPad*%
%ADD17R,1.905000X2.000000*%
%TD*%
%TA.AperFunction,ComponentPad*%
%ADD18O,1.905000X2.000000*%
%TD*%
%TA.AperFunction,ComponentPad*%
%ADD19R,2.200000X2.200000*%
%TD*%
%TA.AperFunction,ComponentPad*%
%ADD20O,2.200000X2.200000*%
%TD*%
%TA.AperFunction,ComponentPad*%
%ADD21R,1.500000X1.500000*%
%TD*%
%TA.AperFunction,ComponentPad*%
%ADD22C,1.500000*%
%TD*%
G04 APERTURE END LIST*
D10*
%TO.P,R14,1*%
%TO.N,Net-(J1-Pin_1)*%
X90970000Y-62780000D03*
D11*
%TO.P,R14,2*%
%TO.N,Net-(Q1-G)*%
X90970000Y-70400000D03*
%TD*%
D12*
%TO.P,C3,1*%
%TO.N,Net-(JP6-A)*%
X122150000Y-56100000D03*
D10*
%TO.P,C3,2*%
%TO.N,GND2*%
X122150000Y-53600000D03*
%TD*%
D13*
%TO.P,J1,1,Pin_1*%
%TO.N,Net-(J1-Pin_1)*%
X57950000Y-61850000D03*
D14*
%TO.P,J1,2,Pin_2*%
%TO.N,unconnected-(J1-Pin_2-Pad2)*%
X57950000Y-66930000D03*
%TO.P,J1,3,Pin_3*%
%TO.N,Net-(J1-Pin_3)*%
X57950000Y-72010000D03*
%TD*%
D10*
%TO.P,R20,1*%
%TO.N,Net-(J4-Pin_1)*%
X137350000Y-68830000D03*
D11*
%TO.P,R20,2*%
%TO.N,Net-(JP4-A)*%
X137350000Y-76450000D03*
%TD*%
D10*
%TO.P,R18,1*%
%TO.N,Net-(J4-Pin_1)*%
X144150000Y-68800000D03*
D11*
%TO.P,R18,2*%
%TO.N,Net-(JP2-A)*%
X144150000Y-76420000D03*
%TD*%
D12*
%TO.P,C4,1*%
%TO.N,Net-(JP7-A)*%
X128000000Y-56100000D03*
D10*
%TO.P,C4,2*%
%TO.N,GND2*%
X128000000Y-53600000D03*
%TD*%
%TO.P,R17,1*%
%TO.N,Net-(J4-Pin_1)*%
X147600000Y-68800000D03*
D11*
%TO.P,R17,2*%
%TO.N,Net-(JP1-A)*%
X147600000Y-76420000D03*
%TD*%
D10*
%TO.P,R1,1*%
%TO.N,Net-(R1-Pad1)*%
X82100000Y-73900000D03*
D11*
%TO.P,R1,2*%
%TO.N,Net-(J1-Pin_1)*%
X74480000Y-73900000D03*
%TD*%
D10*
%TO.P,R6,1*%
%TO.N,Net-(R5-Pad2)*%
X72600000Y-88200000D03*
D11*
%TO.P,R6,2*%
%TO.N,Net-(R6-Pad2)*%
X64980000Y-88200000D03*
%TD*%
D10*
%TO.P,R27,1*%
%TO.N,Net-(D1-A)*%
X98470000Y-94080000D03*
D11*
%TO.P,R27,2*%
%TO.N,Net-(D2-A)*%
X90850000Y-94080000D03*
%TD*%
D10*
%TO.P,R23,1*%
%TO.N,Net-(JP1-B)*%
X115850000Y-62200000D03*
D11*
%TO.P,R23,2*%
%TO.N,Net-(R23-Pad2)*%
X115850000Y-69820000D03*
%TD*%
D10*
%TO.P,R7,1*%
%TO.N,Net-(R6-Pad2)*%
X72600000Y-84800000D03*
D11*
%TO.P,R7,2*%
%TO.N,Net-(R7-Pad2)*%
X64980000Y-84800000D03*
%TD*%
D13*
%TO.P,J3,1,Pin_1*%
%TO.N,Net-(J3-Pin_1)*%
X117850000Y-89050000D03*
D14*
%TO.P,J3,2,Pin_2*%
%TO.N,Net-(J3-Pin_2)*%
X122930000Y-89050000D03*
%TO.P,J3,3,Pin_3*%
%TO.N,GND*%
X128010000Y-89050000D03*
%TD*%
D10*
%TO.P,R22,1*%
%TO.N,Net-(D1-K)*%
X91200000Y-73950000D03*
D11*
%TO.P,R22,2*%
%TO.N,Net-(R22-Pad2)*%
X98820000Y-73950000D03*
%TD*%
D10*
%TO.P,R16,1*%
%TO.N,Net-(R16-Pad1)*%
X96250000Y-59950000D03*
D11*
%TO.P,R16,2*%
%TO.N,Net-(J2-Pin_1)*%
X88630000Y-59950000D03*
%TD*%
D15*
%TO.P,JP6,1,A*%
%TO.N,Net-(JP6-A)*%
X123800000Y-60950000D03*
D16*
%TO.P,JP6,2,B*%
%TO.N,Net-(JP1-B)*%
X123800000Y-63490000D03*
%TD*%
D15*
%TO.P,JP4,1,A*%
%TO.N,Net-(JP4-A)*%
X136650000Y-80450000D03*
D16*
%TO.P,JP4,2,B*%
%TO.N,Net-(JP1-B)*%
X136650000Y-82990000D03*
%TD*%
D10*
%TO.P,C1,1*%
%TO.N,Net-(J1-Pin_1)*%
X69100000Y-62900000D03*
%TO.P,C1,2*%
%TO.N,Net-(C1-Pad2)*%
X64100000Y-62900000D03*
%TD*%
%TO.P,R24,1*%
%TO.N,Net-(JP1-B)*%
X132700000Y-77450000D03*
D11*
%TO.P,R24,2*%
%TO.N,Net-(Q2-E)*%
X132700000Y-85070000D03*
%TD*%
D12*
%TO.P,C2,1*%
%TO.N,Net-(JP5-A)*%
X116350000Y-56050000D03*
D10*
%TO.P,C2,2*%
%TO.N,GND2*%
X116350000Y-53550000D03*
%TD*%
%TO.P,R21,1*%
%TO.N,Net-(D1-K)*%
X92250000Y-79800000D03*
D11*
%TO.P,R21,2*%
%TO.N,Net-(R21-Pad2)*%
X99870000Y-79800000D03*
%TD*%
D15*
%TO.P,JP2,1,A*%
%TO.N,Net-(JP2-A)*%
X144200000Y-80450000D03*
D16*
%TO.P,JP2,2,B*%
%TO.N,Net-(JP1-B)*%
X144200000Y-82990000D03*
%TD*%
D15*
%TO.P,JP5,1,A*%
%TO.N,Net-(JP5-A)*%
X119750000Y-61000000D03*
D16*
%TO.P,JP5,2,B*%
%TO.N,Net-(JP1-B)*%
X119750000Y-63540000D03*
%TD*%
D13*
%TO.P,J2,1,Pin_1*%
%TO.N,Net-(J2-Pin_1)*%
X58000000Y-80400000D03*
D14*
%TO.P,J2,2,Pin_2*%
%TO.N,unconnected-(J2-Pin_2-Pad2)*%
X58000000Y-85480000D03*
%TO.P,J2,3,Pin_3*%
%TO.N,Net-(J1-Pin_3)*%
X58000000Y-90560000D03*
%TD*%
D15*
%TO.P,JP7,1,A*%
%TO.N,Net-(JP7-A)*%
X127850000Y-60950000D03*
D16*
%TO.P,JP7,2,B*%
%TO.N,Net-(JP1-B)*%
X127850000Y-63490000D03*
%TD*%
D10*
%TO.P,R4,1*%
%TO.N,Net-(D2-A)*%
X76290000Y-88600000D03*
D11*
%TO.P,R4,2*%
%TO.N,Net-(R3-Pad1)*%
X83910000Y-88600000D03*
%TD*%
D10*
%TO.P,R3,1*%
%TO.N,Net-(R3-Pad1)*%
X76280000Y-85100000D03*
D11*
%TO.P,R3,2*%
%TO.N,Net-(R2-Pad1)*%
X83900000Y-85100000D03*
%TD*%
D10*
%TO.P,R26,1*%
%TO.N,GND2*%
X129600000Y-80250000D03*
D11*
%TO.P,R26,2*%
%TO.N,Net-(Q2-B)*%
X121980000Y-80250000D03*
%TD*%
D10*
%TO.P,R25,1*%
%TO.N,Net-(Q2-E)*%
X121550000Y-74200000D03*
D11*
%TO.P,R25,2*%
%TO.N,Net-(R25-Pad2)*%
X113930000Y-74200000D03*
%TD*%
D10*
%TO.P,R13,1*%
%TO.N,Net-(J1-Pin_1)*%
X94350000Y-62720000D03*
D11*
%TO.P,R13,2*%
%TO.N,Net-(Q1-G)*%
X94350000Y-70340000D03*
%TD*%
D10*
%TO.P,R9,1*%
%TO.N,Net-(C1-Pad2)*%
X64000000Y-74000000D03*
D11*
%TO.P,R9,2*%
%TO.N,Net-(J2-Pin_1)*%
X71620000Y-74000000D03*
%TD*%
D10*
%TO.P,R15,1*%
%TO.N,Net-(J1-Pin_1)*%
X87760000Y-62810000D03*
D11*
%TO.P,R15,2*%
%TO.N,Net-(Q1-G)*%
X87760000Y-70430000D03*
%TD*%
D17*
%TO.P,Q1,1,A1*%
%TO.N,Net-(J1-Pin_1)*%
X75800000Y-59010000D03*
D18*
%TO.P,Q1,2,A2*%
%TO.N,Net-(J2-Pin_1)*%
X78340000Y-59010000D03*
%TO.P,Q1,3,G*%
%TO.N,Net-(Q1-G)*%
X80880000Y-59010000D03*
%TD*%
D12*
%TO.P,U3,1*%
%TO.N,Net-(R22-Pad2)*%
X102450000Y-75400000D03*
D11*
%TO.P,U3,2*%
%TO.N,Net-(D3-A)*%
X102450000Y-77940000D03*
%TO.P,U3,3*%
%TO.N,Net-(Q2-B)*%
X110070000Y-77940000D03*
%TO.P,U3,4*%
%TO.N,Net-(R25-Pad2)*%
X110070000Y-75400000D03*
%TD*%
D10*
%TO.P,R8,1*%
%TO.N,Net-(R7-Pad2)*%
X72600000Y-81600000D03*
D11*
%TO.P,R8,2*%
%TO.N,Net-(J1-Pin_3)*%
X64980000Y-81600000D03*
%TD*%
D15*
%TO.P,JP1,1,A*%
%TO.N,Net-(JP1-A)*%
X148000000Y-80450000D03*
D16*
%TO.P,JP1,2,B*%
%TO.N,Net-(JP1-B)*%
X148000000Y-82990000D03*
%TD*%
D12*
%TO.P,U1,1*%
%TO.N,Net-(R23-Pad2)*%
X110050000Y-69250000D03*
D11*
%TO.P,U1,2*%
%TO.N,GND2*%
X110050000Y-66710000D03*
%TO.P,U1,3,NC*%
%TO.N,unconnected-(U1-NC-Pad3)*%
X110050000Y-64170000D03*
%TO.P,U1,4*%
%TO.N,Net-(R16-Pad1)*%
X102430000Y-64170000D03*
%TO.P,U1,5,NC*%
%TO.N,unconnected-(U1-NC-Pad5)*%
X102430000Y-66710000D03*
%TO.P,U1,6*%
%TO.N,Net-(Q1-G)*%
X102430000Y-69250000D03*
%TD*%
D19*
%TO.P,D2,1,K*%
%TO.N,Net-(D1-K)*%
X91200000Y-83050000D03*
D20*
%TO.P,D2,2,A*%
%TO.N,Net-(D2-A)*%
X91200000Y-90670000D03*
%TD*%
D10*
%TO.P,R19,1*%
%TO.N,Net-(J4-Pin_1)*%
X140700000Y-68850000D03*
D11*
%TO.P,R19,2*%
%TO.N,Net-(JP3-A)*%
X140700000Y-76470000D03*
%TD*%
D19*
%TO.P,D3,1,K*%
%TO.N,Net-(D1-A)*%
X98050000Y-90700000D03*
D20*
%TO.P,D3,2,A*%
%TO.N,Net-(D3-A)*%
X98050000Y-83080000D03*
%TD*%
D12*
%TO.P,U2,1*%
%TO.N,Net-(R21-Pad2)*%
X102500000Y-82650000D03*
D11*
%TO.P,U2,2*%
%TO.N,Net-(D3-A)*%
X102500000Y-85190000D03*
%TO.P,U2,3*%
%TO.N,GND*%
X110120000Y-85190000D03*
%TO.P,U2,4*%
%TO.N,Net-(J3-Pin_2)*%
X110120000Y-82650000D03*
%TD*%
D10*
%TO.P,R5,1*%
%TO.N,Net-(D1-A)*%
X72500000Y-91600000D03*
D11*
%TO.P,R5,2*%
%TO.N,Net-(R5-Pad2)*%
X64880000Y-91600000D03*
%TD*%
D19*
%TO.P,D4,1,K*%
%TO.N,Net-(D2-A)*%
X87750000Y-90600000D03*
D20*
%TO.P,D4,2,A*%
%TO.N,Net-(D3-A)*%
X87750000Y-82980000D03*
%TD*%
D19*
%TO.P,D1,1,K*%
%TO.N,Net-(D1-K)*%
X94700000Y-83050000D03*
D20*
%TO.P,D1,2,A*%
%TO.N,Net-(D1-A)*%
X94700000Y-90670000D03*
%TD*%
D10*
%TO.P,R12,1*%
%TO.N,Net-(J3-Pin_1)*%
X113150000Y-91650000D03*
D11*
%TO.P,R12,2*%
%TO.N,Net-(J3-Pin_2)*%
X113150000Y-84030000D03*
%TD*%
D10*
%TO.P,R2,1*%
%TO.N,Net-(R2-Pad1)*%
X76180000Y-81700000D03*
D11*
%TO.P,R2,2*%
%TO.N,Net-(R1-Pad1)*%
X83800000Y-81700000D03*
%TD*%
D21*
%TO.P,Q2,1,E*%
%TO.N,Net-(Q2-E)*%
X118450000Y-82850000D03*
D22*
%TO.P,Q2,2,B*%
%TO.N,Net-(Q2-B)*%
X118450000Y-80310000D03*
%TO.P,Q2,3,C*%
%TO.N,GND2*%
X118450000Y-77770000D03*
%TD*%
D13*
%TO.P,J4,1,Pin_1*%
%TO.N,Net-(J4-Pin_1)*%
X145650000Y-62150000D03*
D14*
%TO.P,J4,2,Pin_2*%
%TO.N,unconnected-(J4-Pin_2-Pad2)*%
X140570000Y-62150000D03*
%TO.P,J4,3,Pin_3*%
%TO.N,GND2*%
X135490000Y-62150000D03*
%TD*%
D10*
%TO.P,R11,1*%
%TO.N,Net-(C1-Pad2)*%
X64000000Y-67500000D03*
D11*
%TO.P,R11,2*%
%TO.N,Net-(J2-Pin_1)*%
X71620000Y-67500000D03*
%TD*%
D15*
%TO.P,JP3,1,A*%
%TO.N,Net-(JP3-A)*%
X140400000Y-80450000D03*
D16*
%TO.P,JP3,2,B*%
%TO.N,Net-(JP1-B)*%
X140400000Y-82990000D03*
%TD*%
D10*
%TO.P,R10,1*%
%TO.N,Net-(C1-Pad2)*%
X64000000Y-70800000D03*
D11*
%TO.P,R10,2*%
%TO.N,Net-(J2-Pin_1)*%
X71620000Y-70800000D03*
%TD*%
M02*
