%TF.GenerationSoftware,KiCad,Pcbnew,7.0.11+dfsg-1build4*%
%TF.CreationDate,2025-03-10T20:05:57-05:00*%
%TF.ProjectId,TriacControl,54726961-6343-46f6-9e74-726f6c2e6b69,rev?*%
%TF.SameCoordinates,Original*%
%TF.FileFunction,Copper,L1,Top*%
%TF.FilePolarity,Positive*%
%FSLAX46Y46*%
G04 Gerber Fmt 4.6, Leading zero omitted, Abs format (unit mm)*
G04 Created by KiCad (PCBNEW 7.0.11+dfsg-1build4) date 2025-03-10 20:05:57*
%MOMM*%
%LPD*%
G01*
G04 APERTURE LIST*
%TA.AperFunction,ComponentPad*%
%ADD10R,1.600000X1.600000*%
%TD*%
%TA.AperFunction,ComponentPad*%
%ADD11C,1.600000*%
%TD*%
%TA.AperFunction,ComponentPad*%
%ADD12R,3.000000X3.000000*%
%TD*%
%TA.AperFunction,ComponentPad*%
%ADD13C,3.000000*%
%TD*%
%TA.AperFunction,ComponentPad*%
%ADD14O,1.600000X1.600000*%
%TD*%
%TA.AperFunction,ComponentPad*%
%ADD15R,1.700000X1.700000*%
%TD*%
%TA.AperFunction,ComponentPad*%
%ADD16O,1.700000X1.700000*%
%TD*%
%TA.AperFunction,ComponentPad*%
%ADD17R,1.905000X2.000000*%
%TD*%
%TA.AperFunction,ComponentPad*%
%ADD18O,1.905000X2.000000*%
%TD*%
%TA.AperFunction,ComponentPad*%
%ADD19R,2.200000X2.200000*%
%TD*%
%TA.AperFunction,ComponentPad*%
%ADD20O,2.200000X2.200000*%
%TD*%
%TA.AperFunction,ComponentPad*%
%ADD21R,1.500000X1.500000*%
%TD*%
%TA.AperFunction,ComponentPad*%
%ADD22C,1.500000*%
%TD*%
%TA.AperFunction,Conductor*%
%ADD23C,2.000000*%
%TD*%
G04 APERTURE END LIST*
D10*
%TO.P,C3,1*%
%TO.N,Net-(JP6-A)*%
X122150000Y-56100000D03*
D11*
%TO.P,C3,2*%
%TO.N,GND2*%
X122150000Y-53600000D03*
%TD*%
D12*
%TO.P,J1,1,Pin_1*%
%TO.N,Net-(J1-Pin_1)*%
X57950000Y-61850000D03*
D13*
%TO.P,J1,2,Pin_2*%
%TO.N,unconnected-(J1-Pin_2-Pad2)*%
X57950000Y-66930000D03*
%TO.P,J1,3,Pin_3*%
%TO.N,Net-(J1-Pin_3)*%
X57950000Y-72010000D03*
%TD*%
D11*
%TO.P,R18,1*%
%TO.N,Net-(J4-Pin_1)*%
X142150000Y-67830000D03*
D14*
%TO.P,R18,2*%
%TO.N,Net-(JP2-A)*%
X142150000Y-83070000D03*
%TD*%
D10*
%TO.P,C4,1*%
%TO.N,Net-(JP7-A)*%
X128000000Y-56100000D03*
D11*
%TO.P,C4,2*%
%TO.N,GND2*%
X128000000Y-53600000D03*
%TD*%
%TO.P,R17,1*%
%TO.N,Net-(J4-Pin_1)*%
X147400000Y-68000000D03*
D14*
%TO.P,R17,2*%
%TO.N,Net-(JP1-A)*%
X147400000Y-83240000D03*
%TD*%
D11*
%TO.P,R1,1*%
%TO.N,Net-(R1-Pad1)*%
X82550000Y-76962000D03*
D14*
%TO.P,R1,2*%
%TO.N,Net-(J1-Pin_1)*%
X74930000Y-76962000D03*
%TD*%
D11*
%TO.P,R6,1*%
%TO.N,Net-(R5-Pad2)*%
X72390000Y-90424000D03*
D14*
%TO.P,R6,2*%
%TO.N,Net-(R6-Pad2)*%
X64770000Y-90424000D03*
%TD*%
D11*
%TO.P,R27,1*%
%TO.N,Net-(D1-A)*%
X98470000Y-94080000D03*
D14*
%TO.P,R27,2*%
%TO.N,Net-(D2-A)*%
X90850000Y-94080000D03*
%TD*%
D11*
%TO.P,R23,1*%
%TO.N,Net-(JP1-B)*%
X115850000Y-62200000D03*
D14*
%TO.P,R23,2*%
%TO.N,Net-(R23-Pad2)*%
X115850000Y-69820000D03*
%TD*%
D11*
%TO.P,R7,1*%
%TO.N,Net-(R6-Pad2)*%
X72390000Y-87122000D03*
D14*
%TO.P,R7,2*%
%TO.N,Net-(R7-Pad2)*%
X64770000Y-87122000D03*
%TD*%
D11*
%TO.P,R22,1*%
%TO.N,Net-(D1-K)*%
X91200000Y-73950000D03*
D14*
%TO.P,R22,2*%
%TO.N,Net-(R22-Pad2)*%
X98820000Y-73950000D03*
%TD*%
D11*
%TO.P,R16,1*%
%TO.N,Net-(R16-Pad1)*%
X64262000Y-53680000D03*
D14*
%TO.P,R16,2*%
%TO.N,Net-(C1-Pad2)*%
X64262000Y-61300000D03*
%TD*%
D15*
%TO.P,JP6,1,A*%
%TO.N,Net-(JP6-A)*%
X123800000Y-60950000D03*
D16*
%TO.P,JP6,2,B*%
%TO.N,Net-(JP1-B)*%
X123800000Y-63490000D03*
%TD*%
D11*
%TO.P,C1,1*%
%TO.N,Net-(J1-Pin_1)*%
X67818000Y-61214000D03*
%TO.P,C1,2*%
%TO.N,Net-(C1-Pad2)*%
X67818000Y-66214000D03*
%TD*%
%TO.P,R24,1*%
%TO.N,Net-(JP1-B)*%
X132700000Y-77450000D03*
D14*
%TO.P,R24,2*%
%TO.N,Net-(Q2-E)*%
X132700000Y-85070000D03*
%TD*%
D10*
%TO.P,C2,1*%
%TO.N,Net-(JP5-A)*%
X116350000Y-56050000D03*
D11*
%TO.P,C2,2*%
%TO.N,GND2*%
X116350000Y-53550000D03*
%TD*%
%TO.P,R21,1*%
%TO.N,Net-(D1-K)*%
X92250000Y-79800000D03*
D14*
%TO.P,R21,2*%
%TO.N,Net-(R21-Pad2)*%
X99870000Y-79800000D03*
%TD*%
D15*
%TO.P,JP2,1,A*%
%TO.N,Net-(JP2-A)*%
X142320000Y-87650000D03*
D16*
%TO.P,JP2,2,B*%
%TO.N,Net-(JP1-B)*%
X142320000Y-90190000D03*
%TD*%
D15*
%TO.P,JP5,1,A*%
%TO.N,Net-(JP5-A)*%
X119750000Y-61000000D03*
D16*
%TO.P,JP5,2,B*%
%TO.N,Net-(JP1-B)*%
X119750000Y-63540000D03*
%TD*%
D12*
%TO.P,J2,1,Pin_1*%
%TO.N,Net-(J2-Pin_1)*%
X58000000Y-80400000D03*
D13*
%TO.P,J2,2,Pin_2*%
%TO.N,unconnected-(J2-Pin_2-Pad2)*%
X58000000Y-85480000D03*
%TO.P,J2,3,Pin_3*%
%TO.N,Net-(J1-Pin_3)*%
X58000000Y-90560000D03*
%TD*%
D12*
%TO.P,J4,1,Pin_1*%
%TO.N,Net-(J4-Pin_1)*%
X140520000Y-62110000D03*
D13*
%TO.P,J4,2,Pin_2*%
%TO.N,GND2*%
X135440000Y-62110000D03*
%TD*%
D15*
%TO.P,JP7,1,A*%
%TO.N,Net-(JP7-A)*%
X127850000Y-60950000D03*
D16*
%TO.P,JP7,2,B*%
%TO.N,Net-(JP1-B)*%
X127850000Y-63490000D03*
%TD*%
D11*
%TO.P,R4,1*%
%TO.N,Net-(D2-A)*%
X76290000Y-90932000D03*
D14*
%TO.P,R4,2*%
%TO.N,Net-(R3-Pad1)*%
X83910000Y-90932000D03*
%TD*%
D11*
%TO.P,R14,1*%
%TO.N,Net-(J1-Pin_1)*%
X94450000Y-62980000D03*
D14*
%TO.P,R14,2*%
%TO.N,Net-(Q1-G)*%
X94450000Y-70600000D03*
%TD*%
D11*
%TO.P,R3,1*%
%TO.N,Net-(R3-Pad1)*%
X76280000Y-87630000D03*
D14*
%TO.P,R3,2*%
%TO.N,Net-(R2-Pad1)*%
X83900000Y-87630000D03*
%TD*%
D11*
%TO.P,R26,1*%
%TO.N,GND2*%
X129600000Y-80250000D03*
D14*
%TO.P,R26,2*%
%TO.N,Net-(Q2-B)*%
X121980000Y-80250000D03*
%TD*%
D11*
%TO.P,R25,1*%
%TO.N,Net-(Q2-E)*%
X121550000Y-74200000D03*
D14*
%TO.P,R25,2*%
%TO.N,Net-(R25-Pad2)*%
X113930000Y-74200000D03*
%TD*%
D11*
%TO.P,R13,1*%
%TO.N,Net-(J1-Pin_1)*%
X97750000Y-62940000D03*
D14*
%TO.P,R13,2*%
%TO.N,Net-(Q1-G)*%
X97750000Y-70560000D03*
%TD*%
D11*
%TO.P,R9,1*%
%TO.N,Net-(C1-Pad2)*%
X64008000Y-76708000D03*
D14*
%TO.P,R9,2*%
%TO.N,Net-(J2-Pin_1)*%
X71628000Y-76708000D03*
%TD*%
D11*
%TO.P,R15,1*%
%TO.N,Net-(J1-Pin_1)*%
X90960000Y-62920000D03*
D14*
%TO.P,R15,2*%
%TO.N,Net-(Q1-G)*%
X90960000Y-70540000D03*
%TD*%
D17*
%TO.P,Q1,1,A1*%
%TO.N,Net-(J1-Pin_1)*%
X76580000Y-60390000D03*
D18*
%TO.P,Q1,2,A2*%
%TO.N,Net-(J2-Pin_1)*%
X79120000Y-60390000D03*
%TO.P,Q1,3,G*%
%TO.N,Net-(Q1-G)*%
X81660000Y-60390000D03*
%TD*%
D10*
%TO.P,U3,1*%
%TO.N,Net-(R22-Pad2)*%
X102450000Y-75400000D03*
D14*
%TO.P,U3,2*%
%TO.N,Net-(D3-A)*%
X102450000Y-77940000D03*
%TO.P,U3,3*%
%TO.N,Net-(Q2-B)*%
X110070000Y-77940000D03*
%TO.P,U3,4*%
%TO.N,Net-(R25-Pad2)*%
X110070000Y-75400000D03*
%TD*%
D11*
%TO.P,R8,1*%
%TO.N,Net-(R7-Pad2)*%
X72390000Y-83566000D03*
D14*
%TO.P,R8,2*%
%TO.N,Net-(J1-Pin_3)*%
X64770000Y-83566000D03*
%TD*%
D15*
%TO.P,JP1,1,A*%
%TO.N,Net-(JP1-A)*%
X147960000Y-87960000D03*
D16*
%TO.P,JP1,2,B*%
%TO.N,Net-(JP1-B)*%
X147960000Y-90500000D03*
%TD*%
D10*
%TO.P,U1,1*%
%TO.N,Net-(R23-Pad2)*%
X110050000Y-69250000D03*
D14*
%TO.P,U1,2*%
%TO.N,GND2*%
X110050000Y-66710000D03*
%TO.P,U1,3,NC*%
%TO.N,unconnected-(U1-NC-Pad3)*%
X110050000Y-64170000D03*
%TO.P,U1,4*%
%TO.N,Net-(R16-Pad1)*%
X102430000Y-64170000D03*
%TO.P,U1,5,NC*%
%TO.N,unconnected-(U1-NC-Pad5)*%
X102430000Y-66710000D03*
%TO.P,U1,6*%
%TO.N,Net-(Q1-G)*%
X102430000Y-69250000D03*
%TD*%
D19*
%TO.P,D2,1,K*%
%TO.N,Net-(D1-K)*%
X91200000Y-83050000D03*
D20*
%TO.P,D2,2,A*%
%TO.N,Net-(D2-A)*%
X91200000Y-90670000D03*
%TD*%
D19*
%TO.P,D3,1,K*%
%TO.N,Net-(D1-A)*%
X98050000Y-90700000D03*
D20*
%TO.P,D3,2,A*%
%TO.N,Net-(D3-A)*%
X98050000Y-83080000D03*
%TD*%
D10*
%TO.P,U2,1*%
%TO.N,Net-(R21-Pad2)*%
X102500000Y-82650000D03*
D14*
%TO.P,U2,2*%
%TO.N,Net-(D3-A)*%
X102500000Y-85190000D03*
%TO.P,U2,3*%
%TO.N,GND*%
X110120000Y-85190000D03*
%TO.P,U2,4*%
%TO.N,Net-(J3-Pin_1)*%
X110120000Y-82650000D03*
%TD*%
D11*
%TO.P,R5,1*%
%TO.N,Net-(D1-A)*%
X72390000Y-93726000D03*
D14*
%TO.P,R5,2*%
%TO.N,Net-(R5-Pad2)*%
X64770000Y-93726000D03*
%TD*%
D19*
%TO.P,D4,1,K*%
%TO.N,Net-(D2-A)*%
X87750000Y-90600000D03*
D20*
%TO.P,D4,2,A*%
%TO.N,Net-(D3-A)*%
X87750000Y-82980000D03*
%TD*%
D19*
%TO.P,D1,1,K*%
%TO.N,Net-(D1-K)*%
X94700000Y-83050000D03*
D20*
%TO.P,D1,2,A*%
%TO.N,Net-(D1-A)*%
X94700000Y-90670000D03*
%TD*%
D15*
%TO.P,JP3,1,A*%
%TO.N,Net-(JP3-A)*%
X136910000Y-87650000D03*
D16*
%TO.P,JP3,2,B*%
%TO.N,Net-(JP1-B)*%
X136910000Y-90190000D03*
%TD*%
D11*
%TO.P,R2,1*%
%TO.N,Net-(R2-Pad1)*%
X76454000Y-84074000D03*
D14*
%TO.P,R2,2*%
%TO.N,Net-(R1-Pad1)*%
X84074000Y-84074000D03*
%TD*%
D21*
%TO.P,Q2,1,E*%
%TO.N,Net-(Q2-E)*%
X118450000Y-82850000D03*
D22*
%TO.P,Q2,2,B*%
%TO.N,Net-(Q2-B)*%
X118450000Y-80310000D03*
%TO.P,Q2,3,C*%
%TO.N,GND2*%
X118450000Y-77770000D03*
%TD*%
D12*
%TO.P,J3,1,Pin_1*%
%TO.N,Net-(J3-Pin_1)*%
X120210000Y-91020000D03*
D13*
%TO.P,J3,2,Pin_2*%
%TO.N,GND*%
X115130000Y-91020000D03*
%TD*%
D11*
%TO.P,R19,1*%
%TO.N,Net-(J4-Pin_1)*%
X136740000Y-67780000D03*
D14*
%TO.P,R19,2*%
%TO.N,Net-(JP3-A)*%
X136740000Y-83020000D03*
%TD*%
D11*
%TO.P,R11,1*%
%TO.N,Net-(C1-Pad2)*%
X64008000Y-69596000D03*
D14*
%TO.P,R11,2*%
%TO.N,Net-(J2-Pin_1)*%
X71628000Y-69596000D03*
%TD*%
D11*
%TO.P,R10,1*%
%TO.N,Net-(C1-Pad2)*%
X64008000Y-73152000D03*
D14*
%TO.P,R10,2*%
%TO.N,Net-(J2-Pin_1)*%
X71628000Y-73152000D03*
%TD*%
D23*
%TO.N,Net-(C1-Pad2)*%
X64008000Y-69596000D02*
X64008000Y-61554000D01*
X64008000Y-61554000D02*
X64262000Y-61300000D01*
%TO.N,Net-(J1-Pin_1)*%
X68580000Y-56896000D02*
X72024000Y-56896000D01*
X60994000Y-56896000D02*
X68580000Y-56896000D01*
X68580000Y-56896000D02*
X67818000Y-57658000D01*
X67818000Y-57658000D02*
X67818000Y-61214000D01*
%TO.N,Net-(C1-Pad2)*%
X64008000Y-69596000D02*
X66040000Y-69596000D01*
X66040000Y-69596000D02*
X67818000Y-67818000D01*
X67818000Y-67818000D02*
X67818000Y-66214000D01*
%TO.N,Net-(R16-Pad1)*%
X102430000Y-61070000D02*
X102430000Y-64170000D01*
X64452000Y-53490000D02*
X87950000Y-53490000D01*
X87950000Y-53490000D02*
X91810000Y-57350000D01*
X98710000Y-57350000D02*
X102430000Y-61070000D01*
X64262000Y-53680000D02*
X64452000Y-53490000D01*
X91810000Y-57350000D02*
X98710000Y-57350000D01*
%TO.N,Net-(J2-Pin_1)*%
X58390000Y-80010000D02*
X71628000Y-80010000D01*
X71628000Y-80010000D02*
X78486000Y-80010000D01*
X71628000Y-76708000D02*
X71628000Y-80010000D01*
%TO.N,Net-(C1-Pad2)*%
X64008000Y-73152000D02*
X64000000Y-73144000D01*
X64000000Y-73144000D02*
X64000000Y-69604000D01*
X64000000Y-69604000D02*
X64008000Y-69596000D01*
%TO.N,Net-(J2-Pin_1)*%
X71628000Y-69596000D02*
X71620000Y-69604000D01*
%TO.N,Net-(C1-Pad2)*%
X64100000Y-69504000D02*
X64008000Y-69596000D01*
%TO.N,Net-(J2-Pin_1)*%
X71620000Y-69604000D02*
X71620000Y-73144000D01*
X71620000Y-73144000D02*
X71628000Y-73152000D01*
X71628000Y-73152000D02*
X71620000Y-73160000D01*
X71620000Y-76700000D02*
X71628000Y-76708000D01*
X71620000Y-73160000D02*
X71620000Y-76700000D01*
%TO.N,Net-(C1-Pad2)*%
X64000000Y-73160000D02*
X64008000Y-73152000D01*
X64000000Y-76700000D02*
X64000000Y-73160000D01*
X64008000Y-76708000D02*
X64000000Y-76700000D01*
%TO.N,Net-(J1-Pin_1)*%
X75200000Y-61770000D02*
X75200000Y-76692000D01*
X75200000Y-76692000D02*
X74930000Y-76962000D01*
%TO.N,Net-(R1-Pad1)*%
X82550000Y-76962000D02*
X82300000Y-77212000D01*
X82300000Y-77212000D02*
X82300000Y-82300000D01*
X82300000Y-82300000D02*
X84074000Y-84074000D01*
%TO.N,Net-(J2-Pin_1)*%
X78486000Y-80010000D02*
X79248000Y-79248000D01*
X79200000Y-60470000D02*
X79200000Y-79200000D01*
X79248000Y-79248000D02*
X79200000Y-79200000D01*
%TO.N,Net-(R2-Pad1)*%
X76454000Y-84074000D02*
X77978000Y-84074000D01*
X77978000Y-84074000D02*
X81534000Y-87630000D01*
X81534000Y-87630000D02*
X83900000Y-87630000D01*
%TO.N,Net-(R3-Pad1)*%
X76280000Y-87630000D02*
X77216000Y-87630000D01*
X77216000Y-87630000D02*
X80518000Y-90932000D01*
X80518000Y-90932000D02*
X83910000Y-90932000D01*
%TO.N,Net-(D2-A)*%
X78232000Y-94234000D02*
X76290000Y-92292000D01*
X86614000Y-94234000D02*
X78232000Y-94234000D01*
X76290000Y-92292000D02*
X76290000Y-90932000D01*
X87750000Y-90600000D02*
X87750000Y-93098000D01*
X87750000Y-93098000D02*
X86614000Y-94234000D01*
%TO.N,Net-(D1-A)*%
X72390000Y-93726000D02*
X72390000Y-94488000D01*
X72390000Y-94488000D02*
X75892000Y-97990000D01*
X75892000Y-97990000D02*
X92820000Y-97990000D01*
X92820000Y-97990000D02*
X94700000Y-96110000D01*
X94700000Y-96110000D02*
X94700000Y-90670000D01*
%TO.N,Net-(J2-Pin_1)*%
X58390000Y-80010000D02*
X58000000Y-80400000D01*
%TO.N,Net-(R7-Pad2)*%
X64770000Y-87122000D02*
X65024000Y-87122000D01*
X65024000Y-87122000D02*
X68580000Y-83566000D01*
X68580000Y-83566000D02*
X72390000Y-83566000D01*
%TO.N,Net-(J1-Pin_3)*%
X63500000Y-83566000D02*
X64770000Y-83566000D01*
X58000000Y-90560000D02*
X59340000Y-90560000D01*
X59340000Y-90560000D02*
X61722000Y-88178000D01*
X61722000Y-88178000D02*
X61722000Y-85344000D01*
X61722000Y-85344000D02*
X63500000Y-83566000D01*
%TO.N,Net-(R6-Pad2)*%
X65376000Y-90424000D02*
X68678000Y-87122000D01*
X64770000Y-90424000D02*
X65376000Y-90424000D01*
X68678000Y-87122000D02*
X72390000Y-87122000D01*
%TO.N,Net-(R5-Pad2)*%
X64770000Y-93726000D02*
X66074000Y-93726000D01*
X66074000Y-93726000D02*
X69376000Y-90424000D01*
X69376000Y-90424000D02*
X72390000Y-90424000D01*
%TO.N,Net-(J1-Pin_1)*%
X57950000Y-61850000D02*
X57950000Y-59940000D01*
X57950000Y-59940000D02*
X60994000Y-56896000D01*
X72024000Y-56896000D02*
X72150000Y-56770000D01*
X94250000Y-62780000D02*
X91100000Y-62780000D01*
X90960000Y-62570000D02*
X90960000Y-62920000D01*
X97630000Y-62820000D02*
X94610000Y-62820000D01*
X72150000Y-56770000D02*
X75770000Y-60390000D01*
X75200000Y-61770000D02*
X76580000Y-60390000D01*
X91100000Y-62780000D02*
X90960000Y-62920000D01*
X97750000Y-62940000D02*
X97630000Y-62820000D01*
X94450000Y-62980000D02*
X94250000Y-62780000D01*
X75770000Y-60390000D02*
X76580000Y-60390000D01*
X72150000Y-56770000D02*
X85160000Y-56770000D01*
X94610000Y-62820000D02*
X94450000Y-62980000D01*
X85160000Y-56770000D02*
X90960000Y-62570000D01*
%TO.N,Net-(JP5-A)*%
X116350000Y-56050000D02*
X116350000Y-57600000D01*
X116350000Y-57600000D02*
X119750000Y-61000000D01*
%TO.N,GND2*%
X114250000Y-53500000D02*
X114300000Y-53550000D01*
X118450000Y-71650000D02*
X118450000Y-68250000D01*
X122100000Y-53550000D02*
X122150000Y-53600000D01*
X118450000Y-71650000D02*
X124500000Y-71650000D01*
X135490000Y-58240000D02*
X130850000Y-53600000D01*
X112700000Y-55050000D02*
X114250000Y-53500000D01*
X122150000Y-53600000D02*
X128000000Y-53600000D01*
X116200000Y-66000000D02*
X112700000Y-66000000D01*
X112700000Y-66000000D02*
X112700000Y-55050000D01*
X111990000Y-66710000D02*
X112700000Y-66000000D01*
X114300000Y-53550000D02*
X116350000Y-53550000D01*
X130850000Y-53600000D02*
X128000000Y-53600000D01*
X124500000Y-71650000D02*
X129600000Y-76750000D01*
X118450000Y-68250000D02*
X116200000Y-66000000D01*
X118450000Y-77770000D02*
X118450000Y-71650000D01*
X116350000Y-53550000D02*
X122100000Y-53550000D01*
X110050000Y-66710000D02*
X111990000Y-66710000D01*
X135490000Y-62150000D02*
X135490000Y-58240000D01*
X129600000Y-76750000D02*
X129600000Y-80250000D01*
%TO.N,Net-(JP6-A)*%
X123800000Y-59100000D02*
X123800000Y-60950000D01*
X122150000Y-56100000D02*
X122150000Y-57450000D01*
X122150000Y-57450000D02*
X123800000Y-59100000D01*
%TO.N,Net-(JP7-A)*%
X128000000Y-60800000D02*
X127850000Y-60950000D01*
X128000000Y-56100000D02*
X128000000Y-60800000D01*
%TO.N,Net-(D1-K)*%
X91200000Y-83050000D02*
X94700000Y-83050000D01*
X91200000Y-80850000D02*
X92250000Y-79800000D01*
X90890000Y-74260000D02*
X91200000Y-73950000D01*
X90900000Y-82750000D02*
X91200000Y-83050000D01*
X90890000Y-78440000D02*
X90890000Y-74260000D01*
X92250000Y-79800000D02*
X90890000Y-78440000D01*
X91200000Y-83050000D02*
X91200000Y-80850000D01*
%TO.N,Net-(D1-A)*%
X98050000Y-93660000D02*
X98470000Y-94080000D01*
X98010000Y-90700000D02*
X98050000Y-90700000D01*
X97980000Y-90670000D02*
X98010000Y-90700000D01*
X94700000Y-90670000D02*
X97980000Y-90670000D01*
X98050000Y-90700000D02*
X98050000Y-93660000D01*
%TO.N,Net-(D2-A)*%
X91200000Y-90670000D02*
X91200000Y-93730000D01*
X91200000Y-93730000D02*
X90850000Y-94080000D01*
X90970000Y-90900000D02*
X88050000Y-90900000D01*
X91200000Y-90670000D02*
X90970000Y-90900000D01*
X88050000Y-90900000D02*
X87750000Y-90600000D01*
%TO.N,Net-(D3-A)*%
X98050000Y-85200000D02*
X97150000Y-86100000D01*
X100950000Y-86740000D02*
X100950000Y-86800000D01*
X98050000Y-83080000D02*
X98050000Y-85200000D01*
X102500000Y-85190000D02*
X100950000Y-86740000D01*
X96750000Y-78550000D02*
X96750000Y-80550000D01*
X101318630Y-77940000D02*
X100328630Y-76950000D01*
X100950000Y-86800000D02*
X97850000Y-86800000D01*
X100328630Y-76950000D02*
X98350000Y-76950000D01*
X102450000Y-77940000D02*
X101318630Y-77940000D01*
X97850000Y-86800000D02*
X97150000Y-86100000D01*
X88650000Y-86100000D02*
X87750000Y-85200000D01*
X96750000Y-80550000D02*
X98050000Y-81850000D01*
X97150000Y-86100000D02*
X88650000Y-86100000D01*
X98050000Y-81850000D02*
X98050000Y-83080000D01*
X98350000Y-76950000D02*
X96750000Y-78550000D01*
X98220000Y-83250000D02*
X98050000Y-83080000D01*
X87750000Y-85200000D02*
X87750000Y-82980000D01*
%TO.N,Net-(J1-Pin_3)*%
X54990000Y-72010000D02*
X52000000Y-75000000D01*
X55910000Y-90560000D02*
X58000000Y-90560000D01*
X57950000Y-72010000D02*
X54990000Y-72010000D01*
X52000000Y-75000000D02*
X52000000Y-86650000D01*
X52000000Y-86650000D02*
X55910000Y-90560000D01*
%TO.N,Net-(J2-Pin_1)*%
X79120000Y-60390000D02*
X79200000Y-60470000D01*
%TO.N,Net-(J3-Pin_1)*%
X116530000Y-86780000D02*
X116640000Y-86780000D01*
X112400000Y-82650000D02*
X116530000Y-86780000D01*
X120210000Y-90350000D02*
X120210000Y-91020000D01*
X116640000Y-86780000D02*
X120210000Y-90350000D01*
X110120000Y-82650000D02*
X112400000Y-82650000D01*
%TO.N,GND*%
X110120000Y-86010000D02*
X115130000Y-91020000D01*
X110120000Y-85190000D02*
X110120000Y-86010000D01*
%TO.N,Net-(J4-Pin_1)*%
X136740000Y-67780000D02*
X140710000Y-67780000D01*
X147230000Y-67830000D02*
X147400000Y-68000000D01*
X140710000Y-67780000D02*
X142100000Y-67780000D01*
X140520000Y-67590000D02*
X140710000Y-67780000D01*
X142150000Y-67830000D02*
X147230000Y-67830000D01*
X140520000Y-62110000D02*
X140520000Y-67590000D01*
X142100000Y-67780000D02*
X142150000Y-67830000D01*
%TO.N,Net-(JP1-A)*%
X147400000Y-83240000D02*
X147400000Y-87400000D01*
X147400000Y-87400000D02*
X147960000Y-87960000D01*
%TO.N,Net-(JP1-B)*%
X139610000Y-89910000D02*
X139610000Y-79920000D01*
X115850000Y-62200000D02*
X117100000Y-63450000D01*
X142320000Y-90190000D02*
X147650000Y-90190000D01*
X132700000Y-74980000D02*
X126820000Y-69100000D01*
X126820000Y-69100000D02*
X125310000Y-69100000D01*
X147650000Y-90190000D02*
X147960000Y-90500000D01*
X139330000Y-90190000D02*
X139610000Y-89910000D01*
X117340000Y-63540000D02*
X119750000Y-63540000D01*
X125310000Y-69100000D02*
X119750000Y-63540000D01*
X119750000Y-63540000D02*
X123750000Y-63540000D01*
X117250000Y-63450000D02*
X117340000Y-63540000D01*
X127850000Y-63490000D02*
X123800000Y-63490000D01*
X137140000Y-77450000D02*
X132700000Y-77450000D01*
X139610000Y-79920000D02*
X137140000Y-77450000D01*
X117100000Y-63450000D02*
X117250000Y-63450000D01*
X132700000Y-77450000D02*
X132700000Y-74980000D01*
X123750000Y-63540000D02*
X123800000Y-63490000D01*
X136910000Y-90190000D02*
X139330000Y-90190000D01*
X139330000Y-90190000D02*
X142320000Y-90190000D01*
%TO.N,Net-(JP2-A)*%
X142150000Y-83070000D02*
X142150000Y-87480000D01*
X142150000Y-87480000D02*
X142320000Y-87650000D01*
%TO.N,Net-(JP3-A)*%
X136740000Y-87480000D02*
X136910000Y-87650000D01*
X136740000Y-83020000D02*
X136740000Y-87480000D01*
%TO.N,Net-(Q1-G)*%
X94550000Y-70700000D02*
X94450000Y-70600000D01*
X94450000Y-70600000D02*
X94350000Y-70700000D01*
X83950000Y-63020000D02*
X83950000Y-68650000D01*
X81660000Y-60390000D02*
X81660000Y-60730000D01*
X91120000Y-70700000D02*
X90960000Y-70540000D01*
X94350000Y-70700000D02*
X91120000Y-70700000D01*
X97610000Y-70700000D02*
X94550000Y-70700000D01*
X97750000Y-70560000D02*
X97610000Y-70700000D01*
X83950000Y-68650000D02*
X85930000Y-70630000D01*
X81660000Y-60730000D02*
X83950000Y-63020000D01*
X97750000Y-70560000D02*
X97820000Y-70630000D01*
X101450000Y-70630000D02*
X102430000Y-69650000D01*
X97820000Y-70630000D02*
X101450000Y-70630000D01*
X85930000Y-70630000D02*
X90870000Y-70630000D01*
X90870000Y-70630000D02*
X90960000Y-70540000D01*
X102430000Y-69650000D02*
X102430000Y-69250000D01*
%TO.N,Net-(Q2-E)*%
X118450000Y-82850000D02*
X123600000Y-82850000D01*
X124450000Y-82000000D02*
X124450000Y-77100000D01*
X124450000Y-77100000D02*
X121550000Y-74200000D01*
X127100000Y-85250000D02*
X132520000Y-85250000D01*
X123600000Y-82850000D02*
X124700000Y-82850000D01*
X132520000Y-85250000D02*
X132700000Y-85070000D01*
X124700000Y-82850000D02*
X127100000Y-85250000D01*
X123600000Y-82850000D02*
X124450000Y-82000000D01*
%TO.N,Net-(Q2-B)*%
X118510000Y-80250000D02*
X118450000Y-80310000D01*
X114410000Y-80310000D02*
X118450000Y-80310000D01*
X110070000Y-77940000D02*
X112040000Y-77940000D01*
X112040000Y-77940000D02*
X114410000Y-80310000D01*
X121980000Y-80250000D02*
X118510000Y-80250000D01*
%TO.N,Net-(R21-Pad2)*%
X102300000Y-82650000D02*
X102500000Y-82650000D01*
X99870000Y-79800000D02*
X99870000Y-80220000D01*
X99870000Y-80220000D02*
X102300000Y-82650000D01*
%TO.N,Net-(R22-Pad2)*%
X98820000Y-73950000D02*
X100900000Y-73950000D01*
X102350000Y-75400000D02*
X102450000Y-75400000D01*
X100900000Y-73950000D02*
X102350000Y-75400000D01*
%TO.N,Net-(R23-Pad2)*%
X110050000Y-69250000D02*
X111120000Y-70320000D01*
X111120000Y-70320000D02*
X115350000Y-70320000D01*
X115350000Y-70320000D02*
X115850000Y-69820000D01*
%TO.N,Net-(R25-Pad2)*%
X110070000Y-75400000D02*
X112730000Y-75400000D01*
X112730000Y-75400000D02*
X113930000Y-74200000D01*
%TD*%
M02*
