%TF.GenerationSoftware,KiCad,Pcbnew,7.0.11+dfsg-1build4*%
%TF.CreationDate,2025-01-27T20:35:56-06:00*%
%TF.ProjectId,TriacControl,54726961-6343-46f6-9e74-726f6c2e6b69,rev?*%
%TF.SameCoordinates,Original*%
%TF.FileFunction,Soldermask,Top*%
%TF.FilePolarity,Negative*%
%FSLAX46Y46*%
G04 Gerber Fmt 4.6, Leading zero omitted, Abs format (unit mm)*
G04 Created by KiCad (PCBNEW 7.0.11+dfsg-1build4) date 2025-01-27 20:35:56*
%MOMM*%
%LPD*%
G01*
G04 APERTURE LIST*
%ADD10O,2.100000X40.000000*%
%ADD11C,3.200000*%
%ADD12R,1.500000X1.500000*%
%ADD13C,1.500000*%
%ADD14R,1.600000X1.600000*%
%ADD15O,1.600000X1.600000*%
%ADD16C,1.600000*%
%ADD17O,1.905000X2.000000*%
%ADD18R,1.905000X2.000000*%
%ADD19R,1.700000X1.700000*%
%ADD20O,1.700000X1.700000*%
%ADD21R,3.000000X3.000000*%
%ADD22C,3.000000*%
%ADD23R,2.200000X2.200000*%
%ADD24O,2.200000X2.200000*%
G04 APERTURE END LIST*
D10*
%TO.C,H5*%
X107210000Y-75440000D03*
%TD*%
D11*
%TO.C,H4*%
X146000000Y-98000000D03*
%TD*%
%TO.C,H3*%
X54000000Y-98000000D03*
%TD*%
%TO.C,H2*%
X146000000Y-54000000D03*
%TD*%
%TO.C,H1*%
X54000000Y-54000000D03*
%TD*%
D12*
%TO.C,Q2*%
X118450000Y-82850000D03*
D13*
X118450000Y-80310000D03*
X118450000Y-77770000D03*
%TD*%
D14*
%TO.C,U3*%
X102450000Y-75400000D03*
D15*
X102450000Y-77940000D03*
X110070000Y-77940000D03*
X110070000Y-75400000D03*
%TD*%
%TO.C,U2*%
X110120000Y-82650000D03*
X110120000Y-85190000D03*
X102500000Y-85190000D03*
D14*
X102500000Y-82650000D03*
%TD*%
%TO.C,U1*%
X110050000Y-69250000D03*
D15*
X110050000Y-66710000D03*
X110050000Y-64170000D03*
X102430000Y-64170000D03*
X102430000Y-66710000D03*
X102430000Y-69250000D03*
%TD*%
D16*
%TO.C,R26*%
X129600000Y-80250000D03*
D15*
X121980000Y-80250000D03*
%TD*%
D16*
%TO.C,R25*%
X121550000Y-74200000D03*
D15*
X113930000Y-74200000D03*
%TD*%
D16*
%TO.C,R24*%
X132700000Y-77450000D03*
D15*
X132700000Y-85070000D03*
%TD*%
D16*
%TO.C,R23*%
X115850000Y-62200000D03*
D15*
X115850000Y-69820000D03*
%TD*%
%TO.C,R22*%
X98820000Y-73950000D03*
D16*
X91200000Y-73950000D03*
%TD*%
%TO.C,R21*%
X92250000Y-79800000D03*
D15*
X99870000Y-79800000D03*
%TD*%
D16*
%TO.C,R20*%
X137350000Y-68830000D03*
D15*
X137350000Y-76450000D03*
%TD*%
%TO.C,R19*%
X140700000Y-76470000D03*
D16*
X140700000Y-68850000D03*
%TD*%
%TO.C,R18*%
X144150000Y-68800000D03*
D15*
X144150000Y-76420000D03*
%TD*%
D16*
%TO.C,R17*%
X147600000Y-68800000D03*
D15*
X147600000Y-76420000D03*
%TD*%
D16*
%TO.C,R16*%
X96250000Y-59950000D03*
D15*
X88630000Y-59950000D03*
%TD*%
D16*
%TO.C,R15*%
X83700000Y-63100000D03*
D15*
X83700000Y-70720000D03*
%TD*%
D16*
%TO.C,R14*%
X87050000Y-63100000D03*
D15*
X87050000Y-70720000D03*
%TD*%
D16*
%TO.C,R13*%
X90350000Y-63100000D03*
D15*
X90350000Y-70720000D03*
%TD*%
D16*
%TO.C,R12*%
X113150000Y-91650000D03*
D15*
X113150000Y-84030000D03*
%TD*%
D16*
%TO.C,R11*%
X64000000Y-67500000D03*
D15*
X71620000Y-67500000D03*
%TD*%
%TO.C,R10*%
X71620000Y-70800000D03*
D16*
X64000000Y-70800000D03*
%TD*%
D15*
%TO.C,R9*%
X71620000Y-74000000D03*
D16*
X64000000Y-74000000D03*
%TD*%
D15*
%TO.C,R8*%
X64980000Y-81600000D03*
D16*
X72600000Y-81600000D03*
%TD*%
%TO.C,R7*%
X72600000Y-84800000D03*
D15*
X64980000Y-84800000D03*
%TD*%
%TO.C,R6*%
X64980000Y-88200000D03*
D16*
X72600000Y-88200000D03*
%TD*%
%TO.C,R5*%
X72500000Y-91600000D03*
D15*
X64880000Y-91600000D03*
%TD*%
D16*
%TO.C,R4*%
X76290000Y-88600000D03*
D15*
X83910000Y-88600000D03*
%TD*%
D16*
%TO.C,R3*%
X76280000Y-85100000D03*
D15*
X83900000Y-85100000D03*
%TD*%
D16*
%TO.C,R2*%
X76180000Y-81700000D03*
D15*
X83800000Y-81700000D03*
%TD*%
D16*
%TO.C,R1*%
X82100000Y-73900000D03*
D15*
X74480000Y-73900000D03*
%TD*%
D17*
%TO.C,Q1*%
X75380000Y-58900000D03*
X72840000Y-58900000D03*
D18*
X70300000Y-58900000D03*
%TD*%
D19*
%TO.C,JP7*%
X127850000Y-60950000D03*
D20*
X127850000Y-63490000D03*
%TD*%
D19*
%TO.C,JP6*%
X123800000Y-60950000D03*
D20*
X123800000Y-63490000D03*
%TD*%
D19*
%TO.C,JP5*%
X119750000Y-61000000D03*
D20*
X119750000Y-63540000D03*
%TD*%
D19*
%TO.C,JP4*%
X136650000Y-80450000D03*
D20*
X136650000Y-82990000D03*
%TD*%
%TO.C,JP3*%
X140400000Y-82990000D03*
D19*
X140400000Y-80450000D03*
%TD*%
%TO.C,JP2*%
X144200000Y-80450000D03*
D20*
X144200000Y-82990000D03*
%TD*%
D19*
%TO.C,JP1*%
X148000000Y-80450000D03*
D20*
X148000000Y-82990000D03*
%TD*%
D21*
%TO.C,J4*%
X145650000Y-62150000D03*
D22*
X140570000Y-62150000D03*
X135490000Y-62150000D03*
%TD*%
D21*
%TO.C,J3*%
X117850000Y-89050000D03*
D22*
X122930000Y-89050000D03*
X128010000Y-89050000D03*
%TD*%
D21*
%TO.C,J2*%
X58000000Y-80400000D03*
D22*
X58000000Y-85480000D03*
X58000000Y-90560000D03*
%TD*%
D21*
%TO.C,J1*%
X57950000Y-61850000D03*
D22*
X57950000Y-66930000D03*
X57950000Y-72010000D03*
%TD*%
D23*
%TO.C,D4*%
X87750000Y-90600000D03*
D24*
X87750000Y-82980000D03*
%TD*%
D23*
%TO.C,D3*%
X98050000Y-90700000D03*
D24*
X98050000Y-83080000D03*
%TD*%
D23*
%TO.C,D2*%
X91200000Y-83050000D03*
D24*
X91200000Y-90670000D03*
%TD*%
D23*
%TO.C,D1*%
X94700000Y-83050000D03*
D24*
X94700000Y-90670000D03*
%TD*%
D14*
%TO.C,C4*%
X128000000Y-56100000D03*
D16*
X128000000Y-53600000D03*
%TD*%
D14*
%TO.C,C3*%
X122150000Y-56100000D03*
D16*
X122150000Y-53600000D03*
%TD*%
D14*
%TO.C,C2*%
X116350000Y-56050000D03*
D16*
X116350000Y-53550000D03*
%TD*%
%TO.C,C1*%
X69100000Y-62900000D03*
X64100000Y-62900000D03*
%TD*%
M02*
