%TF.GenerationSoftware,KiCad,Pcbnew,7.0.11+dfsg-1build4*%
%TF.CreationDate,2025-01-27T21:00:09-06:00*%
%TF.ProjectId,TriacControl,54726961-6343-46f6-9e74-726f6c2e6b69,rev?*%
%TF.SameCoordinates,Original*%
%TF.FileFunction,Legend,Top*%
%TF.FilePolarity,Positive*%
%FSLAX46Y46*%
G04 Gerber Fmt 4.6, Leading zero omitted, Abs format (unit mm)*
G04 Created by KiCad (PCBNEW 7.0.11+dfsg-1build4) date 2025-01-27 21:00:09*
%MOMM*%
%LPD*%
G01*
G04 APERTURE LIST*
%ADD10C,0.100000*%
%ADD11C,0.150000*%
%ADD12C,0.120000*%
G04 APERTURE END LIST*
D10*
X73673884Y-95972419D02*
X73673884Y-94972419D01*
X73673884Y-94972419D02*
X74054836Y-94972419D01*
X74054836Y-94972419D02*
X74150074Y-95020038D01*
X74150074Y-95020038D02*
X74197693Y-95067657D01*
X74197693Y-95067657D02*
X74245312Y-95162895D01*
X74245312Y-95162895D02*
X74245312Y-95305752D01*
X74245312Y-95305752D02*
X74197693Y-95400990D01*
X74197693Y-95400990D02*
X74150074Y-95448609D01*
X74150074Y-95448609D02*
X74054836Y-95496228D01*
X74054836Y-95496228D02*
X73673884Y-95496228D01*
X74578646Y-94972419D02*
X74816741Y-95972419D01*
X74816741Y-95972419D02*
X75007217Y-95258133D01*
X75007217Y-95258133D02*
X75197693Y-95972419D01*
X75197693Y-95972419D02*
X75435789Y-94972419D01*
X75816741Y-95972419D02*
X75816741Y-94972419D01*
X75816741Y-94972419D02*
X76150074Y-95686704D01*
X76150074Y-95686704D02*
X76483407Y-94972419D01*
X76483407Y-94972419D02*
X76483407Y-95972419D01*
X77578646Y-94972419D02*
X78150074Y-94972419D01*
X77864360Y-95972419D02*
X77864360Y-94972419D01*
X79054836Y-95972419D02*
X78721503Y-95496228D01*
X78483408Y-95972419D02*
X78483408Y-94972419D01*
X78483408Y-94972419D02*
X78864360Y-94972419D01*
X78864360Y-94972419D02*
X78959598Y-95020038D01*
X78959598Y-95020038D02*
X79007217Y-95067657D01*
X79007217Y-95067657D02*
X79054836Y-95162895D01*
X79054836Y-95162895D02*
X79054836Y-95305752D01*
X79054836Y-95305752D02*
X79007217Y-95400990D01*
X79007217Y-95400990D02*
X78959598Y-95448609D01*
X78959598Y-95448609D02*
X78864360Y-95496228D01*
X78864360Y-95496228D02*
X78483408Y-95496228D01*
X79483408Y-95972419D02*
X79483408Y-94972419D01*
X79911979Y-95686704D02*
X80388169Y-95686704D01*
X79816741Y-95972419D02*
X80150074Y-94972419D01*
X80150074Y-94972419D02*
X80483407Y-95972419D01*
X81388169Y-95877180D02*
X81340550Y-95924800D01*
X81340550Y-95924800D02*
X81197693Y-95972419D01*
X81197693Y-95972419D02*
X81102455Y-95972419D01*
X81102455Y-95972419D02*
X80959598Y-95924800D01*
X80959598Y-95924800D02*
X80864360Y-95829561D01*
X80864360Y-95829561D02*
X80816741Y-95734323D01*
X80816741Y-95734323D02*
X80769122Y-95543847D01*
X80769122Y-95543847D02*
X80769122Y-95400990D01*
X80769122Y-95400990D02*
X80816741Y-95210514D01*
X80816741Y-95210514D02*
X80864360Y-95115276D01*
X80864360Y-95115276D02*
X80959598Y-95020038D01*
X80959598Y-95020038D02*
X81102455Y-94972419D01*
X81102455Y-94972419D02*
X81197693Y-94972419D01*
X81197693Y-94972419D02*
X81340550Y-95020038D01*
X81340550Y-95020038D02*
X81388169Y-95067657D01*
X83150074Y-95877180D02*
X83102455Y-95924800D01*
X83102455Y-95924800D02*
X82959598Y-95972419D01*
X82959598Y-95972419D02*
X82864360Y-95972419D01*
X82864360Y-95972419D02*
X82721503Y-95924800D01*
X82721503Y-95924800D02*
X82626265Y-95829561D01*
X82626265Y-95829561D02*
X82578646Y-95734323D01*
X82578646Y-95734323D02*
X82531027Y-95543847D01*
X82531027Y-95543847D02*
X82531027Y-95400990D01*
X82531027Y-95400990D02*
X82578646Y-95210514D01*
X82578646Y-95210514D02*
X82626265Y-95115276D01*
X82626265Y-95115276D02*
X82721503Y-95020038D01*
X82721503Y-95020038D02*
X82864360Y-94972419D01*
X82864360Y-94972419D02*
X82959598Y-94972419D01*
X82959598Y-94972419D02*
X83102455Y-95020038D01*
X83102455Y-95020038D02*
X83150074Y-95067657D01*
X83769122Y-94972419D02*
X83959598Y-94972419D01*
X83959598Y-94972419D02*
X84054836Y-95020038D01*
X84054836Y-95020038D02*
X84150074Y-95115276D01*
X84150074Y-95115276D02*
X84197693Y-95305752D01*
X84197693Y-95305752D02*
X84197693Y-95639085D01*
X84197693Y-95639085D02*
X84150074Y-95829561D01*
X84150074Y-95829561D02*
X84054836Y-95924800D01*
X84054836Y-95924800D02*
X83959598Y-95972419D01*
X83959598Y-95972419D02*
X83769122Y-95972419D01*
X83769122Y-95972419D02*
X83673884Y-95924800D01*
X83673884Y-95924800D02*
X83578646Y-95829561D01*
X83578646Y-95829561D02*
X83531027Y-95639085D01*
X83531027Y-95639085D02*
X83531027Y-95305752D01*
X83531027Y-95305752D02*
X83578646Y-95115276D01*
X83578646Y-95115276D02*
X83673884Y-95020038D01*
X83673884Y-95020038D02*
X83769122Y-94972419D01*
X84626265Y-95972419D02*
X84626265Y-94972419D01*
X84626265Y-94972419D02*
X85197693Y-95972419D01*
X85197693Y-95972419D02*
X85197693Y-94972419D01*
X85531027Y-94972419D02*
X86102455Y-94972419D01*
X85816741Y-95972419D02*
X85816741Y-94972419D01*
X87007217Y-95972419D02*
X86673884Y-95496228D01*
X86435789Y-95972419D02*
X86435789Y-94972419D01*
X86435789Y-94972419D02*
X86816741Y-94972419D01*
X86816741Y-94972419D02*
X86911979Y-95020038D01*
X86911979Y-95020038D02*
X86959598Y-95067657D01*
X86959598Y-95067657D02*
X87007217Y-95162895D01*
X87007217Y-95162895D02*
X87007217Y-95305752D01*
X87007217Y-95305752D02*
X86959598Y-95400990D01*
X86959598Y-95400990D02*
X86911979Y-95448609D01*
X86911979Y-95448609D02*
X86816741Y-95496228D01*
X86816741Y-95496228D02*
X86435789Y-95496228D01*
X87626265Y-94972419D02*
X87816741Y-94972419D01*
X87816741Y-94972419D02*
X87911979Y-95020038D01*
X87911979Y-95020038D02*
X88007217Y-95115276D01*
X88007217Y-95115276D02*
X88054836Y-95305752D01*
X88054836Y-95305752D02*
X88054836Y-95639085D01*
X88054836Y-95639085D02*
X88007217Y-95829561D01*
X88007217Y-95829561D02*
X87911979Y-95924800D01*
X87911979Y-95924800D02*
X87816741Y-95972419D01*
X87816741Y-95972419D02*
X87626265Y-95972419D01*
X87626265Y-95972419D02*
X87531027Y-95924800D01*
X87531027Y-95924800D02*
X87435789Y-95829561D01*
X87435789Y-95829561D02*
X87388170Y-95639085D01*
X87388170Y-95639085D02*
X87388170Y-95305752D01*
X87388170Y-95305752D02*
X87435789Y-95115276D01*
X87435789Y-95115276D02*
X87531027Y-95020038D01*
X87531027Y-95020038D02*
X87626265Y-94972419D01*
X88959598Y-95972419D02*
X88483408Y-95972419D01*
X88483408Y-95972419D02*
X88483408Y-94972419D01*
X89769122Y-95972419D02*
X89292932Y-95972419D01*
X89292932Y-95972419D02*
X89292932Y-94972419D01*
X90102456Y-95448609D02*
X90435789Y-95448609D01*
X90578646Y-95972419D02*
X90102456Y-95972419D01*
X90102456Y-95972419D02*
X90102456Y-94972419D01*
X90102456Y-94972419D02*
X90578646Y-94972419D01*
X91578646Y-95972419D02*
X91245313Y-95496228D01*
X91007218Y-95972419D02*
X91007218Y-94972419D01*
X91007218Y-94972419D02*
X91388170Y-94972419D01*
X91388170Y-94972419D02*
X91483408Y-95020038D01*
X91483408Y-95020038D02*
X91531027Y-95067657D01*
X91531027Y-95067657D02*
X91578646Y-95162895D01*
X91578646Y-95162895D02*
X91578646Y-95305752D01*
X91578646Y-95305752D02*
X91531027Y-95400990D01*
X91531027Y-95400990D02*
X91483408Y-95448609D01*
X91483408Y-95448609D02*
X91388170Y-95496228D01*
X91388170Y-95496228D02*
X91007218Y-95496228D01*
X93102456Y-95448609D02*
X93245313Y-95496228D01*
X93245313Y-95496228D02*
X93292932Y-95543847D01*
X93292932Y-95543847D02*
X93340551Y-95639085D01*
X93340551Y-95639085D02*
X93340551Y-95781942D01*
X93340551Y-95781942D02*
X93292932Y-95877180D01*
X93292932Y-95877180D02*
X93245313Y-95924800D01*
X93245313Y-95924800D02*
X93150075Y-95972419D01*
X93150075Y-95972419D02*
X92769123Y-95972419D01*
X92769123Y-95972419D02*
X92769123Y-94972419D01*
X92769123Y-94972419D02*
X93102456Y-94972419D01*
X93102456Y-94972419D02*
X93197694Y-95020038D01*
X93197694Y-95020038D02*
X93245313Y-95067657D01*
X93245313Y-95067657D02*
X93292932Y-95162895D01*
X93292932Y-95162895D02*
X93292932Y-95258133D01*
X93292932Y-95258133D02*
X93245313Y-95353371D01*
X93245313Y-95353371D02*
X93197694Y-95400990D01*
X93197694Y-95400990D02*
X93102456Y-95448609D01*
X93102456Y-95448609D02*
X92769123Y-95448609D01*
X93959599Y-95496228D02*
X93959599Y-95972419D01*
X93626266Y-94972419D02*
X93959599Y-95496228D01*
X93959599Y-95496228D02*
X94292932Y-94972419D01*
X95388171Y-95972419D02*
X95388171Y-94972419D01*
X95388171Y-94972419D02*
X95626266Y-94972419D01*
X95626266Y-94972419D02*
X95769123Y-95020038D01*
X95769123Y-95020038D02*
X95864361Y-95115276D01*
X95864361Y-95115276D02*
X95911980Y-95210514D01*
X95911980Y-95210514D02*
X95959599Y-95400990D01*
X95959599Y-95400990D02*
X95959599Y-95543847D01*
X95959599Y-95543847D02*
X95911980Y-95734323D01*
X95911980Y-95734323D02*
X95864361Y-95829561D01*
X95864361Y-95829561D02*
X95769123Y-95924800D01*
X95769123Y-95924800D02*
X95626266Y-95972419D01*
X95626266Y-95972419D02*
X95388171Y-95972419D01*
X96388171Y-95877180D02*
X96435790Y-95924800D01*
X96435790Y-95924800D02*
X96388171Y-95972419D01*
X96388171Y-95972419D02*
X96340552Y-95924800D01*
X96340552Y-95924800D02*
X96388171Y-95877180D01*
X96388171Y-95877180D02*
X96388171Y-95972419D01*
X97626266Y-95972419D02*
X97626266Y-94972419D01*
X97626266Y-94972419D02*
X97959599Y-95686704D01*
X97959599Y-95686704D02*
X98292932Y-94972419D01*
X98292932Y-94972419D02*
X98292932Y-95972419D01*
X98721504Y-95686704D02*
X99197694Y-95686704D01*
X98626266Y-95972419D02*
X98959599Y-94972419D01*
X98959599Y-94972419D02*
X99292932Y-95972419D01*
X100197694Y-95972419D02*
X99864361Y-95496228D01*
X99626266Y-95972419D02*
X99626266Y-94972419D01*
X99626266Y-94972419D02*
X100007218Y-94972419D01*
X100007218Y-94972419D02*
X100102456Y-95020038D01*
X100102456Y-95020038D02*
X100150075Y-95067657D01*
X100150075Y-95067657D02*
X100197694Y-95162895D01*
X100197694Y-95162895D02*
X100197694Y-95305752D01*
X100197694Y-95305752D02*
X100150075Y-95400990D01*
X100150075Y-95400990D02*
X100102456Y-95448609D01*
X100102456Y-95448609D02*
X100007218Y-95496228D01*
X100007218Y-95496228D02*
X99626266Y-95496228D01*
X100626266Y-95972419D02*
X100626266Y-94972419D01*
X101197694Y-95972419D02*
X100769123Y-95400990D01*
X101197694Y-94972419D02*
X100626266Y-95543847D01*
X101578647Y-95924800D02*
X101721504Y-95972419D01*
X101721504Y-95972419D02*
X101959599Y-95972419D01*
X101959599Y-95972419D02*
X102054837Y-95924800D01*
X102054837Y-95924800D02*
X102102456Y-95877180D01*
X102102456Y-95877180D02*
X102150075Y-95781942D01*
X102150075Y-95781942D02*
X102150075Y-95686704D01*
X102150075Y-95686704D02*
X102102456Y-95591466D01*
X102102456Y-95591466D02*
X102054837Y-95543847D01*
X102054837Y-95543847D02*
X101959599Y-95496228D01*
X101959599Y-95496228D02*
X101769123Y-95448609D01*
X101769123Y-95448609D02*
X101673885Y-95400990D01*
X101673885Y-95400990D02*
X101626266Y-95353371D01*
X101626266Y-95353371D02*
X101578647Y-95258133D01*
X101578647Y-95258133D02*
X101578647Y-95162895D01*
X101578647Y-95162895D02*
X101626266Y-95067657D01*
X101626266Y-95067657D02*
X101673885Y-95020038D01*
X101673885Y-95020038D02*
X101769123Y-94972419D01*
X101769123Y-94972419D02*
X102007218Y-94972419D01*
X102007218Y-94972419D02*
X102150075Y-95020038D01*
X74245312Y-97487180D02*
X74197693Y-97534800D01*
X74197693Y-97534800D02*
X74054836Y-97582419D01*
X74054836Y-97582419D02*
X73959598Y-97582419D01*
X73959598Y-97582419D02*
X73816741Y-97534800D01*
X73816741Y-97534800D02*
X73721503Y-97439561D01*
X73721503Y-97439561D02*
X73673884Y-97344323D01*
X73673884Y-97344323D02*
X73626265Y-97153847D01*
X73626265Y-97153847D02*
X73626265Y-97010990D01*
X73626265Y-97010990D02*
X73673884Y-96820514D01*
X73673884Y-96820514D02*
X73721503Y-96725276D01*
X73721503Y-96725276D02*
X73816741Y-96630038D01*
X73816741Y-96630038D02*
X73959598Y-96582419D01*
X73959598Y-96582419D02*
X74054836Y-96582419D01*
X74054836Y-96582419D02*
X74197693Y-96630038D01*
X74197693Y-96630038D02*
X74245312Y-96677657D01*
X75245312Y-97487180D02*
X75197693Y-97534800D01*
X75197693Y-97534800D02*
X75054836Y-97582419D01*
X75054836Y-97582419D02*
X74959598Y-97582419D01*
X74959598Y-97582419D02*
X74816741Y-97534800D01*
X74816741Y-97534800D02*
X74721503Y-97439561D01*
X74721503Y-97439561D02*
X74673884Y-97344323D01*
X74673884Y-97344323D02*
X74626265Y-97153847D01*
X74626265Y-97153847D02*
X74626265Y-97010990D01*
X74626265Y-97010990D02*
X74673884Y-96820514D01*
X74673884Y-96820514D02*
X74721503Y-96725276D01*
X74721503Y-96725276D02*
X74816741Y-96630038D01*
X74816741Y-96630038D02*
X74959598Y-96582419D01*
X74959598Y-96582419D02*
X75054836Y-96582419D01*
X75054836Y-96582419D02*
X75197693Y-96630038D01*
X75197693Y-96630038D02*
X75245312Y-96677657D01*
X75673884Y-97201466D02*
X76435789Y-97201466D01*
X77245312Y-97058609D02*
X77388169Y-97106228D01*
X77388169Y-97106228D02*
X77435788Y-97153847D01*
X77435788Y-97153847D02*
X77483407Y-97249085D01*
X77483407Y-97249085D02*
X77483407Y-97391942D01*
X77483407Y-97391942D02*
X77435788Y-97487180D01*
X77435788Y-97487180D02*
X77388169Y-97534800D01*
X77388169Y-97534800D02*
X77292931Y-97582419D01*
X77292931Y-97582419D02*
X76911979Y-97582419D01*
X76911979Y-97582419D02*
X76911979Y-96582419D01*
X76911979Y-96582419D02*
X77245312Y-96582419D01*
X77245312Y-96582419D02*
X77340550Y-96630038D01*
X77340550Y-96630038D02*
X77388169Y-96677657D01*
X77388169Y-96677657D02*
X77435788Y-96772895D01*
X77435788Y-96772895D02*
X77435788Y-96868133D01*
X77435788Y-96868133D02*
X77388169Y-96963371D01*
X77388169Y-96963371D02*
X77340550Y-97010990D01*
X77340550Y-97010990D02*
X77245312Y-97058609D01*
X77245312Y-97058609D02*
X76911979Y-97058609D01*
X78102455Y-97106228D02*
X78102455Y-97582419D01*
X77769122Y-96582419D02*
X78102455Y-97106228D01*
X78102455Y-97106228D02*
X78435788Y-96582419D01*
X78769122Y-97201466D02*
X79531027Y-97201466D01*
X79959598Y-97534800D02*
X80102455Y-97582419D01*
X80102455Y-97582419D02*
X80340550Y-97582419D01*
X80340550Y-97582419D02*
X80435788Y-97534800D01*
X80435788Y-97534800D02*
X80483407Y-97487180D01*
X80483407Y-97487180D02*
X80531026Y-97391942D01*
X80531026Y-97391942D02*
X80531026Y-97296704D01*
X80531026Y-97296704D02*
X80483407Y-97201466D01*
X80483407Y-97201466D02*
X80435788Y-97153847D01*
X80435788Y-97153847D02*
X80340550Y-97106228D01*
X80340550Y-97106228D02*
X80150074Y-97058609D01*
X80150074Y-97058609D02*
X80054836Y-97010990D01*
X80054836Y-97010990D02*
X80007217Y-96963371D01*
X80007217Y-96963371D02*
X79959598Y-96868133D01*
X79959598Y-96868133D02*
X79959598Y-96772895D01*
X79959598Y-96772895D02*
X80007217Y-96677657D01*
X80007217Y-96677657D02*
X80054836Y-96630038D01*
X80054836Y-96630038D02*
X80150074Y-96582419D01*
X80150074Y-96582419D02*
X80388169Y-96582419D01*
X80388169Y-96582419D02*
X80531026Y-96630038D01*
X80911979Y-97296704D02*
X81388169Y-97296704D01*
X80816741Y-97582419D02*
X81150074Y-96582419D01*
X81150074Y-96582419D02*
X81483407Y-97582419D01*
X83007217Y-96915752D02*
X83007217Y-97582419D01*
X82769122Y-96534800D02*
X82531027Y-97249085D01*
X82531027Y-97249085D02*
X83150074Y-97249085D01*
X83531027Y-97487180D02*
X83578646Y-97534800D01*
X83578646Y-97534800D02*
X83531027Y-97582419D01*
X83531027Y-97582419D02*
X83483408Y-97534800D01*
X83483408Y-97534800D02*
X83531027Y-97487180D01*
X83531027Y-97487180D02*
X83531027Y-97582419D01*
X84197693Y-96582419D02*
X84292931Y-96582419D01*
X84292931Y-96582419D02*
X84388169Y-96630038D01*
X84388169Y-96630038D02*
X84435788Y-96677657D01*
X84435788Y-96677657D02*
X84483407Y-96772895D01*
X84483407Y-96772895D02*
X84531026Y-96963371D01*
X84531026Y-96963371D02*
X84531026Y-97201466D01*
X84531026Y-97201466D02*
X84483407Y-97391942D01*
X84483407Y-97391942D02*
X84435788Y-97487180D01*
X84435788Y-97487180D02*
X84388169Y-97534800D01*
X84388169Y-97534800D02*
X84292931Y-97582419D01*
X84292931Y-97582419D02*
X84197693Y-97582419D01*
X84197693Y-97582419D02*
X84102455Y-97534800D01*
X84102455Y-97534800D02*
X84054836Y-97487180D01*
X84054836Y-97487180D02*
X84007217Y-97391942D01*
X84007217Y-97391942D02*
X83959598Y-97201466D01*
X83959598Y-97201466D02*
X83959598Y-96963371D01*
X83959598Y-96963371D02*
X84007217Y-96772895D01*
X84007217Y-96772895D02*
X84054836Y-96677657D01*
X84054836Y-96677657D02*
X84102455Y-96630038D01*
X84102455Y-96630038D02*
X84197693Y-96582419D01*
X73626265Y-98906704D02*
X74102455Y-98906704D01*
X73531027Y-99192419D02*
X73864360Y-98192419D01*
X73864360Y-98192419D02*
X74197693Y-99192419D01*
X75007217Y-99192419D02*
X74531027Y-99192419D01*
X74531027Y-99192419D02*
X74531027Y-98192419D01*
X75816741Y-99192419D02*
X75340551Y-99192419D01*
X75340551Y-99192419D02*
X75340551Y-98192419D01*
X77483408Y-99192419D02*
X77150075Y-98716228D01*
X76911980Y-99192419D02*
X76911980Y-98192419D01*
X76911980Y-98192419D02*
X77292932Y-98192419D01*
X77292932Y-98192419D02*
X77388170Y-98240038D01*
X77388170Y-98240038D02*
X77435789Y-98287657D01*
X77435789Y-98287657D02*
X77483408Y-98382895D01*
X77483408Y-98382895D02*
X77483408Y-98525752D01*
X77483408Y-98525752D02*
X77435789Y-98620990D01*
X77435789Y-98620990D02*
X77388170Y-98668609D01*
X77388170Y-98668609D02*
X77292932Y-98716228D01*
X77292932Y-98716228D02*
X76911980Y-98716228D01*
X77911980Y-99192419D02*
X77911980Y-98192419D01*
X78340551Y-99144800D02*
X78483408Y-99192419D01*
X78483408Y-99192419D02*
X78721503Y-99192419D01*
X78721503Y-99192419D02*
X78816741Y-99144800D01*
X78816741Y-99144800D02*
X78864360Y-99097180D01*
X78864360Y-99097180D02*
X78911979Y-99001942D01*
X78911979Y-99001942D02*
X78911979Y-98906704D01*
X78911979Y-98906704D02*
X78864360Y-98811466D01*
X78864360Y-98811466D02*
X78816741Y-98763847D01*
X78816741Y-98763847D02*
X78721503Y-98716228D01*
X78721503Y-98716228D02*
X78531027Y-98668609D01*
X78531027Y-98668609D02*
X78435789Y-98620990D01*
X78435789Y-98620990D02*
X78388170Y-98573371D01*
X78388170Y-98573371D02*
X78340551Y-98478133D01*
X78340551Y-98478133D02*
X78340551Y-98382895D01*
X78340551Y-98382895D02*
X78388170Y-98287657D01*
X78388170Y-98287657D02*
X78435789Y-98240038D01*
X78435789Y-98240038D02*
X78531027Y-98192419D01*
X78531027Y-98192419D02*
X78769122Y-98192419D01*
X78769122Y-98192419D02*
X78911979Y-98240038D01*
X79340551Y-99192419D02*
X79340551Y-98192419D01*
X79911979Y-99192419D02*
X79483408Y-98620990D01*
X79911979Y-98192419D02*
X79340551Y-98763847D01*
X81102456Y-99192419D02*
X81102456Y-98192419D01*
X81531027Y-99144800D02*
X81673884Y-99192419D01*
X81673884Y-99192419D02*
X81911979Y-99192419D01*
X81911979Y-99192419D02*
X82007217Y-99144800D01*
X82007217Y-99144800D02*
X82054836Y-99097180D01*
X82054836Y-99097180D02*
X82102455Y-99001942D01*
X82102455Y-99001942D02*
X82102455Y-98906704D01*
X82102455Y-98906704D02*
X82054836Y-98811466D01*
X82054836Y-98811466D02*
X82007217Y-98763847D01*
X82007217Y-98763847D02*
X81911979Y-98716228D01*
X81911979Y-98716228D02*
X81721503Y-98668609D01*
X81721503Y-98668609D02*
X81626265Y-98620990D01*
X81626265Y-98620990D02*
X81578646Y-98573371D01*
X81578646Y-98573371D02*
X81531027Y-98478133D01*
X81531027Y-98478133D02*
X81531027Y-98382895D01*
X81531027Y-98382895D02*
X81578646Y-98287657D01*
X81578646Y-98287657D02*
X81626265Y-98240038D01*
X81626265Y-98240038D02*
X81721503Y-98192419D01*
X81721503Y-98192419D02*
X81959598Y-98192419D01*
X81959598Y-98192419D02*
X82102455Y-98240038D01*
X83245313Y-98906704D02*
X83721503Y-98906704D01*
X83150075Y-99192419D02*
X83483408Y-98192419D01*
X83483408Y-98192419D02*
X83816741Y-99192419D01*
X84102456Y-99144800D02*
X84245313Y-99192419D01*
X84245313Y-99192419D02*
X84483408Y-99192419D01*
X84483408Y-99192419D02*
X84578646Y-99144800D01*
X84578646Y-99144800D02*
X84626265Y-99097180D01*
X84626265Y-99097180D02*
X84673884Y-99001942D01*
X84673884Y-99001942D02*
X84673884Y-98906704D01*
X84673884Y-98906704D02*
X84626265Y-98811466D01*
X84626265Y-98811466D02*
X84578646Y-98763847D01*
X84578646Y-98763847D02*
X84483408Y-98716228D01*
X84483408Y-98716228D02*
X84292932Y-98668609D01*
X84292932Y-98668609D02*
X84197694Y-98620990D01*
X84197694Y-98620990D02*
X84150075Y-98573371D01*
X84150075Y-98573371D02*
X84102456Y-98478133D01*
X84102456Y-98478133D02*
X84102456Y-98382895D01*
X84102456Y-98382895D02*
X84150075Y-98287657D01*
X84150075Y-98287657D02*
X84197694Y-98240038D01*
X84197694Y-98240038D02*
X84292932Y-98192419D01*
X84292932Y-98192419D02*
X84531027Y-98192419D01*
X84531027Y-98192419D02*
X84673884Y-98240038D01*
X85054837Y-99144800D02*
X85197694Y-99192419D01*
X85197694Y-99192419D02*
X85435789Y-99192419D01*
X85435789Y-99192419D02*
X85531027Y-99144800D01*
X85531027Y-99144800D02*
X85578646Y-99097180D01*
X85578646Y-99097180D02*
X85626265Y-99001942D01*
X85626265Y-99001942D02*
X85626265Y-98906704D01*
X85626265Y-98906704D02*
X85578646Y-98811466D01*
X85578646Y-98811466D02*
X85531027Y-98763847D01*
X85531027Y-98763847D02*
X85435789Y-98716228D01*
X85435789Y-98716228D02*
X85245313Y-98668609D01*
X85245313Y-98668609D02*
X85150075Y-98620990D01*
X85150075Y-98620990D02*
X85102456Y-98573371D01*
X85102456Y-98573371D02*
X85054837Y-98478133D01*
X85054837Y-98478133D02*
X85054837Y-98382895D01*
X85054837Y-98382895D02*
X85102456Y-98287657D01*
X85102456Y-98287657D02*
X85150075Y-98240038D01*
X85150075Y-98240038D02*
X85245313Y-98192419D01*
X85245313Y-98192419D02*
X85483408Y-98192419D01*
X85483408Y-98192419D02*
X85626265Y-98240038D01*
X86054837Y-98192419D02*
X86054837Y-99001942D01*
X86054837Y-99001942D02*
X86102456Y-99097180D01*
X86102456Y-99097180D02*
X86150075Y-99144800D01*
X86150075Y-99144800D02*
X86245313Y-99192419D01*
X86245313Y-99192419D02*
X86435789Y-99192419D01*
X86435789Y-99192419D02*
X86531027Y-99144800D01*
X86531027Y-99144800D02*
X86578646Y-99097180D01*
X86578646Y-99097180D02*
X86626265Y-99001942D01*
X86626265Y-99001942D02*
X86626265Y-98192419D01*
X87102456Y-99192419D02*
X87102456Y-98192419D01*
X87102456Y-98192419D02*
X87435789Y-98906704D01*
X87435789Y-98906704D02*
X87769122Y-98192419D01*
X87769122Y-98192419D02*
X87769122Y-99192419D01*
X88245313Y-98668609D02*
X88578646Y-98668609D01*
X88721503Y-99192419D02*
X88245313Y-99192419D01*
X88245313Y-99192419D02*
X88245313Y-98192419D01*
X88245313Y-98192419D02*
X88721503Y-98192419D01*
X89150075Y-99192419D02*
X89150075Y-98192419D01*
X89150075Y-98192419D02*
X89388170Y-98192419D01*
X89388170Y-98192419D02*
X89531027Y-98240038D01*
X89531027Y-98240038D02*
X89626265Y-98335276D01*
X89626265Y-98335276D02*
X89673884Y-98430514D01*
X89673884Y-98430514D02*
X89721503Y-98620990D01*
X89721503Y-98620990D02*
X89721503Y-98763847D01*
X89721503Y-98763847D02*
X89673884Y-98954323D01*
X89673884Y-98954323D02*
X89626265Y-99049561D01*
X89626265Y-99049561D02*
X89531027Y-99144800D01*
X89531027Y-99144800D02*
X89388170Y-99192419D01*
X89388170Y-99192419D02*
X89150075Y-99192419D01*
X91245313Y-98668609D02*
X91388170Y-98716228D01*
X91388170Y-98716228D02*
X91435789Y-98763847D01*
X91435789Y-98763847D02*
X91483408Y-98859085D01*
X91483408Y-98859085D02*
X91483408Y-99001942D01*
X91483408Y-99001942D02*
X91435789Y-99097180D01*
X91435789Y-99097180D02*
X91388170Y-99144800D01*
X91388170Y-99144800D02*
X91292932Y-99192419D01*
X91292932Y-99192419D02*
X90911980Y-99192419D01*
X90911980Y-99192419D02*
X90911980Y-98192419D01*
X90911980Y-98192419D02*
X91245313Y-98192419D01*
X91245313Y-98192419D02*
X91340551Y-98240038D01*
X91340551Y-98240038D02*
X91388170Y-98287657D01*
X91388170Y-98287657D02*
X91435789Y-98382895D01*
X91435789Y-98382895D02*
X91435789Y-98478133D01*
X91435789Y-98478133D02*
X91388170Y-98573371D01*
X91388170Y-98573371D02*
X91340551Y-98620990D01*
X91340551Y-98620990D02*
X91245313Y-98668609D01*
X91245313Y-98668609D02*
X90911980Y-98668609D01*
X92102456Y-98716228D02*
X92102456Y-99192419D01*
X91769123Y-98192419D02*
X92102456Y-98716228D01*
X92102456Y-98716228D02*
X92435789Y-98192419D01*
X93531028Y-98192419D02*
X93531028Y-99001942D01*
X93531028Y-99001942D02*
X93578647Y-99097180D01*
X93578647Y-99097180D02*
X93626266Y-99144800D01*
X93626266Y-99144800D02*
X93721504Y-99192419D01*
X93721504Y-99192419D02*
X93911980Y-99192419D01*
X93911980Y-99192419D02*
X94007218Y-99144800D01*
X94007218Y-99144800D02*
X94054837Y-99097180D01*
X94054837Y-99097180D02*
X94102456Y-99001942D01*
X94102456Y-99001942D02*
X94102456Y-98192419D01*
X94531028Y-99144800D02*
X94673885Y-99192419D01*
X94673885Y-99192419D02*
X94911980Y-99192419D01*
X94911980Y-99192419D02*
X95007218Y-99144800D01*
X95007218Y-99144800D02*
X95054837Y-99097180D01*
X95054837Y-99097180D02*
X95102456Y-99001942D01*
X95102456Y-99001942D02*
X95102456Y-98906704D01*
X95102456Y-98906704D02*
X95054837Y-98811466D01*
X95054837Y-98811466D02*
X95007218Y-98763847D01*
X95007218Y-98763847D02*
X94911980Y-98716228D01*
X94911980Y-98716228D02*
X94721504Y-98668609D01*
X94721504Y-98668609D02*
X94626266Y-98620990D01*
X94626266Y-98620990D02*
X94578647Y-98573371D01*
X94578647Y-98573371D02*
X94531028Y-98478133D01*
X94531028Y-98478133D02*
X94531028Y-98382895D01*
X94531028Y-98382895D02*
X94578647Y-98287657D01*
X94578647Y-98287657D02*
X94626266Y-98240038D01*
X94626266Y-98240038D02*
X94721504Y-98192419D01*
X94721504Y-98192419D02*
X94959599Y-98192419D01*
X94959599Y-98192419D02*
X95102456Y-98240038D01*
X95531028Y-98668609D02*
X95864361Y-98668609D01*
X96007218Y-99192419D02*
X95531028Y-99192419D01*
X95531028Y-99192419D02*
X95531028Y-98192419D01*
X95531028Y-98192419D02*
X96007218Y-98192419D01*
X97007218Y-99192419D02*
X96673885Y-98716228D01*
X96435790Y-99192419D02*
X96435790Y-98192419D01*
X96435790Y-98192419D02*
X96816742Y-98192419D01*
X96816742Y-98192419D02*
X96911980Y-98240038D01*
X96911980Y-98240038D02*
X96959599Y-98287657D01*
X96959599Y-98287657D02*
X97007218Y-98382895D01*
X97007218Y-98382895D02*
X97007218Y-98525752D01*
X97007218Y-98525752D02*
X96959599Y-98620990D01*
X96959599Y-98620990D02*
X96911980Y-98668609D01*
X96911980Y-98668609D02*
X96816742Y-98716228D01*
X96816742Y-98716228D02*
X96435790Y-98716228D01*
X73673884Y-100802419D02*
X73673884Y-99802419D01*
X73673884Y-100278609D02*
X74245312Y-100278609D01*
X74245312Y-100802419D02*
X74245312Y-99802419D01*
X74721503Y-100802419D02*
X74721503Y-99802419D01*
X75721502Y-99850038D02*
X75626264Y-99802419D01*
X75626264Y-99802419D02*
X75483407Y-99802419D01*
X75483407Y-99802419D02*
X75340550Y-99850038D01*
X75340550Y-99850038D02*
X75245312Y-99945276D01*
X75245312Y-99945276D02*
X75197693Y-100040514D01*
X75197693Y-100040514D02*
X75150074Y-100230990D01*
X75150074Y-100230990D02*
X75150074Y-100373847D01*
X75150074Y-100373847D02*
X75197693Y-100564323D01*
X75197693Y-100564323D02*
X75245312Y-100659561D01*
X75245312Y-100659561D02*
X75340550Y-100754800D01*
X75340550Y-100754800D02*
X75483407Y-100802419D01*
X75483407Y-100802419D02*
X75578645Y-100802419D01*
X75578645Y-100802419D02*
X75721502Y-100754800D01*
X75721502Y-100754800D02*
X75769121Y-100707180D01*
X75769121Y-100707180D02*
X75769121Y-100373847D01*
X75769121Y-100373847D02*
X75578645Y-100373847D01*
X76197693Y-100802419D02*
X76197693Y-99802419D01*
X76197693Y-100278609D02*
X76769121Y-100278609D01*
X76769121Y-100802419D02*
X76769121Y-99802419D01*
X77864360Y-99802419D02*
X78197693Y-100802419D01*
X78197693Y-100802419D02*
X78531026Y-99802419D01*
X79054836Y-99802419D02*
X79245312Y-99802419D01*
X79245312Y-99802419D02*
X79340550Y-99850038D01*
X79340550Y-99850038D02*
X79435788Y-99945276D01*
X79435788Y-99945276D02*
X79483407Y-100135752D01*
X79483407Y-100135752D02*
X79483407Y-100469085D01*
X79483407Y-100469085D02*
X79435788Y-100659561D01*
X79435788Y-100659561D02*
X79340550Y-100754800D01*
X79340550Y-100754800D02*
X79245312Y-100802419D01*
X79245312Y-100802419D02*
X79054836Y-100802419D01*
X79054836Y-100802419D02*
X78959598Y-100754800D01*
X78959598Y-100754800D02*
X78864360Y-100659561D01*
X78864360Y-100659561D02*
X78816741Y-100469085D01*
X78816741Y-100469085D02*
X78816741Y-100135752D01*
X78816741Y-100135752D02*
X78864360Y-99945276D01*
X78864360Y-99945276D02*
X78959598Y-99850038D01*
X78959598Y-99850038D02*
X79054836Y-99802419D01*
X80388169Y-100802419D02*
X79911979Y-100802419D01*
X79911979Y-100802419D02*
X79911979Y-99802419D01*
X80578646Y-99802419D02*
X81150074Y-99802419D01*
X80864360Y-100802419D02*
X80864360Y-99802419D01*
X81435789Y-100516704D02*
X81911979Y-100516704D01*
X81340551Y-100802419D02*
X81673884Y-99802419D01*
X81673884Y-99802419D02*
X82007217Y-100802419D01*
X82864360Y-99850038D02*
X82769122Y-99802419D01*
X82769122Y-99802419D02*
X82626265Y-99802419D01*
X82626265Y-99802419D02*
X82483408Y-99850038D01*
X82483408Y-99850038D02*
X82388170Y-99945276D01*
X82388170Y-99945276D02*
X82340551Y-100040514D01*
X82340551Y-100040514D02*
X82292932Y-100230990D01*
X82292932Y-100230990D02*
X82292932Y-100373847D01*
X82292932Y-100373847D02*
X82340551Y-100564323D01*
X82340551Y-100564323D02*
X82388170Y-100659561D01*
X82388170Y-100659561D02*
X82483408Y-100754800D01*
X82483408Y-100754800D02*
X82626265Y-100802419D01*
X82626265Y-100802419D02*
X82721503Y-100802419D01*
X82721503Y-100802419D02*
X82864360Y-100754800D01*
X82864360Y-100754800D02*
X82911979Y-100707180D01*
X82911979Y-100707180D02*
X82911979Y-100373847D01*
X82911979Y-100373847D02*
X82721503Y-100373847D01*
X83340551Y-100278609D02*
X83673884Y-100278609D01*
X83816741Y-100802419D02*
X83340551Y-100802419D01*
X83340551Y-100802419D02*
X83340551Y-99802419D01*
X83340551Y-99802419D02*
X83816741Y-99802419D01*
X85007218Y-100802419D02*
X85007218Y-99802419D01*
X85435789Y-100754800D02*
X85578646Y-100802419D01*
X85578646Y-100802419D02*
X85816741Y-100802419D01*
X85816741Y-100802419D02*
X85911979Y-100754800D01*
X85911979Y-100754800D02*
X85959598Y-100707180D01*
X85959598Y-100707180D02*
X86007217Y-100611942D01*
X86007217Y-100611942D02*
X86007217Y-100516704D01*
X86007217Y-100516704D02*
X85959598Y-100421466D01*
X85959598Y-100421466D02*
X85911979Y-100373847D01*
X85911979Y-100373847D02*
X85816741Y-100326228D01*
X85816741Y-100326228D02*
X85626265Y-100278609D01*
X85626265Y-100278609D02*
X85531027Y-100230990D01*
X85531027Y-100230990D02*
X85483408Y-100183371D01*
X85483408Y-100183371D02*
X85435789Y-100088133D01*
X85435789Y-100088133D02*
X85435789Y-99992895D01*
X85435789Y-99992895D02*
X85483408Y-99897657D01*
X85483408Y-99897657D02*
X85531027Y-99850038D01*
X85531027Y-99850038D02*
X85626265Y-99802419D01*
X85626265Y-99802419D02*
X85864360Y-99802419D01*
X85864360Y-99802419D02*
X86007217Y-99850038D01*
X87673884Y-100802419D02*
X87197694Y-100802419D01*
X87197694Y-100802419D02*
X87197694Y-99802419D01*
X88007218Y-100278609D02*
X88340551Y-100278609D01*
X88483408Y-100802419D02*
X88007218Y-100802419D01*
X88007218Y-100802419D02*
X88007218Y-99802419D01*
X88007218Y-99802419D02*
X88483408Y-99802419D01*
X88769123Y-99802419D02*
X89340551Y-99802419D01*
X89054837Y-100802419D02*
X89054837Y-99802419D01*
X89673885Y-100802419D02*
X89673885Y-99802419D01*
X89673885Y-100278609D02*
X90245313Y-100278609D01*
X90245313Y-100802419D02*
X90245313Y-99802419D01*
X90673885Y-100516704D02*
X91150075Y-100516704D01*
X90578647Y-100802419D02*
X90911980Y-99802419D01*
X90911980Y-99802419D02*
X91245313Y-100802419D01*
X92054837Y-100802419D02*
X91578647Y-100802419D01*
X91578647Y-100802419D02*
X91578647Y-99802419D01*
X92388171Y-100707180D02*
X92435790Y-100754800D01*
X92435790Y-100754800D02*
X92388171Y-100802419D01*
X92388171Y-100802419D02*
X92340552Y-100754800D01*
X92340552Y-100754800D02*
X92388171Y-100707180D01*
X92388171Y-100707180D02*
X92388171Y-100802419D01*
X92388171Y-100421466D02*
X92340552Y-99850038D01*
X92340552Y-99850038D02*
X92388171Y-99802419D01*
X92388171Y-99802419D02*
X92435790Y-99850038D01*
X92435790Y-99850038D02*
X92388171Y-100421466D01*
X92388171Y-100421466D02*
X92388171Y-99802419D01*
X132613884Y-91952419D02*
X132613884Y-90952419D01*
X133042455Y-91904800D02*
X133185312Y-91952419D01*
X133185312Y-91952419D02*
X133423407Y-91952419D01*
X133423407Y-91952419D02*
X133518645Y-91904800D01*
X133518645Y-91904800D02*
X133566264Y-91857180D01*
X133566264Y-91857180D02*
X133613883Y-91761942D01*
X133613883Y-91761942D02*
X133613883Y-91666704D01*
X133613883Y-91666704D02*
X133566264Y-91571466D01*
X133566264Y-91571466D02*
X133518645Y-91523847D01*
X133518645Y-91523847D02*
X133423407Y-91476228D01*
X133423407Y-91476228D02*
X133232931Y-91428609D01*
X133232931Y-91428609D02*
X133137693Y-91380990D01*
X133137693Y-91380990D02*
X133090074Y-91333371D01*
X133090074Y-91333371D02*
X133042455Y-91238133D01*
X133042455Y-91238133D02*
X133042455Y-91142895D01*
X133042455Y-91142895D02*
X133090074Y-91047657D01*
X133090074Y-91047657D02*
X133137693Y-91000038D01*
X133137693Y-91000038D02*
X133232931Y-90952419D01*
X133232931Y-90952419D02*
X133471026Y-90952419D01*
X133471026Y-90952419D02*
X133613883Y-91000038D01*
X134232931Y-90952419D02*
X134423407Y-90952419D01*
X134423407Y-90952419D02*
X134518645Y-91000038D01*
X134518645Y-91000038D02*
X134613883Y-91095276D01*
X134613883Y-91095276D02*
X134661502Y-91285752D01*
X134661502Y-91285752D02*
X134661502Y-91619085D01*
X134661502Y-91619085D02*
X134613883Y-91809561D01*
X134613883Y-91809561D02*
X134518645Y-91904800D01*
X134518645Y-91904800D02*
X134423407Y-91952419D01*
X134423407Y-91952419D02*
X134232931Y-91952419D01*
X134232931Y-91952419D02*
X134137693Y-91904800D01*
X134137693Y-91904800D02*
X134042455Y-91809561D01*
X134042455Y-91809561D02*
X133994836Y-91619085D01*
X133994836Y-91619085D02*
X133994836Y-91285752D01*
X133994836Y-91285752D02*
X134042455Y-91095276D01*
X134042455Y-91095276D02*
X134137693Y-91000038D01*
X134137693Y-91000038D02*
X134232931Y-90952419D01*
X135566264Y-91952419D02*
X135090074Y-91952419D01*
X135090074Y-91952419D02*
X135090074Y-90952419D01*
X135851979Y-91666704D02*
X136328169Y-91666704D01*
X135756741Y-91952419D02*
X136090074Y-90952419D01*
X136090074Y-90952419D02*
X136423407Y-91952419D01*
X136613884Y-90952419D02*
X137185312Y-90952419D01*
X136899598Y-91952419D02*
X136899598Y-90952419D01*
X137518646Y-91428609D02*
X137851979Y-91428609D01*
X137994836Y-91952419D02*
X137518646Y-91952419D01*
X137518646Y-91952419D02*
X137518646Y-90952419D01*
X137518646Y-90952419D02*
X137994836Y-90952419D01*
X138423408Y-91952419D02*
X138423408Y-90952419D01*
X138423408Y-90952419D02*
X138661503Y-90952419D01*
X138661503Y-90952419D02*
X138804360Y-91000038D01*
X138804360Y-91000038D02*
X138899598Y-91095276D01*
X138899598Y-91095276D02*
X138947217Y-91190514D01*
X138947217Y-91190514D02*
X138994836Y-91380990D01*
X138994836Y-91380990D02*
X138994836Y-91523847D01*
X138994836Y-91523847D02*
X138947217Y-91714323D01*
X138947217Y-91714323D02*
X138899598Y-91809561D01*
X138899598Y-91809561D02*
X138804360Y-91904800D01*
X138804360Y-91904800D02*
X138661503Y-91952419D01*
X138661503Y-91952419D02*
X138423408Y-91952419D01*
X140756741Y-91857180D02*
X140709122Y-91904800D01*
X140709122Y-91904800D02*
X140566265Y-91952419D01*
X140566265Y-91952419D02*
X140471027Y-91952419D01*
X140471027Y-91952419D02*
X140328170Y-91904800D01*
X140328170Y-91904800D02*
X140232932Y-91809561D01*
X140232932Y-91809561D02*
X140185313Y-91714323D01*
X140185313Y-91714323D02*
X140137694Y-91523847D01*
X140137694Y-91523847D02*
X140137694Y-91380990D01*
X140137694Y-91380990D02*
X140185313Y-91190514D01*
X140185313Y-91190514D02*
X140232932Y-91095276D01*
X140232932Y-91095276D02*
X140328170Y-91000038D01*
X140328170Y-91000038D02*
X140471027Y-90952419D01*
X140471027Y-90952419D02*
X140566265Y-90952419D01*
X140566265Y-90952419D02*
X140709122Y-91000038D01*
X140709122Y-91000038D02*
X140756741Y-91047657D01*
X141185313Y-91952419D02*
X141185313Y-90952419D01*
X142232931Y-91952419D02*
X141899598Y-91476228D01*
X141661503Y-91952419D02*
X141661503Y-90952419D01*
X141661503Y-90952419D02*
X142042455Y-90952419D01*
X142042455Y-90952419D02*
X142137693Y-91000038D01*
X142137693Y-91000038D02*
X142185312Y-91047657D01*
X142185312Y-91047657D02*
X142232931Y-91142895D01*
X142232931Y-91142895D02*
X142232931Y-91285752D01*
X142232931Y-91285752D02*
X142185312Y-91380990D01*
X142185312Y-91380990D02*
X142137693Y-91428609D01*
X142137693Y-91428609D02*
X142042455Y-91476228D01*
X142042455Y-91476228D02*
X141661503Y-91476228D01*
X143232931Y-91857180D02*
X143185312Y-91904800D01*
X143185312Y-91904800D02*
X143042455Y-91952419D01*
X143042455Y-91952419D02*
X142947217Y-91952419D01*
X142947217Y-91952419D02*
X142804360Y-91904800D01*
X142804360Y-91904800D02*
X142709122Y-91809561D01*
X142709122Y-91809561D02*
X142661503Y-91714323D01*
X142661503Y-91714323D02*
X142613884Y-91523847D01*
X142613884Y-91523847D02*
X142613884Y-91380990D01*
X142613884Y-91380990D02*
X142661503Y-91190514D01*
X142661503Y-91190514D02*
X142709122Y-91095276D01*
X142709122Y-91095276D02*
X142804360Y-91000038D01*
X142804360Y-91000038D02*
X142947217Y-90952419D01*
X142947217Y-90952419D02*
X143042455Y-90952419D01*
X143042455Y-90952419D02*
X143185312Y-91000038D01*
X143185312Y-91000038D02*
X143232931Y-91047657D01*
X143661503Y-90952419D02*
X143661503Y-91761942D01*
X143661503Y-91761942D02*
X143709122Y-91857180D01*
X143709122Y-91857180D02*
X143756741Y-91904800D01*
X143756741Y-91904800D02*
X143851979Y-91952419D01*
X143851979Y-91952419D02*
X144042455Y-91952419D01*
X144042455Y-91952419D02*
X144137693Y-91904800D01*
X144137693Y-91904800D02*
X144185312Y-91857180D01*
X144185312Y-91857180D02*
X144232931Y-91761942D01*
X144232931Y-91761942D02*
X144232931Y-90952419D01*
X144709122Y-91952419D02*
X144709122Y-90952419D01*
X145042455Y-90952419D02*
X145613883Y-90952419D01*
X145328169Y-91952419D02*
X145328169Y-90952419D01*
X60520074Y-53592419D02*
X60043884Y-53592419D01*
X60043884Y-53592419D02*
X60043884Y-52592419D01*
X60853408Y-53592419D02*
X60853408Y-52592419D01*
X61186741Y-52592419D02*
X61520074Y-53592419D01*
X61520074Y-53592419D02*
X61853407Y-52592419D01*
X62186741Y-53068609D02*
X62520074Y-53068609D01*
X62662931Y-53592419D02*
X62186741Y-53592419D01*
X62186741Y-53592419D02*
X62186741Y-52592419D01*
X62186741Y-52592419D02*
X62662931Y-52592419D01*
X64424836Y-53497180D02*
X64377217Y-53544800D01*
X64377217Y-53544800D02*
X64234360Y-53592419D01*
X64234360Y-53592419D02*
X64139122Y-53592419D01*
X64139122Y-53592419D02*
X63996265Y-53544800D01*
X63996265Y-53544800D02*
X63901027Y-53449561D01*
X63901027Y-53449561D02*
X63853408Y-53354323D01*
X63853408Y-53354323D02*
X63805789Y-53163847D01*
X63805789Y-53163847D02*
X63805789Y-53020990D01*
X63805789Y-53020990D02*
X63853408Y-52830514D01*
X63853408Y-52830514D02*
X63901027Y-52735276D01*
X63901027Y-52735276D02*
X63996265Y-52640038D01*
X63996265Y-52640038D02*
X64139122Y-52592419D01*
X64139122Y-52592419D02*
X64234360Y-52592419D01*
X64234360Y-52592419D02*
X64377217Y-52640038D01*
X64377217Y-52640038D02*
X64424836Y-52687657D01*
X64853408Y-53592419D02*
X64853408Y-52592419D01*
X65901026Y-53592419D02*
X65567693Y-53116228D01*
X65329598Y-53592419D02*
X65329598Y-52592419D01*
X65329598Y-52592419D02*
X65710550Y-52592419D01*
X65710550Y-52592419D02*
X65805788Y-52640038D01*
X65805788Y-52640038D02*
X65853407Y-52687657D01*
X65853407Y-52687657D02*
X65901026Y-52782895D01*
X65901026Y-52782895D02*
X65901026Y-52925752D01*
X65901026Y-52925752D02*
X65853407Y-53020990D01*
X65853407Y-53020990D02*
X65805788Y-53068609D01*
X65805788Y-53068609D02*
X65710550Y-53116228D01*
X65710550Y-53116228D02*
X65329598Y-53116228D01*
X66901026Y-53497180D02*
X66853407Y-53544800D01*
X66853407Y-53544800D02*
X66710550Y-53592419D01*
X66710550Y-53592419D02*
X66615312Y-53592419D01*
X66615312Y-53592419D02*
X66472455Y-53544800D01*
X66472455Y-53544800D02*
X66377217Y-53449561D01*
X66377217Y-53449561D02*
X66329598Y-53354323D01*
X66329598Y-53354323D02*
X66281979Y-53163847D01*
X66281979Y-53163847D02*
X66281979Y-53020990D01*
X66281979Y-53020990D02*
X66329598Y-52830514D01*
X66329598Y-52830514D02*
X66377217Y-52735276D01*
X66377217Y-52735276D02*
X66472455Y-52640038D01*
X66472455Y-52640038D02*
X66615312Y-52592419D01*
X66615312Y-52592419D02*
X66710550Y-52592419D01*
X66710550Y-52592419D02*
X66853407Y-52640038D01*
X66853407Y-52640038D02*
X66901026Y-52687657D01*
X67329598Y-52592419D02*
X67329598Y-53401942D01*
X67329598Y-53401942D02*
X67377217Y-53497180D01*
X67377217Y-53497180D02*
X67424836Y-53544800D01*
X67424836Y-53544800D02*
X67520074Y-53592419D01*
X67520074Y-53592419D02*
X67710550Y-53592419D01*
X67710550Y-53592419D02*
X67805788Y-53544800D01*
X67805788Y-53544800D02*
X67853407Y-53497180D01*
X67853407Y-53497180D02*
X67901026Y-53401942D01*
X67901026Y-53401942D02*
X67901026Y-52592419D01*
X68377217Y-53592419D02*
X68377217Y-52592419D01*
X68710550Y-52592419D02*
X69281978Y-52592419D01*
X68996264Y-53592419D02*
X68996264Y-52592419D01*
X69615312Y-53497180D02*
X69662931Y-53544800D01*
X69662931Y-53544800D02*
X69615312Y-53592419D01*
X69615312Y-53592419D02*
X69567693Y-53544800D01*
X69567693Y-53544800D02*
X69615312Y-53497180D01*
X69615312Y-53497180D02*
X69615312Y-53592419D01*
X69615312Y-53211466D02*
X69567693Y-52640038D01*
X69567693Y-52640038D02*
X69615312Y-52592419D01*
X69615312Y-52592419D02*
X69662931Y-52640038D01*
X69662931Y-52640038D02*
X69615312Y-53211466D01*
X69615312Y-53211466D02*
X69615312Y-52592419D01*
X80853884Y-52942419D02*
X80853884Y-51942419D01*
X80853884Y-51942419D02*
X81091979Y-51942419D01*
X81091979Y-51942419D02*
X81234836Y-51990038D01*
X81234836Y-51990038D02*
X81330074Y-52085276D01*
X81330074Y-52085276D02*
X81377693Y-52180514D01*
X81377693Y-52180514D02*
X81425312Y-52370990D01*
X81425312Y-52370990D02*
X81425312Y-52513847D01*
X81425312Y-52513847D02*
X81377693Y-52704323D01*
X81377693Y-52704323D02*
X81330074Y-52799561D01*
X81330074Y-52799561D02*
X81234836Y-52894800D01*
X81234836Y-52894800D02*
X81091979Y-52942419D01*
X81091979Y-52942419D02*
X80853884Y-52942419D01*
X81806265Y-52656704D02*
X82282455Y-52656704D01*
X81711027Y-52942419D02*
X82044360Y-51942419D01*
X82044360Y-51942419D02*
X82377693Y-52942419D01*
X82711027Y-52942419D02*
X82711027Y-51942419D01*
X82711027Y-51942419D02*
X83282455Y-52942419D01*
X83282455Y-52942419D02*
X83282455Y-51942419D01*
X84282455Y-51990038D02*
X84187217Y-51942419D01*
X84187217Y-51942419D02*
X84044360Y-51942419D01*
X84044360Y-51942419D02*
X83901503Y-51990038D01*
X83901503Y-51990038D02*
X83806265Y-52085276D01*
X83806265Y-52085276D02*
X83758646Y-52180514D01*
X83758646Y-52180514D02*
X83711027Y-52370990D01*
X83711027Y-52370990D02*
X83711027Y-52513847D01*
X83711027Y-52513847D02*
X83758646Y-52704323D01*
X83758646Y-52704323D02*
X83806265Y-52799561D01*
X83806265Y-52799561D02*
X83901503Y-52894800D01*
X83901503Y-52894800D02*
X84044360Y-52942419D01*
X84044360Y-52942419D02*
X84139598Y-52942419D01*
X84139598Y-52942419D02*
X84282455Y-52894800D01*
X84282455Y-52894800D02*
X84330074Y-52847180D01*
X84330074Y-52847180D02*
X84330074Y-52513847D01*
X84330074Y-52513847D02*
X84139598Y-52513847D01*
X84758646Y-52418609D02*
X85091979Y-52418609D01*
X85234836Y-52942419D02*
X84758646Y-52942419D01*
X84758646Y-52942419D02*
X84758646Y-51942419D01*
X84758646Y-51942419D02*
X85234836Y-51942419D01*
X86234836Y-52942419D02*
X85901503Y-52466228D01*
X85663408Y-52942419D02*
X85663408Y-51942419D01*
X85663408Y-51942419D02*
X86044360Y-51942419D01*
X86044360Y-51942419D02*
X86139598Y-51990038D01*
X86139598Y-51990038D02*
X86187217Y-52037657D01*
X86187217Y-52037657D02*
X86234836Y-52132895D01*
X86234836Y-52132895D02*
X86234836Y-52275752D01*
X86234836Y-52275752D02*
X86187217Y-52370990D01*
X86187217Y-52370990D02*
X86139598Y-52418609D01*
X86139598Y-52418609D02*
X86044360Y-52466228D01*
X86044360Y-52466228D02*
X85663408Y-52466228D01*
X87425313Y-52942419D02*
X87425313Y-51942419D01*
X87425313Y-51942419D02*
X87663408Y-51942419D01*
X87663408Y-51942419D02*
X87806265Y-51990038D01*
X87806265Y-51990038D02*
X87901503Y-52085276D01*
X87901503Y-52085276D02*
X87949122Y-52180514D01*
X87949122Y-52180514D02*
X87996741Y-52370990D01*
X87996741Y-52370990D02*
X87996741Y-52513847D01*
X87996741Y-52513847D02*
X87949122Y-52704323D01*
X87949122Y-52704323D02*
X87901503Y-52799561D01*
X87901503Y-52799561D02*
X87806265Y-52894800D01*
X87806265Y-52894800D02*
X87663408Y-52942419D01*
X87663408Y-52942419D02*
X87425313Y-52942419D01*
X88615789Y-51942419D02*
X88806265Y-51942419D01*
X88806265Y-51942419D02*
X88901503Y-51990038D01*
X88901503Y-51990038D02*
X88996741Y-52085276D01*
X88996741Y-52085276D02*
X89044360Y-52275752D01*
X89044360Y-52275752D02*
X89044360Y-52609085D01*
X89044360Y-52609085D02*
X88996741Y-52799561D01*
X88996741Y-52799561D02*
X88901503Y-52894800D01*
X88901503Y-52894800D02*
X88806265Y-52942419D01*
X88806265Y-52942419D02*
X88615789Y-52942419D01*
X88615789Y-52942419D02*
X88520551Y-52894800D01*
X88520551Y-52894800D02*
X88425313Y-52799561D01*
X88425313Y-52799561D02*
X88377694Y-52609085D01*
X88377694Y-52609085D02*
X88377694Y-52275752D01*
X88377694Y-52275752D02*
X88425313Y-52085276D01*
X88425313Y-52085276D02*
X88520551Y-51990038D01*
X88520551Y-51990038D02*
X88615789Y-51942419D01*
X90234837Y-52942419D02*
X90234837Y-51942419D01*
X90234837Y-51942419D02*
X90806265Y-52942419D01*
X90806265Y-52942419D02*
X90806265Y-51942419D01*
X91472932Y-51942419D02*
X91663408Y-51942419D01*
X91663408Y-51942419D02*
X91758646Y-51990038D01*
X91758646Y-51990038D02*
X91853884Y-52085276D01*
X91853884Y-52085276D02*
X91901503Y-52275752D01*
X91901503Y-52275752D02*
X91901503Y-52609085D01*
X91901503Y-52609085D02*
X91853884Y-52799561D01*
X91853884Y-52799561D02*
X91758646Y-52894800D01*
X91758646Y-52894800D02*
X91663408Y-52942419D01*
X91663408Y-52942419D02*
X91472932Y-52942419D01*
X91472932Y-52942419D02*
X91377694Y-52894800D01*
X91377694Y-52894800D02*
X91282456Y-52799561D01*
X91282456Y-52799561D02*
X91234837Y-52609085D01*
X91234837Y-52609085D02*
X91234837Y-52275752D01*
X91234837Y-52275752D02*
X91282456Y-52085276D01*
X91282456Y-52085276D02*
X91377694Y-51990038D01*
X91377694Y-51990038D02*
X91472932Y-51942419D01*
X92187218Y-51942419D02*
X92758646Y-51942419D01*
X92472932Y-52942419D02*
X92472932Y-51942419D01*
X93711028Y-51942419D02*
X94282456Y-51942419D01*
X93996742Y-52942419D02*
X93996742Y-51942419D01*
X94806266Y-51942419D02*
X94996742Y-51942419D01*
X94996742Y-51942419D02*
X95091980Y-51990038D01*
X95091980Y-51990038D02*
X95187218Y-52085276D01*
X95187218Y-52085276D02*
X95234837Y-52275752D01*
X95234837Y-52275752D02*
X95234837Y-52609085D01*
X95234837Y-52609085D02*
X95187218Y-52799561D01*
X95187218Y-52799561D02*
X95091980Y-52894800D01*
X95091980Y-52894800D02*
X94996742Y-52942419D01*
X94996742Y-52942419D02*
X94806266Y-52942419D01*
X94806266Y-52942419D02*
X94711028Y-52894800D01*
X94711028Y-52894800D02*
X94615790Y-52799561D01*
X94615790Y-52799561D02*
X94568171Y-52609085D01*
X94568171Y-52609085D02*
X94568171Y-52275752D01*
X94568171Y-52275752D02*
X94615790Y-52085276D01*
X94615790Y-52085276D02*
X94711028Y-51990038D01*
X94711028Y-51990038D02*
X94806266Y-51942419D01*
X95663409Y-51942419D02*
X95663409Y-52751942D01*
X95663409Y-52751942D02*
X95711028Y-52847180D01*
X95711028Y-52847180D02*
X95758647Y-52894800D01*
X95758647Y-52894800D02*
X95853885Y-52942419D01*
X95853885Y-52942419D02*
X96044361Y-52942419D01*
X96044361Y-52942419D02*
X96139599Y-52894800D01*
X96139599Y-52894800D02*
X96187218Y-52847180D01*
X96187218Y-52847180D02*
X96234837Y-52751942D01*
X96234837Y-52751942D02*
X96234837Y-51942419D01*
X97282456Y-52847180D02*
X97234837Y-52894800D01*
X97234837Y-52894800D02*
X97091980Y-52942419D01*
X97091980Y-52942419D02*
X96996742Y-52942419D01*
X96996742Y-52942419D02*
X96853885Y-52894800D01*
X96853885Y-52894800D02*
X96758647Y-52799561D01*
X96758647Y-52799561D02*
X96711028Y-52704323D01*
X96711028Y-52704323D02*
X96663409Y-52513847D01*
X96663409Y-52513847D02*
X96663409Y-52370990D01*
X96663409Y-52370990D02*
X96711028Y-52180514D01*
X96711028Y-52180514D02*
X96758647Y-52085276D01*
X96758647Y-52085276D02*
X96853885Y-51990038D01*
X96853885Y-51990038D02*
X96996742Y-51942419D01*
X96996742Y-51942419D02*
X97091980Y-51942419D01*
X97091980Y-51942419D02*
X97234837Y-51990038D01*
X97234837Y-51990038D02*
X97282456Y-52037657D01*
X97711028Y-52942419D02*
X97711028Y-51942419D01*
X97711028Y-52418609D02*
X98282456Y-52418609D01*
X98282456Y-52942419D02*
X98282456Y-51942419D01*
X99377695Y-51942419D02*
X99949123Y-51942419D01*
X99663409Y-52942419D02*
X99663409Y-51942419D01*
X100282457Y-52942419D02*
X100282457Y-51942419D01*
X100282457Y-52418609D02*
X100853885Y-52418609D01*
X100853885Y-52942419D02*
X100853885Y-51942419D01*
X101330076Y-52942419D02*
X101330076Y-51942419D01*
X101758647Y-52894800D02*
X101901504Y-52942419D01*
X101901504Y-52942419D02*
X102139599Y-52942419D01*
X102139599Y-52942419D02*
X102234837Y-52894800D01*
X102234837Y-52894800D02*
X102282456Y-52847180D01*
X102282456Y-52847180D02*
X102330075Y-52751942D01*
X102330075Y-52751942D02*
X102330075Y-52656704D01*
X102330075Y-52656704D02*
X102282456Y-52561466D01*
X102282456Y-52561466D02*
X102234837Y-52513847D01*
X102234837Y-52513847D02*
X102139599Y-52466228D01*
X102139599Y-52466228D02*
X101949123Y-52418609D01*
X101949123Y-52418609D02*
X101853885Y-52370990D01*
X101853885Y-52370990D02*
X101806266Y-52323371D01*
X101806266Y-52323371D02*
X101758647Y-52228133D01*
X101758647Y-52228133D02*
X101758647Y-52132895D01*
X101758647Y-52132895D02*
X101806266Y-52037657D01*
X101806266Y-52037657D02*
X101853885Y-51990038D01*
X101853885Y-51990038D02*
X101949123Y-51942419D01*
X101949123Y-51942419D02*
X102187218Y-51942419D01*
X102187218Y-51942419D02*
X102330075Y-51990038D01*
X80806265Y-54504800D02*
X80949122Y-54552419D01*
X80949122Y-54552419D02*
X81187217Y-54552419D01*
X81187217Y-54552419D02*
X81282455Y-54504800D01*
X81282455Y-54504800D02*
X81330074Y-54457180D01*
X81330074Y-54457180D02*
X81377693Y-54361942D01*
X81377693Y-54361942D02*
X81377693Y-54266704D01*
X81377693Y-54266704D02*
X81330074Y-54171466D01*
X81330074Y-54171466D02*
X81282455Y-54123847D01*
X81282455Y-54123847D02*
X81187217Y-54076228D01*
X81187217Y-54076228D02*
X80996741Y-54028609D01*
X80996741Y-54028609D02*
X80901503Y-53980990D01*
X80901503Y-53980990D02*
X80853884Y-53933371D01*
X80853884Y-53933371D02*
X80806265Y-53838133D01*
X80806265Y-53838133D02*
X80806265Y-53742895D01*
X80806265Y-53742895D02*
X80853884Y-53647657D01*
X80853884Y-53647657D02*
X80901503Y-53600038D01*
X80901503Y-53600038D02*
X80996741Y-53552419D01*
X80996741Y-53552419D02*
X81234836Y-53552419D01*
X81234836Y-53552419D02*
X81377693Y-53600038D01*
X81806265Y-54552419D02*
X81806265Y-53552419D01*
X82282455Y-54552419D02*
X82282455Y-53552419D01*
X82282455Y-53552419D02*
X82520550Y-53552419D01*
X82520550Y-53552419D02*
X82663407Y-53600038D01*
X82663407Y-53600038D02*
X82758645Y-53695276D01*
X82758645Y-53695276D02*
X82806264Y-53790514D01*
X82806264Y-53790514D02*
X82853883Y-53980990D01*
X82853883Y-53980990D02*
X82853883Y-54123847D01*
X82853883Y-54123847D02*
X82806264Y-54314323D01*
X82806264Y-54314323D02*
X82758645Y-54409561D01*
X82758645Y-54409561D02*
X82663407Y-54504800D01*
X82663407Y-54504800D02*
X82520550Y-54552419D01*
X82520550Y-54552419D02*
X82282455Y-54552419D01*
X83282455Y-54028609D02*
X83615788Y-54028609D01*
X83758645Y-54552419D02*
X83282455Y-54552419D01*
X83282455Y-54552419D02*
X83282455Y-53552419D01*
X83282455Y-53552419D02*
X83758645Y-53552419D01*
X84853884Y-53552419D02*
X85091979Y-54552419D01*
X85091979Y-54552419D02*
X85282455Y-53838133D01*
X85282455Y-53838133D02*
X85472931Y-54552419D01*
X85472931Y-54552419D02*
X85711027Y-53552419D01*
X86091979Y-54552419D02*
X86091979Y-53552419D01*
X86091979Y-54028609D02*
X86663407Y-54028609D01*
X86663407Y-54552419D02*
X86663407Y-53552419D01*
X87139598Y-54028609D02*
X87472931Y-54028609D01*
X87615788Y-54552419D02*
X87139598Y-54552419D01*
X87139598Y-54552419D02*
X87139598Y-53552419D01*
X87139598Y-53552419D02*
X87615788Y-53552419D01*
X88044360Y-54552419D02*
X88044360Y-53552419D01*
X88044360Y-53552419D02*
X88615788Y-54552419D01*
X88615788Y-54552419D02*
X88615788Y-53552419D01*
X90044360Y-53552419D02*
X90234836Y-53552419D01*
X90234836Y-53552419D02*
X90330074Y-53600038D01*
X90330074Y-53600038D02*
X90425312Y-53695276D01*
X90425312Y-53695276D02*
X90472931Y-53885752D01*
X90472931Y-53885752D02*
X90472931Y-54219085D01*
X90472931Y-54219085D02*
X90425312Y-54409561D01*
X90425312Y-54409561D02*
X90330074Y-54504800D01*
X90330074Y-54504800D02*
X90234836Y-54552419D01*
X90234836Y-54552419D02*
X90044360Y-54552419D01*
X90044360Y-54552419D02*
X89949122Y-54504800D01*
X89949122Y-54504800D02*
X89853884Y-54409561D01*
X89853884Y-54409561D02*
X89806265Y-54219085D01*
X89806265Y-54219085D02*
X89806265Y-53885752D01*
X89806265Y-53885752D02*
X89853884Y-53695276D01*
X89853884Y-53695276D02*
X89949122Y-53600038D01*
X89949122Y-53600038D02*
X90044360Y-53552419D01*
X90901503Y-54552419D02*
X90901503Y-53552419D01*
X90901503Y-53552419D02*
X91282455Y-53552419D01*
X91282455Y-53552419D02*
X91377693Y-53600038D01*
X91377693Y-53600038D02*
X91425312Y-53647657D01*
X91425312Y-53647657D02*
X91472931Y-53742895D01*
X91472931Y-53742895D02*
X91472931Y-53885752D01*
X91472931Y-53885752D02*
X91425312Y-53980990D01*
X91425312Y-53980990D02*
X91377693Y-54028609D01*
X91377693Y-54028609D02*
X91282455Y-54076228D01*
X91282455Y-54076228D02*
X90901503Y-54076228D01*
X91901503Y-54028609D02*
X92234836Y-54028609D01*
X92377693Y-54552419D02*
X91901503Y-54552419D01*
X91901503Y-54552419D02*
X91901503Y-53552419D01*
X91901503Y-53552419D02*
X92377693Y-53552419D01*
X93377693Y-54552419D02*
X93044360Y-54076228D01*
X92806265Y-54552419D02*
X92806265Y-53552419D01*
X92806265Y-53552419D02*
X93187217Y-53552419D01*
X93187217Y-53552419D02*
X93282455Y-53600038D01*
X93282455Y-53600038D02*
X93330074Y-53647657D01*
X93330074Y-53647657D02*
X93377693Y-53742895D01*
X93377693Y-53742895D02*
X93377693Y-53885752D01*
X93377693Y-53885752D02*
X93330074Y-53980990D01*
X93330074Y-53980990D02*
X93282455Y-54028609D01*
X93282455Y-54028609D02*
X93187217Y-54076228D01*
X93187217Y-54076228D02*
X92806265Y-54076228D01*
X93758646Y-54266704D02*
X94234836Y-54266704D01*
X93663408Y-54552419D02*
X93996741Y-53552419D01*
X93996741Y-53552419D02*
X94330074Y-54552419D01*
X94520551Y-53552419D02*
X95091979Y-53552419D01*
X94806265Y-54552419D02*
X94806265Y-53552419D01*
X95425313Y-54552419D02*
X95425313Y-53552419D01*
X95901503Y-54552419D02*
X95901503Y-53552419D01*
X95901503Y-53552419D02*
X96472931Y-54552419D01*
X96472931Y-54552419D02*
X96472931Y-53552419D01*
X97472931Y-53600038D02*
X97377693Y-53552419D01*
X97377693Y-53552419D02*
X97234836Y-53552419D01*
X97234836Y-53552419D02*
X97091979Y-53600038D01*
X97091979Y-53600038D02*
X96996741Y-53695276D01*
X96996741Y-53695276D02*
X96949122Y-53790514D01*
X96949122Y-53790514D02*
X96901503Y-53980990D01*
X96901503Y-53980990D02*
X96901503Y-54123847D01*
X96901503Y-54123847D02*
X96949122Y-54314323D01*
X96949122Y-54314323D02*
X96996741Y-54409561D01*
X96996741Y-54409561D02*
X97091979Y-54504800D01*
X97091979Y-54504800D02*
X97234836Y-54552419D01*
X97234836Y-54552419D02*
X97330074Y-54552419D01*
X97330074Y-54552419D02*
X97472931Y-54504800D01*
X97472931Y-54504800D02*
X97520550Y-54457180D01*
X97520550Y-54457180D02*
X97520550Y-54123847D01*
X97520550Y-54123847D02*
X97330074Y-54123847D01*
X97949122Y-54457180D02*
X97996741Y-54504800D01*
X97996741Y-54504800D02*
X97949122Y-54552419D01*
X97949122Y-54552419D02*
X97901503Y-54504800D01*
X97901503Y-54504800D02*
X97949122Y-54457180D01*
X97949122Y-54457180D02*
X97949122Y-54552419D01*
X97949122Y-54171466D02*
X97901503Y-53600038D01*
X97901503Y-53600038D02*
X97949122Y-53552419D01*
X97949122Y-53552419D02*
X97996741Y-53600038D01*
X97996741Y-53600038D02*
X97949122Y-54171466D01*
X97949122Y-54171466D02*
X97949122Y-53552419D01*
X105102419Y-78716115D02*
X104102419Y-78716115D01*
X104102419Y-78716115D02*
X104102419Y-78335163D01*
X104102419Y-78335163D02*
X104150038Y-78239925D01*
X104150038Y-78239925D02*
X104197657Y-78192306D01*
X104197657Y-78192306D02*
X104292895Y-78144687D01*
X104292895Y-78144687D02*
X104435752Y-78144687D01*
X104435752Y-78144687D02*
X104530990Y-78192306D01*
X104530990Y-78192306D02*
X104578609Y-78239925D01*
X104578609Y-78239925D02*
X104626228Y-78335163D01*
X104626228Y-78335163D02*
X104626228Y-78716115D01*
X105007180Y-77144687D02*
X105054800Y-77192306D01*
X105054800Y-77192306D02*
X105102419Y-77335163D01*
X105102419Y-77335163D02*
X105102419Y-77430401D01*
X105102419Y-77430401D02*
X105054800Y-77573258D01*
X105054800Y-77573258D02*
X104959561Y-77668496D01*
X104959561Y-77668496D02*
X104864323Y-77716115D01*
X104864323Y-77716115D02*
X104673847Y-77763734D01*
X104673847Y-77763734D02*
X104530990Y-77763734D01*
X104530990Y-77763734D02*
X104340514Y-77716115D01*
X104340514Y-77716115D02*
X104245276Y-77668496D01*
X104245276Y-77668496D02*
X104150038Y-77573258D01*
X104150038Y-77573258D02*
X104102419Y-77430401D01*
X104102419Y-77430401D02*
X104102419Y-77335163D01*
X104102419Y-77335163D02*
X104150038Y-77192306D01*
X104150038Y-77192306D02*
X104197657Y-77144687D01*
X104530990Y-76573258D02*
X104483371Y-76668496D01*
X104483371Y-76668496D02*
X104435752Y-76716115D01*
X104435752Y-76716115D02*
X104340514Y-76763734D01*
X104340514Y-76763734D02*
X104292895Y-76763734D01*
X104292895Y-76763734D02*
X104197657Y-76716115D01*
X104197657Y-76716115D02*
X104150038Y-76668496D01*
X104150038Y-76668496D02*
X104102419Y-76573258D01*
X104102419Y-76573258D02*
X104102419Y-76382782D01*
X104102419Y-76382782D02*
X104150038Y-76287544D01*
X104150038Y-76287544D02*
X104197657Y-76239925D01*
X104197657Y-76239925D02*
X104292895Y-76192306D01*
X104292895Y-76192306D02*
X104340514Y-76192306D01*
X104340514Y-76192306D02*
X104435752Y-76239925D01*
X104435752Y-76239925D02*
X104483371Y-76287544D01*
X104483371Y-76287544D02*
X104530990Y-76382782D01*
X104530990Y-76382782D02*
X104530990Y-76573258D01*
X104530990Y-76573258D02*
X104578609Y-76668496D01*
X104578609Y-76668496D02*
X104626228Y-76716115D01*
X104626228Y-76716115D02*
X104721466Y-76763734D01*
X104721466Y-76763734D02*
X104911942Y-76763734D01*
X104911942Y-76763734D02*
X105007180Y-76716115D01*
X105007180Y-76716115D02*
X105054800Y-76668496D01*
X105054800Y-76668496D02*
X105102419Y-76573258D01*
X105102419Y-76573258D02*
X105102419Y-76382782D01*
X105102419Y-76382782D02*
X105054800Y-76287544D01*
X105054800Y-76287544D02*
X105007180Y-76239925D01*
X105007180Y-76239925D02*
X104911942Y-76192306D01*
X104911942Y-76192306D02*
X104721466Y-76192306D01*
X104721466Y-76192306D02*
X104626228Y-76239925D01*
X104626228Y-76239925D02*
X104578609Y-76287544D01*
X104578609Y-76287544D02*
X104530990Y-76382782D01*
X105102419Y-75239925D02*
X105102419Y-75811353D01*
X105102419Y-75525639D02*
X104102419Y-75525639D01*
X104102419Y-75525639D02*
X104245276Y-75620877D01*
X104245276Y-75620877D02*
X104340514Y-75716115D01*
X104340514Y-75716115D02*
X104388133Y-75811353D01*
X104102419Y-74906591D02*
X104102419Y-74239925D01*
X104102419Y-74239925D02*
X105102419Y-74668496D01*
X105242419Y-86076115D02*
X104242419Y-86076115D01*
X104242419Y-86076115D02*
X104242419Y-85695163D01*
X104242419Y-85695163D02*
X104290038Y-85599925D01*
X104290038Y-85599925D02*
X104337657Y-85552306D01*
X104337657Y-85552306D02*
X104432895Y-85504687D01*
X104432895Y-85504687D02*
X104575752Y-85504687D01*
X104575752Y-85504687D02*
X104670990Y-85552306D01*
X104670990Y-85552306D02*
X104718609Y-85599925D01*
X104718609Y-85599925D02*
X104766228Y-85695163D01*
X104766228Y-85695163D02*
X104766228Y-86076115D01*
X105147180Y-84504687D02*
X105194800Y-84552306D01*
X105194800Y-84552306D02*
X105242419Y-84695163D01*
X105242419Y-84695163D02*
X105242419Y-84790401D01*
X105242419Y-84790401D02*
X105194800Y-84933258D01*
X105194800Y-84933258D02*
X105099561Y-85028496D01*
X105099561Y-85028496D02*
X105004323Y-85076115D01*
X105004323Y-85076115D02*
X104813847Y-85123734D01*
X104813847Y-85123734D02*
X104670990Y-85123734D01*
X104670990Y-85123734D02*
X104480514Y-85076115D01*
X104480514Y-85076115D02*
X104385276Y-85028496D01*
X104385276Y-85028496D02*
X104290038Y-84933258D01*
X104290038Y-84933258D02*
X104242419Y-84790401D01*
X104242419Y-84790401D02*
X104242419Y-84695163D01*
X104242419Y-84695163D02*
X104290038Y-84552306D01*
X104290038Y-84552306D02*
X104337657Y-84504687D01*
X104670990Y-83933258D02*
X104623371Y-84028496D01*
X104623371Y-84028496D02*
X104575752Y-84076115D01*
X104575752Y-84076115D02*
X104480514Y-84123734D01*
X104480514Y-84123734D02*
X104432895Y-84123734D01*
X104432895Y-84123734D02*
X104337657Y-84076115D01*
X104337657Y-84076115D02*
X104290038Y-84028496D01*
X104290038Y-84028496D02*
X104242419Y-83933258D01*
X104242419Y-83933258D02*
X104242419Y-83742782D01*
X104242419Y-83742782D02*
X104290038Y-83647544D01*
X104290038Y-83647544D02*
X104337657Y-83599925D01*
X104337657Y-83599925D02*
X104432895Y-83552306D01*
X104432895Y-83552306D02*
X104480514Y-83552306D01*
X104480514Y-83552306D02*
X104575752Y-83599925D01*
X104575752Y-83599925D02*
X104623371Y-83647544D01*
X104623371Y-83647544D02*
X104670990Y-83742782D01*
X104670990Y-83742782D02*
X104670990Y-83933258D01*
X104670990Y-83933258D02*
X104718609Y-84028496D01*
X104718609Y-84028496D02*
X104766228Y-84076115D01*
X104766228Y-84076115D02*
X104861466Y-84123734D01*
X104861466Y-84123734D02*
X105051942Y-84123734D01*
X105051942Y-84123734D02*
X105147180Y-84076115D01*
X105147180Y-84076115D02*
X105194800Y-84028496D01*
X105194800Y-84028496D02*
X105242419Y-83933258D01*
X105242419Y-83933258D02*
X105242419Y-83742782D01*
X105242419Y-83742782D02*
X105194800Y-83647544D01*
X105194800Y-83647544D02*
X105147180Y-83599925D01*
X105147180Y-83599925D02*
X105051942Y-83552306D01*
X105051942Y-83552306D02*
X104861466Y-83552306D01*
X104861466Y-83552306D02*
X104766228Y-83599925D01*
X104766228Y-83599925D02*
X104718609Y-83647544D01*
X104718609Y-83647544D02*
X104670990Y-83742782D01*
X105242419Y-82599925D02*
X105242419Y-83171353D01*
X105242419Y-82885639D02*
X104242419Y-82885639D01*
X104242419Y-82885639D02*
X104385276Y-82980877D01*
X104385276Y-82980877D02*
X104480514Y-83076115D01*
X104480514Y-83076115D02*
X104528133Y-83171353D01*
X104242419Y-82266591D02*
X104242419Y-81599925D01*
X104242419Y-81599925D02*
X105242419Y-82028496D01*
X105112419Y-70276115D02*
X104112419Y-70276115D01*
X104112419Y-70276115D02*
X104826704Y-69942782D01*
X104826704Y-69942782D02*
X104112419Y-69609449D01*
X104112419Y-69609449D02*
X105112419Y-69609449D01*
X104112419Y-68942782D02*
X104112419Y-68752306D01*
X104112419Y-68752306D02*
X104160038Y-68657068D01*
X104160038Y-68657068D02*
X104255276Y-68561830D01*
X104255276Y-68561830D02*
X104445752Y-68514211D01*
X104445752Y-68514211D02*
X104779085Y-68514211D01*
X104779085Y-68514211D02*
X104969561Y-68561830D01*
X104969561Y-68561830D02*
X105064800Y-68657068D01*
X105064800Y-68657068D02*
X105112419Y-68752306D01*
X105112419Y-68752306D02*
X105112419Y-68942782D01*
X105112419Y-68942782D02*
X105064800Y-69038020D01*
X105064800Y-69038020D02*
X104969561Y-69133258D01*
X104969561Y-69133258D02*
X104779085Y-69180877D01*
X104779085Y-69180877D02*
X104445752Y-69180877D01*
X104445752Y-69180877D02*
X104255276Y-69133258D01*
X104255276Y-69133258D02*
X104160038Y-69038020D01*
X104160038Y-69038020D02*
X104112419Y-68942782D01*
X105017180Y-67514211D02*
X105064800Y-67561830D01*
X105064800Y-67561830D02*
X105112419Y-67704687D01*
X105112419Y-67704687D02*
X105112419Y-67799925D01*
X105112419Y-67799925D02*
X105064800Y-67942782D01*
X105064800Y-67942782D02*
X104969561Y-68038020D01*
X104969561Y-68038020D02*
X104874323Y-68085639D01*
X104874323Y-68085639D02*
X104683847Y-68133258D01*
X104683847Y-68133258D02*
X104540990Y-68133258D01*
X104540990Y-68133258D02*
X104350514Y-68085639D01*
X104350514Y-68085639D02*
X104255276Y-68038020D01*
X104255276Y-68038020D02*
X104160038Y-67942782D01*
X104160038Y-67942782D02*
X104112419Y-67799925D01*
X104112419Y-67799925D02*
X104112419Y-67704687D01*
X104112419Y-67704687D02*
X104160038Y-67561830D01*
X104160038Y-67561830D02*
X104207657Y-67514211D01*
X104112419Y-67180877D02*
X104112419Y-66561830D01*
X104112419Y-66561830D02*
X104493371Y-66895163D01*
X104493371Y-66895163D02*
X104493371Y-66752306D01*
X104493371Y-66752306D02*
X104540990Y-66657068D01*
X104540990Y-66657068D02*
X104588609Y-66609449D01*
X104588609Y-66609449D02*
X104683847Y-66561830D01*
X104683847Y-66561830D02*
X104921942Y-66561830D01*
X104921942Y-66561830D02*
X105017180Y-66609449D01*
X105017180Y-66609449D02*
X105064800Y-66657068D01*
X105064800Y-66657068D02*
X105112419Y-66752306D01*
X105112419Y-66752306D02*
X105112419Y-67038020D01*
X105112419Y-67038020D02*
X105064800Y-67133258D01*
X105064800Y-67133258D02*
X105017180Y-67180877D01*
X104112419Y-65942782D02*
X104112419Y-65847544D01*
X104112419Y-65847544D02*
X104160038Y-65752306D01*
X104160038Y-65752306D02*
X104207657Y-65704687D01*
X104207657Y-65704687D02*
X104302895Y-65657068D01*
X104302895Y-65657068D02*
X104493371Y-65609449D01*
X104493371Y-65609449D02*
X104731466Y-65609449D01*
X104731466Y-65609449D02*
X104921942Y-65657068D01*
X104921942Y-65657068D02*
X105017180Y-65704687D01*
X105017180Y-65704687D02*
X105064800Y-65752306D01*
X105064800Y-65752306D02*
X105112419Y-65847544D01*
X105112419Y-65847544D02*
X105112419Y-65942782D01*
X105112419Y-65942782D02*
X105064800Y-66038020D01*
X105064800Y-66038020D02*
X105017180Y-66085639D01*
X105017180Y-66085639D02*
X104921942Y-66133258D01*
X104921942Y-66133258D02*
X104731466Y-66180877D01*
X104731466Y-66180877D02*
X104493371Y-66180877D01*
X104493371Y-66180877D02*
X104302895Y-66133258D01*
X104302895Y-66133258D02*
X104207657Y-66085639D01*
X104207657Y-66085639D02*
X104160038Y-66038020D01*
X104160038Y-66038020D02*
X104112419Y-65942782D01*
X104207657Y-65228496D02*
X104160038Y-65180877D01*
X104160038Y-65180877D02*
X104112419Y-65085639D01*
X104112419Y-65085639D02*
X104112419Y-64847544D01*
X104112419Y-64847544D02*
X104160038Y-64752306D01*
X104160038Y-64752306D02*
X104207657Y-64704687D01*
X104207657Y-64704687D02*
X104302895Y-64657068D01*
X104302895Y-64657068D02*
X104398133Y-64657068D01*
X104398133Y-64657068D02*
X104540990Y-64704687D01*
X104540990Y-64704687D02*
X105112419Y-65276115D01*
X105112419Y-65276115D02*
X105112419Y-64657068D01*
X105112419Y-63704687D02*
X105112419Y-64276115D01*
X105112419Y-63990401D02*
X104112419Y-63990401D01*
X104112419Y-63990401D02*
X104255276Y-64085639D01*
X104255276Y-64085639D02*
X104350514Y-64180877D01*
X104350514Y-64180877D02*
X104398133Y-64276115D01*
X121215312Y-67407180D02*
X121167693Y-67454800D01*
X121167693Y-67454800D02*
X121024836Y-67502419D01*
X121024836Y-67502419D02*
X120929598Y-67502419D01*
X120929598Y-67502419D02*
X120786741Y-67454800D01*
X120786741Y-67454800D02*
X120691503Y-67359561D01*
X120691503Y-67359561D02*
X120643884Y-67264323D01*
X120643884Y-67264323D02*
X120596265Y-67073847D01*
X120596265Y-67073847D02*
X120596265Y-66930990D01*
X120596265Y-66930990D02*
X120643884Y-66740514D01*
X120643884Y-66740514D02*
X120691503Y-66645276D01*
X120691503Y-66645276D02*
X120786741Y-66550038D01*
X120786741Y-66550038D02*
X120929598Y-66502419D01*
X120929598Y-66502419D02*
X121024836Y-66502419D01*
X121024836Y-66502419D02*
X121167693Y-66550038D01*
X121167693Y-66550038D02*
X121215312Y-66597657D01*
X121596265Y-67216704D02*
X122072455Y-67216704D01*
X121501027Y-67502419D02*
X121834360Y-66502419D01*
X121834360Y-66502419D02*
X122167693Y-67502419D01*
X122501027Y-67502419D02*
X122501027Y-66502419D01*
X122501027Y-66502419D02*
X122881979Y-66502419D01*
X122881979Y-66502419D02*
X122977217Y-66550038D01*
X122977217Y-66550038D02*
X123024836Y-66597657D01*
X123024836Y-66597657D02*
X123072455Y-66692895D01*
X123072455Y-66692895D02*
X123072455Y-66835752D01*
X123072455Y-66835752D02*
X123024836Y-66930990D01*
X123024836Y-66930990D02*
X122977217Y-66978609D01*
X122977217Y-66978609D02*
X122881979Y-67026228D01*
X122881979Y-67026228D02*
X122501027Y-67026228D01*
X123453408Y-67216704D02*
X123929598Y-67216704D01*
X123358170Y-67502419D02*
X123691503Y-66502419D01*
X123691503Y-66502419D02*
X124024836Y-67502419D01*
X124929598Y-67407180D02*
X124881979Y-67454800D01*
X124881979Y-67454800D02*
X124739122Y-67502419D01*
X124739122Y-67502419D02*
X124643884Y-67502419D01*
X124643884Y-67502419D02*
X124501027Y-67454800D01*
X124501027Y-67454800D02*
X124405789Y-67359561D01*
X124405789Y-67359561D02*
X124358170Y-67264323D01*
X124358170Y-67264323D02*
X124310551Y-67073847D01*
X124310551Y-67073847D02*
X124310551Y-66930990D01*
X124310551Y-66930990D02*
X124358170Y-66740514D01*
X124358170Y-66740514D02*
X124405789Y-66645276D01*
X124405789Y-66645276D02*
X124501027Y-66550038D01*
X124501027Y-66550038D02*
X124643884Y-66502419D01*
X124643884Y-66502419D02*
X124739122Y-66502419D01*
X124739122Y-66502419D02*
X124881979Y-66550038D01*
X124881979Y-66550038D02*
X124929598Y-66597657D01*
X125358170Y-67502419D02*
X125358170Y-66502419D01*
X125691503Y-66502419D02*
X126262931Y-66502419D01*
X125977217Y-67502419D02*
X125977217Y-66502419D01*
X126786741Y-66502419D02*
X126977217Y-66502419D01*
X126977217Y-66502419D02*
X127072455Y-66550038D01*
X127072455Y-66550038D02*
X127167693Y-66645276D01*
X127167693Y-66645276D02*
X127215312Y-66835752D01*
X127215312Y-66835752D02*
X127215312Y-67169085D01*
X127215312Y-67169085D02*
X127167693Y-67359561D01*
X127167693Y-67359561D02*
X127072455Y-67454800D01*
X127072455Y-67454800D02*
X126977217Y-67502419D01*
X126977217Y-67502419D02*
X126786741Y-67502419D01*
X126786741Y-67502419D02*
X126691503Y-67454800D01*
X126691503Y-67454800D02*
X126596265Y-67359561D01*
X126596265Y-67359561D02*
X126548646Y-67169085D01*
X126548646Y-67169085D02*
X126548646Y-66835752D01*
X126548646Y-66835752D02*
X126596265Y-66645276D01*
X126596265Y-66645276D02*
X126691503Y-66550038D01*
X126691503Y-66550038D02*
X126786741Y-66502419D01*
X128215312Y-67502419D02*
X127881979Y-67026228D01*
X127643884Y-67502419D02*
X127643884Y-66502419D01*
X127643884Y-66502419D02*
X128024836Y-66502419D01*
X128024836Y-66502419D02*
X128120074Y-66550038D01*
X128120074Y-66550038D02*
X128167693Y-66597657D01*
X128167693Y-66597657D02*
X128215312Y-66692895D01*
X128215312Y-66692895D02*
X128215312Y-66835752D01*
X128215312Y-66835752D02*
X128167693Y-66930990D01*
X128167693Y-66930990D02*
X128120074Y-66978609D01*
X128120074Y-66978609D02*
X128024836Y-67026228D01*
X128024836Y-67026228D02*
X127643884Y-67026228D01*
X120596265Y-69064800D02*
X120739122Y-69112419D01*
X120739122Y-69112419D02*
X120977217Y-69112419D01*
X120977217Y-69112419D02*
X121072455Y-69064800D01*
X121072455Y-69064800D02*
X121120074Y-69017180D01*
X121120074Y-69017180D02*
X121167693Y-68921942D01*
X121167693Y-68921942D02*
X121167693Y-68826704D01*
X121167693Y-68826704D02*
X121120074Y-68731466D01*
X121120074Y-68731466D02*
X121072455Y-68683847D01*
X121072455Y-68683847D02*
X120977217Y-68636228D01*
X120977217Y-68636228D02*
X120786741Y-68588609D01*
X120786741Y-68588609D02*
X120691503Y-68540990D01*
X120691503Y-68540990D02*
X120643884Y-68493371D01*
X120643884Y-68493371D02*
X120596265Y-68398133D01*
X120596265Y-68398133D02*
X120596265Y-68302895D01*
X120596265Y-68302895D02*
X120643884Y-68207657D01*
X120643884Y-68207657D02*
X120691503Y-68160038D01*
X120691503Y-68160038D02*
X120786741Y-68112419D01*
X120786741Y-68112419D02*
X121024836Y-68112419D01*
X121024836Y-68112419D02*
X121167693Y-68160038D01*
X121596265Y-68588609D02*
X121929598Y-68588609D01*
X122072455Y-69112419D02*
X121596265Y-69112419D01*
X121596265Y-69112419D02*
X121596265Y-68112419D01*
X121596265Y-68112419D02*
X122072455Y-68112419D01*
X122977217Y-69112419D02*
X122501027Y-69112419D01*
X122501027Y-69112419D02*
X122501027Y-68112419D01*
X123310551Y-68588609D02*
X123643884Y-68588609D01*
X123786741Y-69112419D02*
X123310551Y-69112419D01*
X123310551Y-69112419D02*
X123310551Y-68112419D01*
X123310551Y-68112419D02*
X123786741Y-68112419D01*
X124786741Y-69017180D02*
X124739122Y-69064800D01*
X124739122Y-69064800D02*
X124596265Y-69112419D01*
X124596265Y-69112419D02*
X124501027Y-69112419D01*
X124501027Y-69112419D02*
X124358170Y-69064800D01*
X124358170Y-69064800D02*
X124262932Y-68969561D01*
X124262932Y-68969561D02*
X124215313Y-68874323D01*
X124215313Y-68874323D02*
X124167694Y-68683847D01*
X124167694Y-68683847D02*
X124167694Y-68540990D01*
X124167694Y-68540990D02*
X124215313Y-68350514D01*
X124215313Y-68350514D02*
X124262932Y-68255276D01*
X124262932Y-68255276D02*
X124358170Y-68160038D01*
X124358170Y-68160038D02*
X124501027Y-68112419D01*
X124501027Y-68112419D02*
X124596265Y-68112419D01*
X124596265Y-68112419D02*
X124739122Y-68160038D01*
X124739122Y-68160038D02*
X124786741Y-68207657D01*
X125072456Y-68112419D02*
X125643884Y-68112419D01*
X125358170Y-69112419D02*
X125358170Y-68112419D01*
X125977218Y-69112419D02*
X125977218Y-68112419D01*
X126643884Y-68112419D02*
X126834360Y-68112419D01*
X126834360Y-68112419D02*
X126929598Y-68160038D01*
X126929598Y-68160038D02*
X127024836Y-68255276D01*
X127024836Y-68255276D02*
X127072455Y-68445752D01*
X127072455Y-68445752D02*
X127072455Y-68779085D01*
X127072455Y-68779085D02*
X127024836Y-68969561D01*
X127024836Y-68969561D02*
X126929598Y-69064800D01*
X126929598Y-69064800D02*
X126834360Y-69112419D01*
X126834360Y-69112419D02*
X126643884Y-69112419D01*
X126643884Y-69112419D02*
X126548646Y-69064800D01*
X126548646Y-69064800D02*
X126453408Y-68969561D01*
X126453408Y-68969561D02*
X126405789Y-68779085D01*
X126405789Y-68779085D02*
X126405789Y-68445752D01*
X126405789Y-68445752D02*
X126453408Y-68255276D01*
X126453408Y-68255276D02*
X126548646Y-68160038D01*
X126548646Y-68160038D02*
X126643884Y-68112419D01*
X127501027Y-69112419D02*
X127501027Y-68112419D01*
X127501027Y-68112419D02*
X128072455Y-69112419D01*
X128072455Y-69112419D02*
X128072455Y-68112419D01*
X139615312Y-86532419D02*
X139281979Y-86056228D01*
X139043884Y-86532419D02*
X139043884Y-85532419D01*
X139043884Y-85532419D02*
X139424836Y-85532419D01*
X139424836Y-85532419D02*
X139520074Y-85580038D01*
X139520074Y-85580038D02*
X139567693Y-85627657D01*
X139567693Y-85627657D02*
X139615312Y-85722895D01*
X139615312Y-85722895D02*
X139615312Y-85865752D01*
X139615312Y-85865752D02*
X139567693Y-85960990D01*
X139567693Y-85960990D02*
X139520074Y-86008609D01*
X139520074Y-86008609D02*
X139424836Y-86056228D01*
X139424836Y-86056228D02*
X139043884Y-86056228D01*
X140043884Y-86008609D02*
X140377217Y-86008609D01*
X140520074Y-86532419D02*
X140043884Y-86532419D01*
X140043884Y-86532419D02*
X140043884Y-85532419D01*
X140043884Y-85532419D02*
X140520074Y-85532419D01*
X140901027Y-86484800D02*
X141043884Y-86532419D01*
X141043884Y-86532419D02*
X141281979Y-86532419D01*
X141281979Y-86532419D02*
X141377217Y-86484800D01*
X141377217Y-86484800D02*
X141424836Y-86437180D01*
X141424836Y-86437180D02*
X141472455Y-86341942D01*
X141472455Y-86341942D02*
X141472455Y-86246704D01*
X141472455Y-86246704D02*
X141424836Y-86151466D01*
X141424836Y-86151466D02*
X141377217Y-86103847D01*
X141377217Y-86103847D02*
X141281979Y-86056228D01*
X141281979Y-86056228D02*
X141091503Y-86008609D01*
X141091503Y-86008609D02*
X140996265Y-85960990D01*
X140996265Y-85960990D02*
X140948646Y-85913371D01*
X140948646Y-85913371D02*
X140901027Y-85818133D01*
X140901027Y-85818133D02*
X140901027Y-85722895D01*
X140901027Y-85722895D02*
X140948646Y-85627657D01*
X140948646Y-85627657D02*
X140996265Y-85580038D01*
X140996265Y-85580038D02*
X141091503Y-85532419D01*
X141091503Y-85532419D02*
X141329598Y-85532419D01*
X141329598Y-85532419D02*
X141472455Y-85580038D01*
X141901027Y-86532419D02*
X141901027Y-85532419D01*
X142329598Y-86484800D02*
X142472455Y-86532419D01*
X142472455Y-86532419D02*
X142710550Y-86532419D01*
X142710550Y-86532419D02*
X142805788Y-86484800D01*
X142805788Y-86484800D02*
X142853407Y-86437180D01*
X142853407Y-86437180D02*
X142901026Y-86341942D01*
X142901026Y-86341942D02*
X142901026Y-86246704D01*
X142901026Y-86246704D02*
X142853407Y-86151466D01*
X142853407Y-86151466D02*
X142805788Y-86103847D01*
X142805788Y-86103847D02*
X142710550Y-86056228D01*
X142710550Y-86056228D02*
X142520074Y-86008609D01*
X142520074Y-86008609D02*
X142424836Y-85960990D01*
X142424836Y-85960990D02*
X142377217Y-85913371D01*
X142377217Y-85913371D02*
X142329598Y-85818133D01*
X142329598Y-85818133D02*
X142329598Y-85722895D01*
X142329598Y-85722895D02*
X142377217Y-85627657D01*
X142377217Y-85627657D02*
X142424836Y-85580038D01*
X142424836Y-85580038D02*
X142520074Y-85532419D01*
X142520074Y-85532419D02*
X142758169Y-85532419D01*
X142758169Y-85532419D02*
X142901026Y-85580038D01*
X143186741Y-85532419D02*
X143758169Y-85532419D01*
X143472455Y-86532419D02*
X143472455Y-85532419D01*
X144281979Y-85532419D02*
X144472455Y-85532419D01*
X144472455Y-85532419D02*
X144567693Y-85580038D01*
X144567693Y-85580038D02*
X144662931Y-85675276D01*
X144662931Y-85675276D02*
X144710550Y-85865752D01*
X144710550Y-85865752D02*
X144710550Y-86199085D01*
X144710550Y-86199085D02*
X144662931Y-86389561D01*
X144662931Y-86389561D02*
X144567693Y-86484800D01*
X144567693Y-86484800D02*
X144472455Y-86532419D01*
X144472455Y-86532419D02*
X144281979Y-86532419D01*
X144281979Y-86532419D02*
X144186741Y-86484800D01*
X144186741Y-86484800D02*
X144091503Y-86389561D01*
X144091503Y-86389561D02*
X144043884Y-86199085D01*
X144043884Y-86199085D02*
X144043884Y-85865752D01*
X144043884Y-85865752D02*
X144091503Y-85675276D01*
X144091503Y-85675276D02*
X144186741Y-85580038D01*
X144186741Y-85580038D02*
X144281979Y-85532419D01*
X145710550Y-86532419D02*
X145377217Y-86056228D01*
X145139122Y-86532419D02*
X145139122Y-85532419D01*
X145139122Y-85532419D02*
X145520074Y-85532419D01*
X145520074Y-85532419D02*
X145615312Y-85580038D01*
X145615312Y-85580038D02*
X145662931Y-85627657D01*
X145662931Y-85627657D02*
X145710550Y-85722895D01*
X145710550Y-85722895D02*
X145710550Y-85865752D01*
X145710550Y-85865752D02*
X145662931Y-85960990D01*
X145662931Y-85960990D02*
X145615312Y-86008609D01*
X145615312Y-86008609D02*
X145520074Y-86056228D01*
X145520074Y-86056228D02*
X145139122Y-86056228D01*
X138996265Y-88094800D02*
X139139122Y-88142419D01*
X139139122Y-88142419D02*
X139377217Y-88142419D01*
X139377217Y-88142419D02*
X139472455Y-88094800D01*
X139472455Y-88094800D02*
X139520074Y-88047180D01*
X139520074Y-88047180D02*
X139567693Y-87951942D01*
X139567693Y-87951942D02*
X139567693Y-87856704D01*
X139567693Y-87856704D02*
X139520074Y-87761466D01*
X139520074Y-87761466D02*
X139472455Y-87713847D01*
X139472455Y-87713847D02*
X139377217Y-87666228D01*
X139377217Y-87666228D02*
X139186741Y-87618609D01*
X139186741Y-87618609D02*
X139091503Y-87570990D01*
X139091503Y-87570990D02*
X139043884Y-87523371D01*
X139043884Y-87523371D02*
X138996265Y-87428133D01*
X138996265Y-87428133D02*
X138996265Y-87332895D01*
X138996265Y-87332895D02*
X139043884Y-87237657D01*
X139043884Y-87237657D02*
X139091503Y-87190038D01*
X139091503Y-87190038D02*
X139186741Y-87142419D01*
X139186741Y-87142419D02*
X139424836Y-87142419D01*
X139424836Y-87142419D02*
X139567693Y-87190038D01*
X139996265Y-87618609D02*
X140329598Y-87618609D01*
X140472455Y-88142419D02*
X139996265Y-88142419D01*
X139996265Y-88142419D02*
X139996265Y-87142419D01*
X139996265Y-87142419D02*
X140472455Y-87142419D01*
X141377217Y-88142419D02*
X140901027Y-88142419D01*
X140901027Y-88142419D02*
X140901027Y-87142419D01*
X141710551Y-87618609D02*
X142043884Y-87618609D01*
X142186741Y-88142419D02*
X141710551Y-88142419D01*
X141710551Y-88142419D02*
X141710551Y-87142419D01*
X141710551Y-87142419D02*
X142186741Y-87142419D01*
X143186741Y-88047180D02*
X143139122Y-88094800D01*
X143139122Y-88094800D02*
X142996265Y-88142419D01*
X142996265Y-88142419D02*
X142901027Y-88142419D01*
X142901027Y-88142419D02*
X142758170Y-88094800D01*
X142758170Y-88094800D02*
X142662932Y-87999561D01*
X142662932Y-87999561D02*
X142615313Y-87904323D01*
X142615313Y-87904323D02*
X142567694Y-87713847D01*
X142567694Y-87713847D02*
X142567694Y-87570990D01*
X142567694Y-87570990D02*
X142615313Y-87380514D01*
X142615313Y-87380514D02*
X142662932Y-87285276D01*
X142662932Y-87285276D02*
X142758170Y-87190038D01*
X142758170Y-87190038D02*
X142901027Y-87142419D01*
X142901027Y-87142419D02*
X142996265Y-87142419D01*
X142996265Y-87142419D02*
X143139122Y-87190038D01*
X143139122Y-87190038D02*
X143186741Y-87237657D01*
X143472456Y-87142419D02*
X144043884Y-87142419D01*
X143758170Y-88142419D02*
X143758170Y-87142419D01*
X144377218Y-88142419D02*
X144377218Y-87142419D01*
X145043884Y-87142419D02*
X145234360Y-87142419D01*
X145234360Y-87142419D02*
X145329598Y-87190038D01*
X145329598Y-87190038D02*
X145424836Y-87285276D01*
X145424836Y-87285276D02*
X145472455Y-87475752D01*
X145472455Y-87475752D02*
X145472455Y-87809085D01*
X145472455Y-87809085D02*
X145424836Y-87999561D01*
X145424836Y-87999561D02*
X145329598Y-88094800D01*
X145329598Y-88094800D02*
X145234360Y-88142419D01*
X145234360Y-88142419D02*
X145043884Y-88142419D01*
X145043884Y-88142419D02*
X144948646Y-88094800D01*
X144948646Y-88094800D02*
X144853408Y-87999561D01*
X144853408Y-87999561D02*
X144805789Y-87809085D01*
X144805789Y-87809085D02*
X144805789Y-87475752D01*
X144805789Y-87475752D02*
X144853408Y-87285276D01*
X144853408Y-87285276D02*
X144948646Y-87190038D01*
X144948646Y-87190038D02*
X145043884Y-87142419D01*
X145901027Y-88142419D02*
X145901027Y-87142419D01*
X145901027Y-87142419D02*
X146472455Y-88142419D01*
X146472455Y-88142419D02*
X146472455Y-87142419D01*
X146646115Y-56837580D02*
X146646115Y-57837580D01*
X146646115Y-57837580D02*
X146265163Y-57837580D01*
X146265163Y-57837580D02*
X146169925Y-57789961D01*
X146169925Y-57789961D02*
X146122306Y-57742342D01*
X146122306Y-57742342D02*
X146074687Y-57647104D01*
X146074687Y-57647104D02*
X146074687Y-57504247D01*
X146074687Y-57504247D02*
X146122306Y-57409009D01*
X146122306Y-57409009D02*
X146169925Y-57361390D01*
X146169925Y-57361390D02*
X146265163Y-57313771D01*
X146265163Y-57313771D02*
X146646115Y-57313771D01*
X145741353Y-57837580D02*
X145503258Y-56837580D01*
X145503258Y-56837580D02*
X145312782Y-57551866D01*
X145312782Y-57551866D02*
X145122306Y-56837580D01*
X145122306Y-56837580D02*
X144884211Y-57837580D01*
X144503258Y-56837580D02*
X144503258Y-57837580D01*
X144503258Y-57837580D02*
X144169925Y-57123295D01*
X144169925Y-57123295D02*
X143836592Y-57837580D01*
X143836592Y-57837580D02*
X143836592Y-56837580D01*
X135602306Y-57749961D02*
X135697544Y-57797580D01*
X135697544Y-57797580D02*
X135840401Y-57797580D01*
X135840401Y-57797580D02*
X135983258Y-57749961D01*
X135983258Y-57749961D02*
X136078496Y-57654723D01*
X136078496Y-57654723D02*
X136126115Y-57559485D01*
X136126115Y-57559485D02*
X136173734Y-57369009D01*
X136173734Y-57369009D02*
X136173734Y-57226152D01*
X136173734Y-57226152D02*
X136126115Y-57035676D01*
X136126115Y-57035676D02*
X136078496Y-56940438D01*
X136078496Y-56940438D02*
X135983258Y-56845200D01*
X135983258Y-56845200D02*
X135840401Y-56797580D01*
X135840401Y-56797580D02*
X135745163Y-56797580D01*
X135745163Y-56797580D02*
X135602306Y-56845200D01*
X135602306Y-56845200D02*
X135554687Y-56892819D01*
X135554687Y-56892819D02*
X135554687Y-57226152D01*
X135554687Y-57226152D02*
X135745163Y-57226152D01*
X135126115Y-56797580D02*
X135126115Y-57797580D01*
X135126115Y-57797580D02*
X134554687Y-56797580D01*
X134554687Y-56797580D02*
X134554687Y-57797580D01*
X134078496Y-56797580D02*
X134078496Y-57797580D01*
X134078496Y-57797580D02*
X133840401Y-57797580D01*
X133840401Y-57797580D02*
X133697544Y-57749961D01*
X133697544Y-57749961D02*
X133602306Y-57654723D01*
X133602306Y-57654723D02*
X133554687Y-57559485D01*
X133554687Y-57559485D02*
X133507068Y-57369009D01*
X133507068Y-57369009D02*
X133507068Y-57226152D01*
X133507068Y-57226152D02*
X133554687Y-57035676D01*
X133554687Y-57035676D02*
X133602306Y-56940438D01*
X133602306Y-56940438D02*
X133697544Y-56845200D01*
X133697544Y-56845200D02*
X133840401Y-56797580D01*
X133840401Y-56797580D02*
X134078496Y-56797580D01*
X117121027Y-94142419D02*
X117454360Y-95142419D01*
X117454360Y-95142419D02*
X117787693Y-94142419D01*
X118121027Y-94761466D02*
X118882932Y-94761466D01*
X118501979Y-95142419D02*
X118501979Y-94380514D01*
X121506265Y-94994800D02*
X121649122Y-95042419D01*
X121649122Y-95042419D02*
X121887217Y-95042419D01*
X121887217Y-95042419D02*
X121982455Y-94994800D01*
X121982455Y-94994800D02*
X122030074Y-94947180D01*
X122030074Y-94947180D02*
X122077693Y-94851942D01*
X122077693Y-94851942D02*
X122077693Y-94756704D01*
X122077693Y-94756704D02*
X122030074Y-94661466D01*
X122030074Y-94661466D02*
X121982455Y-94613847D01*
X121982455Y-94613847D02*
X121887217Y-94566228D01*
X121887217Y-94566228D02*
X121696741Y-94518609D01*
X121696741Y-94518609D02*
X121601503Y-94470990D01*
X121601503Y-94470990D02*
X121553884Y-94423371D01*
X121553884Y-94423371D02*
X121506265Y-94328133D01*
X121506265Y-94328133D02*
X121506265Y-94232895D01*
X121506265Y-94232895D02*
X121553884Y-94137657D01*
X121553884Y-94137657D02*
X121601503Y-94090038D01*
X121601503Y-94090038D02*
X121696741Y-94042419D01*
X121696741Y-94042419D02*
X121934836Y-94042419D01*
X121934836Y-94042419D02*
X122077693Y-94090038D01*
X122696741Y-94566228D02*
X122696741Y-95042419D01*
X122363408Y-94042419D02*
X122696741Y-94566228D01*
X122696741Y-94566228D02*
X123030074Y-94042419D01*
X123363408Y-95042419D02*
X123363408Y-94042419D01*
X123363408Y-94042419D02*
X123934836Y-95042419D01*
X123934836Y-95042419D02*
X123934836Y-94042419D01*
X124982455Y-94947180D02*
X124934836Y-94994800D01*
X124934836Y-94994800D02*
X124791979Y-95042419D01*
X124791979Y-95042419D02*
X124696741Y-95042419D01*
X124696741Y-95042419D02*
X124553884Y-94994800D01*
X124553884Y-94994800D02*
X124458646Y-94899561D01*
X124458646Y-94899561D02*
X124411027Y-94804323D01*
X124411027Y-94804323D02*
X124363408Y-94613847D01*
X124363408Y-94613847D02*
X124363408Y-94470990D01*
X124363408Y-94470990D02*
X124411027Y-94280514D01*
X124411027Y-94280514D02*
X124458646Y-94185276D01*
X124458646Y-94185276D02*
X124553884Y-94090038D01*
X124553884Y-94090038D02*
X124696741Y-94042419D01*
X124696741Y-94042419D02*
X124791979Y-94042419D01*
X124791979Y-94042419D02*
X124934836Y-94090038D01*
X124934836Y-94090038D02*
X124982455Y-94137657D01*
X127207693Y-94090038D02*
X127112455Y-94042419D01*
X127112455Y-94042419D02*
X126969598Y-94042419D01*
X126969598Y-94042419D02*
X126826741Y-94090038D01*
X126826741Y-94090038D02*
X126731503Y-94185276D01*
X126731503Y-94185276D02*
X126683884Y-94280514D01*
X126683884Y-94280514D02*
X126636265Y-94470990D01*
X126636265Y-94470990D02*
X126636265Y-94613847D01*
X126636265Y-94613847D02*
X126683884Y-94804323D01*
X126683884Y-94804323D02*
X126731503Y-94899561D01*
X126731503Y-94899561D02*
X126826741Y-94994800D01*
X126826741Y-94994800D02*
X126969598Y-95042419D01*
X126969598Y-95042419D02*
X127064836Y-95042419D01*
X127064836Y-95042419D02*
X127207693Y-94994800D01*
X127207693Y-94994800D02*
X127255312Y-94947180D01*
X127255312Y-94947180D02*
X127255312Y-94613847D01*
X127255312Y-94613847D02*
X127064836Y-94613847D01*
X127683884Y-95042419D02*
X127683884Y-94042419D01*
X127683884Y-94042419D02*
X128255312Y-95042419D01*
X128255312Y-95042419D02*
X128255312Y-94042419D01*
X128731503Y-95042419D02*
X128731503Y-94042419D01*
X128731503Y-94042419D02*
X128969598Y-94042419D01*
X128969598Y-94042419D02*
X129112455Y-94090038D01*
X129112455Y-94090038D02*
X129207693Y-94185276D01*
X129207693Y-94185276D02*
X129255312Y-94280514D01*
X129255312Y-94280514D02*
X129302931Y-94470990D01*
X129302931Y-94470990D02*
X129302931Y-94613847D01*
X129302931Y-94613847D02*
X129255312Y-94804323D01*
X129255312Y-94804323D02*
X129207693Y-94899561D01*
X129207693Y-94899561D02*
X129112455Y-94994800D01*
X129112455Y-94994800D02*
X128969598Y-95042419D01*
X128969598Y-95042419D02*
X128731503Y-95042419D01*
X52437580Y-79420074D02*
X52437580Y-78943884D01*
X52437580Y-78943884D02*
X53437580Y-78943884D01*
X53437580Y-79943884D02*
X53437580Y-80134360D01*
X53437580Y-80134360D02*
X53389961Y-80229598D01*
X53389961Y-80229598D02*
X53294723Y-80324836D01*
X53294723Y-80324836D02*
X53104247Y-80372455D01*
X53104247Y-80372455D02*
X52770914Y-80372455D01*
X52770914Y-80372455D02*
X52580438Y-80324836D01*
X52580438Y-80324836D02*
X52485200Y-80229598D01*
X52485200Y-80229598D02*
X52437580Y-80134360D01*
X52437580Y-80134360D02*
X52437580Y-79943884D01*
X52437580Y-79943884D02*
X52485200Y-79848646D01*
X52485200Y-79848646D02*
X52580438Y-79753408D01*
X52580438Y-79753408D02*
X52770914Y-79705789D01*
X52770914Y-79705789D02*
X53104247Y-79705789D01*
X53104247Y-79705789D02*
X53294723Y-79753408D01*
X53294723Y-79753408D02*
X53389961Y-79848646D01*
X53389961Y-79848646D02*
X53437580Y-79943884D01*
X52723295Y-80753408D02*
X52723295Y-81229598D01*
X52437580Y-80658170D02*
X53437580Y-80991503D01*
X53437580Y-80991503D02*
X52437580Y-81324836D01*
X52437580Y-81658170D02*
X53437580Y-81658170D01*
X53437580Y-81658170D02*
X53437580Y-81896265D01*
X53437580Y-81896265D02*
X53389961Y-82039122D01*
X53389961Y-82039122D02*
X53294723Y-82134360D01*
X53294723Y-82134360D02*
X53199485Y-82181979D01*
X53199485Y-82181979D02*
X53009009Y-82229598D01*
X53009009Y-82229598D02*
X52866152Y-82229598D01*
X52866152Y-82229598D02*
X52675676Y-82181979D01*
X52675676Y-82181979D02*
X52580438Y-82134360D01*
X52580438Y-82134360D02*
X52485200Y-82039122D01*
X52485200Y-82039122D02*
X52437580Y-81896265D01*
X52437580Y-81896265D02*
X52437580Y-81658170D01*
X52497580Y-88883884D02*
X53497580Y-88883884D01*
X53497580Y-88883884D02*
X52497580Y-89455312D01*
X52497580Y-89455312D02*
X53497580Y-89455312D01*
X53021390Y-89931503D02*
X53021390Y-90264836D01*
X52497580Y-90407693D02*
X52497580Y-89931503D01*
X52497580Y-89931503D02*
X53497580Y-89931503D01*
X53497580Y-89931503D02*
X53497580Y-90407693D01*
X53497580Y-90836265D02*
X52688057Y-90836265D01*
X52688057Y-90836265D02*
X52592819Y-90883884D01*
X52592819Y-90883884D02*
X52545200Y-90931503D01*
X52545200Y-90931503D02*
X52497580Y-91026741D01*
X52497580Y-91026741D02*
X52497580Y-91217217D01*
X52497580Y-91217217D02*
X52545200Y-91312455D01*
X52545200Y-91312455D02*
X52592819Y-91360074D01*
X52592819Y-91360074D02*
X52688057Y-91407693D01*
X52688057Y-91407693D02*
X53497580Y-91407693D01*
X53497580Y-91741027D02*
X53497580Y-92312455D01*
X52497580Y-92026741D02*
X53497580Y-92026741D01*
X52457580Y-70723884D02*
X53457580Y-70723884D01*
X53457580Y-70723884D02*
X52457580Y-71295312D01*
X52457580Y-71295312D02*
X53457580Y-71295312D01*
X52981390Y-71771503D02*
X52981390Y-72104836D01*
X52457580Y-72247693D02*
X52457580Y-71771503D01*
X52457580Y-71771503D02*
X53457580Y-71771503D01*
X53457580Y-71771503D02*
X53457580Y-72247693D01*
X53457580Y-72676265D02*
X52648057Y-72676265D01*
X52648057Y-72676265D02*
X52552819Y-72723884D01*
X52552819Y-72723884D02*
X52505200Y-72771503D01*
X52505200Y-72771503D02*
X52457580Y-72866741D01*
X52457580Y-72866741D02*
X52457580Y-73057217D01*
X52457580Y-73057217D02*
X52505200Y-73152455D01*
X52505200Y-73152455D02*
X52552819Y-73200074D01*
X52552819Y-73200074D02*
X52648057Y-73247693D01*
X52648057Y-73247693D02*
X53457580Y-73247693D01*
X53457580Y-73581027D02*
X53457580Y-74152455D01*
X52457580Y-73866741D02*
X53457580Y-73866741D01*
X52337580Y-60513884D02*
X53337580Y-60513884D01*
X52861390Y-60513884D02*
X52861390Y-61085312D01*
X52337580Y-61085312D02*
X53337580Y-61085312D01*
X53337580Y-61751979D02*
X53337580Y-61942455D01*
X53337580Y-61942455D02*
X53289961Y-62037693D01*
X53289961Y-62037693D02*
X53194723Y-62132931D01*
X53194723Y-62132931D02*
X53004247Y-62180550D01*
X53004247Y-62180550D02*
X52670914Y-62180550D01*
X52670914Y-62180550D02*
X52480438Y-62132931D01*
X52480438Y-62132931D02*
X52385200Y-62037693D01*
X52385200Y-62037693D02*
X52337580Y-61942455D01*
X52337580Y-61942455D02*
X52337580Y-61751979D01*
X52337580Y-61751979D02*
X52385200Y-61656741D01*
X52385200Y-61656741D02*
X52480438Y-61561503D01*
X52480438Y-61561503D02*
X52670914Y-61513884D01*
X52670914Y-61513884D02*
X53004247Y-61513884D01*
X53004247Y-61513884D02*
X53194723Y-61561503D01*
X53194723Y-61561503D02*
X53289961Y-61656741D01*
X53289961Y-61656741D02*
X53337580Y-61751979D01*
X53337580Y-62466265D02*
X53337580Y-63037693D01*
X52337580Y-62751979D02*
X53337580Y-62751979D01*
X101197693Y-83082419D02*
X100626265Y-83082419D01*
X100911979Y-83082419D02*
X100911979Y-82082419D01*
X100911979Y-82082419D02*
X100816741Y-82225276D01*
X100816741Y-82225276D02*
X100721503Y-82320514D01*
X100721503Y-82320514D02*
X100626265Y-82368133D01*
X101017693Y-75682419D02*
X100446265Y-75682419D01*
X100731979Y-75682419D02*
X100731979Y-74682419D01*
X100731979Y-74682419D02*
X100636741Y-74825276D01*
X100636741Y-74825276D02*
X100541503Y-74920514D01*
X100541503Y-74920514D02*
X100446265Y-74968133D01*
X112257693Y-69612419D02*
X111686265Y-69612419D01*
X111971979Y-69612419D02*
X111971979Y-68612419D01*
X111971979Y-68612419D02*
X111876741Y-68755276D01*
X111876741Y-68755276D02*
X111781503Y-68850514D01*
X111781503Y-68850514D02*
X111686265Y-68898133D01*
D11*
X115440057Y-80405238D02*
X115392438Y-80500476D01*
X115392438Y-80500476D02*
X115297200Y-80595714D01*
X115297200Y-80595714D02*
X115154342Y-80738571D01*
X115154342Y-80738571D02*
X115106723Y-80833809D01*
X115106723Y-80833809D02*
X115106723Y-80929047D01*
X115344819Y-80881428D02*
X115297200Y-80976666D01*
X115297200Y-80976666D02*
X115201961Y-81071904D01*
X115201961Y-81071904D02*
X115011485Y-81119523D01*
X115011485Y-81119523D02*
X114678152Y-81119523D01*
X114678152Y-81119523D02*
X114487676Y-81071904D01*
X114487676Y-81071904D02*
X114392438Y-80976666D01*
X114392438Y-80976666D02*
X114344819Y-80881428D01*
X114344819Y-80881428D02*
X114344819Y-80690952D01*
X114344819Y-80690952D02*
X114392438Y-80595714D01*
X114392438Y-80595714D02*
X114487676Y-80500476D01*
X114487676Y-80500476D02*
X114678152Y-80452857D01*
X114678152Y-80452857D02*
X115011485Y-80452857D01*
X115011485Y-80452857D02*
X115201961Y-80500476D01*
X115201961Y-80500476D02*
X115297200Y-80595714D01*
X115297200Y-80595714D02*
X115344819Y-80690952D01*
X115344819Y-80690952D02*
X115344819Y-80881428D01*
X114440057Y-80071904D02*
X114392438Y-80024285D01*
X114392438Y-80024285D02*
X114344819Y-79929047D01*
X114344819Y-79929047D02*
X114344819Y-79690952D01*
X114344819Y-79690952D02*
X114392438Y-79595714D01*
X114392438Y-79595714D02*
X114440057Y-79548095D01*
X114440057Y-79548095D02*
X114535295Y-79500476D01*
X114535295Y-79500476D02*
X114630533Y-79500476D01*
X114630533Y-79500476D02*
X114773390Y-79548095D01*
X114773390Y-79548095D02*
X115344819Y-80119523D01*
X115344819Y-80119523D02*
X115344819Y-79500476D01*
X109018095Y-72594819D02*
X109018095Y-73404342D01*
X109018095Y-73404342D02*
X109065714Y-73499580D01*
X109065714Y-73499580D02*
X109113333Y-73547200D01*
X109113333Y-73547200D02*
X109208571Y-73594819D01*
X109208571Y-73594819D02*
X109399047Y-73594819D01*
X109399047Y-73594819D02*
X109494285Y-73547200D01*
X109494285Y-73547200D02*
X109541904Y-73499580D01*
X109541904Y-73499580D02*
X109589523Y-73404342D01*
X109589523Y-73404342D02*
X109589523Y-72594819D01*
X109970476Y-72594819D02*
X110589523Y-72594819D01*
X110589523Y-72594819D02*
X110256190Y-72975771D01*
X110256190Y-72975771D02*
X110399047Y-72975771D01*
X110399047Y-72975771D02*
X110494285Y-73023390D01*
X110494285Y-73023390D02*
X110541904Y-73071009D01*
X110541904Y-73071009D02*
X110589523Y-73166247D01*
X110589523Y-73166247D02*
X110589523Y-73404342D01*
X110589523Y-73404342D02*
X110541904Y-73499580D01*
X110541904Y-73499580D02*
X110494285Y-73547200D01*
X110494285Y-73547200D02*
X110399047Y-73594819D01*
X110399047Y-73594819D02*
X110113333Y-73594819D01*
X110113333Y-73594819D02*
X110018095Y-73547200D01*
X110018095Y-73547200D02*
X109970476Y-73499580D01*
X101908095Y-87094819D02*
X101908095Y-87904342D01*
X101908095Y-87904342D02*
X101955714Y-87999580D01*
X101955714Y-87999580D02*
X102003333Y-88047200D01*
X102003333Y-88047200D02*
X102098571Y-88094819D01*
X102098571Y-88094819D02*
X102289047Y-88094819D01*
X102289047Y-88094819D02*
X102384285Y-88047200D01*
X102384285Y-88047200D02*
X102431904Y-87999580D01*
X102431904Y-87999580D02*
X102479523Y-87904342D01*
X102479523Y-87904342D02*
X102479523Y-87094819D01*
X102908095Y-87190057D02*
X102955714Y-87142438D01*
X102955714Y-87142438D02*
X103050952Y-87094819D01*
X103050952Y-87094819D02*
X103289047Y-87094819D01*
X103289047Y-87094819D02*
X103384285Y-87142438D01*
X103384285Y-87142438D02*
X103431904Y-87190057D01*
X103431904Y-87190057D02*
X103479523Y-87285295D01*
X103479523Y-87285295D02*
X103479523Y-87380533D01*
X103479523Y-87380533D02*
X103431904Y-87523390D01*
X103431904Y-87523390D02*
X102860476Y-88094819D01*
X102860476Y-88094819D02*
X103479523Y-88094819D01*
X101488095Y-71254819D02*
X101488095Y-72064342D01*
X101488095Y-72064342D02*
X101535714Y-72159580D01*
X101535714Y-72159580D02*
X101583333Y-72207200D01*
X101583333Y-72207200D02*
X101678571Y-72254819D01*
X101678571Y-72254819D02*
X101869047Y-72254819D01*
X101869047Y-72254819D02*
X101964285Y-72207200D01*
X101964285Y-72207200D02*
X102011904Y-72159580D01*
X102011904Y-72159580D02*
X102059523Y-72064342D01*
X102059523Y-72064342D02*
X102059523Y-71254819D01*
X103059523Y-72254819D02*
X102488095Y-72254819D01*
X102773809Y-72254819D02*
X102773809Y-71254819D01*
X102773809Y-71254819D02*
X102678571Y-71397676D01*
X102678571Y-71397676D02*
X102583333Y-71492914D01*
X102583333Y-71492914D02*
X102488095Y-71540533D01*
X125237142Y-80654819D02*
X124903809Y-80178628D01*
X124665714Y-80654819D02*
X124665714Y-79654819D01*
X124665714Y-79654819D02*
X125046666Y-79654819D01*
X125046666Y-79654819D02*
X125141904Y-79702438D01*
X125141904Y-79702438D02*
X125189523Y-79750057D01*
X125189523Y-79750057D02*
X125237142Y-79845295D01*
X125237142Y-79845295D02*
X125237142Y-79988152D01*
X125237142Y-79988152D02*
X125189523Y-80083390D01*
X125189523Y-80083390D02*
X125141904Y-80131009D01*
X125141904Y-80131009D02*
X125046666Y-80178628D01*
X125046666Y-80178628D02*
X124665714Y-80178628D01*
X125618095Y-79750057D02*
X125665714Y-79702438D01*
X125665714Y-79702438D02*
X125760952Y-79654819D01*
X125760952Y-79654819D02*
X125999047Y-79654819D01*
X125999047Y-79654819D02*
X126094285Y-79702438D01*
X126094285Y-79702438D02*
X126141904Y-79750057D01*
X126141904Y-79750057D02*
X126189523Y-79845295D01*
X126189523Y-79845295D02*
X126189523Y-79940533D01*
X126189523Y-79940533D02*
X126141904Y-80083390D01*
X126141904Y-80083390D02*
X125570476Y-80654819D01*
X125570476Y-80654819D02*
X126189523Y-80654819D01*
X127046666Y-79654819D02*
X126856190Y-79654819D01*
X126856190Y-79654819D02*
X126760952Y-79702438D01*
X126760952Y-79702438D02*
X126713333Y-79750057D01*
X126713333Y-79750057D02*
X126618095Y-79892914D01*
X126618095Y-79892914D02*
X126570476Y-80083390D01*
X126570476Y-80083390D02*
X126570476Y-80464342D01*
X126570476Y-80464342D02*
X126618095Y-80559580D01*
X126618095Y-80559580D02*
X126665714Y-80607200D01*
X126665714Y-80607200D02*
X126760952Y-80654819D01*
X126760952Y-80654819D02*
X126951428Y-80654819D01*
X126951428Y-80654819D02*
X127046666Y-80607200D01*
X127046666Y-80607200D02*
X127094285Y-80559580D01*
X127094285Y-80559580D02*
X127141904Y-80464342D01*
X127141904Y-80464342D02*
X127141904Y-80226247D01*
X127141904Y-80226247D02*
X127094285Y-80131009D01*
X127094285Y-80131009D02*
X127046666Y-80083390D01*
X127046666Y-80083390D02*
X126951428Y-80035771D01*
X126951428Y-80035771D02*
X126760952Y-80035771D01*
X126760952Y-80035771D02*
X126665714Y-80083390D01*
X126665714Y-80083390D02*
X126618095Y-80131009D01*
X126618095Y-80131009D02*
X126570476Y-80226247D01*
X117137142Y-74654819D02*
X116803809Y-74178628D01*
X116565714Y-74654819D02*
X116565714Y-73654819D01*
X116565714Y-73654819D02*
X116946666Y-73654819D01*
X116946666Y-73654819D02*
X117041904Y-73702438D01*
X117041904Y-73702438D02*
X117089523Y-73750057D01*
X117089523Y-73750057D02*
X117137142Y-73845295D01*
X117137142Y-73845295D02*
X117137142Y-73988152D01*
X117137142Y-73988152D02*
X117089523Y-74083390D01*
X117089523Y-74083390D02*
X117041904Y-74131009D01*
X117041904Y-74131009D02*
X116946666Y-74178628D01*
X116946666Y-74178628D02*
X116565714Y-74178628D01*
X117518095Y-73750057D02*
X117565714Y-73702438D01*
X117565714Y-73702438D02*
X117660952Y-73654819D01*
X117660952Y-73654819D02*
X117899047Y-73654819D01*
X117899047Y-73654819D02*
X117994285Y-73702438D01*
X117994285Y-73702438D02*
X118041904Y-73750057D01*
X118041904Y-73750057D02*
X118089523Y-73845295D01*
X118089523Y-73845295D02*
X118089523Y-73940533D01*
X118089523Y-73940533D02*
X118041904Y-74083390D01*
X118041904Y-74083390D02*
X117470476Y-74654819D01*
X117470476Y-74654819D02*
X118089523Y-74654819D01*
X118994285Y-73654819D02*
X118518095Y-73654819D01*
X118518095Y-73654819D02*
X118470476Y-74131009D01*
X118470476Y-74131009D02*
X118518095Y-74083390D01*
X118518095Y-74083390D02*
X118613333Y-74035771D01*
X118613333Y-74035771D02*
X118851428Y-74035771D01*
X118851428Y-74035771D02*
X118946666Y-74083390D01*
X118946666Y-74083390D02*
X118994285Y-74131009D01*
X118994285Y-74131009D02*
X119041904Y-74226247D01*
X119041904Y-74226247D02*
X119041904Y-74464342D01*
X119041904Y-74464342D02*
X118994285Y-74559580D01*
X118994285Y-74559580D02*
X118946666Y-74607200D01*
X118946666Y-74607200D02*
X118851428Y-74654819D01*
X118851428Y-74654819D02*
X118613333Y-74654819D01*
X118613333Y-74654819D02*
X118518095Y-74607200D01*
X118518095Y-74607200D02*
X118470476Y-74559580D01*
X133104819Y-81862857D02*
X132628628Y-82196190D01*
X133104819Y-82434285D02*
X132104819Y-82434285D01*
X132104819Y-82434285D02*
X132104819Y-82053333D01*
X132104819Y-82053333D02*
X132152438Y-81958095D01*
X132152438Y-81958095D02*
X132200057Y-81910476D01*
X132200057Y-81910476D02*
X132295295Y-81862857D01*
X132295295Y-81862857D02*
X132438152Y-81862857D01*
X132438152Y-81862857D02*
X132533390Y-81910476D01*
X132533390Y-81910476D02*
X132581009Y-81958095D01*
X132581009Y-81958095D02*
X132628628Y-82053333D01*
X132628628Y-82053333D02*
X132628628Y-82434285D01*
X132200057Y-81481904D02*
X132152438Y-81434285D01*
X132152438Y-81434285D02*
X132104819Y-81339047D01*
X132104819Y-81339047D02*
X132104819Y-81100952D01*
X132104819Y-81100952D02*
X132152438Y-81005714D01*
X132152438Y-81005714D02*
X132200057Y-80958095D01*
X132200057Y-80958095D02*
X132295295Y-80910476D01*
X132295295Y-80910476D02*
X132390533Y-80910476D01*
X132390533Y-80910476D02*
X132533390Y-80958095D01*
X132533390Y-80958095D02*
X133104819Y-81529523D01*
X133104819Y-81529523D02*
X133104819Y-80910476D01*
X132438152Y-80053333D02*
X133104819Y-80053333D01*
X132057200Y-80291428D02*
X132771485Y-80529523D01*
X132771485Y-80529523D02*
X132771485Y-79910476D01*
X116304819Y-66612857D02*
X115828628Y-66946190D01*
X116304819Y-67184285D02*
X115304819Y-67184285D01*
X115304819Y-67184285D02*
X115304819Y-66803333D01*
X115304819Y-66803333D02*
X115352438Y-66708095D01*
X115352438Y-66708095D02*
X115400057Y-66660476D01*
X115400057Y-66660476D02*
X115495295Y-66612857D01*
X115495295Y-66612857D02*
X115638152Y-66612857D01*
X115638152Y-66612857D02*
X115733390Y-66660476D01*
X115733390Y-66660476D02*
X115781009Y-66708095D01*
X115781009Y-66708095D02*
X115828628Y-66803333D01*
X115828628Y-66803333D02*
X115828628Y-67184285D01*
X115400057Y-66231904D02*
X115352438Y-66184285D01*
X115352438Y-66184285D02*
X115304819Y-66089047D01*
X115304819Y-66089047D02*
X115304819Y-65850952D01*
X115304819Y-65850952D02*
X115352438Y-65755714D01*
X115352438Y-65755714D02*
X115400057Y-65708095D01*
X115400057Y-65708095D02*
X115495295Y-65660476D01*
X115495295Y-65660476D02*
X115590533Y-65660476D01*
X115590533Y-65660476D02*
X115733390Y-65708095D01*
X115733390Y-65708095D02*
X116304819Y-66279523D01*
X116304819Y-66279523D02*
X116304819Y-65660476D01*
X115304819Y-65327142D02*
X115304819Y-64708095D01*
X115304819Y-64708095D02*
X115685771Y-65041428D01*
X115685771Y-65041428D02*
X115685771Y-64898571D01*
X115685771Y-64898571D02*
X115733390Y-64803333D01*
X115733390Y-64803333D02*
X115781009Y-64755714D01*
X115781009Y-64755714D02*
X115876247Y-64708095D01*
X115876247Y-64708095D02*
X116114342Y-64708095D01*
X116114342Y-64708095D02*
X116209580Y-64755714D01*
X116209580Y-64755714D02*
X116257200Y-64803333D01*
X116257200Y-64803333D02*
X116304819Y-64898571D01*
X116304819Y-64898571D02*
X116304819Y-65184285D01*
X116304819Y-65184285D02*
X116257200Y-65279523D01*
X116257200Y-65279523D02*
X116209580Y-65327142D01*
X94367142Y-74404819D02*
X94033809Y-73928628D01*
X93795714Y-74404819D02*
X93795714Y-73404819D01*
X93795714Y-73404819D02*
X94176666Y-73404819D01*
X94176666Y-73404819D02*
X94271904Y-73452438D01*
X94271904Y-73452438D02*
X94319523Y-73500057D01*
X94319523Y-73500057D02*
X94367142Y-73595295D01*
X94367142Y-73595295D02*
X94367142Y-73738152D01*
X94367142Y-73738152D02*
X94319523Y-73833390D01*
X94319523Y-73833390D02*
X94271904Y-73881009D01*
X94271904Y-73881009D02*
X94176666Y-73928628D01*
X94176666Y-73928628D02*
X93795714Y-73928628D01*
X94748095Y-73500057D02*
X94795714Y-73452438D01*
X94795714Y-73452438D02*
X94890952Y-73404819D01*
X94890952Y-73404819D02*
X95129047Y-73404819D01*
X95129047Y-73404819D02*
X95224285Y-73452438D01*
X95224285Y-73452438D02*
X95271904Y-73500057D01*
X95271904Y-73500057D02*
X95319523Y-73595295D01*
X95319523Y-73595295D02*
X95319523Y-73690533D01*
X95319523Y-73690533D02*
X95271904Y-73833390D01*
X95271904Y-73833390D02*
X94700476Y-74404819D01*
X94700476Y-74404819D02*
X95319523Y-74404819D01*
X95700476Y-73500057D02*
X95748095Y-73452438D01*
X95748095Y-73452438D02*
X95843333Y-73404819D01*
X95843333Y-73404819D02*
X96081428Y-73404819D01*
X96081428Y-73404819D02*
X96176666Y-73452438D01*
X96176666Y-73452438D02*
X96224285Y-73500057D01*
X96224285Y-73500057D02*
X96271904Y-73595295D01*
X96271904Y-73595295D02*
X96271904Y-73690533D01*
X96271904Y-73690533D02*
X96224285Y-73833390D01*
X96224285Y-73833390D02*
X95652857Y-74404819D01*
X95652857Y-74404819D02*
X96271904Y-74404819D01*
X95427142Y-80254819D02*
X95093809Y-79778628D01*
X94855714Y-80254819D02*
X94855714Y-79254819D01*
X94855714Y-79254819D02*
X95236666Y-79254819D01*
X95236666Y-79254819D02*
X95331904Y-79302438D01*
X95331904Y-79302438D02*
X95379523Y-79350057D01*
X95379523Y-79350057D02*
X95427142Y-79445295D01*
X95427142Y-79445295D02*
X95427142Y-79588152D01*
X95427142Y-79588152D02*
X95379523Y-79683390D01*
X95379523Y-79683390D02*
X95331904Y-79731009D01*
X95331904Y-79731009D02*
X95236666Y-79778628D01*
X95236666Y-79778628D02*
X94855714Y-79778628D01*
X95808095Y-79350057D02*
X95855714Y-79302438D01*
X95855714Y-79302438D02*
X95950952Y-79254819D01*
X95950952Y-79254819D02*
X96189047Y-79254819D01*
X96189047Y-79254819D02*
X96284285Y-79302438D01*
X96284285Y-79302438D02*
X96331904Y-79350057D01*
X96331904Y-79350057D02*
X96379523Y-79445295D01*
X96379523Y-79445295D02*
X96379523Y-79540533D01*
X96379523Y-79540533D02*
X96331904Y-79683390D01*
X96331904Y-79683390D02*
X95760476Y-80254819D01*
X95760476Y-80254819D02*
X96379523Y-80254819D01*
X97331904Y-80254819D02*
X96760476Y-80254819D01*
X97046190Y-80254819D02*
X97046190Y-79254819D01*
X97046190Y-79254819D02*
X96950952Y-79397676D01*
X96950952Y-79397676D02*
X96855714Y-79492914D01*
X96855714Y-79492914D02*
X96760476Y-79540533D01*
X137954819Y-73192857D02*
X137478628Y-73526190D01*
X137954819Y-73764285D02*
X136954819Y-73764285D01*
X136954819Y-73764285D02*
X136954819Y-73383333D01*
X136954819Y-73383333D02*
X137002438Y-73288095D01*
X137002438Y-73288095D02*
X137050057Y-73240476D01*
X137050057Y-73240476D02*
X137145295Y-73192857D01*
X137145295Y-73192857D02*
X137288152Y-73192857D01*
X137288152Y-73192857D02*
X137383390Y-73240476D01*
X137383390Y-73240476D02*
X137431009Y-73288095D01*
X137431009Y-73288095D02*
X137478628Y-73383333D01*
X137478628Y-73383333D02*
X137478628Y-73764285D01*
X137050057Y-72811904D02*
X137002438Y-72764285D01*
X137002438Y-72764285D02*
X136954819Y-72669047D01*
X136954819Y-72669047D02*
X136954819Y-72430952D01*
X136954819Y-72430952D02*
X137002438Y-72335714D01*
X137002438Y-72335714D02*
X137050057Y-72288095D01*
X137050057Y-72288095D02*
X137145295Y-72240476D01*
X137145295Y-72240476D02*
X137240533Y-72240476D01*
X137240533Y-72240476D02*
X137383390Y-72288095D01*
X137383390Y-72288095D02*
X137954819Y-72859523D01*
X137954819Y-72859523D02*
X137954819Y-72240476D01*
X136954819Y-71621428D02*
X136954819Y-71526190D01*
X136954819Y-71526190D02*
X137002438Y-71430952D01*
X137002438Y-71430952D02*
X137050057Y-71383333D01*
X137050057Y-71383333D02*
X137145295Y-71335714D01*
X137145295Y-71335714D02*
X137335771Y-71288095D01*
X137335771Y-71288095D02*
X137573866Y-71288095D01*
X137573866Y-71288095D02*
X137764342Y-71335714D01*
X137764342Y-71335714D02*
X137859580Y-71383333D01*
X137859580Y-71383333D02*
X137907200Y-71430952D01*
X137907200Y-71430952D02*
X137954819Y-71526190D01*
X137954819Y-71526190D02*
X137954819Y-71621428D01*
X137954819Y-71621428D02*
X137907200Y-71716666D01*
X137907200Y-71716666D02*
X137859580Y-71764285D01*
X137859580Y-71764285D02*
X137764342Y-71811904D01*
X137764342Y-71811904D02*
X137573866Y-71859523D01*
X137573866Y-71859523D02*
X137335771Y-71859523D01*
X137335771Y-71859523D02*
X137145295Y-71811904D01*
X137145295Y-71811904D02*
X137050057Y-71764285D01*
X137050057Y-71764285D02*
X137002438Y-71716666D01*
X137002438Y-71716666D02*
X136954819Y-71621428D01*
X141054819Y-73412857D02*
X140578628Y-73746190D01*
X141054819Y-73984285D02*
X140054819Y-73984285D01*
X140054819Y-73984285D02*
X140054819Y-73603333D01*
X140054819Y-73603333D02*
X140102438Y-73508095D01*
X140102438Y-73508095D02*
X140150057Y-73460476D01*
X140150057Y-73460476D02*
X140245295Y-73412857D01*
X140245295Y-73412857D02*
X140388152Y-73412857D01*
X140388152Y-73412857D02*
X140483390Y-73460476D01*
X140483390Y-73460476D02*
X140531009Y-73508095D01*
X140531009Y-73508095D02*
X140578628Y-73603333D01*
X140578628Y-73603333D02*
X140578628Y-73984285D01*
X141054819Y-72460476D02*
X141054819Y-73031904D01*
X141054819Y-72746190D02*
X140054819Y-72746190D01*
X140054819Y-72746190D02*
X140197676Y-72841428D01*
X140197676Y-72841428D02*
X140292914Y-72936666D01*
X140292914Y-72936666D02*
X140340533Y-73031904D01*
X141054819Y-71984285D02*
X141054819Y-71793809D01*
X141054819Y-71793809D02*
X141007200Y-71698571D01*
X141007200Y-71698571D02*
X140959580Y-71650952D01*
X140959580Y-71650952D02*
X140816723Y-71555714D01*
X140816723Y-71555714D02*
X140626247Y-71508095D01*
X140626247Y-71508095D02*
X140245295Y-71508095D01*
X140245295Y-71508095D02*
X140150057Y-71555714D01*
X140150057Y-71555714D02*
X140102438Y-71603333D01*
X140102438Y-71603333D02*
X140054819Y-71698571D01*
X140054819Y-71698571D02*
X140054819Y-71889047D01*
X140054819Y-71889047D02*
X140102438Y-71984285D01*
X140102438Y-71984285D02*
X140150057Y-72031904D01*
X140150057Y-72031904D02*
X140245295Y-72079523D01*
X140245295Y-72079523D02*
X140483390Y-72079523D01*
X140483390Y-72079523D02*
X140578628Y-72031904D01*
X140578628Y-72031904D02*
X140626247Y-71984285D01*
X140626247Y-71984285D02*
X140673866Y-71889047D01*
X140673866Y-71889047D02*
X140673866Y-71698571D01*
X140673866Y-71698571D02*
X140626247Y-71603333D01*
X140626247Y-71603333D02*
X140578628Y-71555714D01*
X140578628Y-71555714D02*
X140483390Y-71508095D01*
X144754819Y-73252857D02*
X144278628Y-73586190D01*
X144754819Y-73824285D02*
X143754819Y-73824285D01*
X143754819Y-73824285D02*
X143754819Y-73443333D01*
X143754819Y-73443333D02*
X143802438Y-73348095D01*
X143802438Y-73348095D02*
X143850057Y-73300476D01*
X143850057Y-73300476D02*
X143945295Y-73252857D01*
X143945295Y-73252857D02*
X144088152Y-73252857D01*
X144088152Y-73252857D02*
X144183390Y-73300476D01*
X144183390Y-73300476D02*
X144231009Y-73348095D01*
X144231009Y-73348095D02*
X144278628Y-73443333D01*
X144278628Y-73443333D02*
X144278628Y-73824285D01*
X144754819Y-72300476D02*
X144754819Y-72871904D01*
X144754819Y-72586190D02*
X143754819Y-72586190D01*
X143754819Y-72586190D02*
X143897676Y-72681428D01*
X143897676Y-72681428D02*
X143992914Y-72776666D01*
X143992914Y-72776666D02*
X144040533Y-72871904D01*
X144183390Y-71729047D02*
X144135771Y-71824285D01*
X144135771Y-71824285D02*
X144088152Y-71871904D01*
X144088152Y-71871904D02*
X143992914Y-71919523D01*
X143992914Y-71919523D02*
X143945295Y-71919523D01*
X143945295Y-71919523D02*
X143850057Y-71871904D01*
X143850057Y-71871904D02*
X143802438Y-71824285D01*
X143802438Y-71824285D02*
X143754819Y-71729047D01*
X143754819Y-71729047D02*
X143754819Y-71538571D01*
X143754819Y-71538571D02*
X143802438Y-71443333D01*
X143802438Y-71443333D02*
X143850057Y-71395714D01*
X143850057Y-71395714D02*
X143945295Y-71348095D01*
X143945295Y-71348095D02*
X143992914Y-71348095D01*
X143992914Y-71348095D02*
X144088152Y-71395714D01*
X144088152Y-71395714D02*
X144135771Y-71443333D01*
X144135771Y-71443333D02*
X144183390Y-71538571D01*
X144183390Y-71538571D02*
X144183390Y-71729047D01*
X144183390Y-71729047D02*
X144231009Y-71824285D01*
X144231009Y-71824285D02*
X144278628Y-71871904D01*
X144278628Y-71871904D02*
X144373866Y-71919523D01*
X144373866Y-71919523D02*
X144564342Y-71919523D01*
X144564342Y-71919523D02*
X144659580Y-71871904D01*
X144659580Y-71871904D02*
X144707200Y-71824285D01*
X144707200Y-71824285D02*
X144754819Y-71729047D01*
X144754819Y-71729047D02*
X144754819Y-71538571D01*
X144754819Y-71538571D02*
X144707200Y-71443333D01*
X144707200Y-71443333D02*
X144659580Y-71395714D01*
X144659580Y-71395714D02*
X144564342Y-71348095D01*
X144564342Y-71348095D02*
X144373866Y-71348095D01*
X144373866Y-71348095D02*
X144278628Y-71395714D01*
X144278628Y-71395714D02*
X144231009Y-71443333D01*
X144231009Y-71443333D02*
X144183390Y-71538571D01*
X148054819Y-73382857D02*
X147578628Y-73716190D01*
X148054819Y-73954285D02*
X147054819Y-73954285D01*
X147054819Y-73954285D02*
X147054819Y-73573333D01*
X147054819Y-73573333D02*
X147102438Y-73478095D01*
X147102438Y-73478095D02*
X147150057Y-73430476D01*
X147150057Y-73430476D02*
X147245295Y-73382857D01*
X147245295Y-73382857D02*
X147388152Y-73382857D01*
X147388152Y-73382857D02*
X147483390Y-73430476D01*
X147483390Y-73430476D02*
X147531009Y-73478095D01*
X147531009Y-73478095D02*
X147578628Y-73573333D01*
X147578628Y-73573333D02*
X147578628Y-73954285D01*
X148054819Y-72430476D02*
X148054819Y-73001904D01*
X148054819Y-72716190D02*
X147054819Y-72716190D01*
X147054819Y-72716190D02*
X147197676Y-72811428D01*
X147197676Y-72811428D02*
X147292914Y-72906666D01*
X147292914Y-72906666D02*
X147340533Y-73001904D01*
X147054819Y-72097142D02*
X147054819Y-71430476D01*
X147054819Y-71430476D02*
X148054819Y-71859047D01*
X91787142Y-60404819D02*
X91453809Y-59928628D01*
X91215714Y-60404819D02*
X91215714Y-59404819D01*
X91215714Y-59404819D02*
X91596666Y-59404819D01*
X91596666Y-59404819D02*
X91691904Y-59452438D01*
X91691904Y-59452438D02*
X91739523Y-59500057D01*
X91739523Y-59500057D02*
X91787142Y-59595295D01*
X91787142Y-59595295D02*
X91787142Y-59738152D01*
X91787142Y-59738152D02*
X91739523Y-59833390D01*
X91739523Y-59833390D02*
X91691904Y-59881009D01*
X91691904Y-59881009D02*
X91596666Y-59928628D01*
X91596666Y-59928628D02*
X91215714Y-59928628D01*
X92739523Y-60404819D02*
X92168095Y-60404819D01*
X92453809Y-60404819D02*
X92453809Y-59404819D01*
X92453809Y-59404819D02*
X92358571Y-59547676D01*
X92358571Y-59547676D02*
X92263333Y-59642914D01*
X92263333Y-59642914D02*
X92168095Y-59690533D01*
X93596666Y-59404819D02*
X93406190Y-59404819D01*
X93406190Y-59404819D02*
X93310952Y-59452438D01*
X93310952Y-59452438D02*
X93263333Y-59500057D01*
X93263333Y-59500057D02*
X93168095Y-59642914D01*
X93168095Y-59642914D02*
X93120476Y-59833390D01*
X93120476Y-59833390D02*
X93120476Y-60214342D01*
X93120476Y-60214342D02*
X93168095Y-60309580D01*
X93168095Y-60309580D02*
X93215714Y-60357200D01*
X93215714Y-60357200D02*
X93310952Y-60404819D01*
X93310952Y-60404819D02*
X93501428Y-60404819D01*
X93501428Y-60404819D02*
X93596666Y-60357200D01*
X93596666Y-60357200D02*
X93644285Y-60309580D01*
X93644285Y-60309580D02*
X93691904Y-60214342D01*
X93691904Y-60214342D02*
X93691904Y-59976247D01*
X93691904Y-59976247D02*
X93644285Y-59881009D01*
X93644285Y-59881009D02*
X93596666Y-59833390D01*
X93596666Y-59833390D02*
X93501428Y-59785771D01*
X93501428Y-59785771D02*
X93310952Y-59785771D01*
X93310952Y-59785771D02*
X93215714Y-59833390D01*
X93215714Y-59833390D02*
X93168095Y-59881009D01*
X93168095Y-59881009D02*
X93120476Y-59976247D01*
X84154819Y-67562857D02*
X83678628Y-67896190D01*
X84154819Y-68134285D02*
X83154819Y-68134285D01*
X83154819Y-68134285D02*
X83154819Y-67753333D01*
X83154819Y-67753333D02*
X83202438Y-67658095D01*
X83202438Y-67658095D02*
X83250057Y-67610476D01*
X83250057Y-67610476D02*
X83345295Y-67562857D01*
X83345295Y-67562857D02*
X83488152Y-67562857D01*
X83488152Y-67562857D02*
X83583390Y-67610476D01*
X83583390Y-67610476D02*
X83631009Y-67658095D01*
X83631009Y-67658095D02*
X83678628Y-67753333D01*
X83678628Y-67753333D02*
X83678628Y-68134285D01*
X84154819Y-66610476D02*
X84154819Y-67181904D01*
X84154819Y-66896190D02*
X83154819Y-66896190D01*
X83154819Y-66896190D02*
X83297676Y-66991428D01*
X83297676Y-66991428D02*
X83392914Y-67086666D01*
X83392914Y-67086666D02*
X83440533Y-67181904D01*
X83154819Y-65705714D02*
X83154819Y-66181904D01*
X83154819Y-66181904D02*
X83631009Y-66229523D01*
X83631009Y-66229523D02*
X83583390Y-66181904D01*
X83583390Y-66181904D02*
X83535771Y-66086666D01*
X83535771Y-66086666D02*
X83535771Y-65848571D01*
X83535771Y-65848571D02*
X83583390Y-65753333D01*
X83583390Y-65753333D02*
X83631009Y-65705714D01*
X83631009Y-65705714D02*
X83726247Y-65658095D01*
X83726247Y-65658095D02*
X83964342Y-65658095D01*
X83964342Y-65658095D02*
X84059580Y-65705714D01*
X84059580Y-65705714D02*
X84107200Y-65753333D01*
X84107200Y-65753333D02*
X84154819Y-65848571D01*
X84154819Y-65848571D02*
X84154819Y-66086666D01*
X84154819Y-66086666D02*
X84107200Y-66181904D01*
X84107200Y-66181904D02*
X84059580Y-66229523D01*
X87504819Y-67552857D02*
X87028628Y-67886190D01*
X87504819Y-68124285D02*
X86504819Y-68124285D01*
X86504819Y-68124285D02*
X86504819Y-67743333D01*
X86504819Y-67743333D02*
X86552438Y-67648095D01*
X86552438Y-67648095D02*
X86600057Y-67600476D01*
X86600057Y-67600476D02*
X86695295Y-67552857D01*
X86695295Y-67552857D02*
X86838152Y-67552857D01*
X86838152Y-67552857D02*
X86933390Y-67600476D01*
X86933390Y-67600476D02*
X86981009Y-67648095D01*
X86981009Y-67648095D02*
X87028628Y-67743333D01*
X87028628Y-67743333D02*
X87028628Y-68124285D01*
X87504819Y-66600476D02*
X87504819Y-67171904D01*
X87504819Y-66886190D02*
X86504819Y-66886190D01*
X86504819Y-66886190D02*
X86647676Y-66981428D01*
X86647676Y-66981428D02*
X86742914Y-67076666D01*
X86742914Y-67076666D02*
X86790533Y-67171904D01*
X86838152Y-65743333D02*
X87504819Y-65743333D01*
X86457200Y-65981428D02*
X87171485Y-66219523D01*
X87171485Y-66219523D02*
X87171485Y-65600476D01*
X90854819Y-67412857D02*
X90378628Y-67746190D01*
X90854819Y-67984285D02*
X89854819Y-67984285D01*
X89854819Y-67984285D02*
X89854819Y-67603333D01*
X89854819Y-67603333D02*
X89902438Y-67508095D01*
X89902438Y-67508095D02*
X89950057Y-67460476D01*
X89950057Y-67460476D02*
X90045295Y-67412857D01*
X90045295Y-67412857D02*
X90188152Y-67412857D01*
X90188152Y-67412857D02*
X90283390Y-67460476D01*
X90283390Y-67460476D02*
X90331009Y-67508095D01*
X90331009Y-67508095D02*
X90378628Y-67603333D01*
X90378628Y-67603333D02*
X90378628Y-67984285D01*
X90854819Y-66460476D02*
X90854819Y-67031904D01*
X90854819Y-66746190D02*
X89854819Y-66746190D01*
X89854819Y-66746190D02*
X89997676Y-66841428D01*
X89997676Y-66841428D02*
X90092914Y-66936666D01*
X90092914Y-66936666D02*
X90140533Y-67031904D01*
X89854819Y-66127142D02*
X89854819Y-65508095D01*
X89854819Y-65508095D02*
X90235771Y-65841428D01*
X90235771Y-65841428D02*
X90235771Y-65698571D01*
X90235771Y-65698571D02*
X90283390Y-65603333D01*
X90283390Y-65603333D02*
X90331009Y-65555714D01*
X90331009Y-65555714D02*
X90426247Y-65508095D01*
X90426247Y-65508095D02*
X90664342Y-65508095D01*
X90664342Y-65508095D02*
X90759580Y-65555714D01*
X90759580Y-65555714D02*
X90807200Y-65603333D01*
X90807200Y-65603333D02*
X90854819Y-65698571D01*
X90854819Y-65698571D02*
X90854819Y-65984285D01*
X90854819Y-65984285D02*
X90807200Y-66079523D01*
X90807200Y-66079523D02*
X90759580Y-66127142D01*
X113454819Y-88702857D02*
X112978628Y-89036190D01*
X113454819Y-89274285D02*
X112454819Y-89274285D01*
X112454819Y-89274285D02*
X112454819Y-88893333D01*
X112454819Y-88893333D02*
X112502438Y-88798095D01*
X112502438Y-88798095D02*
X112550057Y-88750476D01*
X112550057Y-88750476D02*
X112645295Y-88702857D01*
X112645295Y-88702857D02*
X112788152Y-88702857D01*
X112788152Y-88702857D02*
X112883390Y-88750476D01*
X112883390Y-88750476D02*
X112931009Y-88798095D01*
X112931009Y-88798095D02*
X112978628Y-88893333D01*
X112978628Y-88893333D02*
X112978628Y-89274285D01*
X113454819Y-87750476D02*
X113454819Y-88321904D01*
X113454819Y-88036190D02*
X112454819Y-88036190D01*
X112454819Y-88036190D02*
X112597676Y-88131428D01*
X112597676Y-88131428D02*
X112692914Y-88226666D01*
X112692914Y-88226666D02*
X112740533Y-88321904D01*
X112550057Y-87369523D02*
X112502438Y-87321904D01*
X112502438Y-87321904D02*
X112454819Y-87226666D01*
X112454819Y-87226666D02*
X112454819Y-86988571D01*
X112454819Y-86988571D02*
X112502438Y-86893333D01*
X112502438Y-86893333D02*
X112550057Y-86845714D01*
X112550057Y-86845714D02*
X112645295Y-86798095D01*
X112645295Y-86798095D02*
X112740533Y-86798095D01*
X112740533Y-86798095D02*
X112883390Y-86845714D01*
X112883390Y-86845714D02*
X113454819Y-87417142D01*
X113454819Y-87417142D02*
X113454819Y-86798095D01*
X67167142Y-67954819D02*
X66833809Y-67478628D01*
X66595714Y-67954819D02*
X66595714Y-66954819D01*
X66595714Y-66954819D02*
X66976666Y-66954819D01*
X66976666Y-66954819D02*
X67071904Y-67002438D01*
X67071904Y-67002438D02*
X67119523Y-67050057D01*
X67119523Y-67050057D02*
X67167142Y-67145295D01*
X67167142Y-67145295D02*
X67167142Y-67288152D01*
X67167142Y-67288152D02*
X67119523Y-67383390D01*
X67119523Y-67383390D02*
X67071904Y-67431009D01*
X67071904Y-67431009D02*
X66976666Y-67478628D01*
X66976666Y-67478628D02*
X66595714Y-67478628D01*
X68119523Y-67954819D02*
X67548095Y-67954819D01*
X67833809Y-67954819D02*
X67833809Y-66954819D01*
X67833809Y-66954819D02*
X67738571Y-67097676D01*
X67738571Y-67097676D02*
X67643333Y-67192914D01*
X67643333Y-67192914D02*
X67548095Y-67240533D01*
X69071904Y-67954819D02*
X68500476Y-67954819D01*
X68786190Y-67954819D02*
X68786190Y-66954819D01*
X68786190Y-66954819D02*
X68690952Y-67097676D01*
X68690952Y-67097676D02*
X68595714Y-67192914D01*
X68595714Y-67192914D02*
X68500476Y-67240533D01*
X67167142Y-71254819D02*
X66833809Y-70778628D01*
X66595714Y-71254819D02*
X66595714Y-70254819D01*
X66595714Y-70254819D02*
X66976666Y-70254819D01*
X66976666Y-70254819D02*
X67071904Y-70302438D01*
X67071904Y-70302438D02*
X67119523Y-70350057D01*
X67119523Y-70350057D02*
X67167142Y-70445295D01*
X67167142Y-70445295D02*
X67167142Y-70588152D01*
X67167142Y-70588152D02*
X67119523Y-70683390D01*
X67119523Y-70683390D02*
X67071904Y-70731009D01*
X67071904Y-70731009D02*
X66976666Y-70778628D01*
X66976666Y-70778628D02*
X66595714Y-70778628D01*
X68119523Y-71254819D02*
X67548095Y-71254819D01*
X67833809Y-71254819D02*
X67833809Y-70254819D01*
X67833809Y-70254819D02*
X67738571Y-70397676D01*
X67738571Y-70397676D02*
X67643333Y-70492914D01*
X67643333Y-70492914D02*
X67548095Y-70540533D01*
X68738571Y-70254819D02*
X68833809Y-70254819D01*
X68833809Y-70254819D02*
X68929047Y-70302438D01*
X68929047Y-70302438D02*
X68976666Y-70350057D01*
X68976666Y-70350057D02*
X69024285Y-70445295D01*
X69024285Y-70445295D02*
X69071904Y-70635771D01*
X69071904Y-70635771D02*
X69071904Y-70873866D01*
X69071904Y-70873866D02*
X69024285Y-71064342D01*
X69024285Y-71064342D02*
X68976666Y-71159580D01*
X68976666Y-71159580D02*
X68929047Y-71207200D01*
X68929047Y-71207200D02*
X68833809Y-71254819D01*
X68833809Y-71254819D02*
X68738571Y-71254819D01*
X68738571Y-71254819D02*
X68643333Y-71207200D01*
X68643333Y-71207200D02*
X68595714Y-71159580D01*
X68595714Y-71159580D02*
X68548095Y-71064342D01*
X68548095Y-71064342D02*
X68500476Y-70873866D01*
X68500476Y-70873866D02*
X68500476Y-70635771D01*
X68500476Y-70635771D02*
X68548095Y-70445295D01*
X68548095Y-70445295D02*
X68595714Y-70350057D01*
X68595714Y-70350057D02*
X68643333Y-70302438D01*
X68643333Y-70302438D02*
X68738571Y-70254819D01*
X67643333Y-74454819D02*
X67310000Y-73978628D01*
X67071905Y-74454819D02*
X67071905Y-73454819D01*
X67071905Y-73454819D02*
X67452857Y-73454819D01*
X67452857Y-73454819D02*
X67548095Y-73502438D01*
X67548095Y-73502438D02*
X67595714Y-73550057D01*
X67595714Y-73550057D02*
X67643333Y-73645295D01*
X67643333Y-73645295D02*
X67643333Y-73788152D01*
X67643333Y-73788152D02*
X67595714Y-73883390D01*
X67595714Y-73883390D02*
X67548095Y-73931009D01*
X67548095Y-73931009D02*
X67452857Y-73978628D01*
X67452857Y-73978628D02*
X67071905Y-73978628D01*
X68119524Y-74454819D02*
X68310000Y-74454819D01*
X68310000Y-74454819D02*
X68405238Y-74407200D01*
X68405238Y-74407200D02*
X68452857Y-74359580D01*
X68452857Y-74359580D02*
X68548095Y-74216723D01*
X68548095Y-74216723D02*
X68595714Y-74026247D01*
X68595714Y-74026247D02*
X68595714Y-73645295D01*
X68595714Y-73645295D02*
X68548095Y-73550057D01*
X68548095Y-73550057D02*
X68500476Y-73502438D01*
X68500476Y-73502438D02*
X68405238Y-73454819D01*
X68405238Y-73454819D02*
X68214762Y-73454819D01*
X68214762Y-73454819D02*
X68119524Y-73502438D01*
X68119524Y-73502438D02*
X68071905Y-73550057D01*
X68071905Y-73550057D02*
X68024286Y-73645295D01*
X68024286Y-73645295D02*
X68024286Y-73883390D01*
X68024286Y-73883390D02*
X68071905Y-73978628D01*
X68071905Y-73978628D02*
X68119524Y-74026247D01*
X68119524Y-74026247D02*
X68214762Y-74073866D01*
X68214762Y-74073866D02*
X68405238Y-74073866D01*
X68405238Y-74073866D02*
X68500476Y-74026247D01*
X68500476Y-74026247D02*
X68548095Y-73978628D01*
X68548095Y-73978628D02*
X68595714Y-73883390D01*
X68623333Y-82054819D02*
X68290000Y-81578628D01*
X68051905Y-82054819D02*
X68051905Y-81054819D01*
X68051905Y-81054819D02*
X68432857Y-81054819D01*
X68432857Y-81054819D02*
X68528095Y-81102438D01*
X68528095Y-81102438D02*
X68575714Y-81150057D01*
X68575714Y-81150057D02*
X68623333Y-81245295D01*
X68623333Y-81245295D02*
X68623333Y-81388152D01*
X68623333Y-81388152D02*
X68575714Y-81483390D01*
X68575714Y-81483390D02*
X68528095Y-81531009D01*
X68528095Y-81531009D02*
X68432857Y-81578628D01*
X68432857Y-81578628D02*
X68051905Y-81578628D01*
X69194762Y-81483390D02*
X69099524Y-81435771D01*
X69099524Y-81435771D02*
X69051905Y-81388152D01*
X69051905Y-81388152D02*
X69004286Y-81292914D01*
X69004286Y-81292914D02*
X69004286Y-81245295D01*
X69004286Y-81245295D02*
X69051905Y-81150057D01*
X69051905Y-81150057D02*
X69099524Y-81102438D01*
X69099524Y-81102438D02*
X69194762Y-81054819D01*
X69194762Y-81054819D02*
X69385238Y-81054819D01*
X69385238Y-81054819D02*
X69480476Y-81102438D01*
X69480476Y-81102438D02*
X69528095Y-81150057D01*
X69528095Y-81150057D02*
X69575714Y-81245295D01*
X69575714Y-81245295D02*
X69575714Y-81292914D01*
X69575714Y-81292914D02*
X69528095Y-81388152D01*
X69528095Y-81388152D02*
X69480476Y-81435771D01*
X69480476Y-81435771D02*
X69385238Y-81483390D01*
X69385238Y-81483390D02*
X69194762Y-81483390D01*
X69194762Y-81483390D02*
X69099524Y-81531009D01*
X69099524Y-81531009D02*
X69051905Y-81578628D01*
X69051905Y-81578628D02*
X69004286Y-81673866D01*
X69004286Y-81673866D02*
X69004286Y-81864342D01*
X69004286Y-81864342D02*
X69051905Y-81959580D01*
X69051905Y-81959580D02*
X69099524Y-82007200D01*
X69099524Y-82007200D02*
X69194762Y-82054819D01*
X69194762Y-82054819D02*
X69385238Y-82054819D01*
X69385238Y-82054819D02*
X69480476Y-82007200D01*
X69480476Y-82007200D02*
X69528095Y-81959580D01*
X69528095Y-81959580D02*
X69575714Y-81864342D01*
X69575714Y-81864342D02*
X69575714Y-81673866D01*
X69575714Y-81673866D02*
X69528095Y-81578628D01*
X69528095Y-81578628D02*
X69480476Y-81531009D01*
X69480476Y-81531009D02*
X69385238Y-81483390D01*
X68623333Y-85204819D02*
X68290000Y-84728628D01*
X68051905Y-85204819D02*
X68051905Y-84204819D01*
X68051905Y-84204819D02*
X68432857Y-84204819D01*
X68432857Y-84204819D02*
X68528095Y-84252438D01*
X68528095Y-84252438D02*
X68575714Y-84300057D01*
X68575714Y-84300057D02*
X68623333Y-84395295D01*
X68623333Y-84395295D02*
X68623333Y-84538152D01*
X68623333Y-84538152D02*
X68575714Y-84633390D01*
X68575714Y-84633390D02*
X68528095Y-84681009D01*
X68528095Y-84681009D02*
X68432857Y-84728628D01*
X68432857Y-84728628D02*
X68051905Y-84728628D01*
X68956667Y-84204819D02*
X69623333Y-84204819D01*
X69623333Y-84204819D02*
X69194762Y-85204819D01*
X68623333Y-88554819D02*
X68290000Y-88078628D01*
X68051905Y-88554819D02*
X68051905Y-87554819D01*
X68051905Y-87554819D02*
X68432857Y-87554819D01*
X68432857Y-87554819D02*
X68528095Y-87602438D01*
X68528095Y-87602438D02*
X68575714Y-87650057D01*
X68575714Y-87650057D02*
X68623333Y-87745295D01*
X68623333Y-87745295D02*
X68623333Y-87888152D01*
X68623333Y-87888152D02*
X68575714Y-87983390D01*
X68575714Y-87983390D02*
X68528095Y-88031009D01*
X68528095Y-88031009D02*
X68432857Y-88078628D01*
X68432857Y-88078628D02*
X68051905Y-88078628D01*
X69480476Y-87554819D02*
X69290000Y-87554819D01*
X69290000Y-87554819D02*
X69194762Y-87602438D01*
X69194762Y-87602438D02*
X69147143Y-87650057D01*
X69147143Y-87650057D02*
X69051905Y-87792914D01*
X69051905Y-87792914D02*
X69004286Y-87983390D01*
X69004286Y-87983390D02*
X69004286Y-88364342D01*
X69004286Y-88364342D02*
X69051905Y-88459580D01*
X69051905Y-88459580D02*
X69099524Y-88507200D01*
X69099524Y-88507200D02*
X69194762Y-88554819D01*
X69194762Y-88554819D02*
X69385238Y-88554819D01*
X69385238Y-88554819D02*
X69480476Y-88507200D01*
X69480476Y-88507200D02*
X69528095Y-88459580D01*
X69528095Y-88459580D02*
X69575714Y-88364342D01*
X69575714Y-88364342D02*
X69575714Y-88126247D01*
X69575714Y-88126247D02*
X69528095Y-88031009D01*
X69528095Y-88031009D02*
X69480476Y-87983390D01*
X69480476Y-87983390D02*
X69385238Y-87935771D01*
X69385238Y-87935771D02*
X69194762Y-87935771D01*
X69194762Y-87935771D02*
X69099524Y-87983390D01*
X69099524Y-87983390D02*
X69051905Y-88031009D01*
X69051905Y-88031009D02*
X69004286Y-88126247D01*
X68523333Y-91904819D02*
X68190000Y-91428628D01*
X67951905Y-91904819D02*
X67951905Y-90904819D01*
X67951905Y-90904819D02*
X68332857Y-90904819D01*
X68332857Y-90904819D02*
X68428095Y-90952438D01*
X68428095Y-90952438D02*
X68475714Y-91000057D01*
X68475714Y-91000057D02*
X68523333Y-91095295D01*
X68523333Y-91095295D02*
X68523333Y-91238152D01*
X68523333Y-91238152D02*
X68475714Y-91333390D01*
X68475714Y-91333390D02*
X68428095Y-91381009D01*
X68428095Y-91381009D02*
X68332857Y-91428628D01*
X68332857Y-91428628D02*
X67951905Y-91428628D01*
X69428095Y-90904819D02*
X68951905Y-90904819D01*
X68951905Y-90904819D02*
X68904286Y-91381009D01*
X68904286Y-91381009D02*
X68951905Y-91333390D01*
X68951905Y-91333390D02*
X69047143Y-91285771D01*
X69047143Y-91285771D02*
X69285238Y-91285771D01*
X69285238Y-91285771D02*
X69380476Y-91333390D01*
X69380476Y-91333390D02*
X69428095Y-91381009D01*
X69428095Y-91381009D02*
X69475714Y-91476247D01*
X69475714Y-91476247D02*
X69475714Y-91714342D01*
X69475714Y-91714342D02*
X69428095Y-91809580D01*
X69428095Y-91809580D02*
X69380476Y-91857200D01*
X69380476Y-91857200D02*
X69285238Y-91904819D01*
X69285238Y-91904819D02*
X69047143Y-91904819D01*
X69047143Y-91904819D02*
X68951905Y-91857200D01*
X68951905Y-91857200D02*
X68904286Y-91809580D01*
X79933333Y-89054819D02*
X79600000Y-88578628D01*
X79361905Y-89054819D02*
X79361905Y-88054819D01*
X79361905Y-88054819D02*
X79742857Y-88054819D01*
X79742857Y-88054819D02*
X79838095Y-88102438D01*
X79838095Y-88102438D02*
X79885714Y-88150057D01*
X79885714Y-88150057D02*
X79933333Y-88245295D01*
X79933333Y-88245295D02*
X79933333Y-88388152D01*
X79933333Y-88388152D02*
X79885714Y-88483390D01*
X79885714Y-88483390D02*
X79838095Y-88531009D01*
X79838095Y-88531009D02*
X79742857Y-88578628D01*
X79742857Y-88578628D02*
X79361905Y-88578628D01*
X80790476Y-88388152D02*
X80790476Y-89054819D01*
X80552381Y-88007200D02*
X80314286Y-88721485D01*
X80314286Y-88721485D02*
X80933333Y-88721485D01*
X79923333Y-85604819D02*
X79590000Y-85128628D01*
X79351905Y-85604819D02*
X79351905Y-84604819D01*
X79351905Y-84604819D02*
X79732857Y-84604819D01*
X79732857Y-84604819D02*
X79828095Y-84652438D01*
X79828095Y-84652438D02*
X79875714Y-84700057D01*
X79875714Y-84700057D02*
X79923333Y-84795295D01*
X79923333Y-84795295D02*
X79923333Y-84938152D01*
X79923333Y-84938152D02*
X79875714Y-85033390D01*
X79875714Y-85033390D02*
X79828095Y-85081009D01*
X79828095Y-85081009D02*
X79732857Y-85128628D01*
X79732857Y-85128628D02*
X79351905Y-85128628D01*
X80256667Y-84604819D02*
X80875714Y-84604819D01*
X80875714Y-84604819D02*
X80542381Y-84985771D01*
X80542381Y-84985771D02*
X80685238Y-84985771D01*
X80685238Y-84985771D02*
X80780476Y-85033390D01*
X80780476Y-85033390D02*
X80828095Y-85081009D01*
X80828095Y-85081009D02*
X80875714Y-85176247D01*
X80875714Y-85176247D02*
X80875714Y-85414342D01*
X80875714Y-85414342D02*
X80828095Y-85509580D01*
X80828095Y-85509580D02*
X80780476Y-85557200D01*
X80780476Y-85557200D02*
X80685238Y-85604819D01*
X80685238Y-85604819D02*
X80399524Y-85604819D01*
X80399524Y-85604819D02*
X80304286Y-85557200D01*
X80304286Y-85557200D02*
X80256667Y-85509580D01*
X79823333Y-81754819D02*
X79490000Y-81278628D01*
X79251905Y-81754819D02*
X79251905Y-80754819D01*
X79251905Y-80754819D02*
X79632857Y-80754819D01*
X79632857Y-80754819D02*
X79728095Y-80802438D01*
X79728095Y-80802438D02*
X79775714Y-80850057D01*
X79775714Y-80850057D02*
X79823333Y-80945295D01*
X79823333Y-80945295D02*
X79823333Y-81088152D01*
X79823333Y-81088152D02*
X79775714Y-81183390D01*
X79775714Y-81183390D02*
X79728095Y-81231009D01*
X79728095Y-81231009D02*
X79632857Y-81278628D01*
X79632857Y-81278628D02*
X79251905Y-81278628D01*
X80204286Y-80850057D02*
X80251905Y-80802438D01*
X80251905Y-80802438D02*
X80347143Y-80754819D01*
X80347143Y-80754819D02*
X80585238Y-80754819D01*
X80585238Y-80754819D02*
X80680476Y-80802438D01*
X80680476Y-80802438D02*
X80728095Y-80850057D01*
X80728095Y-80850057D02*
X80775714Y-80945295D01*
X80775714Y-80945295D02*
X80775714Y-81040533D01*
X80775714Y-81040533D02*
X80728095Y-81183390D01*
X80728095Y-81183390D02*
X80156667Y-81754819D01*
X80156667Y-81754819D02*
X80775714Y-81754819D01*
X78123333Y-74204819D02*
X77790000Y-73728628D01*
X77551905Y-74204819D02*
X77551905Y-73204819D01*
X77551905Y-73204819D02*
X77932857Y-73204819D01*
X77932857Y-73204819D02*
X78028095Y-73252438D01*
X78028095Y-73252438D02*
X78075714Y-73300057D01*
X78075714Y-73300057D02*
X78123333Y-73395295D01*
X78123333Y-73395295D02*
X78123333Y-73538152D01*
X78123333Y-73538152D02*
X78075714Y-73633390D01*
X78075714Y-73633390D02*
X78028095Y-73681009D01*
X78028095Y-73681009D02*
X77932857Y-73728628D01*
X77932857Y-73728628D02*
X77551905Y-73728628D01*
X79075714Y-74204819D02*
X78504286Y-74204819D01*
X78790000Y-74204819D02*
X78790000Y-73204819D01*
X78790000Y-73204819D02*
X78694762Y-73347676D01*
X78694762Y-73347676D02*
X78599524Y-73442914D01*
X78599524Y-73442914D02*
X78504286Y-73490533D01*
X72744761Y-55180057D02*
X72649523Y-55132438D01*
X72649523Y-55132438D02*
X72554285Y-55037200D01*
X72554285Y-55037200D02*
X72411428Y-54894342D01*
X72411428Y-54894342D02*
X72316190Y-54846723D01*
X72316190Y-54846723D02*
X72220952Y-54846723D01*
X72268571Y-55084819D02*
X72173333Y-55037200D01*
X72173333Y-55037200D02*
X72078095Y-54941961D01*
X72078095Y-54941961D02*
X72030476Y-54751485D01*
X72030476Y-54751485D02*
X72030476Y-54418152D01*
X72030476Y-54418152D02*
X72078095Y-54227676D01*
X72078095Y-54227676D02*
X72173333Y-54132438D01*
X72173333Y-54132438D02*
X72268571Y-54084819D01*
X72268571Y-54084819D02*
X72459047Y-54084819D01*
X72459047Y-54084819D02*
X72554285Y-54132438D01*
X72554285Y-54132438D02*
X72649523Y-54227676D01*
X72649523Y-54227676D02*
X72697142Y-54418152D01*
X72697142Y-54418152D02*
X72697142Y-54751485D01*
X72697142Y-54751485D02*
X72649523Y-54941961D01*
X72649523Y-54941961D02*
X72554285Y-55037200D01*
X72554285Y-55037200D02*
X72459047Y-55084819D01*
X72459047Y-55084819D02*
X72268571Y-55084819D01*
X73649523Y-55084819D02*
X73078095Y-55084819D01*
X73363809Y-55084819D02*
X73363809Y-54084819D01*
X73363809Y-54084819D02*
X73268571Y-54227676D01*
X73268571Y-54227676D02*
X73173333Y-54322914D01*
X73173333Y-54322914D02*
X73078095Y-54370533D01*
X127016666Y-58074819D02*
X127016666Y-58789104D01*
X127016666Y-58789104D02*
X126969047Y-58931961D01*
X126969047Y-58931961D02*
X126873809Y-59027200D01*
X126873809Y-59027200D02*
X126730952Y-59074819D01*
X126730952Y-59074819D02*
X126635714Y-59074819D01*
X127492857Y-59074819D02*
X127492857Y-58074819D01*
X127492857Y-58074819D02*
X127873809Y-58074819D01*
X127873809Y-58074819D02*
X127969047Y-58122438D01*
X127969047Y-58122438D02*
X128016666Y-58170057D01*
X128016666Y-58170057D02*
X128064285Y-58265295D01*
X128064285Y-58265295D02*
X128064285Y-58408152D01*
X128064285Y-58408152D02*
X128016666Y-58503390D01*
X128016666Y-58503390D02*
X127969047Y-58551009D01*
X127969047Y-58551009D02*
X127873809Y-58598628D01*
X127873809Y-58598628D02*
X127492857Y-58598628D01*
X128397619Y-58074819D02*
X129064285Y-58074819D01*
X129064285Y-58074819D02*
X128635714Y-59074819D01*
X122966666Y-58074819D02*
X122966666Y-58789104D01*
X122966666Y-58789104D02*
X122919047Y-58931961D01*
X122919047Y-58931961D02*
X122823809Y-59027200D01*
X122823809Y-59027200D02*
X122680952Y-59074819D01*
X122680952Y-59074819D02*
X122585714Y-59074819D01*
X123442857Y-59074819D02*
X123442857Y-58074819D01*
X123442857Y-58074819D02*
X123823809Y-58074819D01*
X123823809Y-58074819D02*
X123919047Y-58122438D01*
X123919047Y-58122438D02*
X123966666Y-58170057D01*
X123966666Y-58170057D02*
X124014285Y-58265295D01*
X124014285Y-58265295D02*
X124014285Y-58408152D01*
X124014285Y-58408152D02*
X123966666Y-58503390D01*
X123966666Y-58503390D02*
X123919047Y-58551009D01*
X123919047Y-58551009D02*
X123823809Y-58598628D01*
X123823809Y-58598628D02*
X123442857Y-58598628D01*
X124871428Y-58074819D02*
X124680952Y-58074819D01*
X124680952Y-58074819D02*
X124585714Y-58122438D01*
X124585714Y-58122438D02*
X124538095Y-58170057D01*
X124538095Y-58170057D02*
X124442857Y-58312914D01*
X124442857Y-58312914D02*
X124395238Y-58503390D01*
X124395238Y-58503390D02*
X124395238Y-58884342D01*
X124395238Y-58884342D02*
X124442857Y-58979580D01*
X124442857Y-58979580D02*
X124490476Y-59027200D01*
X124490476Y-59027200D02*
X124585714Y-59074819D01*
X124585714Y-59074819D02*
X124776190Y-59074819D01*
X124776190Y-59074819D02*
X124871428Y-59027200D01*
X124871428Y-59027200D02*
X124919047Y-58979580D01*
X124919047Y-58979580D02*
X124966666Y-58884342D01*
X124966666Y-58884342D02*
X124966666Y-58646247D01*
X124966666Y-58646247D02*
X124919047Y-58551009D01*
X124919047Y-58551009D02*
X124871428Y-58503390D01*
X124871428Y-58503390D02*
X124776190Y-58455771D01*
X124776190Y-58455771D02*
X124585714Y-58455771D01*
X124585714Y-58455771D02*
X124490476Y-58503390D01*
X124490476Y-58503390D02*
X124442857Y-58551009D01*
X124442857Y-58551009D02*
X124395238Y-58646247D01*
X118916666Y-58124819D02*
X118916666Y-58839104D01*
X118916666Y-58839104D02*
X118869047Y-58981961D01*
X118869047Y-58981961D02*
X118773809Y-59077200D01*
X118773809Y-59077200D02*
X118630952Y-59124819D01*
X118630952Y-59124819D02*
X118535714Y-59124819D01*
X119392857Y-59124819D02*
X119392857Y-58124819D01*
X119392857Y-58124819D02*
X119773809Y-58124819D01*
X119773809Y-58124819D02*
X119869047Y-58172438D01*
X119869047Y-58172438D02*
X119916666Y-58220057D01*
X119916666Y-58220057D02*
X119964285Y-58315295D01*
X119964285Y-58315295D02*
X119964285Y-58458152D01*
X119964285Y-58458152D02*
X119916666Y-58553390D01*
X119916666Y-58553390D02*
X119869047Y-58601009D01*
X119869047Y-58601009D02*
X119773809Y-58648628D01*
X119773809Y-58648628D02*
X119392857Y-58648628D01*
X120869047Y-58124819D02*
X120392857Y-58124819D01*
X120392857Y-58124819D02*
X120345238Y-58601009D01*
X120345238Y-58601009D02*
X120392857Y-58553390D01*
X120392857Y-58553390D02*
X120488095Y-58505771D01*
X120488095Y-58505771D02*
X120726190Y-58505771D01*
X120726190Y-58505771D02*
X120821428Y-58553390D01*
X120821428Y-58553390D02*
X120869047Y-58601009D01*
X120869047Y-58601009D02*
X120916666Y-58696247D01*
X120916666Y-58696247D02*
X120916666Y-58934342D01*
X120916666Y-58934342D02*
X120869047Y-59029580D01*
X120869047Y-59029580D02*
X120821428Y-59077200D01*
X120821428Y-59077200D02*
X120726190Y-59124819D01*
X120726190Y-59124819D02*
X120488095Y-59124819D01*
X120488095Y-59124819D02*
X120392857Y-59077200D01*
X120392857Y-59077200D02*
X120345238Y-59029580D01*
X135816666Y-77574819D02*
X135816666Y-78289104D01*
X135816666Y-78289104D02*
X135769047Y-78431961D01*
X135769047Y-78431961D02*
X135673809Y-78527200D01*
X135673809Y-78527200D02*
X135530952Y-78574819D01*
X135530952Y-78574819D02*
X135435714Y-78574819D01*
X136292857Y-78574819D02*
X136292857Y-77574819D01*
X136292857Y-77574819D02*
X136673809Y-77574819D01*
X136673809Y-77574819D02*
X136769047Y-77622438D01*
X136769047Y-77622438D02*
X136816666Y-77670057D01*
X136816666Y-77670057D02*
X136864285Y-77765295D01*
X136864285Y-77765295D02*
X136864285Y-77908152D01*
X136864285Y-77908152D02*
X136816666Y-78003390D01*
X136816666Y-78003390D02*
X136769047Y-78051009D01*
X136769047Y-78051009D02*
X136673809Y-78098628D01*
X136673809Y-78098628D02*
X136292857Y-78098628D01*
X137721428Y-77908152D02*
X137721428Y-78574819D01*
X137483333Y-77527200D02*
X137245238Y-78241485D01*
X137245238Y-78241485D02*
X137864285Y-78241485D01*
X139566666Y-77574819D02*
X139566666Y-78289104D01*
X139566666Y-78289104D02*
X139519047Y-78431961D01*
X139519047Y-78431961D02*
X139423809Y-78527200D01*
X139423809Y-78527200D02*
X139280952Y-78574819D01*
X139280952Y-78574819D02*
X139185714Y-78574819D01*
X140042857Y-78574819D02*
X140042857Y-77574819D01*
X140042857Y-77574819D02*
X140423809Y-77574819D01*
X140423809Y-77574819D02*
X140519047Y-77622438D01*
X140519047Y-77622438D02*
X140566666Y-77670057D01*
X140566666Y-77670057D02*
X140614285Y-77765295D01*
X140614285Y-77765295D02*
X140614285Y-77908152D01*
X140614285Y-77908152D02*
X140566666Y-78003390D01*
X140566666Y-78003390D02*
X140519047Y-78051009D01*
X140519047Y-78051009D02*
X140423809Y-78098628D01*
X140423809Y-78098628D02*
X140042857Y-78098628D01*
X140947619Y-77574819D02*
X141566666Y-77574819D01*
X141566666Y-77574819D02*
X141233333Y-77955771D01*
X141233333Y-77955771D02*
X141376190Y-77955771D01*
X141376190Y-77955771D02*
X141471428Y-78003390D01*
X141471428Y-78003390D02*
X141519047Y-78051009D01*
X141519047Y-78051009D02*
X141566666Y-78146247D01*
X141566666Y-78146247D02*
X141566666Y-78384342D01*
X141566666Y-78384342D02*
X141519047Y-78479580D01*
X141519047Y-78479580D02*
X141471428Y-78527200D01*
X141471428Y-78527200D02*
X141376190Y-78574819D01*
X141376190Y-78574819D02*
X141090476Y-78574819D01*
X141090476Y-78574819D02*
X140995238Y-78527200D01*
X140995238Y-78527200D02*
X140947619Y-78479580D01*
X143366666Y-77574819D02*
X143366666Y-78289104D01*
X143366666Y-78289104D02*
X143319047Y-78431961D01*
X143319047Y-78431961D02*
X143223809Y-78527200D01*
X143223809Y-78527200D02*
X143080952Y-78574819D01*
X143080952Y-78574819D02*
X142985714Y-78574819D01*
X143842857Y-78574819D02*
X143842857Y-77574819D01*
X143842857Y-77574819D02*
X144223809Y-77574819D01*
X144223809Y-77574819D02*
X144319047Y-77622438D01*
X144319047Y-77622438D02*
X144366666Y-77670057D01*
X144366666Y-77670057D02*
X144414285Y-77765295D01*
X144414285Y-77765295D02*
X144414285Y-77908152D01*
X144414285Y-77908152D02*
X144366666Y-78003390D01*
X144366666Y-78003390D02*
X144319047Y-78051009D01*
X144319047Y-78051009D02*
X144223809Y-78098628D01*
X144223809Y-78098628D02*
X143842857Y-78098628D01*
X144795238Y-77670057D02*
X144842857Y-77622438D01*
X144842857Y-77622438D02*
X144938095Y-77574819D01*
X144938095Y-77574819D02*
X145176190Y-77574819D01*
X145176190Y-77574819D02*
X145271428Y-77622438D01*
X145271428Y-77622438D02*
X145319047Y-77670057D01*
X145319047Y-77670057D02*
X145366666Y-77765295D01*
X145366666Y-77765295D02*
X145366666Y-77860533D01*
X145366666Y-77860533D02*
X145319047Y-78003390D01*
X145319047Y-78003390D02*
X144747619Y-78574819D01*
X144747619Y-78574819D02*
X145366666Y-78574819D01*
X147166666Y-77574819D02*
X147166666Y-78289104D01*
X147166666Y-78289104D02*
X147119047Y-78431961D01*
X147119047Y-78431961D02*
X147023809Y-78527200D01*
X147023809Y-78527200D02*
X146880952Y-78574819D01*
X146880952Y-78574819D02*
X146785714Y-78574819D01*
X147642857Y-78574819D02*
X147642857Y-77574819D01*
X147642857Y-77574819D02*
X148023809Y-77574819D01*
X148023809Y-77574819D02*
X148119047Y-77622438D01*
X148119047Y-77622438D02*
X148166666Y-77670057D01*
X148166666Y-77670057D02*
X148214285Y-77765295D01*
X148214285Y-77765295D02*
X148214285Y-77908152D01*
X148214285Y-77908152D02*
X148166666Y-78003390D01*
X148166666Y-78003390D02*
X148119047Y-78051009D01*
X148119047Y-78051009D02*
X148023809Y-78098628D01*
X148023809Y-78098628D02*
X147642857Y-78098628D01*
X149166666Y-78574819D02*
X148595238Y-78574819D01*
X148880952Y-78574819D02*
X148880952Y-77574819D01*
X148880952Y-77574819D02*
X148785714Y-77717676D01*
X148785714Y-77717676D02*
X148690476Y-77812914D01*
X148690476Y-77812914D02*
X148595238Y-77860533D01*
X140266666Y-66254819D02*
X140266666Y-66969104D01*
X140266666Y-66969104D02*
X140219047Y-67111961D01*
X140219047Y-67111961D02*
X140123809Y-67207200D01*
X140123809Y-67207200D02*
X139980952Y-67254819D01*
X139980952Y-67254819D02*
X139885714Y-67254819D01*
X141171428Y-66588152D02*
X141171428Y-67254819D01*
X140933333Y-66207200D02*
X140695238Y-66921485D01*
X140695238Y-66921485D02*
X141314285Y-66921485D01*
X122566666Y-83854819D02*
X122566666Y-84569104D01*
X122566666Y-84569104D02*
X122519047Y-84711961D01*
X122519047Y-84711961D02*
X122423809Y-84807200D01*
X122423809Y-84807200D02*
X122280952Y-84854819D01*
X122280952Y-84854819D02*
X122185714Y-84854819D01*
X122947619Y-83854819D02*
X123566666Y-83854819D01*
X123566666Y-83854819D02*
X123233333Y-84235771D01*
X123233333Y-84235771D02*
X123376190Y-84235771D01*
X123376190Y-84235771D02*
X123471428Y-84283390D01*
X123471428Y-84283390D02*
X123519047Y-84331009D01*
X123519047Y-84331009D02*
X123566666Y-84426247D01*
X123566666Y-84426247D02*
X123566666Y-84664342D01*
X123566666Y-84664342D02*
X123519047Y-84759580D01*
X123519047Y-84759580D02*
X123471428Y-84807200D01*
X123471428Y-84807200D02*
X123376190Y-84854819D01*
X123376190Y-84854819D02*
X123090476Y-84854819D01*
X123090476Y-84854819D02*
X122995238Y-84807200D01*
X122995238Y-84807200D02*
X122947619Y-84759580D01*
X62104819Y-85783333D02*
X62819104Y-85783333D01*
X62819104Y-85783333D02*
X62961961Y-85830952D01*
X62961961Y-85830952D02*
X63057200Y-85926190D01*
X63057200Y-85926190D02*
X63104819Y-86069047D01*
X63104819Y-86069047D02*
X63104819Y-86164285D01*
X62200057Y-85354761D02*
X62152438Y-85307142D01*
X62152438Y-85307142D02*
X62104819Y-85211904D01*
X62104819Y-85211904D02*
X62104819Y-84973809D01*
X62104819Y-84973809D02*
X62152438Y-84878571D01*
X62152438Y-84878571D02*
X62200057Y-84830952D01*
X62200057Y-84830952D02*
X62295295Y-84783333D01*
X62295295Y-84783333D02*
X62390533Y-84783333D01*
X62390533Y-84783333D02*
X62533390Y-84830952D01*
X62533390Y-84830952D02*
X63104819Y-85402380D01*
X63104819Y-85402380D02*
X63104819Y-84783333D01*
X62054819Y-67233333D02*
X62769104Y-67233333D01*
X62769104Y-67233333D02*
X62911961Y-67280952D01*
X62911961Y-67280952D02*
X63007200Y-67376190D01*
X63007200Y-67376190D02*
X63054819Y-67519047D01*
X63054819Y-67519047D02*
X63054819Y-67614285D01*
X63054819Y-66233333D02*
X63054819Y-66804761D01*
X63054819Y-66519047D02*
X62054819Y-66519047D01*
X62054819Y-66519047D02*
X62197676Y-66614285D01*
X62197676Y-66614285D02*
X62292914Y-66709523D01*
X62292914Y-66709523D02*
X62340533Y-66804761D01*
X88204819Y-87188094D02*
X87204819Y-87188094D01*
X87204819Y-87188094D02*
X87204819Y-86949999D01*
X87204819Y-86949999D02*
X87252438Y-86807142D01*
X87252438Y-86807142D02*
X87347676Y-86711904D01*
X87347676Y-86711904D02*
X87442914Y-86664285D01*
X87442914Y-86664285D02*
X87633390Y-86616666D01*
X87633390Y-86616666D02*
X87776247Y-86616666D01*
X87776247Y-86616666D02*
X87966723Y-86664285D01*
X87966723Y-86664285D02*
X88061961Y-86711904D01*
X88061961Y-86711904D02*
X88157200Y-86807142D01*
X88157200Y-86807142D02*
X88204819Y-86949999D01*
X88204819Y-86949999D02*
X88204819Y-87188094D01*
X87538152Y-85759523D02*
X88204819Y-85759523D01*
X87157200Y-85997618D02*
X87871485Y-86235713D01*
X87871485Y-86235713D02*
X87871485Y-85616666D01*
X95154819Y-87938094D02*
X94154819Y-87938094D01*
X94154819Y-87938094D02*
X94154819Y-87699999D01*
X94154819Y-87699999D02*
X94202438Y-87557142D01*
X94202438Y-87557142D02*
X94297676Y-87461904D01*
X94297676Y-87461904D02*
X94392914Y-87414285D01*
X94392914Y-87414285D02*
X94583390Y-87366666D01*
X94583390Y-87366666D02*
X94726247Y-87366666D01*
X94726247Y-87366666D02*
X94916723Y-87414285D01*
X94916723Y-87414285D02*
X95011961Y-87461904D01*
X95011961Y-87461904D02*
X95107200Y-87557142D01*
X95107200Y-87557142D02*
X95154819Y-87699999D01*
X95154819Y-87699999D02*
X95154819Y-87938094D01*
X94154819Y-87033332D02*
X94154819Y-86414285D01*
X94154819Y-86414285D02*
X94535771Y-86747618D01*
X94535771Y-86747618D02*
X94535771Y-86604761D01*
X94535771Y-86604761D02*
X94583390Y-86509523D01*
X94583390Y-86509523D02*
X94631009Y-86461904D01*
X94631009Y-86461904D02*
X94726247Y-86414285D01*
X94726247Y-86414285D02*
X94964342Y-86414285D01*
X94964342Y-86414285D02*
X95059580Y-86461904D01*
X95059580Y-86461904D02*
X95107200Y-86509523D01*
X95107200Y-86509523D02*
X95154819Y-86604761D01*
X95154819Y-86604761D02*
X95154819Y-86890475D01*
X95154819Y-86890475D02*
X95107200Y-86985713D01*
X95107200Y-86985713D02*
X95059580Y-87033332D01*
X91654819Y-87988094D02*
X90654819Y-87988094D01*
X90654819Y-87988094D02*
X90654819Y-87749999D01*
X90654819Y-87749999D02*
X90702438Y-87607142D01*
X90702438Y-87607142D02*
X90797676Y-87511904D01*
X90797676Y-87511904D02*
X90892914Y-87464285D01*
X90892914Y-87464285D02*
X91083390Y-87416666D01*
X91083390Y-87416666D02*
X91226247Y-87416666D01*
X91226247Y-87416666D02*
X91416723Y-87464285D01*
X91416723Y-87464285D02*
X91511961Y-87511904D01*
X91511961Y-87511904D02*
X91607200Y-87607142D01*
X91607200Y-87607142D02*
X91654819Y-87749999D01*
X91654819Y-87749999D02*
X91654819Y-87988094D01*
X90750057Y-87035713D02*
X90702438Y-86988094D01*
X90702438Y-86988094D02*
X90654819Y-86892856D01*
X90654819Y-86892856D02*
X90654819Y-86654761D01*
X90654819Y-86654761D02*
X90702438Y-86559523D01*
X90702438Y-86559523D02*
X90750057Y-86511904D01*
X90750057Y-86511904D02*
X90845295Y-86464285D01*
X90845295Y-86464285D02*
X90940533Y-86464285D01*
X90940533Y-86464285D02*
X91083390Y-86511904D01*
X91083390Y-86511904D02*
X91654819Y-87083332D01*
X91654819Y-87083332D02*
X91654819Y-86464285D01*
X98504819Y-87238094D02*
X97504819Y-87238094D01*
X97504819Y-87238094D02*
X97504819Y-86999999D01*
X97504819Y-86999999D02*
X97552438Y-86857142D01*
X97552438Y-86857142D02*
X97647676Y-86761904D01*
X97647676Y-86761904D02*
X97742914Y-86714285D01*
X97742914Y-86714285D02*
X97933390Y-86666666D01*
X97933390Y-86666666D02*
X98076247Y-86666666D01*
X98076247Y-86666666D02*
X98266723Y-86714285D01*
X98266723Y-86714285D02*
X98361961Y-86761904D01*
X98361961Y-86761904D02*
X98457200Y-86857142D01*
X98457200Y-86857142D02*
X98504819Y-86999999D01*
X98504819Y-86999999D02*
X98504819Y-87238094D01*
X98504819Y-85714285D02*
X98504819Y-86285713D01*
X98504819Y-85999999D02*
X97504819Y-85999999D01*
X97504819Y-85999999D02*
X97647676Y-86095237D01*
X97647676Y-86095237D02*
X97742914Y-86190475D01*
X97742914Y-86190475D02*
X97790533Y-86285713D01*
X127783333Y-51704468D02*
X127735714Y-51752088D01*
X127735714Y-51752088D02*
X127592857Y-51799707D01*
X127592857Y-51799707D02*
X127497619Y-51799707D01*
X127497619Y-51799707D02*
X127354762Y-51752088D01*
X127354762Y-51752088D02*
X127259524Y-51656849D01*
X127259524Y-51656849D02*
X127211905Y-51561611D01*
X127211905Y-51561611D02*
X127164286Y-51371135D01*
X127164286Y-51371135D02*
X127164286Y-51228278D01*
X127164286Y-51228278D02*
X127211905Y-51037802D01*
X127211905Y-51037802D02*
X127259524Y-50942564D01*
X127259524Y-50942564D02*
X127354762Y-50847326D01*
X127354762Y-50847326D02*
X127497619Y-50799707D01*
X127497619Y-50799707D02*
X127592857Y-50799707D01*
X127592857Y-50799707D02*
X127735714Y-50847326D01*
X127735714Y-50847326D02*
X127783333Y-50894945D01*
X128640476Y-51133040D02*
X128640476Y-51799707D01*
X128402381Y-50752088D02*
X128164286Y-51466373D01*
X128164286Y-51466373D02*
X128783333Y-51466373D01*
X121983333Y-51609580D02*
X121935714Y-51657200D01*
X121935714Y-51657200D02*
X121792857Y-51704819D01*
X121792857Y-51704819D02*
X121697619Y-51704819D01*
X121697619Y-51704819D02*
X121554762Y-51657200D01*
X121554762Y-51657200D02*
X121459524Y-51561961D01*
X121459524Y-51561961D02*
X121411905Y-51466723D01*
X121411905Y-51466723D02*
X121364286Y-51276247D01*
X121364286Y-51276247D02*
X121364286Y-51133390D01*
X121364286Y-51133390D02*
X121411905Y-50942914D01*
X121411905Y-50942914D02*
X121459524Y-50847676D01*
X121459524Y-50847676D02*
X121554762Y-50752438D01*
X121554762Y-50752438D02*
X121697619Y-50704819D01*
X121697619Y-50704819D02*
X121792857Y-50704819D01*
X121792857Y-50704819D02*
X121935714Y-50752438D01*
X121935714Y-50752438D02*
X121983333Y-50800057D01*
X122316667Y-50704819D02*
X122935714Y-50704819D01*
X122935714Y-50704819D02*
X122602381Y-51085771D01*
X122602381Y-51085771D02*
X122745238Y-51085771D01*
X122745238Y-51085771D02*
X122840476Y-51133390D01*
X122840476Y-51133390D02*
X122888095Y-51181009D01*
X122888095Y-51181009D02*
X122935714Y-51276247D01*
X122935714Y-51276247D02*
X122935714Y-51514342D01*
X122935714Y-51514342D02*
X122888095Y-51609580D01*
X122888095Y-51609580D02*
X122840476Y-51657200D01*
X122840476Y-51657200D02*
X122745238Y-51704819D01*
X122745238Y-51704819D02*
X122459524Y-51704819D01*
X122459524Y-51704819D02*
X122364286Y-51657200D01*
X122364286Y-51657200D02*
X122316667Y-51609580D01*
X116183333Y-51509580D02*
X116135714Y-51557200D01*
X116135714Y-51557200D02*
X115992857Y-51604819D01*
X115992857Y-51604819D02*
X115897619Y-51604819D01*
X115897619Y-51604819D02*
X115754762Y-51557200D01*
X115754762Y-51557200D02*
X115659524Y-51461961D01*
X115659524Y-51461961D02*
X115611905Y-51366723D01*
X115611905Y-51366723D02*
X115564286Y-51176247D01*
X115564286Y-51176247D02*
X115564286Y-51033390D01*
X115564286Y-51033390D02*
X115611905Y-50842914D01*
X115611905Y-50842914D02*
X115659524Y-50747676D01*
X115659524Y-50747676D02*
X115754762Y-50652438D01*
X115754762Y-50652438D02*
X115897619Y-50604819D01*
X115897619Y-50604819D02*
X115992857Y-50604819D01*
X115992857Y-50604819D02*
X116135714Y-50652438D01*
X116135714Y-50652438D02*
X116183333Y-50700057D01*
X116564286Y-50700057D02*
X116611905Y-50652438D01*
X116611905Y-50652438D02*
X116707143Y-50604819D01*
X116707143Y-50604819D02*
X116945238Y-50604819D01*
X116945238Y-50604819D02*
X117040476Y-50652438D01*
X117040476Y-50652438D02*
X117088095Y-50700057D01*
X117088095Y-50700057D02*
X117135714Y-50795295D01*
X117135714Y-50795295D02*
X117135714Y-50890533D01*
X117135714Y-50890533D02*
X117088095Y-51033390D01*
X117088095Y-51033390D02*
X116516667Y-51604819D01*
X116516667Y-51604819D02*
X117135714Y-51604819D01*
X66523333Y-63269580D02*
X66475714Y-63317200D01*
X66475714Y-63317200D02*
X66332857Y-63364819D01*
X66332857Y-63364819D02*
X66237619Y-63364819D01*
X66237619Y-63364819D02*
X66094762Y-63317200D01*
X66094762Y-63317200D02*
X65999524Y-63221961D01*
X65999524Y-63221961D02*
X65951905Y-63126723D01*
X65951905Y-63126723D02*
X65904286Y-62936247D01*
X65904286Y-62936247D02*
X65904286Y-62793390D01*
X65904286Y-62793390D02*
X65951905Y-62602914D01*
X65951905Y-62602914D02*
X65999524Y-62507676D01*
X65999524Y-62507676D02*
X66094762Y-62412438D01*
X66094762Y-62412438D02*
X66237619Y-62364819D01*
X66237619Y-62364819D02*
X66332857Y-62364819D01*
X66332857Y-62364819D02*
X66475714Y-62412438D01*
X66475714Y-62412438D02*
X66523333Y-62460057D01*
X67475714Y-63364819D02*
X66904286Y-63364819D01*
X67190000Y-63364819D02*
X67190000Y-62364819D01*
X67190000Y-62364819D02*
X67094762Y-62507676D01*
X67094762Y-62507676D02*
X66999524Y-62602914D01*
X66999524Y-62602914D02*
X66904286Y-62650533D01*
D12*
%TO.C,Q2*%
X120300000Y-82110000D02*
X120300000Y-78510000D01*
X117351193Y-77953600D02*
G75*
G03*
X115850000Y-80310000I1098807J-2356400D01*
G01*
X115850001Y-80310000D02*
G75*
G03*
X117351193Y-82666399I2599999J0D01*
G01*
X119572795Y-82634183D02*
G75*
G03*
X120299999Y-82109999I-1122795J2324183D01*
G01*
X120299999Y-78510001D02*
G75*
G03*
X119572795Y-77985817I-1849999J-1799999D01*
G01*
%TO.C,U3*%
X108910000Y-79270000D02*
X108910000Y-74070000D01*
X103610000Y-79270000D02*
X108910000Y-79270000D01*
X103610000Y-74070000D02*
X103610000Y-79270000D01*
X108910000Y-74070000D02*
X107260000Y-74070000D01*
X105260000Y-74070000D02*
X103610000Y-74070000D01*
X105260000Y-74070000D02*
G75*
G03*
X107260000Y-74070000I1000000J0D01*
G01*
%TO.C,U2*%
X105310000Y-81320000D02*
G75*
G03*
X107310000Y-81320000I1000000J0D01*
G01*
X105310000Y-81320000D02*
X103660000Y-81320000D01*
X108960000Y-81320000D02*
X107310000Y-81320000D01*
X103660000Y-81320000D02*
X103660000Y-86520000D01*
X103660000Y-86520000D02*
X108960000Y-86520000D01*
X108960000Y-86520000D02*
X108960000Y-81320000D01*
%TO.C,U1*%
X107240000Y-70580000D02*
X108890000Y-70580000D01*
X108890000Y-70580000D02*
X108890000Y-62840000D01*
X101100000Y-70640000D02*
X111380000Y-70640000D01*
X111380000Y-70640000D02*
X111380000Y-62780000D01*
X103590000Y-62840000D02*
X103590000Y-70580000D01*
X108890000Y-62840000D02*
X103590000Y-62840000D01*
X111380000Y-62780000D02*
X101100000Y-62780000D01*
X101100000Y-62780000D02*
X101100000Y-70640000D01*
X103590000Y-70580000D02*
X105240000Y-70580000D01*
X107240000Y-70580000D02*
G75*
G03*
X105240000Y-70580000I-1000000J0D01*
G01*
%TO.C,R26*%
X122520000Y-78880000D02*
X122520000Y-79210000D01*
X129060000Y-81620000D02*
X122520000Y-81620000D01*
X129060000Y-78880000D02*
X122520000Y-78880000D01*
X129060000Y-79210000D02*
X129060000Y-78880000D01*
X129060000Y-81290000D02*
X129060000Y-81620000D01*
X122520000Y-81620000D02*
X122520000Y-81290000D01*
%TO.C,R25*%
X114470000Y-72830000D02*
X114470000Y-73160000D01*
X121010000Y-75570000D02*
X114470000Y-75570000D01*
X121010000Y-72830000D02*
X114470000Y-72830000D01*
X121010000Y-73160000D02*
X121010000Y-72830000D01*
X121010000Y-75240000D02*
X121010000Y-75570000D01*
X114470000Y-75570000D02*
X114470000Y-75240000D01*
%TO.C,R24*%
X131330000Y-84530000D02*
X131660000Y-84530000D01*
X134070000Y-77990000D02*
X134070000Y-84530000D01*
X131330000Y-77990000D02*
X131330000Y-84530000D01*
X131660000Y-77990000D02*
X131330000Y-77990000D01*
X133740000Y-77990000D02*
X134070000Y-77990000D01*
X134070000Y-84530000D02*
X133740000Y-84530000D01*
%TO.C,R23*%
X114480000Y-69280000D02*
X114810000Y-69280000D01*
X117220000Y-62740000D02*
X117220000Y-69280000D01*
X114480000Y-62740000D02*
X114480000Y-69280000D01*
X114810000Y-62740000D02*
X114480000Y-62740000D01*
X116890000Y-62740000D02*
X117220000Y-62740000D01*
X117220000Y-69280000D02*
X116890000Y-69280000D01*
%TO.C,R22*%
X98280000Y-72580000D02*
X98280000Y-72910000D01*
X91740000Y-72910000D02*
X91740000Y-72580000D01*
X91740000Y-74990000D02*
X91740000Y-75320000D01*
X91740000Y-75320000D02*
X98280000Y-75320000D01*
X91740000Y-72580000D02*
X98280000Y-72580000D01*
X98280000Y-75320000D02*
X98280000Y-74990000D01*
%TO.C,R21*%
X99330000Y-81170000D02*
X99330000Y-80840000D01*
X92790000Y-78430000D02*
X99330000Y-78430000D01*
X92790000Y-81170000D02*
X99330000Y-81170000D01*
X92790000Y-80840000D02*
X92790000Y-81170000D01*
X92790000Y-78760000D02*
X92790000Y-78430000D01*
X99330000Y-78430000D02*
X99330000Y-78760000D01*
%TO.C,R20*%
X135980000Y-75910000D02*
X136310000Y-75910000D01*
X138720000Y-69370000D02*
X138720000Y-75910000D01*
X135980000Y-69370000D02*
X135980000Y-75910000D01*
X136310000Y-69370000D02*
X135980000Y-69370000D01*
X138390000Y-69370000D02*
X138720000Y-69370000D01*
X138720000Y-75910000D02*
X138390000Y-75910000D01*
%TO.C,R19*%
X142070000Y-75930000D02*
X141740000Y-75930000D01*
X141740000Y-69390000D02*
X142070000Y-69390000D01*
X139660000Y-69390000D02*
X139330000Y-69390000D01*
X139330000Y-69390000D02*
X139330000Y-75930000D01*
X142070000Y-69390000D02*
X142070000Y-75930000D01*
X139330000Y-75930000D02*
X139660000Y-75930000D01*
%TO.C,R18*%
X142780000Y-75880000D02*
X143110000Y-75880000D01*
X145520000Y-69340000D02*
X145520000Y-75880000D01*
X142780000Y-69340000D02*
X142780000Y-75880000D01*
X143110000Y-69340000D02*
X142780000Y-69340000D01*
X145190000Y-69340000D02*
X145520000Y-69340000D01*
X145520000Y-75880000D02*
X145190000Y-75880000D01*
%TO.C,R17*%
X146230000Y-75880000D02*
X146560000Y-75880000D01*
X148970000Y-69340000D02*
X148970000Y-75880000D01*
X146230000Y-69340000D02*
X146230000Y-75880000D01*
X146560000Y-69340000D02*
X146230000Y-69340000D01*
X148640000Y-69340000D02*
X148970000Y-69340000D01*
X148970000Y-75880000D02*
X148640000Y-75880000D01*
%TO.C,R16*%
X89170000Y-58580000D02*
X89170000Y-58910000D01*
X95710000Y-61320000D02*
X89170000Y-61320000D01*
X95710000Y-58580000D02*
X89170000Y-58580000D01*
X95710000Y-58910000D02*
X95710000Y-58580000D01*
X95710000Y-60990000D02*
X95710000Y-61320000D01*
X89170000Y-61320000D02*
X89170000Y-60990000D01*
%TO.C,R15*%
X82330000Y-70180000D02*
X82660000Y-70180000D01*
X85070000Y-63640000D02*
X85070000Y-70180000D01*
X82330000Y-63640000D02*
X82330000Y-70180000D01*
X82660000Y-63640000D02*
X82330000Y-63640000D01*
X84740000Y-63640000D02*
X85070000Y-63640000D01*
X85070000Y-70180000D02*
X84740000Y-70180000D01*
%TO.C,R14*%
X85680000Y-70180000D02*
X86010000Y-70180000D01*
X88420000Y-63640000D02*
X88420000Y-70180000D01*
X85680000Y-63640000D02*
X85680000Y-70180000D01*
X86010000Y-63640000D02*
X85680000Y-63640000D01*
X88090000Y-63640000D02*
X88420000Y-63640000D01*
X88420000Y-70180000D02*
X88090000Y-70180000D01*
%TO.C,R13*%
X88980000Y-70180000D02*
X89310000Y-70180000D01*
X91720000Y-63640000D02*
X91720000Y-70180000D01*
X88980000Y-63640000D02*
X88980000Y-70180000D01*
X89310000Y-63640000D02*
X88980000Y-63640000D01*
X91390000Y-63640000D02*
X91720000Y-63640000D01*
X91720000Y-70180000D02*
X91390000Y-70180000D01*
%TO.C,R12*%
X114520000Y-84570000D02*
X114190000Y-84570000D01*
X111780000Y-91110000D02*
X111780000Y-84570000D01*
X114520000Y-91110000D02*
X114520000Y-84570000D01*
X114190000Y-91110000D02*
X114520000Y-91110000D01*
X112110000Y-91110000D02*
X111780000Y-91110000D01*
X111780000Y-84570000D02*
X112110000Y-84570000D01*
%TO.C,R11*%
X71080000Y-68870000D02*
X71080000Y-68540000D01*
X64540000Y-66130000D02*
X71080000Y-66130000D01*
X64540000Y-68870000D02*
X71080000Y-68870000D01*
X64540000Y-68540000D02*
X64540000Y-68870000D01*
X64540000Y-66460000D02*
X64540000Y-66130000D01*
X71080000Y-66130000D02*
X71080000Y-66460000D01*
%TO.C,R10*%
X71080000Y-69430000D02*
X71080000Y-69760000D01*
X64540000Y-69760000D02*
X64540000Y-69430000D01*
X64540000Y-71840000D02*
X64540000Y-72170000D01*
X64540000Y-72170000D02*
X71080000Y-72170000D01*
X64540000Y-69430000D02*
X71080000Y-69430000D01*
X71080000Y-72170000D02*
X71080000Y-71840000D01*
%TO.C,R9*%
X71080000Y-72630000D02*
X71080000Y-72960000D01*
X64540000Y-72960000D02*
X64540000Y-72630000D01*
X64540000Y-75040000D02*
X64540000Y-75370000D01*
X64540000Y-75370000D02*
X71080000Y-75370000D01*
X64540000Y-72630000D02*
X71080000Y-72630000D01*
X71080000Y-75370000D02*
X71080000Y-75040000D01*
%TO.C,R8*%
X65520000Y-82970000D02*
X65520000Y-82640000D01*
X72060000Y-82640000D02*
X72060000Y-82970000D01*
X72060000Y-80560000D02*
X72060000Y-80230000D01*
X72060000Y-80230000D02*
X65520000Y-80230000D01*
X72060000Y-82970000D02*
X65520000Y-82970000D01*
X65520000Y-80230000D02*
X65520000Y-80560000D01*
%TO.C,R7*%
X65520000Y-83430000D02*
X65520000Y-83760000D01*
X72060000Y-86170000D02*
X65520000Y-86170000D01*
X72060000Y-83430000D02*
X65520000Y-83430000D01*
X72060000Y-83760000D02*
X72060000Y-83430000D01*
X72060000Y-85840000D02*
X72060000Y-86170000D01*
X65520000Y-86170000D02*
X65520000Y-85840000D01*
%TO.C,R6*%
X65520000Y-89570000D02*
X65520000Y-89240000D01*
X72060000Y-89240000D02*
X72060000Y-89570000D01*
X72060000Y-87160000D02*
X72060000Y-86830000D01*
X72060000Y-86830000D02*
X65520000Y-86830000D01*
X72060000Y-89570000D02*
X65520000Y-89570000D01*
X65520000Y-86830000D02*
X65520000Y-87160000D01*
%TO.C,R5*%
X65420000Y-90230000D02*
X65420000Y-90560000D01*
X71960000Y-92970000D02*
X65420000Y-92970000D01*
X71960000Y-90230000D02*
X65420000Y-90230000D01*
X71960000Y-90560000D02*
X71960000Y-90230000D01*
X71960000Y-92640000D02*
X71960000Y-92970000D01*
X65420000Y-92970000D02*
X65420000Y-92640000D01*
%TO.C,R4*%
X83370000Y-89970000D02*
X83370000Y-89640000D01*
X76830000Y-87230000D02*
X83370000Y-87230000D01*
X76830000Y-89970000D02*
X83370000Y-89970000D01*
X76830000Y-89640000D02*
X76830000Y-89970000D01*
X76830000Y-87560000D02*
X76830000Y-87230000D01*
X83370000Y-87230000D02*
X83370000Y-87560000D01*
%TO.C,R3*%
X83360000Y-86470000D02*
X83360000Y-86140000D01*
X76820000Y-83730000D02*
X83360000Y-83730000D01*
X76820000Y-86470000D02*
X83360000Y-86470000D01*
X76820000Y-86140000D02*
X76820000Y-86470000D01*
X76820000Y-84060000D02*
X76820000Y-83730000D01*
X83360000Y-83730000D02*
X83360000Y-84060000D01*
%TO.C,R2*%
X83260000Y-83070000D02*
X83260000Y-82740000D01*
X76720000Y-80330000D02*
X83260000Y-80330000D01*
X76720000Y-83070000D02*
X83260000Y-83070000D01*
X76720000Y-82740000D02*
X76720000Y-83070000D01*
X76720000Y-80660000D02*
X76720000Y-80330000D01*
X83260000Y-80330000D02*
X83260000Y-80660000D01*
%TO.C,R1*%
X75020000Y-72530000D02*
X75020000Y-72860000D01*
X81560000Y-75270000D02*
X75020000Y-75270000D01*
X81560000Y-72530000D02*
X75020000Y-72530000D01*
X81560000Y-72860000D02*
X81560000Y-72530000D01*
X81560000Y-74940000D02*
X81560000Y-75270000D01*
X75020000Y-75270000D02*
X75020000Y-74940000D01*
%TO.C,Q1*%
X67720000Y-57140000D02*
X77960000Y-57140000D01*
X77960000Y-55630000D02*
X77960000Y-60271000D01*
X67720000Y-60271000D02*
X77960000Y-60271000D01*
X67720000Y-55630000D02*
X67720000Y-60271000D01*
X74691000Y-55630000D02*
X74691000Y-57140000D01*
X70990000Y-55630000D02*
X70990000Y-57140000D01*
X67720000Y-55630000D02*
X77960000Y-55630000D01*
%TO.C,JP7*%
X126520000Y-60950000D02*
X126520000Y-59620000D01*
X126520000Y-64820000D02*
X129180000Y-64820000D01*
X126520000Y-62220000D02*
X126520000Y-64820000D01*
X126520000Y-62220000D02*
X129180000Y-62220000D01*
X126520000Y-59620000D02*
X127850000Y-59620000D01*
X129180000Y-62220000D02*
X129180000Y-64820000D01*
%TO.C,JP6*%
X122470000Y-60950000D02*
X122470000Y-59620000D01*
X122470000Y-64820000D02*
X125130000Y-64820000D01*
X122470000Y-62220000D02*
X122470000Y-64820000D01*
X122470000Y-62220000D02*
X125130000Y-62220000D01*
X122470000Y-59620000D02*
X123800000Y-59620000D01*
X125130000Y-62220000D02*
X125130000Y-64820000D01*
%TO.C,JP5*%
X118420000Y-61000000D02*
X118420000Y-59670000D01*
X118420000Y-64870000D02*
X121080000Y-64870000D01*
X118420000Y-62270000D02*
X118420000Y-64870000D01*
X118420000Y-62270000D02*
X121080000Y-62270000D01*
X118420000Y-59670000D02*
X119750000Y-59670000D01*
X121080000Y-62270000D02*
X121080000Y-64870000D01*
%TO.C,JP4*%
X135320000Y-80450000D02*
X135320000Y-79120000D01*
X135320000Y-84320000D02*
X137980000Y-84320000D01*
X135320000Y-81720000D02*
X135320000Y-84320000D01*
X135320000Y-81720000D02*
X137980000Y-81720000D01*
X135320000Y-79120000D02*
X136650000Y-79120000D01*
X137980000Y-81720000D02*
X137980000Y-84320000D01*
%TO.C,JP3*%
X141730000Y-81720000D02*
X141730000Y-84320000D01*
X139070000Y-79120000D02*
X140400000Y-79120000D01*
X139070000Y-81720000D02*
X141730000Y-81720000D01*
X139070000Y-81720000D02*
X139070000Y-84320000D01*
X139070000Y-84320000D02*
X141730000Y-84320000D01*
X139070000Y-80450000D02*
X139070000Y-79120000D01*
%TO.C,JP2*%
X142870000Y-80450000D02*
X142870000Y-79120000D01*
X142870000Y-84320000D02*
X145530000Y-84320000D01*
X142870000Y-81720000D02*
X142870000Y-84320000D01*
X142870000Y-81720000D02*
X145530000Y-81720000D01*
X142870000Y-79120000D02*
X144200000Y-79120000D01*
X145530000Y-81720000D02*
X145530000Y-84320000D01*
%TO.C,JP1*%
X146670000Y-80450000D02*
X146670000Y-79120000D01*
X146670000Y-84320000D02*
X149330000Y-84320000D01*
X146670000Y-81720000D02*
X146670000Y-84320000D01*
X146670000Y-81720000D02*
X149330000Y-81720000D01*
X146670000Y-79120000D02*
X148000000Y-79120000D01*
X149330000Y-81720000D02*
X149330000Y-84320000D01*
%TO.C,J4*%
X148190000Y-65960000D02*
X132950000Y-65960000D01*
X132950000Y-58340000D02*
X132950000Y-65960000D01*
X148190000Y-59610000D02*
X132950000Y-59610000D01*
X148190000Y-58340000D02*
X132950000Y-58340000D01*
X148190000Y-58340000D02*
X148190000Y-65960000D01*
%TO.C,J3*%
X115310000Y-85240000D02*
X130550000Y-85240000D01*
X130550000Y-92860000D02*
X130550000Y-85240000D01*
X115310000Y-91590000D02*
X130550000Y-91590000D01*
X115310000Y-92860000D02*
X130550000Y-92860000D01*
X115310000Y-92860000D02*
X115310000Y-85240000D01*
%TO.C,J2*%
X61810000Y-77860000D02*
X61810000Y-93100000D01*
X54190000Y-93100000D02*
X61810000Y-93100000D01*
X55460000Y-77860000D02*
X55460000Y-93100000D01*
X54190000Y-77860000D02*
X54190000Y-93100000D01*
X54190000Y-77860000D02*
X61810000Y-77860000D01*
%TO.C,J1*%
X61760000Y-59310000D02*
X61760000Y-74550000D01*
X54140000Y-74550000D02*
X61760000Y-74550000D01*
X55410000Y-59310000D02*
X55410000Y-74550000D01*
X54140000Y-59310000D02*
X54140000Y-74550000D01*
X54140000Y-59310000D02*
X61760000Y-59310000D01*
%TO.C,D4*%
X86280000Y-88730000D02*
X89220000Y-88730000D01*
X86280000Y-89510000D02*
X86280000Y-84070000D01*
X86280000Y-88490000D02*
X89220000Y-88490000D01*
X86280000Y-84070000D02*
X86410000Y-84070000D01*
X86280000Y-88610000D02*
X89220000Y-88610000D01*
X89220000Y-89510000D02*
X89220000Y-84070000D01*
X89220000Y-84070000D02*
X89090000Y-84070000D01*
X89090000Y-89510000D02*
X89220000Y-89510000D01*
X86410000Y-89510000D02*
X86280000Y-89510000D01*
%TO.C,D3*%
X96580000Y-88830000D02*
X99520000Y-88830000D01*
X96580000Y-89610000D02*
X96580000Y-84170000D01*
X96580000Y-88590000D02*
X99520000Y-88590000D01*
X96580000Y-84170000D02*
X96710000Y-84170000D01*
X96580000Y-88710000D02*
X99520000Y-88710000D01*
X99520000Y-89610000D02*
X99520000Y-84170000D01*
X99520000Y-84170000D02*
X99390000Y-84170000D01*
X99390000Y-89610000D02*
X99520000Y-89610000D01*
X96710000Y-89610000D02*
X96580000Y-89610000D01*
%TO.C,D2*%
X92670000Y-84920000D02*
X89730000Y-84920000D01*
X92670000Y-84140000D02*
X92670000Y-89580000D01*
X92670000Y-85160000D02*
X89730000Y-85160000D01*
X92670000Y-89580000D02*
X92540000Y-89580000D01*
X92670000Y-85040000D02*
X89730000Y-85040000D01*
X89730000Y-84140000D02*
X89730000Y-89580000D01*
X89730000Y-89580000D02*
X89860000Y-89580000D01*
X89860000Y-84140000D02*
X89730000Y-84140000D01*
X92540000Y-84140000D02*
X92670000Y-84140000D01*
%TO.C,D1*%
X96170000Y-84920000D02*
X93230000Y-84920000D01*
X96170000Y-84140000D02*
X96170000Y-89580000D01*
X96170000Y-85160000D02*
X93230000Y-85160000D01*
X96170000Y-89580000D02*
X96040000Y-89580000D01*
X96170000Y-85040000D02*
X93230000Y-85040000D01*
X93230000Y-84140000D02*
X93230000Y-89580000D01*
X93230000Y-89580000D02*
X93360000Y-89580000D01*
X93360000Y-84140000D02*
X93230000Y-84140000D01*
X96040000Y-84140000D02*
X96170000Y-84140000D01*
%TO.C,C4*%
X129040000Y-53769000D02*
X130348000Y-53769000D01*
X126301000Y-52889000D02*
X126960000Y-52889000D01*
X126681000Y-52609000D02*
X126960000Y-52609000D01*
X126617000Y-52649000D02*
X126960000Y-52649000D01*
X129040000Y-54370000D02*
X130536000Y-54370000D01*
X125753000Y-53569000D02*
X126960000Y-53569000D01*
X125420000Y-54850000D02*
X130580000Y-54850000D01*
X129040000Y-53689000D02*
X130310000Y-53689000D01*
X129040000Y-53009000D02*
X129826000Y-53009000D01*
X129040000Y-53409000D02*
X130149000Y-53409000D01*
X129040000Y-54129000D02*
X130480000Y-54129000D01*
X129040000Y-53369000D02*
X130122000Y-53369000D01*
X126557000Y-52689000D02*
X126960000Y-52689000D01*
X125421000Y-54770000D02*
X130579000Y-54770000D01*
X125965000Y-53249000D02*
X126960000Y-53249000D01*
X127482000Y-52289000D02*
X128518000Y-52289000D01*
X125545000Y-54049000D02*
X126960000Y-54049000D01*
X125776000Y-53529000D02*
X126960000Y-53529000D01*
X129040000Y-53729000D02*
X130329000Y-53729000D01*
X129040000Y-52929000D02*
X129743000Y-52929000D01*
X129040000Y-53209000D02*
X130004000Y-53209000D01*
X129040000Y-52609000D02*
X129319000Y-52609000D01*
X129040000Y-52569000D02*
X129251000Y-52569000D01*
X129040000Y-53049000D02*
X129864000Y-53049000D01*
X129040000Y-54290000D02*
X130520000Y-54290000D01*
X125464000Y-54370000D02*
X126960000Y-54370000D01*
X125520000Y-54129000D02*
X126960000Y-54129000D01*
X125586000Y-53929000D02*
X126960000Y-53929000D01*
X129040000Y-54170000D02*
X130491000Y-54170000D01*
X127323000Y-52329000D02*
X128677000Y-52329000D01*
X125825000Y-53449000D02*
X126960000Y-53449000D01*
X129040000Y-54089000D02*
X130468000Y-54089000D01*
X126215000Y-52969000D02*
X126960000Y-52969000D01*
X129040000Y-52689000D02*
X129443000Y-52689000D01*
X126063000Y-53129000D02*
X126960000Y-53129000D01*
X125851000Y-53409000D02*
X126960000Y-53409000D01*
X125671000Y-53729000D02*
X126960000Y-53729000D01*
X129040000Y-54490000D02*
X130556000Y-54490000D01*
X129040000Y-52649000D02*
X129383000Y-52649000D01*
X125489000Y-54250000D02*
X126960000Y-54250000D01*
X126902000Y-52489000D02*
X129098000Y-52489000D01*
X126257000Y-52929000D02*
X126960000Y-52929000D01*
X129040000Y-54610000D02*
X130569000Y-54610000D01*
X129040000Y-54330000D02*
X130528000Y-54330000D01*
X125457000Y-54410000D02*
X126960000Y-54410000D01*
X125424000Y-54690000D02*
X130576000Y-54690000D01*
X125905000Y-53329000D02*
X126960000Y-53329000D01*
X129040000Y-53609000D02*
X130268000Y-53609000D01*
X125618000Y-53849000D02*
X126960000Y-53849000D01*
X129040000Y-54210000D02*
X130501000Y-54210000D01*
X125472000Y-54330000D02*
X126960000Y-54330000D01*
X125420000Y-54810000D02*
X130580000Y-54810000D01*
X125635000Y-53809000D02*
X126960000Y-53809000D01*
X129040000Y-52849000D02*
X129653000Y-52849000D01*
X125499000Y-54210000D02*
X126960000Y-54210000D01*
X125439000Y-54530000D02*
X126960000Y-54530000D01*
X125800000Y-53489000D02*
X126960000Y-53489000D01*
X129040000Y-53249000D02*
X130035000Y-53249000D01*
X126174000Y-53009000D02*
X126960000Y-53009000D01*
X129040000Y-54450000D02*
X130550000Y-54450000D01*
X125558000Y-54009000D02*
X126960000Y-54009000D01*
X125480000Y-54290000D02*
X126960000Y-54290000D01*
X125450000Y-54450000D02*
X126960000Y-54450000D01*
X129040000Y-53449000D02*
X130175000Y-53449000D01*
X129040000Y-53889000D02*
X130398000Y-53889000D01*
X125422000Y-54730000D02*
X130578000Y-54730000D01*
X125427000Y-54650000D02*
X130573000Y-54650000D01*
X125431000Y-54610000D02*
X126960000Y-54610000D01*
X129040000Y-54250000D02*
X130511000Y-54250000D01*
X129040000Y-52969000D02*
X129785000Y-52969000D01*
X125710000Y-53649000D02*
X126960000Y-53649000D01*
X125935000Y-53289000D02*
X126960000Y-53289000D01*
X129040000Y-53809000D02*
X130365000Y-53809000D01*
X126347000Y-52849000D02*
X126960000Y-52849000D01*
X125444000Y-54490000D02*
X126960000Y-54490000D01*
X129040000Y-53129000D02*
X129937000Y-53129000D01*
X129040000Y-54009000D02*
X130442000Y-54009000D01*
X129040000Y-53289000D02*
X130065000Y-53289000D01*
X129040000Y-53569000D02*
X130247000Y-53569000D01*
X129040000Y-53089000D02*
X129901000Y-53089000D01*
X129040000Y-54049000D02*
X130455000Y-54049000D01*
X129040000Y-53529000D02*
X130224000Y-53529000D01*
X125602000Y-53889000D02*
X126960000Y-53889000D01*
X126525000Y-57654775D02*
X126525000Y-57154775D01*
X129040000Y-52809000D02*
X129605000Y-52809000D01*
X127195000Y-52369000D02*
X128805000Y-52369000D01*
X126749000Y-52569000D02*
X126960000Y-52569000D01*
X129040000Y-53969000D02*
X130428000Y-53969000D01*
X129040000Y-54570000D02*
X130565000Y-54570000D01*
X127716000Y-52249000D02*
X128284000Y-52249000D01*
X125572000Y-53969000D02*
X126960000Y-53969000D01*
X126989000Y-52449000D02*
X129011000Y-52449000D01*
X129040000Y-53849000D02*
X130382000Y-53849000D01*
X125996000Y-53209000D02*
X126960000Y-53209000D01*
X126500000Y-52729000D02*
X126960000Y-52729000D01*
X126822000Y-52529000D02*
X129178000Y-52529000D01*
X125878000Y-53369000D02*
X126960000Y-53369000D01*
X129040000Y-53489000D02*
X130200000Y-53489000D01*
X129040000Y-53929000D02*
X130414000Y-53929000D01*
X126275000Y-57404775D02*
X126775000Y-57404775D01*
X125652000Y-53769000D02*
X126960000Y-53769000D01*
X126029000Y-53169000D02*
X126960000Y-53169000D01*
X125509000Y-54170000D02*
X126960000Y-54170000D01*
X129040000Y-53329000D02*
X130095000Y-53329000D01*
X129040000Y-54530000D02*
X130561000Y-54530000D01*
X129040000Y-53649000D02*
X130290000Y-53649000D01*
X125732000Y-53609000D02*
X126960000Y-53609000D01*
X126446000Y-52769000D02*
X126960000Y-52769000D01*
X125690000Y-53689000D02*
X126960000Y-53689000D01*
X129040000Y-52769000D02*
X129554000Y-52769000D01*
X127085000Y-52409000D02*
X128915000Y-52409000D01*
X129040000Y-53169000D02*
X129971000Y-53169000D01*
X125435000Y-54570000D02*
X126960000Y-54570000D01*
X129040000Y-52729000D02*
X129500000Y-52729000D01*
X126099000Y-53089000D02*
X126960000Y-53089000D01*
X129040000Y-54410000D02*
X130543000Y-54410000D01*
X126395000Y-52809000D02*
X126960000Y-52809000D01*
X125532000Y-54089000D02*
X126960000Y-54089000D01*
X129040000Y-52889000D02*
X129699000Y-52889000D01*
X126136000Y-53049000D02*
X126960000Y-53049000D01*
X130620000Y-54850000D02*
G75*
G03*
X125380000Y-54850000I-2620000J0D01*
G01*
X125380000Y-54850000D02*
G75*
G03*
X130620000Y-54850000I2620000J0D01*
G01*
%TO.C,C3*%
X123190000Y-53769000D02*
X124498000Y-53769000D01*
X120451000Y-52889000D02*
X121110000Y-52889000D01*
X120831000Y-52609000D02*
X121110000Y-52609000D01*
X120767000Y-52649000D02*
X121110000Y-52649000D01*
X123190000Y-54370000D02*
X124686000Y-54370000D01*
X119903000Y-53569000D02*
X121110000Y-53569000D01*
X119570000Y-54850000D02*
X124730000Y-54850000D01*
X123190000Y-53689000D02*
X124460000Y-53689000D01*
X123190000Y-53009000D02*
X123976000Y-53009000D01*
X123190000Y-53409000D02*
X124299000Y-53409000D01*
X123190000Y-54129000D02*
X124630000Y-54129000D01*
X123190000Y-53369000D02*
X124272000Y-53369000D01*
X120707000Y-52689000D02*
X121110000Y-52689000D01*
X119571000Y-54770000D02*
X124729000Y-54770000D01*
X120115000Y-53249000D02*
X121110000Y-53249000D01*
X121632000Y-52289000D02*
X122668000Y-52289000D01*
X119695000Y-54049000D02*
X121110000Y-54049000D01*
X119926000Y-53529000D02*
X121110000Y-53529000D01*
X123190000Y-53729000D02*
X124479000Y-53729000D01*
X123190000Y-52929000D02*
X123893000Y-52929000D01*
X123190000Y-53209000D02*
X124154000Y-53209000D01*
X123190000Y-52609000D02*
X123469000Y-52609000D01*
X123190000Y-52569000D02*
X123401000Y-52569000D01*
X123190000Y-53049000D02*
X124014000Y-53049000D01*
X123190000Y-54290000D02*
X124670000Y-54290000D01*
X119614000Y-54370000D02*
X121110000Y-54370000D01*
X119670000Y-54129000D02*
X121110000Y-54129000D01*
X119736000Y-53929000D02*
X121110000Y-53929000D01*
X123190000Y-54170000D02*
X124641000Y-54170000D01*
X121473000Y-52329000D02*
X122827000Y-52329000D01*
X119975000Y-53449000D02*
X121110000Y-53449000D01*
X123190000Y-54089000D02*
X124618000Y-54089000D01*
X120365000Y-52969000D02*
X121110000Y-52969000D01*
X123190000Y-52689000D02*
X123593000Y-52689000D01*
X120213000Y-53129000D02*
X121110000Y-53129000D01*
X120001000Y-53409000D02*
X121110000Y-53409000D01*
X119821000Y-53729000D02*
X121110000Y-53729000D01*
X123190000Y-54490000D02*
X124706000Y-54490000D01*
X123190000Y-52649000D02*
X123533000Y-52649000D01*
X119639000Y-54250000D02*
X121110000Y-54250000D01*
X121052000Y-52489000D02*
X123248000Y-52489000D01*
X120407000Y-52929000D02*
X121110000Y-52929000D01*
X123190000Y-54610000D02*
X124719000Y-54610000D01*
X123190000Y-54330000D02*
X124678000Y-54330000D01*
X119607000Y-54410000D02*
X121110000Y-54410000D01*
X119574000Y-54690000D02*
X124726000Y-54690000D01*
X120055000Y-53329000D02*
X121110000Y-53329000D01*
X123190000Y-53609000D02*
X124418000Y-53609000D01*
X119768000Y-53849000D02*
X121110000Y-53849000D01*
X123190000Y-54210000D02*
X124651000Y-54210000D01*
X119622000Y-54330000D02*
X121110000Y-54330000D01*
X119570000Y-54810000D02*
X124730000Y-54810000D01*
X119785000Y-53809000D02*
X121110000Y-53809000D01*
X123190000Y-52849000D02*
X123803000Y-52849000D01*
X119649000Y-54210000D02*
X121110000Y-54210000D01*
X119589000Y-54530000D02*
X121110000Y-54530000D01*
X119950000Y-53489000D02*
X121110000Y-53489000D01*
X123190000Y-53249000D02*
X124185000Y-53249000D01*
X120324000Y-53009000D02*
X121110000Y-53009000D01*
X123190000Y-54450000D02*
X124700000Y-54450000D01*
X119708000Y-54009000D02*
X121110000Y-54009000D01*
X119630000Y-54290000D02*
X121110000Y-54290000D01*
X119600000Y-54450000D02*
X121110000Y-54450000D01*
X123190000Y-53449000D02*
X124325000Y-53449000D01*
X123190000Y-53889000D02*
X124548000Y-53889000D01*
X119572000Y-54730000D02*
X124728000Y-54730000D01*
X119577000Y-54650000D02*
X124723000Y-54650000D01*
X119581000Y-54610000D02*
X121110000Y-54610000D01*
X123190000Y-54250000D02*
X124661000Y-54250000D01*
X123190000Y-52969000D02*
X123935000Y-52969000D01*
X119860000Y-53649000D02*
X121110000Y-53649000D01*
X120085000Y-53289000D02*
X121110000Y-53289000D01*
X123190000Y-53809000D02*
X124515000Y-53809000D01*
X120497000Y-52849000D02*
X121110000Y-52849000D01*
X119594000Y-54490000D02*
X121110000Y-54490000D01*
X123190000Y-53129000D02*
X124087000Y-53129000D01*
X123190000Y-54009000D02*
X124592000Y-54009000D01*
X123190000Y-53289000D02*
X124215000Y-53289000D01*
X123190000Y-53569000D02*
X124397000Y-53569000D01*
X123190000Y-53089000D02*
X124051000Y-53089000D01*
X123190000Y-54049000D02*
X124605000Y-54049000D01*
X123190000Y-53529000D02*
X124374000Y-53529000D01*
X119752000Y-53889000D02*
X121110000Y-53889000D01*
X120675000Y-57654775D02*
X120675000Y-57154775D01*
X123190000Y-52809000D02*
X123755000Y-52809000D01*
X121345000Y-52369000D02*
X122955000Y-52369000D01*
X120899000Y-52569000D02*
X121110000Y-52569000D01*
X123190000Y-53969000D02*
X124578000Y-53969000D01*
X123190000Y-54570000D02*
X124715000Y-54570000D01*
X121866000Y-52249000D02*
X122434000Y-52249000D01*
X119722000Y-53969000D02*
X121110000Y-53969000D01*
X121139000Y-52449000D02*
X123161000Y-52449000D01*
X123190000Y-53849000D02*
X124532000Y-53849000D01*
X120146000Y-53209000D02*
X121110000Y-53209000D01*
X120650000Y-52729000D02*
X121110000Y-52729000D01*
X120972000Y-52529000D02*
X123328000Y-52529000D01*
X120028000Y-53369000D02*
X121110000Y-53369000D01*
X123190000Y-53489000D02*
X124350000Y-53489000D01*
X123190000Y-53929000D02*
X124564000Y-53929000D01*
X120425000Y-57404775D02*
X120925000Y-57404775D01*
X119802000Y-53769000D02*
X121110000Y-53769000D01*
X120179000Y-53169000D02*
X121110000Y-53169000D01*
X119659000Y-54170000D02*
X121110000Y-54170000D01*
X123190000Y-53329000D02*
X124245000Y-53329000D01*
X123190000Y-54530000D02*
X124711000Y-54530000D01*
X123190000Y-53649000D02*
X124440000Y-53649000D01*
X119882000Y-53609000D02*
X121110000Y-53609000D01*
X120596000Y-52769000D02*
X121110000Y-52769000D01*
X119840000Y-53689000D02*
X121110000Y-53689000D01*
X123190000Y-52769000D02*
X123704000Y-52769000D01*
X121235000Y-52409000D02*
X123065000Y-52409000D01*
X123190000Y-53169000D02*
X124121000Y-53169000D01*
X119585000Y-54570000D02*
X121110000Y-54570000D01*
X123190000Y-52729000D02*
X123650000Y-52729000D01*
X120249000Y-53089000D02*
X121110000Y-53089000D01*
X123190000Y-54410000D02*
X124693000Y-54410000D01*
X120545000Y-52809000D02*
X121110000Y-52809000D01*
X119682000Y-54089000D02*
X121110000Y-54089000D01*
X123190000Y-52889000D02*
X123849000Y-52889000D01*
X120286000Y-53049000D02*
X121110000Y-53049000D01*
X124770000Y-54850000D02*
G75*
G03*
X119530000Y-54850000I-2620000J0D01*
G01*
X119530000Y-54850000D02*
G75*
G03*
X124770000Y-54850000I2620000J0D01*
G01*
%TO.C,C2*%
X117390000Y-53719000D02*
X118698000Y-53719000D01*
X114651000Y-52839000D02*
X115310000Y-52839000D01*
X115031000Y-52559000D02*
X115310000Y-52559000D01*
X114967000Y-52599000D02*
X115310000Y-52599000D01*
X117390000Y-54320000D02*
X118886000Y-54320000D01*
X114103000Y-53519000D02*
X115310000Y-53519000D01*
X113770000Y-54800000D02*
X118930000Y-54800000D01*
X117390000Y-53639000D02*
X118660000Y-53639000D01*
X117390000Y-52959000D02*
X118176000Y-52959000D01*
X117390000Y-53359000D02*
X118499000Y-53359000D01*
X117390000Y-54079000D02*
X118830000Y-54079000D01*
X117390000Y-53319000D02*
X118472000Y-53319000D01*
X114907000Y-52639000D02*
X115310000Y-52639000D01*
X113771000Y-54720000D02*
X118929000Y-54720000D01*
X114315000Y-53199000D02*
X115310000Y-53199000D01*
X115832000Y-52239000D02*
X116868000Y-52239000D01*
X113895000Y-53999000D02*
X115310000Y-53999000D01*
X114126000Y-53479000D02*
X115310000Y-53479000D01*
X117390000Y-53679000D02*
X118679000Y-53679000D01*
X117390000Y-52879000D02*
X118093000Y-52879000D01*
X117390000Y-53159000D02*
X118354000Y-53159000D01*
X117390000Y-52559000D02*
X117669000Y-52559000D01*
X117390000Y-52519000D02*
X117601000Y-52519000D01*
X117390000Y-52999000D02*
X118214000Y-52999000D01*
X117390000Y-54240000D02*
X118870000Y-54240000D01*
X113814000Y-54320000D02*
X115310000Y-54320000D01*
X113870000Y-54079000D02*
X115310000Y-54079000D01*
X113936000Y-53879000D02*
X115310000Y-53879000D01*
X117390000Y-54120000D02*
X118841000Y-54120000D01*
X115673000Y-52279000D02*
X117027000Y-52279000D01*
X114175000Y-53399000D02*
X115310000Y-53399000D01*
X117390000Y-54039000D02*
X118818000Y-54039000D01*
X114565000Y-52919000D02*
X115310000Y-52919000D01*
X117390000Y-52639000D02*
X117793000Y-52639000D01*
X114413000Y-53079000D02*
X115310000Y-53079000D01*
X114201000Y-53359000D02*
X115310000Y-53359000D01*
X114021000Y-53679000D02*
X115310000Y-53679000D01*
X117390000Y-54440000D02*
X118906000Y-54440000D01*
X117390000Y-52599000D02*
X117733000Y-52599000D01*
X113839000Y-54200000D02*
X115310000Y-54200000D01*
X115252000Y-52439000D02*
X117448000Y-52439000D01*
X114607000Y-52879000D02*
X115310000Y-52879000D01*
X117390000Y-54560000D02*
X118919000Y-54560000D01*
X117390000Y-54280000D02*
X118878000Y-54280000D01*
X113807000Y-54360000D02*
X115310000Y-54360000D01*
X113774000Y-54640000D02*
X118926000Y-54640000D01*
X114255000Y-53279000D02*
X115310000Y-53279000D01*
X117390000Y-53559000D02*
X118618000Y-53559000D01*
X113968000Y-53799000D02*
X115310000Y-53799000D01*
X117390000Y-54160000D02*
X118851000Y-54160000D01*
X113822000Y-54280000D02*
X115310000Y-54280000D01*
X113770000Y-54760000D02*
X118930000Y-54760000D01*
X113985000Y-53759000D02*
X115310000Y-53759000D01*
X117390000Y-52799000D02*
X118003000Y-52799000D01*
X113849000Y-54160000D02*
X115310000Y-54160000D01*
X113789000Y-54480000D02*
X115310000Y-54480000D01*
X114150000Y-53439000D02*
X115310000Y-53439000D01*
X117390000Y-53199000D02*
X118385000Y-53199000D01*
X114524000Y-52959000D02*
X115310000Y-52959000D01*
X117390000Y-54400000D02*
X118900000Y-54400000D01*
X113908000Y-53959000D02*
X115310000Y-53959000D01*
X113830000Y-54240000D02*
X115310000Y-54240000D01*
X113800000Y-54400000D02*
X115310000Y-54400000D01*
X117390000Y-53399000D02*
X118525000Y-53399000D01*
X117390000Y-53839000D02*
X118748000Y-53839000D01*
X113772000Y-54680000D02*
X118928000Y-54680000D01*
X113777000Y-54600000D02*
X118923000Y-54600000D01*
X113781000Y-54560000D02*
X115310000Y-54560000D01*
X117390000Y-54200000D02*
X118861000Y-54200000D01*
X117390000Y-52919000D02*
X118135000Y-52919000D01*
X114060000Y-53599000D02*
X115310000Y-53599000D01*
X114285000Y-53239000D02*
X115310000Y-53239000D01*
X117390000Y-53759000D02*
X118715000Y-53759000D01*
X114697000Y-52799000D02*
X115310000Y-52799000D01*
X113794000Y-54440000D02*
X115310000Y-54440000D01*
X117390000Y-53079000D02*
X118287000Y-53079000D01*
X117390000Y-53959000D02*
X118792000Y-53959000D01*
X117390000Y-53239000D02*
X118415000Y-53239000D01*
X117390000Y-53519000D02*
X118597000Y-53519000D01*
X117390000Y-53039000D02*
X118251000Y-53039000D01*
X117390000Y-53999000D02*
X118805000Y-53999000D01*
X117390000Y-53479000D02*
X118574000Y-53479000D01*
X113952000Y-53839000D02*
X115310000Y-53839000D01*
X114875000Y-57604775D02*
X114875000Y-57104775D01*
X117390000Y-52759000D02*
X117955000Y-52759000D01*
X115545000Y-52319000D02*
X117155000Y-52319000D01*
X115099000Y-52519000D02*
X115310000Y-52519000D01*
X117390000Y-53919000D02*
X118778000Y-53919000D01*
X117390000Y-54520000D02*
X118915000Y-54520000D01*
X116066000Y-52199000D02*
X116634000Y-52199000D01*
X113922000Y-53919000D02*
X115310000Y-53919000D01*
X115339000Y-52399000D02*
X117361000Y-52399000D01*
X117390000Y-53799000D02*
X118732000Y-53799000D01*
X114346000Y-53159000D02*
X115310000Y-53159000D01*
X114850000Y-52679000D02*
X115310000Y-52679000D01*
X115172000Y-52479000D02*
X117528000Y-52479000D01*
X114228000Y-53319000D02*
X115310000Y-53319000D01*
X117390000Y-53439000D02*
X118550000Y-53439000D01*
X117390000Y-53879000D02*
X118764000Y-53879000D01*
X114625000Y-57354775D02*
X115125000Y-57354775D01*
X114002000Y-53719000D02*
X115310000Y-53719000D01*
X114379000Y-53119000D02*
X115310000Y-53119000D01*
X113859000Y-54120000D02*
X115310000Y-54120000D01*
X117390000Y-53279000D02*
X118445000Y-53279000D01*
X117390000Y-54480000D02*
X118911000Y-54480000D01*
X117390000Y-53599000D02*
X118640000Y-53599000D01*
X114082000Y-53559000D02*
X115310000Y-53559000D01*
X114796000Y-52719000D02*
X115310000Y-52719000D01*
X114040000Y-53639000D02*
X115310000Y-53639000D01*
X117390000Y-52719000D02*
X117904000Y-52719000D01*
X115435000Y-52359000D02*
X117265000Y-52359000D01*
X117390000Y-53119000D02*
X118321000Y-53119000D01*
X113785000Y-54520000D02*
X115310000Y-54520000D01*
X117390000Y-52679000D02*
X117850000Y-52679000D01*
X114449000Y-53039000D02*
X115310000Y-53039000D01*
X117390000Y-54360000D02*
X118893000Y-54360000D01*
X114745000Y-52759000D02*
X115310000Y-52759000D01*
X113882000Y-54039000D02*
X115310000Y-54039000D01*
X117390000Y-52839000D02*
X118049000Y-52839000D01*
X114486000Y-52999000D02*
X115310000Y-52999000D01*
X118970000Y-54800000D02*
G75*
G03*
X113730000Y-54800000I-2620000J0D01*
G01*
X113730000Y-54800000D02*
G75*
G03*
X118970000Y-54800000I2620000J0D01*
G01*
%TO.C,C1*%
X63980000Y-61845000D02*
X63980000Y-61530000D01*
X69220000Y-64270000D02*
X63980000Y-64270000D01*
X69220000Y-61530000D02*
X63980000Y-61530000D01*
X63980000Y-64270000D02*
X63980000Y-63955000D01*
X69220000Y-61845000D02*
X69220000Y-61530000D01*
X69220000Y-64270000D02*
X69220000Y-63955000D01*
%TD*%
M02*
