M48
; DRILL file {KiCad 7.0.11+dfsg-1build4} date Thu 30 Jan 2025 08:34:11 PM CST
; FORMAT={-:-/ absolute / inch / decimal}
; #@! TF.CreationDate,2025-01-30T20:34:11-06:00
; #@! TF.GenerationSoftware,Kicad,Pcbnew,7.0.11+dfsg-1build4
; #@! TF.FileFunction,Plated,1,2,PTH
FMAT,2
INCH
; #@! TA.AperFunction,Plated,PTH,ComponentDrill
T1C0.0315
; #@! TA.AperFunction,Plated,PTH,ComponentDrill
T2C0.0394
; #@! TA.AperFunction,Plated,PTH,ComponentDrill
T3C0.0433
; #@! TA.AperFunction,Plated,PTH,ComponentDrill
T4C0.0598
%
G90
G05
T1
X2.5197Y-2.6575
X2.5197Y-2.7874
X2.5197Y-2.9134
X2.5472Y-2.1134
X2.5472Y-2.4134
X2.5543Y-3.6063
X2.5583Y-3.2126
X2.5583Y-3.3386
X2.5583Y-3.4724
X2.5717Y-2.5272
X2.7685Y-2.5272
X2.8197Y-2.6575
X2.8197Y-2.7874
X2.8197Y-2.9134
X2.8543Y-3.6063
X2.8583Y-3.2126
X2.8583Y-3.3386
X2.8583Y-3.4724
X2.9323Y-2.9094
X2.9992Y-3.2165
X3.0031Y-3.3504
X3.0035Y-3.4882
X3.2323Y-2.9094
X3.2992Y-3.2165
X3.3031Y-3.3504
X3.3035Y-3.4882
X3.5768Y-3.7039
X3.5811Y-2.4772
X3.5811Y-2.7772
X3.5906Y-2.9114
X3.6319Y-3.1417
X3.7185Y-2.4795
X3.7185Y-2.7795
X3.8484Y-2.478
X3.8484Y-2.778
X3.8768Y-3.7039
X3.8906Y-2.9114
X3.9319Y-3.1417
X4.0327Y-2.5264
X4.0327Y-2.6264
X4.0327Y-2.7264
X4.0335Y-2.9685
X4.0335Y-3.0685
X4.0354Y-3.2539
X4.0354Y-3.3539
X4.3327Y-2.5264
X4.3327Y-2.6264
X4.3327Y-2.7264
X4.3335Y-2.9685
X4.3335Y-3.0685
X4.3354Y-3.2539
X4.3354Y-3.3539
X4.4854Y-2.9213
X4.561Y-2.4488
X4.561Y-2.7488
X4.5807Y-2.1083
X4.5807Y-2.2067
X4.6634Y-3.0618
X4.6634Y-3.1618
X4.6634Y-3.2618
X4.7854Y-2.9213
X4.8024Y-3.1594
X4.8091Y-2.1102
X4.8091Y-2.2087
X5.0394Y-2.1102
X5.0394Y-2.2087
X5.1024Y-3.1594
X5.2244Y-3.0492
X5.2244Y-3.3492
X5.3835Y-2.6685
X5.3835Y-3.2685
X5.5965Y-2.6705
X5.5965Y-3.2705
X5.8031Y-2.6772
X5.8031Y-3.2772
T2
X4.7146Y-2.4016
X4.7146Y-2.5016
X4.874Y-2.3996
X4.874Y-2.4996
X5.0335Y-2.3996
X5.0335Y-2.4996
X5.3902Y-3.4508
X5.3902Y-3.5508
X5.6031Y-3.4508
X5.6031Y-3.5508
X5.8252Y-3.463
X5.8252Y-3.563
T3
X3.015Y-2.3776
X3.115Y-2.3776
X3.215Y-2.3776
X3.4547Y-3.2669
X3.4547Y-3.5669
X3.5906Y-3.2697
X3.5906Y-3.5697
X3.7283Y-3.2697
X3.7283Y-3.5697
X3.8602Y-3.2709
X3.8602Y-3.5709
T4
X2.2815Y-2.435
X2.2815Y-2.635
X2.2815Y-2.835
X2.2835Y-3.1654
X2.2835Y-3.3654
X2.2835Y-3.5654
X4.5327Y-3.5835
X4.7327Y-3.5835
X5.3323Y-2.4453
X5.5323Y-2.4453
M30
