%TF.GenerationSoftware,KiCad,Pcbnew,7.0.11+dfsg-1build4*%
%TF.CreationDate,2025-03-10T20:05:57-05:00*%
%TF.ProjectId,TriacControl,54726961-6343-46f6-9e74-726f6c2e6b69,rev?*%
%TF.SameCoordinates,Original*%
%TF.FileFunction,Legend,Top*%
%TF.FilePolarity,Positive*%
%FSLAX46Y46*%
G04 Gerber Fmt 4.6, Leading zero omitted, Abs format (unit mm)*
G04 Created by KiCad (PCBNEW 7.0.11+dfsg-1build4) date 2025-03-10 20:05:57*
%MOMM*%
%LPD*%
G01*
G04 APERTURE LIST*
%ADD10C,0.100000*%
%ADD11C,0.150000*%
%ADD12C,0.120000*%
G04 APERTURE END LIST*
D10*
X121215312Y-67407180D02*
X121167693Y-67454800D01*
X121167693Y-67454800D02*
X121024836Y-67502419D01*
X121024836Y-67502419D02*
X120929598Y-67502419D01*
X120929598Y-67502419D02*
X120786741Y-67454800D01*
X120786741Y-67454800D02*
X120691503Y-67359561D01*
X120691503Y-67359561D02*
X120643884Y-67264323D01*
X120643884Y-67264323D02*
X120596265Y-67073847D01*
X120596265Y-67073847D02*
X120596265Y-66930990D01*
X120596265Y-66930990D02*
X120643884Y-66740514D01*
X120643884Y-66740514D02*
X120691503Y-66645276D01*
X120691503Y-66645276D02*
X120786741Y-66550038D01*
X120786741Y-66550038D02*
X120929598Y-66502419D01*
X120929598Y-66502419D02*
X121024836Y-66502419D01*
X121024836Y-66502419D02*
X121167693Y-66550038D01*
X121167693Y-66550038D02*
X121215312Y-66597657D01*
X121596265Y-67216704D02*
X122072455Y-67216704D01*
X121501027Y-67502419D02*
X121834360Y-66502419D01*
X121834360Y-66502419D02*
X122167693Y-67502419D01*
X122501027Y-67502419D02*
X122501027Y-66502419D01*
X122501027Y-66502419D02*
X122881979Y-66502419D01*
X122881979Y-66502419D02*
X122977217Y-66550038D01*
X122977217Y-66550038D02*
X123024836Y-66597657D01*
X123024836Y-66597657D02*
X123072455Y-66692895D01*
X123072455Y-66692895D02*
X123072455Y-66835752D01*
X123072455Y-66835752D02*
X123024836Y-66930990D01*
X123024836Y-66930990D02*
X122977217Y-66978609D01*
X122977217Y-66978609D02*
X122881979Y-67026228D01*
X122881979Y-67026228D02*
X122501027Y-67026228D01*
X123453408Y-67216704D02*
X123929598Y-67216704D01*
X123358170Y-67502419D02*
X123691503Y-66502419D01*
X123691503Y-66502419D02*
X124024836Y-67502419D01*
X124929598Y-67407180D02*
X124881979Y-67454800D01*
X124881979Y-67454800D02*
X124739122Y-67502419D01*
X124739122Y-67502419D02*
X124643884Y-67502419D01*
X124643884Y-67502419D02*
X124501027Y-67454800D01*
X124501027Y-67454800D02*
X124405789Y-67359561D01*
X124405789Y-67359561D02*
X124358170Y-67264323D01*
X124358170Y-67264323D02*
X124310551Y-67073847D01*
X124310551Y-67073847D02*
X124310551Y-66930990D01*
X124310551Y-66930990D02*
X124358170Y-66740514D01*
X124358170Y-66740514D02*
X124405789Y-66645276D01*
X124405789Y-66645276D02*
X124501027Y-66550038D01*
X124501027Y-66550038D02*
X124643884Y-66502419D01*
X124643884Y-66502419D02*
X124739122Y-66502419D01*
X124739122Y-66502419D02*
X124881979Y-66550038D01*
X124881979Y-66550038D02*
X124929598Y-66597657D01*
X125358170Y-67502419D02*
X125358170Y-66502419D01*
X125691503Y-66502419D02*
X126262931Y-66502419D01*
X125977217Y-67502419D02*
X125977217Y-66502419D01*
X126786741Y-66502419D02*
X126977217Y-66502419D01*
X126977217Y-66502419D02*
X127072455Y-66550038D01*
X127072455Y-66550038D02*
X127167693Y-66645276D01*
X127167693Y-66645276D02*
X127215312Y-66835752D01*
X127215312Y-66835752D02*
X127215312Y-67169085D01*
X127215312Y-67169085D02*
X127167693Y-67359561D01*
X127167693Y-67359561D02*
X127072455Y-67454800D01*
X127072455Y-67454800D02*
X126977217Y-67502419D01*
X126977217Y-67502419D02*
X126786741Y-67502419D01*
X126786741Y-67502419D02*
X126691503Y-67454800D01*
X126691503Y-67454800D02*
X126596265Y-67359561D01*
X126596265Y-67359561D02*
X126548646Y-67169085D01*
X126548646Y-67169085D02*
X126548646Y-66835752D01*
X126548646Y-66835752D02*
X126596265Y-66645276D01*
X126596265Y-66645276D02*
X126691503Y-66550038D01*
X126691503Y-66550038D02*
X126786741Y-66502419D01*
X128215312Y-67502419D02*
X127881979Y-67026228D01*
X127643884Y-67502419D02*
X127643884Y-66502419D01*
X127643884Y-66502419D02*
X128024836Y-66502419D01*
X128024836Y-66502419D02*
X128120074Y-66550038D01*
X128120074Y-66550038D02*
X128167693Y-66597657D01*
X128167693Y-66597657D02*
X128215312Y-66692895D01*
X128215312Y-66692895D02*
X128215312Y-66835752D01*
X128215312Y-66835752D02*
X128167693Y-66930990D01*
X128167693Y-66930990D02*
X128120074Y-66978609D01*
X128120074Y-66978609D02*
X128024836Y-67026228D01*
X128024836Y-67026228D02*
X127643884Y-67026228D01*
X120596265Y-69064800D02*
X120739122Y-69112419D01*
X120739122Y-69112419D02*
X120977217Y-69112419D01*
X120977217Y-69112419D02*
X121072455Y-69064800D01*
X121072455Y-69064800D02*
X121120074Y-69017180D01*
X121120074Y-69017180D02*
X121167693Y-68921942D01*
X121167693Y-68921942D02*
X121167693Y-68826704D01*
X121167693Y-68826704D02*
X121120074Y-68731466D01*
X121120074Y-68731466D02*
X121072455Y-68683847D01*
X121072455Y-68683847D02*
X120977217Y-68636228D01*
X120977217Y-68636228D02*
X120786741Y-68588609D01*
X120786741Y-68588609D02*
X120691503Y-68540990D01*
X120691503Y-68540990D02*
X120643884Y-68493371D01*
X120643884Y-68493371D02*
X120596265Y-68398133D01*
X120596265Y-68398133D02*
X120596265Y-68302895D01*
X120596265Y-68302895D02*
X120643884Y-68207657D01*
X120643884Y-68207657D02*
X120691503Y-68160038D01*
X120691503Y-68160038D02*
X120786741Y-68112419D01*
X120786741Y-68112419D02*
X121024836Y-68112419D01*
X121024836Y-68112419D02*
X121167693Y-68160038D01*
X121596265Y-68588609D02*
X121929598Y-68588609D01*
X122072455Y-69112419D02*
X121596265Y-69112419D01*
X121596265Y-69112419D02*
X121596265Y-68112419D01*
X121596265Y-68112419D02*
X122072455Y-68112419D01*
X122977217Y-69112419D02*
X122501027Y-69112419D01*
X122501027Y-69112419D02*
X122501027Y-68112419D01*
X123310551Y-68588609D02*
X123643884Y-68588609D01*
X123786741Y-69112419D02*
X123310551Y-69112419D01*
X123310551Y-69112419D02*
X123310551Y-68112419D01*
X123310551Y-68112419D02*
X123786741Y-68112419D01*
X124786741Y-69017180D02*
X124739122Y-69064800D01*
X124739122Y-69064800D02*
X124596265Y-69112419D01*
X124596265Y-69112419D02*
X124501027Y-69112419D01*
X124501027Y-69112419D02*
X124358170Y-69064800D01*
X124358170Y-69064800D02*
X124262932Y-68969561D01*
X124262932Y-68969561D02*
X124215313Y-68874323D01*
X124215313Y-68874323D02*
X124167694Y-68683847D01*
X124167694Y-68683847D02*
X124167694Y-68540990D01*
X124167694Y-68540990D02*
X124215313Y-68350514D01*
X124215313Y-68350514D02*
X124262932Y-68255276D01*
X124262932Y-68255276D02*
X124358170Y-68160038D01*
X124358170Y-68160038D02*
X124501027Y-68112419D01*
X124501027Y-68112419D02*
X124596265Y-68112419D01*
X124596265Y-68112419D02*
X124739122Y-68160038D01*
X124739122Y-68160038D02*
X124786741Y-68207657D01*
X125072456Y-68112419D02*
X125643884Y-68112419D01*
X125358170Y-69112419D02*
X125358170Y-68112419D01*
X125977218Y-69112419D02*
X125977218Y-68112419D01*
X126643884Y-68112419D02*
X126834360Y-68112419D01*
X126834360Y-68112419D02*
X126929598Y-68160038D01*
X126929598Y-68160038D02*
X127024836Y-68255276D01*
X127024836Y-68255276D02*
X127072455Y-68445752D01*
X127072455Y-68445752D02*
X127072455Y-68779085D01*
X127072455Y-68779085D02*
X127024836Y-68969561D01*
X127024836Y-68969561D02*
X126929598Y-69064800D01*
X126929598Y-69064800D02*
X126834360Y-69112419D01*
X126834360Y-69112419D02*
X126643884Y-69112419D01*
X126643884Y-69112419D02*
X126548646Y-69064800D01*
X126548646Y-69064800D02*
X126453408Y-68969561D01*
X126453408Y-68969561D02*
X126405789Y-68779085D01*
X126405789Y-68779085D02*
X126405789Y-68445752D01*
X126405789Y-68445752D02*
X126453408Y-68255276D01*
X126453408Y-68255276D02*
X126548646Y-68160038D01*
X126548646Y-68160038D02*
X126643884Y-68112419D01*
X127501027Y-69112419D02*
X127501027Y-68112419D01*
X127501027Y-68112419D02*
X128072455Y-69112419D01*
X128072455Y-69112419D02*
X128072455Y-68112419D01*
X95140074Y-55622419D02*
X94663884Y-55622419D01*
X94663884Y-55622419D02*
X94663884Y-54622419D01*
X95473408Y-55622419D02*
X95473408Y-54622419D01*
X95806741Y-54622419D02*
X96140074Y-55622419D01*
X96140074Y-55622419D02*
X96473407Y-54622419D01*
X96806741Y-55098609D02*
X97140074Y-55098609D01*
X97282931Y-55622419D02*
X96806741Y-55622419D01*
X96806741Y-55622419D02*
X96806741Y-54622419D01*
X96806741Y-54622419D02*
X97282931Y-54622419D01*
X95235312Y-57137180D02*
X95187693Y-57184800D01*
X95187693Y-57184800D02*
X95044836Y-57232419D01*
X95044836Y-57232419D02*
X94949598Y-57232419D01*
X94949598Y-57232419D02*
X94806741Y-57184800D01*
X94806741Y-57184800D02*
X94711503Y-57089561D01*
X94711503Y-57089561D02*
X94663884Y-56994323D01*
X94663884Y-56994323D02*
X94616265Y-56803847D01*
X94616265Y-56803847D02*
X94616265Y-56660990D01*
X94616265Y-56660990D02*
X94663884Y-56470514D01*
X94663884Y-56470514D02*
X94711503Y-56375276D01*
X94711503Y-56375276D02*
X94806741Y-56280038D01*
X94806741Y-56280038D02*
X94949598Y-56232419D01*
X94949598Y-56232419D02*
X95044836Y-56232419D01*
X95044836Y-56232419D02*
X95187693Y-56280038D01*
X95187693Y-56280038D02*
X95235312Y-56327657D01*
X95663884Y-57232419D02*
X95663884Y-56232419D01*
X96711502Y-57232419D02*
X96378169Y-56756228D01*
X96140074Y-57232419D02*
X96140074Y-56232419D01*
X96140074Y-56232419D02*
X96521026Y-56232419D01*
X96521026Y-56232419D02*
X96616264Y-56280038D01*
X96616264Y-56280038D02*
X96663883Y-56327657D01*
X96663883Y-56327657D02*
X96711502Y-56422895D01*
X96711502Y-56422895D02*
X96711502Y-56565752D01*
X96711502Y-56565752D02*
X96663883Y-56660990D01*
X96663883Y-56660990D02*
X96616264Y-56708609D01*
X96616264Y-56708609D02*
X96521026Y-56756228D01*
X96521026Y-56756228D02*
X96140074Y-56756228D01*
X97711502Y-57137180D02*
X97663883Y-57184800D01*
X97663883Y-57184800D02*
X97521026Y-57232419D01*
X97521026Y-57232419D02*
X97425788Y-57232419D01*
X97425788Y-57232419D02*
X97282931Y-57184800D01*
X97282931Y-57184800D02*
X97187693Y-57089561D01*
X97187693Y-57089561D02*
X97140074Y-56994323D01*
X97140074Y-56994323D02*
X97092455Y-56803847D01*
X97092455Y-56803847D02*
X97092455Y-56660990D01*
X97092455Y-56660990D02*
X97140074Y-56470514D01*
X97140074Y-56470514D02*
X97187693Y-56375276D01*
X97187693Y-56375276D02*
X97282931Y-56280038D01*
X97282931Y-56280038D02*
X97425788Y-56232419D01*
X97425788Y-56232419D02*
X97521026Y-56232419D01*
X97521026Y-56232419D02*
X97663883Y-56280038D01*
X97663883Y-56280038D02*
X97711502Y-56327657D01*
X98140074Y-56232419D02*
X98140074Y-57041942D01*
X98140074Y-57041942D02*
X98187693Y-57137180D01*
X98187693Y-57137180D02*
X98235312Y-57184800D01*
X98235312Y-57184800D02*
X98330550Y-57232419D01*
X98330550Y-57232419D02*
X98521026Y-57232419D01*
X98521026Y-57232419D02*
X98616264Y-57184800D01*
X98616264Y-57184800D02*
X98663883Y-57137180D01*
X98663883Y-57137180D02*
X98711502Y-57041942D01*
X98711502Y-57041942D02*
X98711502Y-56232419D01*
X99187693Y-57232419D02*
X99187693Y-56232419D01*
X99521026Y-56232419D02*
X100092454Y-56232419D01*
X99806740Y-57232419D02*
X99806740Y-56232419D01*
X100425788Y-57137180D02*
X100473407Y-57184800D01*
X100473407Y-57184800D02*
X100425788Y-57232419D01*
X100425788Y-57232419D02*
X100378169Y-57184800D01*
X100378169Y-57184800D02*
X100425788Y-57137180D01*
X100425788Y-57137180D02*
X100425788Y-57232419D01*
X100425788Y-56851466D02*
X100378169Y-56280038D01*
X100378169Y-56280038D02*
X100425788Y-56232419D01*
X100425788Y-56232419D02*
X100473407Y-56280038D01*
X100473407Y-56280038D02*
X100425788Y-56851466D01*
X100425788Y-56851466D02*
X100425788Y-56232419D01*
X52337580Y-60513884D02*
X53337580Y-60513884D01*
X52861390Y-60513884D02*
X52861390Y-61085312D01*
X52337580Y-61085312D02*
X53337580Y-61085312D01*
X53337580Y-61751979D02*
X53337580Y-61942455D01*
X53337580Y-61942455D02*
X53289961Y-62037693D01*
X53289961Y-62037693D02*
X53194723Y-62132931D01*
X53194723Y-62132931D02*
X53004247Y-62180550D01*
X53004247Y-62180550D02*
X52670914Y-62180550D01*
X52670914Y-62180550D02*
X52480438Y-62132931D01*
X52480438Y-62132931D02*
X52385200Y-62037693D01*
X52385200Y-62037693D02*
X52337580Y-61942455D01*
X52337580Y-61942455D02*
X52337580Y-61751979D01*
X52337580Y-61751979D02*
X52385200Y-61656741D01*
X52385200Y-61656741D02*
X52480438Y-61561503D01*
X52480438Y-61561503D02*
X52670914Y-61513884D01*
X52670914Y-61513884D02*
X53004247Y-61513884D01*
X53004247Y-61513884D02*
X53194723Y-61561503D01*
X53194723Y-61561503D02*
X53289961Y-61656741D01*
X53289961Y-61656741D02*
X53337580Y-61751979D01*
X53337580Y-62466265D02*
X53337580Y-63037693D01*
X52337580Y-62751979D02*
X53337580Y-62751979D01*
X61583884Y-96602419D02*
X61583884Y-95602419D01*
X61583884Y-95602419D02*
X61964836Y-95602419D01*
X61964836Y-95602419D02*
X62060074Y-95650038D01*
X62060074Y-95650038D02*
X62107693Y-95697657D01*
X62107693Y-95697657D02*
X62155312Y-95792895D01*
X62155312Y-95792895D02*
X62155312Y-95935752D01*
X62155312Y-95935752D02*
X62107693Y-96030990D01*
X62107693Y-96030990D02*
X62060074Y-96078609D01*
X62060074Y-96078609D02*
X61964836Y-96126228D01*
X61964836Y-96126228D02*
X61583884Y-96126228D01*
X62488646Y-95602419D02*
X62726741Y-96602419D01*
X62726741Y-96602419D02*
X62917217Y-95888133D01*
X62917217Y-95888133D02*
X63107693Y-96602419D01*
X63107693Y-96602419D02*
X63345789Y-95602419D01*
X63726741Y-96602419D02*
X63726741Y-95602419D01*
X63726741Y-95602419D02*
X64060074Y-96316704D01*
X64060074Y-96316704D02*
X64393407Y-95602419D01*
X64393407Y-95602419D02*
X64393407Y-96602419D01*
X65488646Y-95602419D02*
X66060074Y-95602419D01*
X65774360Y-96602419D02*
X65774360Y-95602419D01*
X66964836Y-96602419D02*
X66631503Y-96126228D01*
X66393408Y-96602419D02*
X66393408Y-95602419D01*
X66393408Y-95602419D02*
X66774360Y-95602419D01*
X66774360Y-95602419D02*
X66869598Y-95650038D01*
X66869598Y-95650038D02*
X66917217Y-95697657D01*
X66917217Y-95697657D02*
X66964836Y-95792895D01*
X66964836Y-95792895D02*
X66964836Y-95935752D01*
X66964836Y-95935752D02*
X66917217Y-96030990D01*
X66917217Y-96030990D02*
X66869598Y-96078609D01*
X66869598Y-96078609D02*
X66774360Y-96126228D01*
X66774360Y-96126228D02*
X66393408Y-96126228D01*
X67393408Y-96602419D02*
X67393408Y-95602419D01*
X67821979Y-96316704D02*
X68298169Y-96316704D01*
X67726741Y-96602419D02*
X68060074Y-95602419D01*
X68060074Y-95602419D02*
X68393407Y-96602419D01*
X69298169Y-96507180D02*
X69250550Y-96554800D01*
X69250550Y-96554800D02*
X69107693Y-96602419D01*
X69107693Y-96602419D02*
X69012455Y-96602419D01*
X69012455Y-96602419D02*
X68869598Y-96554800D01*
X68869598Y-96554800D02*
X68774360Y-96459561D01*
X68774360Y-96459561D02*
X68726741Y-96364323D01*
X68726741Y-96364323D02*
X68679122Y-96173847D01*
X68679122Y-96173847D02*
X68679122Y-96030990D01*
X68679122Y-96030990D02*
X68726741Y-95840514D01*
X68726741Y-95840514D02*
X68774360Y-95745276D01*
X68774360Y-95745276D02*
X68869598Y-95650038D01*
X68869598Y-95650038D02*
X69012455Y-95602419D01*
X69012455Y-95602419D02*
X69107693Y-95602419D01*
X69107693Y-95602419D02*
X69250550Y-95650038D01*
X69250550Y-95650038D02*
X69298169Y-95697657D01*
X71060074Y-96507180D02*
X71012455Y-96554800D01*
X71012455Y-96554800D02*
X70869598Y-96602419D01*
X70869598Y-96602419D02*
X70774360Y-96602419D01*
X70774360Y-96602419D02*
X70631503Y-96554800D01*
X70631503Y-96554800D02*
X70536265Y-96459561D01*
X70536265Y-96459561D02*
X70488646Y-96364323D01*
X70488646Y-96364323D02*
X70441027Y-96173847D01*
X70441027Y-96173847D02*
X70441027Y-96030990D01*
X70441027Y-96030990D02*
X70488646Y-95840514D01*
X70488646Y-95840514D02*
X70536265Y-95745276D01*
X70536265Y-95745276D02*
X70631503Y-95650038D01*
X70631503Y-95650038D02*
X70774360Y-95602419D01*
X70774360Y-95602419D02*
X70869598Y-95602419D01*
X70869598Y-95602419D02*
X71012455Y-95650038D01*
X71012455Y-95650038D02*
X71060074Y-95697657D01*
X71679122Y-95602419D02*
X71869598Y-95602419D01*
X71869598Y-95602419D02*
X71964836Y-95650038D01*
X71964836Y-95650038D02*
X72060074Y-95745276D01*
X72060074Y-95745276D02*
X72107693Y-95935752D01*
X72107693Y-95935752D02*
X72107693Y-96269085D01*
X72107693Y-96269085D02*
X72060074Y-96459561D01*
X72060074Y-96459561D02*
X71964836Y-96554800D01*
X71964836Y-96554800D02*
X71869598Y-96602419D01*
X71869598Y-96602419D02*
X71679122Y-96602419D01*
X71679122Y-96602419D02*
X71583884Y-96554800D01*
X71583884Y-96554800D02*
X71488646Y-96459561D01*
X71488646Y-96459561D02*
X71441027Y-96269085D01*
X71441027Y-96269085D02*
X71441027Y-95935752D01*
X71441027Y-95935752D02*
X71488646Y-95745276D01*
X71488646Y-95745276D02*
X71583884Y-95650038D01*
X71583884Y-95650038D02*
X71679122Y-95602419D01*
X72536265Y-96602419D02*
X72536265Y-95602419D01*
X72536265Y-95602419D02*
X73107693Y-96602419D01*
X73107693Y-96602419D02*
X73107693Y-95602419D01*
X73441027Y-95602419D02*
X74012455Y-95602419D01*
X73726741Y-96602419D02*
X73726741Y-95602419D01*
X74917217Y-96602419D02*
X74583884Y-96126228D01*
X74345789Y-96602419D02*
X74345789Y-95602419D01*
X74345789Y-95602419D02*
X74726741Y-95602419D01*
X74726741Y-95602419D02*
X74821979Y-95650038D01*
X74821979Y-95650038D02*
X74869598Y-95697657D01*
X74869598Y-95697657D02*
X74917217Y-95792895D01*
X74917217Y-95792895D02*
X74917217Y-95935752D01*
X74917217Y-95935752D02*
X74869598Y-96030990D01*
X74869598Y-96030990D02*
X74821979Y-96078609D01*
X74821979Y-96078609D02*
X74726741Y-96126228D01*
X74726741Y-96126228D02*
X74345789Y-96126228D01*
X75536265Y-95602419D02*
X75726741Y-95602419D01*
X75726741Y-95602419D02*
X75821979Y-95650038D01*
X75821979Y-95650038D02*
X75917217Y-95745276D01*
X75917217Y-95745276D02*
X75964836Y-95935752D01*
X75964836Y-95935752D02*
X75964836Y-96269085D01*
X75964836Y-96269085D02*
X75917217Y-96459561D01*
X75917217Y-96459561D02*
X75821979Y-96554800D01*
X75821979Y-96554800D02*
X75726741Y-96602419D01*
X75726741Y-96602419D02*
X75536265Y-96602419D01*
X75536265Y-96602419D02*
X75441027Y-96554800D01*
X75441027Y-96554800D02*
X75345789Y-96459561D01*
X75345789Y-96459561D02*
X75298170Y-96269085D01*
X75298170Y-96269085D02*
X75298170Y-95935752D01*
X75298170Y-95935752D02*
X75345789Y-95745276D01*
X75345789Y-95745276D02*
X75441027Y-95650038D01*
X75441027Y-95650038D02*
X75536265Y-95602419D01*
X76869598Y-96602419D02*
X76393408Y-96602419D01*
X76393408Y-96602419D02*
X76393408Y-95602419D01*
X77679122Y-96602419D02*
X77202932Y-96602419D01*
X77202932Y-96602419D02*
X77202932Y-95602419D01*
X78012456Y-96078609D02*
X78345789Y-96078609D01*
X78488646Y-96602419D02*
X78012456Y-96602419D01*
X78012456Y-96602419D02*
X78012456Y-95602419D01*
X78012456Y-95602419D02*
X78488646Y-95602419D01*
X79488646Y-96602419D02*
X79155313Y-96126228D01*
X78917218Y-96602419D02*
X78917218Y-95602419D01*
X78917218Y-95602419D02*
X79298170Y-95602419D01*
X79298170Y-95602419D02*
X79393408Y-95650038D01*
X79393408Y-95650038D02*
X79441027Y-95697657D01*
X79441027Y-95697657D02*
X79488646Y-95792895D01*
X79488646Y-95792895D02*
X79488646Y-95935752D01*
X79488646Y-95935752D02*
X79441027Y-96030990D01*
X79441027Y-96030990D02*
X79393408Y-96078609D01*
X79393408Y-96078609D02*
X79298170Y-96126228D01*
X79298170Y-96126228D02*
X78917218Y-96126228D01*
X81012456Y-96078609D02*
X81155313Y-96126228D01*
X81155313Y-96126228D02*
X81202932Y-96173847D01*
X81202932Y-96173847D02*
X81250551Y-96269085D01*
X81250551Y-96269085D02*
X81250551Y-96411942D01*
X81250551Y-96411942D02*
X81202932Y-96507180D01*
X81202932Y-96507180D02*
X81155313Y-96554800D01*
X81155313Y-96554800D02*
X81060075Y-96602419D01*
X81060075Y-96602419D02*
X80679123Y-96602419D01*
X80679123Y-96602419D02*
X80679123Y-95602419D01*
X80679123Y-95602419D02*
X81012456Y-95602419D01*
X81012456Y-95602419D02*
X81107694Y-95650038D01*
X81107694Y-95650038D02*
X81155313Y-95697657D01*
X81155313Y-95697657D02*
X81202932Y-95792895D01*
X81202932Y-95792895D02*
X81202932Y-95888133D01*
X81202932Y-95888133D02*
X81155313Y-95983371D01*
X81155313Y-95983371D02*
X81107694Y-96030990D01*
X81107694Y-96030990D02*
X81012456Y-96078609D01*
X81012456Y-96078609D02*
X80679123Y-96078609D01*
X81869599Y-96126228D02*
X81869599Y-96602419D01*
X81536266Y-95602419D02*
X81869599Y-96126228D01*
X81869599Y-96126228D02*
X82202932Y-95602419D01*
X83298171Y-96602419D02*
X83298171Y-95602419D01*
X83298171Y-95602419D02*
X83536266Y-95602419D01*
X83536266Y-95602419D02*
X83679123Y-95650038D01*
X83679123Y-95650038D02*
X83774361Y-95745276D01*
X83774361Y-95745276D02*
X83821980Y-95840514D01*
X83821980Y-95840514D02*
X83869599Y-96030990D01*
X83869599Y-96030990D02*
X83869599Y-96173847D01*
X83869599Y-96173847D02*
X83821980Y-96364323D01*
X83821980Y-96364323D02*
X83774361Y-96459561D01*
X83774361Y-96459561D02*
X83679123Y-96554800D01*
X83679123Y-96554800D02*
X83536266Y-96602419D01*
X83536266Y-96602419D02*
X83298171Y-96602419D01*
X84298171Y-96507180D02*
X84345790Y-96554800D01*
X84345790Y-96554800D02*
X84298171Y-96602419D01*
X84298171Y-96602419D02*
X84250552Y-96554800D01*
X84250552Y-96554800D02*
X84298171Y-96507180D01*
X84298171Y-96507180D02*
X84298171Y-96602419D01*
X85536266Y-96602419D02*
X85536266Y-95602419D01*
X85536266Y-95602419D02*
X85869599Y-96316704D01*
X85869599Y-96316704D02*
X86202932Y-95602419D01*
X86202932Y-95602419D02*
X86202932Y-96602419D01*
X86631504Y-96316704D02*
X87107694Y-96316704D01*
X86536266Y-96602419D02*
X86869599Y-95602419D01*
X86869599Y-95602419D02*
X87202932Y-96602419D01*
X88107694Y-96602419D02*
X87774361Y-96126228D01*
X87536266Y-96602419D02*
X87536266Y-95602419D01*
X87536266Y-95602419D02*
X87917218Y-95602419D01*
X87917218Y-95602419D02*
X88012456Y-95650038D01*
X88012456Y-95650038D02*
X88060075Y-95697657D01*
X88060075Y-95697657D02*
X88107694Y-95792895D01*
X88107694Y-95792895D02*
X88107694Y-95935752D01*
X88107694Y-95935752D02*
X88060075Y-96030990D01*
X88060075Y-96030990D02*
X88012456Y-96078609D01*
X88012456Y-96078609D02*
X87917218Y-96126228D01*
X87917218Y-96126228D02*
X87536266Y-96126228D01*
X88536266Y-96602419D02*
X88536266Y-95602419D01*
X89107694Y-96602419D02*
X88679123Y-96030990D01*
X89107694Y-95602419D02*
X88536266Y-96173847D01*
X89488647Y-96554800D02*
X89631504Y-96602419D01*
X89631504Y-96602419D02*
X89869599Y-96602419D01*
X89869599Y-96602419D02*
X89964837Y-96554800D01*
X89964837Y-96554800D02*
X90012456Y-96507180D01*
X90012456Y-96507180D02*
X90060075Y-96411942D01*
X90060075Y-96411942D02*
X90060075Y-96316704D01*
X90060075Y-96316704D02*
X90012456Y-96221466D01*
X90012456Y-96221466D02*
X89964837Y-96173847D01*
X89964837Y-96173847D02*
X89869599Y-96126228D01*
X89869599Y-96126228D02*
X89679123Y-96078609D01*
X89679123Y-96078609D02*
X89583885Y-96030990D01*
X89583885Y-96030990D02*
X89536266Y-95983371D01*
X89536266Y-95983371D02*
X89488647Y-95888133D01*
X89488647Y-95888133D02*
X89488647Y-95792895D01*
X89488647Y-95792895D02*
X89536266Y-95697657D01*
X89536266Y-95697657D02*
X89583885Y-95650038D01*
X89583885Y-95650038D02*
X89679123Y-95602419D01*
X89679123Y-95602419D02*
X89917218Y-95602419D01*
X89917218Y-95602419D02*
X90060075Y-95650038D01*
X61441027Y-97212419D02*
X61774360Y-98212419D01*
X61774360Y-98212419D02*
X62107693Y-97212419D01*
X62441027Y-97688609D02*
X62774360Y-97688609D01*
X62917217Y-98212419D02*
X62441027Y-98212419D01*
X62441027Y-98212419D02*
X62441027Y-97212419D01*
X62441027Y-97212419D02*
X62917217Y-97212419D01*
X63917217Y-98212419D02*
X63583884Y-97736228D01*
X63345789Y-98212419D02*
X63345789Y-97212419D01*
X63345789Y-97212419D02*
X63726741Y-97212419D01*
X63726741Y-97212419D02*
X63821979Y-97260038D01*
X63821979Y-97260038D02*
X63869598Y-97307657D01*
X63869598Y-97307657D02*
X63917217Y-97402895D01*
X63917217Y-97402895D02*
X63917217Y-97545752D01*
X63917217Y-97545752D02*
X63869598Y-97640990D01*
X63869598Y-97640990D02*
X63821979Y-97688609D01*
X63821979Y-97688609D02*
X63726741Y-97736228D01*
X63726741Y-97736228D02*
X63345789Y-97736228D01*
X64298170Y-98164800D02*
X64441027Y-98212419D01*
X64441027Y-98212419D02*
X64679122Y-98212419D01*
X64679122Y-98212419D02*
X64774360Y-98164800D01*
X64774360Y-98164800D02*
X64821979Y-98117180D01*
X64821979Y-98117180D02*
X64869598Y-98021942D01*
X64869598Y-98021942D02*
X64869598Y-97926704D01*
X64869598Y-97926704D02*
X64821979Y-97831466D01*
X64821979Y-97831466D02*
X64774360Y-97783847D01*
X64774360Y-97783847D02*
X64679122Y-97736228D01*
X64679122Y-97736228D02*
X64488646Y-97688609D01*
X64488646Y-97688609D02*
X64393408Y-97640990D01*
X64393408Y-97640990D02*
X64345789Y-97593371D01*
X64345789Y-97593371D02*
X64298170Y-97498133D01*
X64298170Y-97498133D02*
X64298170Y-97402895D01*
X64298170Y-97402895D02*
X64345789Y-97307657D01*
X64345789Y-97307657D02*
X64393408Y-97260038D01*
X64393408Y-97260038D02*
X64488646Y-97212419D01*
X64488646Y-97212419D02*
X64726741Y-97212419D01*
X64726741Y-97212419D02*
X64869598Y-97260038D01*
X65298170Y-98212419D02*
X65298170Y-97212419D01*
X65964836Y-97212419D02*
X66155312Y-97212419D01*
X66155312Y-97212419D02*
X66250550Y-97260038D01*
X66250550Y-97260038D02*
X66345788Y-97355276D01*
X66345788Y-97355276D02*
X66393407Y-97545752D01*
X66393407Y-97545752D02*
X66393407Y-97879085D01*
X66393407Y-97879085D02*
X66345788Y-98069561D01*
X66345788Y-98069561D02*
X66250550Y-98164800D01*
X66250550Y-98164800D02*
X66155312Y-98212419D01*
X66155312Y-98212419D02*
X65964836Y-98212419D01*
X65964836Y-98212419D02*
X65869598Y-98164800D01*
X65869598Y-98164800D02*
X65774360Y-98069561D01*
X65774360Y-98069561D02*
X65726741Y-97879085D01*
X65726741Y-97879085D02*
X65726741Y-97545752D01*
X65726741Y-97545752D02*
X65774360Y-97355276D01*
X65774360Y-97355276D02*
X65869598Y-97260038D01*
X65869598Y-97260038D02*
X65964836Y-97212419D01*
X66821979Y-98212419D02*
X66821979Y-97212419D01*
X66821979Y-97212419D02*
X67393407Y-98212419D01*
X67393407Y-98212419D02*
X67393407Y-97212419D01*
X69155312Y-98212419D02*
X68583884Y-98212419D01*
X68869598Y-98212419D02*
X68869598Y-97212419D01*
X68869598Y-97212419D02*
X68774360Y-97355276D01*
X68774360Y-97355276D02*
X68679122Y-97450514D01*
X68679122Y-97450514D02*
X68583884Y-97498133D01*
X70917217Y-98117180D02*
X70869598Y-98164800D01*
X70869598Y-98164800D02*
X70726741Y-98212419D01*
X70726741Y-98212419D02*
X70631503Y-98212419D01*
X70631503Y-98212419D02*
X70488646Y-98164800D01*
X70488646Y-98164800D02*
X70393408Y-98069561D01*
X70393408Y-98069561D02*
X70345789Y-97974323D01*
X70345789Y-97974323D02*
X70298170Y-97783847D01*
X70298170Y-97783847D02*
X70298170Y-97640990D01*
X70298170Y-97640990D02*
X70345789Y-97450514D01*
X70345789Y-97450514D02*
X70393408Y-97355276D01*
X70393408Y-97355276D02*
X70488646Y-97260038D01*
X70488646Y-97260038D02*
X70631503Y-97212419D01*
X70631503Y-97212419D02*
X70726741Y-97212419D01*
X70726741Y-97212419D02*
X70869598Y-97260038D01*
X70869598Y-97260038D02*
X70917217Y-97307657D01*
X71917217Y-98117180D02*
X71869598Y-98164800D01*
X71869598Y-98164800D02*
X71726741Y-98212419D01*
X71726741Y-98212419D02*
X71631503Y-98212419D01*
X71631503Y-98212419D02*
X71488646Y-98164800D01*
X71488646Y-98164800D02*
X71393408Y-98069561D01*
X71393408Y-98069561D02*
X71345789Y-97974323D01*
X71345789Y-97974323D02*
X71298170Y-97783847D01*
X71298170Y-97783847D02*
X71298170Y-97640990D01*
X71298170Y-97640990D02*
X71345789Y-97450514D01*
X71345789Y-97450514D02*
X71393408Y-97355276D01*
X71393408Y-97355276D02*
X71488646Y-97260038D01*
X71488646Y-97260038D02*
X71631503Y-97212419D01*
X71631503Y-97212419D02*
X71726741Y-97212419D01*
X71726741Y-97212419D02*
X71869598Y-97260038D01*
X71869598Y-97260038D02*
X71917217Y-97307657D01*
X72345789Y-97831466D02*
X73107694Y-97831466D01*
X73917217Y-97688609D02*
X74060074Y-97736228D01*
X74060074Y-97736228D02*
X74107693Y-97783847D01*
X74107693Y-97783847D02*
X74155312Y-97879085D01*
X74155312Y-97879085D02*
X74155312Y-98021942D01*
X74155312Y-98021942D02*
X74107693Y-98117180D01*
X74107693Y-98117180D02*
X74060074Y-98164800D01*
X74060074Y-98164800D02*
X73964836Y-98212419D01*
X73964836Y-98212419D02*
X73583884Y-98212419D01*
X73583884Y-98212419D02*
X73583884Y-97212419D01*
X73583884Y-97212419D02*
X73917217Y-97212419D01*
X73917217Y-97212419D02*
X74012455Y-97260038D01*
X74012455Y-97260038D02*
X74060074Y-97307657D01*
X74060074Y-97307657D02*
X74107693Y-97402895D01*
X74107693Y-97402895D02*
X74107693Y-97498133D01*
X74107693Y-97498133D02*
X74060074Y-97593371D01*
X74060074Y-97593371D02*
X74012455Y-97640990D01*
X74012455Y-97640990D02*
X73917217Y-97688609D01*
X73917217Y-97688609D02*
X73583884Y-97688609D01*
X74774360Y-97736228D02*
X74774360Y-98212419D01*
X74441027Y-97212419D02*
X74774360Y-97736228D01*
X74774360Y-97736228D02*
X75107693Y-97212419D01*
X75441027Y-97831466D02*
X76202932Y-97831466D01*
X76631503Y-98164800D02*
X76774360Y-98212419D01*
X76774360Y-98212419D02*
X77012455Y-98212419D01*
X77012455Y-98212419D02*
X77107693Y-98164800D01*
X77107693Y-98164800D02*
X77155312Y-98117180D01*
X77155312Y-98117180D02*
X77202931Y-98021942D01*
X77202931Y-98021942D02*
X77202931Y-97926704D01*
X77202931Y-97926704D02*
X77155312Y-97831466D01*
X77155312Y-97831466D02*
X77107693Y-97783847D01*
X77107693Y-97783847D02*
X77012455Y-97736228D01*
X77012455Y-97736228D02*
X76821979Y-97688609D01*
X76821979Y-97688609D02*
X76726741Y-97640990D01*
X76726741Y-97640990D02*
X76679122Y-97593371D01*
X76679122Y-97593371D02*
X76631503Y-97498133D01*
X76631503Y-97498133D02*
X76631503Y-97402895D01*
X76631503Y-97402895D02*
X76679122Y-97307657D01*
X76679122Y-97307657D02*
X76726741Y-97260038D01*
X76726741Y-97260038D02*
X76821979Y-97212419D01*
X76821979Y-97212419D02*
X77060074Y-97212419D01*
X77060074Y-97212419D02*
X77202931Y-97260038D01*
X77583884Y-97926704D02*
X78060074Y-97926704D01*
X77488646Y-98212419D02*
X77821979Y-97212419D01*
X77821979Y-97212419D02*
X78155312Y-98212419D01*
X79679122Y-97545752D02*
X79679122Y-98212419D01*
X79441027Y-97164800D02*
X79202932Y-97879085D01*
X79202932Y-97879085D02*
X79821979Y-97879085D01*
X80202932Y-98117180D02*
X80250551Y-98164800D01*
X80250551Y-98164800D02*
X80202932Y-98212419D01*
X80202932Y-98212419D02*
X80155313Y-98164800D01*
X80155313Y-98164800D02*
X80202932Y-98117180D01*
X80202932Y-98117180D02*
X80202932Y-98212419D01*
X80869598Y-97212419D02*
X80964836Y-97212419D01*
X80964836Y-97212419D02*
X81060074Y-97260038D01*
X81060074Y-97260038D02*
X81107693Y-97307657D01*
X81107693Y-97307657D02*
X81155312Y-97402895D01*
X81155312Y-97402895D02*
X81202931Y-97593371D01*
X81202931Y-97593371D02*
X81202931Y-97831466D01*
X81202931Y-97831466D02*
X81155312Y-98021942D01*
X81155312Y-98021942D02*
X81107693Y-98117180D01*
X81107693Y-98117180D02*
X81060074Y-98164800D01*
X81060074Y-98164800D02*
X80964836Y-98212419D01*
X80964836Y-98212419D02*
X80869598Y-98212419D01*
X80869598Y-98212419D02*
X80774360Y-98164800D01*
X80774360Y-98164800D02*
X80726741Y-98117180D01*
X80726741Y-98117180D02*
X80679122Y-98021942D01*
X80679122Y-98021942D02*
X80631503Y-97831466D01*
X80631503Y-97831466D02*
X80631503Y-97593371D01*
X80631503Y-97593371D02*
X80679122Y-97402895D01*
X80679122Y-97402895D02*
X80726741Y-97307657D01*
X80726741Y-97307657D02*
X80774360Y-97260038D01*
X80774360Y-97260038D02*
X80869598Y-97212419D01*
X61536265Y-99536704D02*
X62012455Y-99536704D01*
X61441027Y-99822419D02*
X61774360Y-98822419D01*
X61774360Y-98822419D02*
X62107693Y-99822419D01*
X62917217Y-99822419D02*
X62441027Y-99822419D01*
X62441027Y-99822419D02*
X62441027Y-98822419D01*
X63726741Y-99822419D02*
X63250551Y-99822419D01*
X63250551Y-99822419D02*
X63250551Y-98822419D01*
X65393408Y-99822419D02*
X65060075Y-99346228D01*
X64821980Y-99822419D02*
X64821980Y-98822419D01*
X64821980Y-98822419D02*
X65202932Y-98822419D01*
X65202932Y-98822419D02*
X65298170Y-98870038D01*
X65298170Y-98870038D02*
X65345789Y-98917657D01*
X65345789Y-98917657D02*
X65393408Y-99012895D01*
X65393408Y-99012895D02*
X65393408Y-99155752D01*
X65393408Y-99155752D02*
X65345789Y-99250990D01*
X65345789Y-99250990D02*
X65298170Y-99298609D01*
X65298170Y-99298609D02*
X65202932Y-99346228D01*
X65202932Y-99346228D02*
X64821980Y-99346228D01*
X65821980Y-99822419D02*
X65821980Y-98822419D01*
X66250551Y-99774800D02*
X66393408Y-99822419D01*
X66393408Y-99822419D02*
X66631503Y-99822419D01*
X66631503Y-99822419D02*
X66726741Y-99774800D01*
X66726741Y-99774800D02*
X66774360Y-99727180D01*
X66774360Y-99727180D02*
X66821979Y-99631942D01*
X66821979Y-99631942D02*
X66821979Y-99536704D01*
X66821979Y-99536704D02*
X66774360Y-99441466D01*
X66774360Y-99441466D02*
X66726741Y-99393847D01*
X66726741Y-99393847D02*
X66631503Y-99346228D01*
X66631503Y-99346228D02*
X66441027Y-99298609D01*
X66441027Y-99298609D02*
X66345789Y-99250990D01*
X66345789Y-99250990D02*
X66298170Y-99203371D01*
X66298170Y-99203371D02*
X66250551Y-99108133D01*
X66250551Y-99108133D02*
X66250551Y-99012895D01*
X66250551Y-99012895D02*
X66298170Y-98917657D01*
X66298170Y-98917657D02*
X66345789Y-98870038D01*
X66345789Y-98870038D02*
X66441027Y-98822419D01*
X66441027Y-98822419D02*
X66679122Y-98822419D01*
X66679122Y-98822419D02*
X66821979Y-98870038D01*
X67250551Y-99822419D02*
X67250551Y-98822419D01*
X67821979Y-99822419D02*
X67393408Y-99250990D01*
X67821979Y-98822419D02*
X67250551Y-99393847D01*
X69012456Y-99822419D02*
X69012456Y-98822419D01*
X69441027Y-99774800D02*
X69583884Y-99822419D01*
X69583884Y-99822419D02*
X69821979Y-99822419D01*
X69821979Y-99822419D02*
X69917217Y-99774800D01*
X69917217Y-99774800D02*
X69964836Y-99727180D01*
X69964836Y-99727180D02*
X70012455Y-99631942D01*
X70012455Y-99631942D02*
X70012455Y-99536704D01*
X70012455Y-99536704D02*
X69964836Y-99441466D01*
X69964836Y-99441466D02*
X69917217Y-99393847D01*
X69917217Y-99393847D02*
X69821979Y-99346228D01*
X69821979Y-99346228D02*
X69631503Y-99298609D01*
X69631503Y-99298609D02*
X69536265Y-99250990D01*
X69536265Y-99250990D02*
X69488646Y-99203371D01*
X69488646Y-99203371D02*
X69441027Y-99108133D01*
X69441027Y-99108133D02*
X69441027Y-99012895D01*
X69441027Y-99012895D02*
X69488646Y-98917657D01*
X69488646Y-98917657D02*
X69536265Y-98870038D01*
X69536265Y-98870038D02*
X69631503Y-98822419D01*
X69631503Y-98822419D02*
X69869598Y-98822419D01*
X69869598Y-98822419D02*
X70012455Y-98870038D01*
X71155313Y-99536704D02*
X71631503Y-99536704D01*
X71060075Y-99822419D02*
X71393408Y-98822419D01*
X71393408Y-98822419D02*
X71726741Y-99822419D01*
X72012456Y-99774800D02*
X72155313Y-99822419D01*
X72155313Y-99822419D02*
X72393408Y-99822419D01*
X72393408Y-99822419D02*
X72488646Y-99774800D01*
X72488646Y-99774800D02*
X72536265Y-99727180D01*
X72536265Y-99727180D02*
X72583884Y-99631942D01*
X72583884Y-99631942D02*
X72583884Y-99536704D01*
X72583884Y-99536704D02*
X72536265Y-99441466D01*
X72536265Y-99441466D02*
X72488646Y-99393847D01*
X72488646Y-99393847D02*
X72393408Y-99346228D01*
X72393408Y-99346228D02*
X72202932Y-99298609D01*
X72202932Y-99298609D02*
X72107694Y-99250990D01*
X72107694Y-99250990D02*
X72060075Y-99203371D01*
X72060075Y-99203371D02*
X72012456Y-99108133D01*
X72012456Y-99108133D02*
X72012456Y-99012895D01*
X72012456Y-99012895D02*
X72060075Y-98917657D01*
X72060075Y-98917657D02*
X72107694Y-98870038D01*
X72107694Y-98870038D02*
X72202932Y-98822419D01*
X72202932Y-98822419D02*
X72441027Y-98822419D01*
X72441027Y-98822419D02*
X72583884Y-98870038D01*
X72964837Y-99774800D02*
X73107694Y-99822419D01*
X73107694Y-99822419D02*
X73345789Y-99822419D01*
X73345789Y-99822419D02*
X73441027Y-99774800D01*
X73441027Y-99774800D02*
X73488646Y-99727180D01*
X73488646Y-99727180D02*
X73536265Y-99631942D01*
X73536265Y-99631942D02*
X73536265Y-99536704D01*
X73536265Y-99536704D02*
X73488646Y-99441466D01*
X73488646Y-99441466D02*
X73441027Y-99393847D01*
X73441027Y-99393847D02*
X73345789Y-99346228D01*
X73345789Y-99346228D02*
X73155313Y-99298609D01*
X73155313Y-99298609D02*
X73060075Y-99250990D01*
X73060075Y-99250990D02*
X73012456Y-99203371D01*
X73012456Y-99203371D02*
X72964837Y-99108133D01*
X72964837Y-99108133D02*
X72964837Y-99012895D01*
X72964837Y-99012895D02*
X73012456Y-98917657D01*
X73012456Y-98917657D02*
X73060075Y-98870038D01*
X73060075Y-98870038D02*
X73155313Y-98822419D01*
X73155313Y-98822419D02*
X73393408Y-98822419D01*
X73393408Y-98822419D02*
X73536265Y-98870038D01*
X73964837Y-98822419D02*
X73964837Y-99631942D01*
X73964837Y-99631942D02*
X74012456Y-99727180D01*
X74012456Y-99727180D02*
X74060075Y-99774800D01*
X74060075Y-99774800D02*
X74155313Y-99822419D01*
X74155313Y-99822419D02*
X74345789Y-99822419D01*
X74345789Y-99822419D02*
X74441027Y-99774800D01*
X74441027Y-99774800D02*
X74488646Y-99727180D01*
X74488646Y-99727180D02*
X74536265Y-99631942D01*
X74536265Y-99631942D02*
X74536265Y-98822419D01*
X75012456Y-99822419D02*
X75012456Y-98822419D01*
X75012456Y-98822419D02*
X75345789Y-99536704D01*
X75345789Y-99536704D02*
X75679122Y-98822419D01*
X75679122Y-98822419D02*
X75679122Y-99822419D01*
X76155313Y-99298609D02*
X76488646Y-99298609D01*
X76631503Y-99822419D02*
X76155313Y-99822419D01*
X76155313Y-99822419D02*
X76155313Y-98822419D01*
X76155313Y-98822419D02*
X76631503Y-98822419D01*
X77060075Y-99822419D02*
X77060075Y-98822419D01*
X77060075Y-98822419D02*
X77298170Y-98822419D01*
X77298170Y-98822419D02*
X77441027Y-98870038D01*
X77441027Y-98870038D02*
X77536265Y-98965276D01*
X77536265Y-98965276D02*
X77583884Y-99060514D01*
X77583884Y-99060514D02*
X77631503Y-99250990D01*
X77631503Y-99250990D02*
X77631503Y-99393847D01*
X77631503Y-99393847D02*
X77583884Y-99584323D01*
X77583884Y-99584323D02*
X77536265Y-99679561D01*
X77536265Y-99679561D02*
X77441027Y-99774800D01*
X77441027Y-99774800D02*
X77298170Y-99822419D01*
X77298170Y-99822419D02*
X77060075Y-99822419D01*
X79155313Y-99298609D02*
X79298170Y-99346228D01*
X79298170Y-99346228D02*
X79345789Y-99393847D01*
X79345789Y-99393847D02*
X79393408Y-99489085D01*
X79393408Y-99489085D02*
X79393408Y-99631942D01*
X79393408Y-99631942D02*
X79345789Y-99727180D01*
X79345789Y-99727180D02*
X79298170Y-99774800D01*
X79298170Y-99774800D02*
X79202932Y-99822419D01*
X79202932Y-99822419D02*
X78821980Y-99822419D01*
X78821980Y-99822419D02*
X78821980Y-98822419D01*
X78821980Y-98822419D02*
X79155313Y-98822419D01*
X79155313Y-98822419D02*
X79250551Y-98870038D01*
X79250551Y-98870038D02*
X79298170Y-98917657D01*
X79298170Y-98917657D02*
X79345789Y-99012895D01*
X79345789Y-99012895D02*
X79345789Y-99108133D01*
X79345789Y-99108133D02*
X79298170Y-99203371D01*
X79298170Y-99203371D02*
X79250551Y-99250990D01*
X79250551Y-99250990D02*
X79155313Y-99298609D01*
X79155313Y-99298609D02*
X78821980Y-99298609D01*
X80012456Y-99346228D02*
X80012456Y-99822419D01*
X79679123Y-98822419D02*
X80012456Y-99346228D01*
X80012456Y-99346228D02*
X80345789Y-98822419D01*
X81441028Y-98822419D02*
X81441028Y-99631942D01*
X81441028Y-99631942D02*
X81488647Y-99727180D01*
X81488647Y-99727180D02*
X81536266Y-99774800D01*
X81536266Y-99774800D02*
X81631504Y-99822419D01*
X81631504Y-99822419D02*
X81821980Y-99822419D01*
X81821980Y-99822419D02*
X81917218Y-99774800D01*
X81917218Y-99774800D02*
X81964837Y-99727180D01*
X81964837Y-99727180D02*
X82012456Y-99631942D01*
X82012456Y-99631942D02*
X82012456Y-98822419D01*
X82441028Y-99774800D02*
X82583885Y-99822419D01*
X82583885Y-99822419D02*
X82821980Y-99822419D01*
X82821980Y-99822419D02*
X82917218Y-99774800D01*
X82917218Y-99774800D02*
X82964837Y-99727180D01*
X82964837Y-99727180D02*
X83012456Y-99631942D01*
X83012456Y-99631942D02*
X83012456Y-99536704D01*
X83012456Y-99536704D02*
X82964837Y-99441466D01*
X82964837Y-99441466D02*
X82917218Y-99393847D01*
X82917218Y-99393847D02*
X82821980Y-99346228D01*
X82821980Y-99346228D02*
X82631504Y-99298609D01*
X82631504Y-99298609D02*
X82536266Y-99250990D01*
X82536266Y-99250990D02*
X82488647Y-99203371D01*
X82488647Y-99203371D02*
X82441028Y-99108133D01*
X82441028Y-99108133D02*
X82441028Y-99012895D01*
X82441028Y-99012895D02*
X82488647Y-98917657D01*
X82488647Y-98917657D02*
X82536266Y-98870038D01*
X82536266Y-98870038D02*
X82631504Y-98822419D01*
X82631504Y-98822419D02*
X82869599Y-98822419D01*
X82869599Y-98822419D02*
X83012456Y-98870038D01*
X83441028Y-99298609D02*
X83774361Y-99298609D01*
X83917218Y-99822419D02*
X83441028Y-99822419D01*
X83441028Y-99822419D02*
X83441028Y-98822419D01*
X83441028Y-98822419D02*
X83917218Y-98822419D01*
X84917218Y-99822419D02*
X84583885Y-99346228D01*
X84345790Y-99822419D02*
X84345790Y-98822419D01*
X84345790Y-98822419D02*
X84726742Y-98822419D01*
X84726742Y-98822419D02*
X84821980Y-98870038D01*
X84821980Y-98870038D02*
X84869599Y-98917657D01*
X84869599Y-98917657D02*
X84917218Y-99012895D01*
X84917218Y-99012895D02*
X84917218Y-99155752D01*
X84917218Y-99155752D02*
X84869599Y-99250990D01*
X84869599Y-99250990D02*
X84821980Y-99298609D01*
X84821980Y-99298609D02*
X84726742Y-99346228D01*
X84726742Y-99346228D02*
X84345790Y-99346228D01*
X61583884Y-101432419D02*
X61583884Y-100432419D01*
X61583884Y-100908609D02*
X62155312Y-100908609D01*
X62155312Y-101432419D02*
X62155312Y-100432419D01*
X62631503Y-101432419D02*
X62631503Y-100432419D01*
X63631502Y-100480038D02*
X63536264Y-100432419D01*
X63536264Y-100432419D02*
X63393407Y-100432419D01*
X63393407Y-100432419D02*
X63250550Y-100480038D01*
X63250550Y-100480038D02*
X63155312Y-100575276D01*
X63155312Y-100575276D02*
X63107693Y-100670514D01*
X63107693Y-100670514D02*
X63060074Y-100860990D01*
X63060074Y-100860990D02*
X63060074Y-101003847D01*
X63060074Y-101003847D02*
X63107693Y-101194323D01*
X63107693Y-101194323D02*
X63155312Y-101289561D01*
X63155312Y-101289561D02*
X63250550Y-101384800D01*
X63250550Y-101384800D02*
X63393407Y-101432419D01*
X63393407Y-101432419D02*
X63488645Y-101432419D01*
X63488645Y-101432419D02*
X63631502Y-101384800D01*
X63631502Y-101384800D02*
X63679121Y-101337180D01*
X63679121Y-101337180D02*
X63679121Y-101003847D01*
X63679121Y-101003847D02*
X63488645Y-101003847D01*
X64107693Y-101432419D02*
X64107693Y-100432419D01*
X64107693Y-100908609D02*
X64679121Y-100908609D01*
X64679121Y-101432419D02*
X64679121Y-100432419D01*
X65774360Y-100432419D02*
X66107693Y-101432419D01*
X66107693Y-101432419D02*
X66441026Y-100432419D01*
X66964836Y-100432419D02*
X67155312Y-100432419D01*
X67155312Y-100432419D02*
X67250550Y-100480038D01*
X67250550Y-100480038D02*
X67345788Y-100575276D01*
X67345788Y-100575276D02*
X67393407Y-100765752D01*
X67393407Y-100765752D02*
X67393407Y-101099085D01*
X67393407Y-101099085D02*
X67345788Y-101289561D01*
X67345788Y-101289561D02*
X67250550Y-101384800D01*
X67250550Y-101384800D02*
X67155312Y-101432419D01*
X67155312Y-101432419D02*
X66964836Y-101432419D01*
X66964836Y-101432419D02*
X66869598Y-101384800D01*
X66869598Y-101384800D02*
X66774360Y-101289561D01*
X66774360Y-101289561D02*
X66726741Y-101099085D01*
X66726741Y-101099085D02*
X66726741Y-100765752D01*
X66726741Y-100765752D02*
X66774360Y-100575276D01*
X66774360Y-100575276D02*
X66869598Y-100480038D01*
X66869598Y-100480038D02*
X66964836Y-100432419D01*
X68298169Y-101432419D02*
X67821979Y-101432419D01*
X67821979Y-101432419D02*
X67821979Y-100432419D01*
X68488646Y-100432419D02*
X69060074Y-100432419D01*
X68774360Y-101432419D02*
X68774360Y-100432419D01*
X69345789Y-101146704D02*
X69821979Y-101146704D01*
X69250551Y-101432419D02*
X69583884Y-100432419D01*
X69583884Y-100432419D02*
X69917217Y-101432419D01*
X70774360Y-100480038D02*
X70679122Y-100432419D01*
X70679122Y-100432419D02*
X70536265Y-100432419D01*
X70536265Y-100432419D02*
X70393408Y-100480038D01*
X70393408Y-100480038D02*
X70298170Y-100575276D01*
X70298170Y-100575276D02*
X70250551Y-100670514D01*
X70250551Y-100670514D02*
X70202932Y-100860990D01*
X70202932Y-100860990D02*
X70202932Y-101003847D01*
X70202932Y-101003847D02*
X70250551Y-101194323D01*
X70250551Y-101194323D02*
X70298170Y-101289561D01*
X70298170Y-101289561D02*
X70393408Y-101384800D01*
X70393408Y-101384800D02*
X70536265Y-101432419D01*
X70536265Y-101432419D02*
X70631503Y-101432419D01*
X70631503Y-101432419D02*
X70774360Y-101384800D01*
X70774360Y-101384800D02*
X70821979Y-101337180D01*
X70821979Y-101337180D02*
X70821979Y-101003847D01*
X70821979Y-101003847D02*
X70631503Y-101003847D01*
X71250551Y-100908609D02*
X71583884Y-100908609D01*
X71726741Y-101432419D02*
X71250551Y-101432419D01*
X71250551Y-101432419D02*
X71250551Y-100432419D01*
X71250551Y-100432419D02*
X71726741Y-100432419D01*
X72917218Y-101432419D02*
X72917218Y-100432419D01*
X73345789Y-101384800D02*
X73488646Y-101432419D01*
X73488646Y-101432419D02*
X73726741Y-101432419D01*
X73726741Y-101432419D02*
X73821979Y-101384800D01*
X73821979Y-101384800D02*
X73869598Y-101337180D01*
X73869598Y-101337180D02*
X73917217Y-101241942D01*
X73917217Y-101241942D02*
X73917217Y-101146704D01*
X73917217Y-101146704D02*
X73869598Y-101051466D01*
X73869598Y-101051466D02*
X73821979Y-101003847D01*
X73821979Y-101003847D02*
X73726741Y-100956228D01*
X73726741Y-100956228D02*
X73536265Y-100908609D01*
X73536265Y-100908609D02*
X73441027Y-100860990D01*
X73441027Y-100860990D02*
X73393408Y-100813371D01*
X73393408Y-100813371D02*
X73345789Y-100718133D01*
X73345789Y-100718133D02*
X73345789Y-100622895D01*
X73345789Y-100622895D02*
X73393408Y-100527657D01*
X73393408Y-100527657D02*
X73441027Y-100480038D01*
X73441027Y-100480038D02*
X73536265Y-100432419D01*
X73536265Y-100432419D02*
X73774360Y-100432419D01*
X73774360Y-100432419D02*
X73917217Y-100480038D01*
X75583884Y-101432419D02*
X75107694Y-101432419D01*
X75107694Y-101432419D02*
X75107694Y-100432419D01*
X75917218Y-100908609D02*
X76250551Y-100908609D01*
X76393408Y-101432419D02*
X75917218Y-101432419D01*
X75917218Y-101432419D02*
X75917218Y-100432419D01*
X75917218Y-100432419D02*
X76393408Y-100432419D01*
X76679123Y-100432419D02*
X77250551Y-100432419D01*
X76964837Y-101432419D02*
X76964837Y-100432419D01*
X77583885Y-101432419D02*
X77583885Y-100432419D01*
X77583885Y-100908609D02*
X78155313Y-100908609D01*
X78155313Y-101432419D02*
X78155313Y-100432419D01*
X78583885Y-101146704D02*
X79060075Y-101146704D01*
X78488647Y-101432419D02*
X78821980Y-100432419D01*
X78821980Y-100432419D02*
X79155313Y-101432419D01*
X79964837Y-101432419D02*
X79488647Y-101432419D01*
X79488647Y-101432419D02*
X79488647Y-100432419D01*
X80298171Y-101337180D02*
X80345790Y-101384800D01*
X80345790Y-101384800D02*
X80298171Y-101432419D01*
X80298171Y-101432419D02*
X80250552Y-101384800D01*
X80250552Y-101384800D02*
X80298171Y-101337180D01*
X80298171Y-101337180D02*
X80298171Y-101432419D01*
X80298171Y-101051466D02*
X80250552Y-100480038D01*
X80250552Y-100480038D02*
X80298171Y-100432419D01*
X80298171Y-100432419D02*
X80345790Y-100480038D01*
X80345790Y-100480038D02*
X80298171Y-101051466D01*
X80298171Y-101051466D02*
X80298171Y-100432419D01*
X52437580Y-79420074D02*
X52437580Y-78943884D01*
X52437580Y-78943884D02*
X53437580Y-78943884D01*
X53437580Y-79943884D02*
X53437580Y-80134360D01*
X53437580Y-80134360D02*
X53389961Y-80229598D01*
X53389961Y-80229598D02*
X53294723Y-80324836D01*
X53294723Y-80324836D02*
X53104247Y-80372455D01*
X53104247Y-80372455D02*
X52770914Y-80372455D01*
X52770914Y-80372455D02*
X52580438Y-80324836D01*
X52580438Y-80324836D02*
X52485200Y-80229598D01*
X52485200Y-80229598D02*
X52437580Y-80134360D01*
X52437580Y-80134360D02*
X52437580Y-79943884D01*
X52437580Y-79943884D02*
X52485200Y-79848646D01*
X52485200Y-79848646D02*
X52580438Y-79753408D01*
X52580438Y-79753408D02*
X52770914Y-79705789D01*
X52770914Y-79705789D02*
X53104247Y-79705789D01*
X53104247Y-79705789D02*
X53294723Y-79753408D01*
X53294723Y-79753408D02*
X53389961Y-79848646D01*
X53389961Y-79848646D02*
X53437580Y-79943884D01*
X52723295Y-80753408D02*
X52723295Y-81229598D01*
X52437580Y-80658170D02*
X53437580Y-80991503D01*
X53437580Y-80991503D02*
X52437580Y-81324836D01*
X52437580Y-81658170D02*
X53437580Y-81658170D01*
X53437580Y-81658170D02*
X53437580Y-81896265D01*
X53437580Y-81896265D02*
X53389961Y-82039122D01*
X53389961Y-82039122D02*
X53294723Y-82134360D01*
X53294723Y-82134360D02*
X53199485Y-82181979D01*
X53199485Y-82181979D02*
X53009009Y-82229598D01*
X53009009Y-82229598D02*
X52866152Y-82229598D01*
X52866152Y-82229598D02*
X52675676Y-82181979D01*
X52675676Y-82181979D02*
X52580438Y-82134360D01*
X52580438Y-82134360D02*
X52485200Y-82039122D01*
X52485200Y-82039122D02*
X52437580Y-81896265D01*
X52437580Y-81896265D02*
X52437580Y-81658170D01*
X52497580Y-88883884D02*
X53497580Y-88883884D01*
X53497580Y-88883884D02*
X52497580Y-89455312D01*
X52497580Y-89455312D02*
X53497580Y-89455312D01*
X53021390Y-89931503D02*
X53021390Y-90264836D01*
X52497580Y-90407693D02*
X52497580Y-89931503D01*
X52497580Y-89931503D02*
X53497580Y-89931503D01*
X53497580Y-89931503D02*
X53497580Y-90407693D01*
X53497580Y-90836265D02*
X52688057Y-90836265D01*
X52688057Y-90836265D02*
X52592819Y-90883884D01*
X52592819Y-90883884D02*
X52545200Y-90931503D01*
X52545200Y-90931503D02*
X52497580Y-91026741D01*
X52497580Y-91026741D02*
X52497580Y-91217217D01*
X52497580Y-91217217D02*
X52545200Y-91312455D01*
X52545200Y-91312455D02*
X52592819Y-91360074D01*
X52592819Y-91360074D02*
X52688057Y-91407693D01*
X52688057Y-91407693D02*
X53497580Y-91407693D01*
X53497580Y-91741027D02*
X53497580Y-92312455D01*
X52497580Y-92026741D02*
X53497580Y-92026741D01*
X135602306Y-57749961D02*
X135697544Y-57797580D01*
X135697544Y-57797580D02*
X135840401Y-57797580D01*
X135840401Y-57797580D02*
X135983258Y-57749961D01*
X135983258Y-57749961D02*
X136078496Y-57654723D01*
X136078496Y-57654723D02*
X136126115Y-57559485D01*
X136126115Y-57559485D02*
X136173734Y-57369009D01*
X136173734Y-57369009D02*
X136173734Y-57226152D01*
X136173734Y-57226152D02*
X136126115Y-57035676D01*
X136126115Y-57035676D02*
X136078496Y-56940438D01*
X136078496Y-56940438D02*
X135983258Y-56845200D01*
X135983258Y-56845200D02*
X135840401Y-56797580D01*
X135840401Y-56797580D02*
X135745163Y-56797580D01*
X135745163Y-56797580D02*
X135602306Y-56845200D01*
X135602306Y-56845200D02*
X135554687Y-56892819D01*
X135554687Y-56892819D02*
X135554687Y-57226152D01*
X135554687Y-57226152D02*
X135745163Y-57226152D01*
X135126115Y-56797580D02*
X135126115Y-57797580D01*
X135126115Y-57797580D02*
X134554687Y-56797580D01*
X134554687Y-56797580D02*
X134554687Y-57797580D01*
X134078496Y-56797580D02*
X134078496Y-57797580D01*
X134078496Y-57797580D02*
X133840401Y-57797580D01*
X133840401Y-57797580D02*
X133697544Y-57749961D01*
X133697544Y-57749961D02*
X133602306Y-57654723D01*
X133602306Y-57654723D02*
X133554687Y-57559485D01*
X133554687Y-57559485D02*
X133507068Y-57369009D01*
X133507068Y-57369009D02*
X133507068Y-57226152D01*
X133507068Y-57226152D02*
X133554687Y-57035676D01*
X133554687Y-57035676D02*
X133602306Y-56940438D01*
X133602306Y-56940438D02*
X133697544Y-56845200D01*
X133697544Y-56845200D02*
X133840401Y-56797580D01*
X133840401Y-56797580D02*
X134078496Y-56797580D01*
X135045312Y-95742419D02*
X134711979Y-95266228D01*
X134473884Y-95742419D02*
X134473884Y-94742419D01*
X134473884Y-94742419D02*
X134854836Y-94742419D01*
X134854836Y-94742419D02*
X134950074Y-94790038D01*
X134950074Y-94790038D02*
X134997693Y-94837657D01*
X134997693Y-94837657D02*
X135045312Y-94932895D01*
X135045312Y-94932895D02*
X135045312Y-95075752D01*
X135045312Y-95075752D02*
X134997693Y-95170990D01*
X134997693Y-95170990D02*
X134950074Y-95218609D01*
X134950074Y-95218609D02*
X134854836Y-95266228D01*
X134854836Y-95266228D02*
X134473884Y-95266228D01*
X135473884Y-95218609D02*
X135807217Y-95218609D01*
X135950074Y-95742419D02*
X135473884Y-95742419D01*
X135473884Y-95742419D02*
X135473884Y-94742419D01*
X135473884Y-94742419D02*
X135950074Y-94742419D01*
X136331027Y-95694800D02*
X136473884Y-95742419D01*
X136473884Y-95742419D02*
X136711979Y-95742419D01*
X136711979Y-95742419D02*
X136807217Y-95694800D01*
X136807217Y-95694800D02*
X136854836Y-95647180D01*
X136854836Y-95647180D02*
X136902455Y-95551942D01*
X136902455Y-95551942D02*
X136902455Y-95456704D01*
X136902455Y-95456704D02*
X136854836Y-95361466D01*
X136854836Y-95361466D02*
X136807217Y-95313847D01*
X136807217Y-95313847D02*
X136711979Y-95266228D01*
X136711979Y-95266228D02*
X136521503Y-95218609D01*
X136521503Y-95218609D02*
X136426265Y-95170990D01*
X136426265Y-95170990D02*
X136378646Y-95123371D01*
X136378646Y-95123371D02*
X136331027Y-95028133D01*
X136331027Y-95028133D02*
X136331027Y-94932895D01*
X136331027Y-94932895D02*
X136378646Y-94837657D01*
X136378646Y-94837657D02*
X136426265Y-94790038D01*
X136426265Y-94790038D02*
X136521503Y-94742419D01*
X136521503Y-94742419D02*
X136759598Y-94742419D01*
X136759598Y-94742419D02*
X136902455Y-94790038D01*
X137331027Y-95742419D02*
X137331027Y-94742419D01*
X137759598Y-95694800D02*
X137902455Y-95742419D01*
X137902455Y-95742419D02*
X138140550Y-95742419D01*
X138140550Y-95742419D02*
X138235788Y-95694800D01*
X138235788Y-95694800D02*
X138283407Y-95647180D01*
X138283407Y-95647180D02*
X138331026Y-95551942D01*
X138331026Y-95551942D02*
X138331026Y-95456704D01*
X138331026Y-95456704D02*
X138283407Y-95361466D01*
X138283407Y-95361466D02*
X138235788Y-95313847D01*
X138235788Y-95313847D02*
X138140550Y-95266228D01*
X138140550Y-95266228D02*
X137950074Y-95218609D01*
X137950074Y-95218609D02*
X137854836Y-95170990D01*
X137854836Y-95170990D02*
X137807217Y-95123371D01*
X137807217Y-95123371D02*
X137759598Y-95028133D01*
X137759598Y-95028133D02*
X137759598Y-94932895D01*
X137759598Y-94932895D02*
X137807217Y-94837657D01*
X137807217Y-94837657D02*
X137854836Y-94790038D01*
X137854836Y-94790038D02*
X137950074Y-94742419D01*
X137950074Y-94742419D02*
X138188169Y-94742419D01*
X138188169Y-94742419D02*
X138331026Y-94790038D01*
X138616741Y-94742419D02*
X139188169Y-94742419D01*
X138902455Y-95742419D02*
X138902455Y-94742419D01*
X139711979Y-94742419D02*
X139902455Y-94742419D01*
X139902455Y-94742419D02*
X139997693Y-94790038D01*
X139997693Y-94790038D02*
X140092931Y-94885276D01*
X140092931Y-94885276D02*
X140140550Y-95075752D01*
X140140550Y-95075752D02*
X140140550Y-95409085D01*
X140140550Y-95409085D02*
X140092931Y-95599561D01*
X140092931Y-95599561D02*
X139997693Y-95694800D01*
X139997693Y-95694800D02*
X139902455Y-95742419D01*
X139902455Y-95742419D02*
X139711979Y-95742419D01*
X139711979Y-95742419D02*
X139616741Y-95694800D01*
X139616741Y-95694800D02*
X139521503Y-95599561D01*
X139521503Y-95599561D02*
X139473884Y-95409085D01*
X139473884Y-95409085D02*
X139473884Y-95075752D01*
X139473884Y-95075752D02*
X139521503Y-94885276D01*
X139521503Y-94885276D02*
X139616741Y-94790038D01*
X139616741Y-94790038D02*
X139711979Y-94742419D01*
X141140550Y-95742419D02*
X140807217Y-95266228D01*
X140569122Y-95742419D02*
X140569122Y-94742419D01*
X140569122Y-94742419D02*
X140950074Y-94742419D01*
X140950074Y-94742419D02*
X141045312Y-94790038D01*
X141045312Y-94790038D02*
X141092931Y-94837657D01*
X141092931Y-94837657D02*
X141140550Y-94932895D01*
X141140550Y-94932895D02*
X141140550Y-95075752D01*
X141140550Y-95075752D02*
X141092931Y-95170990D01*
X141092931Y-95170990D02*
X141045312Y-95218609D01*
X141045312Y-95218609D02*
X140950074Y-95266228D01*
X140950074Y-95266228D02*
X140569122Y-95266228D01*
X134426265Y-97304800D02*
X134569122Y-97352419D01*
X134569122Y-97352419D02*
X134807217Y-97352419D01*
X134807217Y-97352419D02*
X134902455Y-97304800D01*
X134902455Y-97304800D02*
X134950074Y-97257180D01*
X134950074Y-97257180D02*
X134997693Y-97161942D01*
X134997693Y-97161942D02*
X134997693Y-97066704D01*
X134997693Y-97066704D02*
X134950074Y-96971466D01*
X134950074Y-96971466D02*
X134902455Y-96923847D01*
X134902455Y-96923847D02*
X134807217Y-96876228D01*
X134807217Y-96876228D02*
X134616741Y-96828609D01*
X134616741Y-96828609D02*
X134521503Y-96780990D01*
X134521503Y-96780990D02*
X134473884Y-96733371D01*
X134473884Y-96733371D02*
X134426265Y-96638133D01*
X134426265Y-96638133D02*
X134426265Y-96542895D01*
X134426265Y-96542895D02*
X134473884Y-96447657D01*
X134473884Y-96447657D02*
X134521503Y-96400038D01*
X134521503Y-96400038D02*
X134616741Y-96352419D01*
X134616741Y-96352419D02*
X134854836Y-96352419D01*
X134854836Y-96352419D02*
X134997693Y-96400038D01*
X135426265Y-96828609D02*
X135759598Y-96828609D01*
X135902455Y-97352419D02*
X135426265Y-97352419D01*
X135426265Y-97352419D02*
X135426265Y-96352419D01*
X135426265Y-96352419D02*
X135902455Y-96352419D01*
X136807217Y-97352419D02*
X136331027Y-97352419D01*
X136331027Y-97352419D02*
X136331027Y-96352419D01*
X137140551Y-96828609D02*
X137473884Y-96828609D01*
X137616741Y-97352419D02*
X137140551Y-97352419D01*
X137140551Y-97352419D02*
X137140551Y-96352419D01*
X137140551Y-96352419D02*
X137616741Y-96352419D01*
X138616741Y-97257180D02*
X138569122Y-97304800D01*
X138569122Y-97304800D02*
X138426265Y-97352419D01*
X138426265Y-97352419D02*
X138331027Y-97352419D01*
X138331027Y-97352419D02*
X138188170Y-97304800D01*
X138188170Y-97304800D02*
X138092932Y-97209561D01*
X138092932Y-97209561D02*
X138045313Y-97114323D01*
X138045313Y-97114323D02*
X137997694Y-96923847D01*
X137997694Y-96923847D02*
X137997694Y-96780990D01*
X137997694Y-96780990D02*
X138045313Y-96590514D01*
X138045313Y-96590514D02*
X138092932Y-96495276D01*
X138092932Y-96495276D02*
X138188170Y-96400038D01*
X138188170Y-96400038D02*
X138331027Y-96352419D01*
X138331027Y-96352419D02*
X138426265Y-96352419D01*
X138426265Y-96352419D02*
X138569122Y-96400038D01*
X138569122Y-96400038D02*
X138616741Y-96447657D01*
X138902456Y-96352419D02*
X139473884Y-96352419D01*
X139188170Y-97352419D02*
X139188170Y-96352419D01*
X139807218Y-97352419D02*
X139807218Y-96352419D01*
X140473884Y-96352419D02*
X140664360Y-96352419D01*
X140664360Y-96352419D02*
X140759598Y-96400038D01*
X140759598Y-96400038D02*
X140854836Y-96495276D01*
X140854836Y-96495276D02*
X140902455Y-96685752D01*
X140902455Y-96685752D02*
X140902455Y-97019085D01*
X140902455Y-97019085D02*
X140854836Y-97209561D01*
X140854836Y-97209561D02*
X140759598Y-97304800D01*
X140759598Y-97304800D02*
X140664360Y-97352419D01*
X140664360Y-97352419D02*
X140473884Y-97352419D01*
X140473884Y-97352419D02*
X140378646Y-97304800D01*
X140378646Y-97304800D02*
X140283408Y-97209561D01*
X140283408Y-97209561D02*
X140235789Y-97019085D01*
X140235789Y-97019085D02*
X140235789Y-96685752D01*
X140235789Y-96685752D02*
X140283408Y-96495276D01*
X140283408Y-96495276D02*
X140378646Y-96400038D01*
X140378646Y-96400038D02*
X140473884Y-96352419D01*
X141331027Y-97352419D02*
X141331027Y-96352419D01*
X141331027Y-96352419D02*
X141902455Y-97352419D01*
X141902455Y-97352419D02*
X141902455Y-96352419D01*
X105242419Y-86076115D02*
X104242419Y-86076115D01*
X104242419Y-86076115D02*
X104242419Y-85695163D01*
X104242419Y-85695163D02*
X104290038Y-85599925D01*
X104290038Y-85599925D02*
X104337657Y-85552306D01*
X104337657Y-85552306D02*
X104432895Y-85504687D01*
X104432895Y-85504687D02*
X104575752Y-85504687D01*
X104575752Y-85504687D02*
X104670990Y-85552306D01*
X104670990Y-85552306D02*
X104718609Y-85599925D01*
X104718609Y-85599925D02*
X104766228Y-85695163D01*
X104766228Y-85695163D02*
X104766228Y-86076115D01*
X105147180Y-84504687D02*
X105194800Y-84552306D01*
X105194800Y-84552306D02*
X105242419Y-84695163D01*
X105242419Y-84695163D02*
X105242419Y-84790401D01*
X105242419Y-84790401D02*
X105194800Y-84933258D01*
X105194800Y-84933258D02*
X105099561Y-85028496D01*
X105099561Y-85028496D02*
X105004323Y-85076115D01*
X105004323Y-85076115D02*
X104813847Y-85123734D01*
X104813847Y-85123734D02*
X104670990Y-85123734D01*
X104670990Y-85123734D02*
X104480514Y-85076115D01*
X104480514Y-85076115D02*
X104385276Y-85028496D01*
X104385276Y-85028496D02*
X104290038Y-84933258D01*
X104290038Y-84933258D02*
X104242419Y-84790401D01*
X104242419Y-84790401D02*
X104242419Y-84695163D01*
X104242419Y-84695163D02*
X104290038Y-84552306D01*
X104290038Y-84552306D02*
X104337657Y-84504687D01*
X104670990Y-83933258D02*
X104623371Y-84028496D01*
X104623371Y-84028496D02*
X104575752Y-84076115D01*
X104575752Y-84076115D02*
X104480514Y-84123734D01*
X104480514Y-84123734D02*
X104432895Y-84123734D01*
X104432895Y-84123734D02*
X104337657Y-84076115D01*
X104337657Y-84076115D02*
X104290038Y-84028496D01*
X104290038Y-84028496D02*
X104242419Y-83933258D01*
X104242419Y-83933258D02*
X104242419Y-83742782D01*
X104242419Y-83742782D02*
X104290038Y-83647544D01*
X104290038Y-83647544D02*
X104337657Y-83599925D01*
X104337657Y-83599925D02*
X104432895Y-83552306D01*
X104432895Y-83552306D02*
X104480514Y-83552306D01*
X104480514Y-83552306D02*
X104575752Y-83599925D01*
X104575752Y-83599925D02*
X104623371Y-83647544D01*
X104623371Y-83647544D02*
X104670990Y-83742782D01*
X104670990Y-83742782D02*
X104670990Y-83933258D01*
X104670990Y-83933258D02*
X104718609Y-84028496D01*
X104718609Y-84028496D02*
X104766228Y-84076115D01*
X104766228Y-84076115D02*
X104861466Y-84123734D01*
X104861466Y-84123734D02*
X105051942Y-84123734D01*
X105051942Y-84123734D02*
X105147180Y-84076115D01*
X105147180Y-84076115D02*
X105194800Y-84028496D01*
X105194800Y-84028496D02*
X105242419Y-83933258D01*
X105242419Y-83933258D02*
X105242419Y-83742782D01*
X105242419Y-83742782D02*
X105194800Y-83647544D01*
X105194800Y-83647544D02*
X105147180Y-83599925D01*
X105147180Y-83599925D02*
X105051942Y-83552306D01*
X105051942Y-83552306D02*
X104861466Y-83552306D01*
X104861466Y-83552306D02*
X104766228Y-83599925D01*
X104766228Y-83599925D02*
X104718609Y-83647544D01*
X104718609Y-83647544D02*
X104670990Y-83742782D01*
X105242419Y-82599925D02*
X105242419Y-83171353D01*
X105242419Y-82885639D02*
X104242419Y-82885639D01*
X104242419Y-82885639D02*
X104385276Y-82980877D01*
X104385276Y-82980877D02*
X104480514Y-83076115D01*
X104480514Y-83076115D02*
X104528133Y-83171353D01*
X104242419Y-82266591D02*
X104242419Y-81599925D01*
X104242419Y-81599925D02*
X105242419Y-82028496D01*
X118236265Y-96314800D02*
X118379122Y-96362419D01*
X118379122Y-96362419D02*
X118617217Y-96362419D01*
X118617217Y-96362419D02*
X118712455Y-96314800D01*
X118712455Y-96314800D02*
X118760074Y-96267180D01*
X118760074Y-96267180D02*
X118807693Y-96171942D01*
X118807693Y-96171942D02*
X118807693Y-96076704D01*
X118807693Y-96076704D02*
X118760074Y-95981466D01*
X118760074Y-95981466D02*
X118712455Y-95933847D01*
X118712455Y-95933847D02*
X118617217Y-95886228D01*
X118617217Y-95886228D02*
X118426741Y-95838609D01*
X118426741Y-95838609D02*
X118331503Y-95790990D01*
X118331503Y-95790990D02*
X118283884Y-95743371D01*
X118283884Y-95743371D02*
X118236265Y-95648133D01*
X118236265Y-95648133D02*
X118236265Y-95552895D01*
X118236265Y-95552895D02*
X118283884Y-95457657D01*
X118283884Y-95457657D02*
X118331503Y-95410038D01*
X118331503Y-95410038D02*
X118426741Y-95362419D01*
X118426741Y-95362419D02*
X118664836Y-95362419D01*
X118664836Y-95362419D02*
X118807693Y-95410038D01*
X119426741Y-95886228D02*
X119426741Y-96362419D01*
X119093408Y-95362419D02*
X119426741Y-95886228D01*
X119426741Y-95886228D02*
X119760074Y-95362419D01*
X120093408Y-96362419D02*
X120093408Y-95362419D01*
X120093408Y-95362419D02*
X120664836Y-96362419D01*
X120664836Y-96362419D02*
X120664836Y-95362419D01*
X121712455Y-96267180D02*
X121664836Y-96314800D01*
X121664836Y-96314800D02*
X121521979Y-96362419D01*
X121521979Y-96362419D02*
X121426741Y-96362419D01*
X121426741Y-96362419D02*
X121283884Y-96314800D01*
X121283884Y-96314800D02*
X121188646Y-96219561D01*
X121188646Y-96219561D02*
X121141027Y-96124323D01*
X121141027Y-96124323D02*
X121093408Y-95933847D01*
X121093408Y-95933847D02*
X121093408Y-95790990D01*
X121093408Y-95790990D02*
X121141027Y-95600514D01*
X121141027Y-95600514D02*
X121188646Y-95505276D01*
X121188646Y-95505276D02*
X121283884Y-95410038D01*
X121283884Y-95410038D02*
X121426741Y-95362419D01*
X121426741Y-95362419D02*
X121521979Y-95362419D01*
X121521979Y-95362419D02*
X121664836Y-95410038D01*
X121664836Y-95410038D02*
X121712455Y-95457657D01*
X122141027Y-95981466D02*
X122902932Y-95981466D01*
X122521979Y-96362419D02*
X122521979Y-95600514D01*
X105102419Y-78716115D02*
X104102419Y-78716115D01*
X104102419Y-78716115D02*
X104102419Y-78335163D01*
X104102419Y-78335163D02*
X104150038Y-78239925D01*
X104150038Y-78239925D02*
X104197657Y-78192306D01*
X104197657Y-78192306D02*
X104292895Y-78144687D01*
X104292895Y-78144687D02*
X104435752Y-78144687D01*
X104435752Y-78144687D02*
X104530990Y-78192306D01*
X104530990Y-78192306D02*
X104578609Y-78239925D01*
X104578609Y-78239925D02*
X104626228Y-78335163D01*
X104626228Y-78335163D02*
X104626228Y-78716115D01*
X105007180Y-77144687D02*
X105054800Y-77192306D01*
X105054800Y-77192306D02*
X105102419Y-77335163D01*
X105102419Y-77335163D02*
X105102419Y-77430401D01*
X105102419Y-77430401D02*
X105054800Y-77573258D01*
X105054800Y-77573258D02*
X104959561Y-77668496D01*
X104959561Y-77668496D02*
X104864323Y-77716115D01*
X104864323Y-77716115D02*
X104673847Y-77763734D01*
X104673847Y-77763734D02*
X104530990Y-77763734D01*
X104530990Y-77763734D02*
X104340514Y-77716115D01*
X104340514Y-77716115D02*
X104245276Y-77668496D01*
X104245276Y-77668496D02*
X104150038Y-77573258D01*
X104150038Y-77573258D02*
X104102419Y-77430401D01*
X104102419Y-77430401D02*
X104102419Y-77335163D01*
X104102419Y-77335163D02*
X104150038Y-77192306D01*
X104150038Y-77192306D02*
X104197657Y-77144687D01*
X104530990Y-76573258D02*
X104483371Y-76668496D01*
X104483371Y-76668496D02*
X104435752Y-76716115D01*
X104435752Y-76716115D02*
X104340514Y-76763734D01*
X104340514Y-76763734D02*
X104292895Y-76763734D01*
X104292895Y-76763734D02*
X104197657Y-76716115D01*
X104197657Y-76716115D02*
X104150038Y-76668496D01*
X104150038Y-76668496D02*
X104102419Y-76573258D01*
X104102419Y-76573258D02*
X104102419Y-76382782D01*
X104102419Y-76382782D02*
X104150038Y-76287544D01*
X104150038Y-76287544D02*
X104197657Y-76239925D01*
X104197657Y-76239925D02*
X104292895Y-76192306D01*
X104292895Y-76192306D02*
X104340514Y-76192306D01*
X104340514Y-76192306D02*
X104435752Y-76239925D01*
X104435752Y-76239925D02*
X104483371Y-76287544D01*
X104483371Y-76287544D02*
X104530990Y-76382782D01*
X104530990Y-76382782D02*
X104530990Y-76573258D01*
X104530990Y-76573258D02*
X104578609Y-76668496D01*
X104578609Y-76668496D02*
X104626228Y-76716115D01*
X104626228Y-76716115D02*
X104721466Y-76763734D01*
X104721466Y-76763734D02*
X104911942Y-76763734D01*
X104911942Y-76763734D02*
X105007180Y-76716115D01*
X105007180Y-76716115D02*
X105054800Y-76668496D01*
X105054800Y-76668496D02*
X105102419Y-76573258D01*
X105102419Y-76573258D02*
X105102419Y-76382782D01*
X105102419Y-76382782D02*
X105054800Y-76287544D01*
X105054800Y-76287544D02*
X105007180Y-76239925D01*
X105007180Y-76239925D02*
X104911942Y-76192306D01*
X104911942Y-76192306D02*
X104721466Y-76192306D01*
X104721466Y-76192306D02*
X104626228Y-76239925D01*
X104626228Y-76239925D02*
X104578609Y-76287544D01*
X104578609Y-76287544D02*
X104530990Y-76382782D01*
X105102419Y-75239925D02*
X105102419Y-75811353D01*
X105102419Y-75525639D02*
X104102419Y-75525639D01*
X104102419Y-75525639D02*
X104245276Y-75620877D01*
X104245276Y-75620877D02*
X104340514Y-75716115D01*
X104340514Y-75716115D02*
X104388133Y-75811353D01*
X104102419Y-74906591D02*
X104102419Y-74239925D01*
X104102419Y-74239925D02*
X105102419Y-74668496D01*
X108553884Y-99232419D02*
X108553884Y-98232419D01*
X108553884Y-98232419D02*
X108791979Y-98232419D01*
X108791979Y-98232419D02*
X108934836Y-98280038D01*
X108934836Y-98280038D02*
X109030074Y-98375276D01*
X109030074Y-98375276D02*
X109077693Y-98470514D01*
X109077693Y-98470514D02*
X109125312Y-98660990D01*
X109125312Y-98660990D02*
X109125312Y-98803847D01*
X109125312Y-98803847D02*
X109077693Y-98994323D01*
X109077693Y-98994323D02*
X109030074Y-99089561D01*
X109030074Y-99089561D02*
X108934836Y-99184800D01*
X108934836Y-99184800D02*
X108791979Y-99232419D01*
X108791979Y-99232419D02*
X108553884Y-99232419D01*
X109506265Y-98946704D02*
X109982455Y-98946704D01*
X109411027Y-99232419D02*
X109744360Y-98232419D01*
X109744360Y-98232419D02*
X110077693Y-99232419D01*
X110411027Y-99232419D02*
X110411027Y-98232419D01*
X110411027Y-98232419D02*
X110982455Y-99232419D01*
X110982455Y-99232419D02*
X110982455Y-98232419D01*
X111982455Y-98280038D02*
X111887217Y-98232419D01*
X111887217Y-98232419D02*
X111744360Y-98232419D01*
X111744360Y-98232419D02*
X111601503Y-98280038D01*
X111601503Y-98280038D02*
X111506265Y-98375276D01*
X111506265Y-98375276D02*
X111458646Y-98470514D01*
X111458646Y-98470514D02*
X111411027Y-98660990D01*
X111411027Y-98660990D02*
X111411027Y-98803847D01*
X111411027Y-98803847D02*
X111458646Y-98994323D01*
X111458646Y-98994323D02*
X111506265Y-99089561D01*
X111506265Y-99089561D02*
X111601503Y-99184800D01*
X111601503Y-99184800D02*
X111744360Y-99232419D01*
X111744360Y-99232419D02*
X111839598Y-99232419D01*
X111839598Y-99232419D02*
X111982455Y-99184800D01*
X111982455Y-99184800D02*
X112030074Y-99137180D01*
X112030074Y-99137180D02*
X112030074Y-98803847D01*
X112030074Y-98803847D02*
X111839598Y-98803847D01*
X112458646Y-98708609D02*
X112791979Y-98708609D01*
X112934836Y-99232419D02*
X112458646Y-99232419D01*
X112458646Y-99232419D02*
X112458646Y-98232419D01*
X112458646Y-98232419D02*
X112934836Y-98232419D01*
X113934836Y-99232419D02*
X113601503Y-98756228D01*
X113363408Y-99232419D02*
X113363408Y-98232419D01*
X113363408Y-98232419D02*
X113744360Y-98232419D01*
X113744360Y-98232419D02*
X113839598Y-98280038D01*
X113839598Y-98280038D02*
X113887217Y-98327657D01*
X113887217Y-98327657D02*
X113934836Y-98422895D01*
X113934836Y-98422895D02*
X113934836Y-98565752D01*
X113934836Y-98565752D02*
X113887217Y-98660990D01*
X113887217Y-98660990D02*
X113839598Y-98708609D01*
X113839598Y-98708609D02*
X113744360Y-98756228D01*
X113744360Y-98756228D02*
X113363408Y-98756228D01*
X115125313Y-99232419D02*
X115125313Y-98232419D01*
X115125313Y-98232419D02*
X115363408Y-98232419D01*
X115363408Y-98232419D02*
X115506265Y-98280038D01*
X115506265Y-98280038D02*
X115601503Y-98375276D01*
X115601503Y-98375276D02*
X115649122Y-98470514D01*
X115649122Y-98470514D02*
X115696741Y-98660990D01*
X115696741Y-98660990D02*
X115696741Y-98803847D01*
X115696741Y-98803847D02*
X115649122Y-98994323D01*
X115649122Y-98994323D02*
X115601503Y-99089561D01*
X115601503Y-99089561D02*
X115506265Y-99184800D01*
X115506265Y-99184800D02*
X115363408Y-99232419D01*
X115363408Y-99232419D02*
X115125313Y-99232419D01*
X116315789Y-98232419D02*
X116506265Y-98232419D01*
X116506265Y-98232419D02*
X116601503Y-98280038D01*
X116601503Y-98280038D02*
X116696741Y-98375276D01*
X116696741Y-98375276D02*
X116744360Y-98565752D01*
X116744360Y-98565752D02*
X116744360Y-98899085D01*
X116744360Y-98899085D02*
X116696741Y-99089561D01*
X116696741Y-99089561D02*
X116601503Y-99184800D01*
X116601503Y-99184800D02*
X116506265Y-99232419D01*
X116506265Y-99232419D02*
X116315789Y-99232419D01*
X116315789Y-99232419D02*
X116220551Y-99184800D01*
X116220551Y-99184800D02*
X116125313Y-99089561D01*
X116125313Y-99089561D02*
X116077694Y-98899085D01*
X116077694Y-98899085D02*
X116077694Y-98565752D01*
X116077694Y-98565752D02*
X116125313Y-98375276D01*
X116125313Y-98375276D02*
X116220551Y-98280038D01*
X116220551Y-98280038D02*
X116315789Y-98232419D01*
X117934837Y-99232419D02*
X117934837Y-98232419D01*
X117934837Y-98232419D02*
X118506265Y-99232419D01*
X118506265Y-99232419D02*
X118506265Y-98232419D01*
X119172932Y-98232419D02*
X119363408Y-98232419D01*
X119363408Y-98232419D02*
X119458646Y-98280038D01*
X119458646Y-98280038D02*
X119553884Y-98375276D01*
X119553884Y-98375276D02*
X119601503Y-98565752D01*
X119601503Y-98565752D02*
X119601503Y-98899085D01*
X119601503Y-98899085D02*
X119553884Y-99089561D01*
X119553884Y-99089561D02*
X119458646Y-99184800D01*
X119458646Y-99184800D02*
X119363408Y-99232419D01*
X119363408Y-99232419D02*
X119172932Y-99232419D01*
X119172932Y-99232419D02*
X119077694Y-99184800D01*
X119077694Y-99184800D02*
X118982456Y-99089561D01*
X118982456Y-99089561D02*
X118934837Y-98899085D01*
X118934837Y-98899085D02*
X118934837Y-98565752D01*
X118934837Y-98565752D02*
X118982456Y-98375276D01*
X118982456Y-98375276D02*
X119077694Y-98280038D01*
X119077694Y-98280038D02*
X119172932Y-98232419D01*
X119887218Y-98232419D02*
X120458646Y-98232419D01*
X120172932Y-99232419D02*
X120172932Y-98232419D01*
X121411028Y-98232419D02*
X121982456Y-98232419D01*
X121696742Y-99232419D02*
X121696742Y-98232419D01*
X122506266Y-98232419D02*
X122696742Y-98232419D01*
X122696742Y-98232419D02*
X122791980Y-98280038D01*
X122791980Y-98280038D02*
X122887218Y-98375276D01*
X122887218Y-98375276D02*
X122934837Y-98565752D01*
X122934837Y-98565752D02*
X122934837Y-98899085D01*
X122934837Y-98899085D02*
X122887218Y-99089561D01*
X122887218Y-99089561D02*
X122791980Y-99184800D01*
X122791980Y-99184800D02*
X122696742Y-99232419D01*
X122696742Y-99232419D02*
X122506266Y-99232419D01*
X122506266Y-99232419D02*
X122411028Y-99184800D01*
X122411028Y-99184800D02*
X122315790Y-99089561D01*
X122315790Y-99089561D02*
X122268171Y-98899085D01*
X122268171Y-98899085D02*
X122268171Y-98565752D01*
X122268171Y-98565752D02*
X122315790Y-98375276D01*
X122315790Y-98375276D02*
X122411028Y-98280038D01*
X122411028Y-98280038D02*
X122506266Y-98232419D01*
X123363409Y-98232419D02*
X123363409Y-99041942D01*
X123363409Y-99041942D02*
X123411028Y-99137180D01*
X123411028Y-99137180D02*
X123458647Y-99184800D01*
X123458647Y-99184800D02*
X123553885Y-99232419D01*
X123553885Y-99232419D02*
X123744361Y-99232419D01*
X123744361Y-99232419D02*
X123839599Y-99184800D01*
X123839599Y-99184800D02*
X123887218Y-99137180D01*
X123887218Y-99137180D02*
X123934837Y-99041942D01*
X123934837Y-99041942D02*
X123934837Y-98232419D01*
X124982456Y-99137180D02*
X124934837Y-99184800D01*
X124934837Y-99184800D02*
X124791980Y-99232419D01*
X124791980Y-99232419D02*
X124696742Y-99232419D01*
X124696742Y-99232419D02*
X124553885Y-99184800D01*
X124553885Y-99184800D02*
X124458647Y-99089561D01*
X124458647Y-99089561D02*
X124411028Y-98994323D01*
X124411028Y-98994323D02*
X124363409Y-98803847D01*
X124363409Y-98803847D02*
X124363409Y-98660990D01*
X124363409Y-98660990D02*
X124411028Y-98470514D01*
X124411028Y-98470514D02*
X124458647Y-98375276D01*
X124458647Y-98375276D02*
X124553885Y-98280038D01*
X124553885Y-98280038D02*
X124696742Y-98232419D01*
X124696742Y-98232419D02*
X124791980Y-98232419D01*
X124791980Y-98232419D02*
X124934837Y-98280038D01*
X124934837Y-98280038D02*
X124982456Y-98327657D01*
X125411028Y-99232419D02*
X125411028Y-98232419D01*
X125411028Y-98708609D02*
X125982456Y-98708609D01*
X125982456Y-99232419D02*
X125982456Y-98232419D01*
X127553885Y-98708609D02*
X127696742Y-98756228D01*
X127696742Y-98756228D02*
X127744361Y-98803847D01*
X127744361Y-98803847D02*
X127791980Y-98899085D01*
X127791980Y-98899085D02*
X127791980Y-99041942D01*
X127791980Y-99041942D02*
X127744361Y-99137180D01*
X127744361Y-99137180D02*
X127696742Y-99184800D01*
X127696742Y-99184800D02*
X127601504Y-99232419D01*
X127601504Y-99232419D02*
X127220552Y-99232419D01*
X127220552Y-99232419D02*
X127220552Y-98232419D01*
X127220552Y-98232419D02*
X127553885Y-98232419D01*
X127553885Y-98232419D02*
X127649123Y-98280038D01*
X127649123Y-98280038D02*
X127696742Y-98327657D01*
X127696742Y-98327657D02*
X127744361Y-98422895D01*
X127744361Y-98422895D02*
X127744361Y-98518133D01*
X127744361Y-98518133D02*
X127696742Y-98613371D01*
X127696742Y-98613371D02*
X127649123Y-98660990D01*
X127649123Y-98660990D02*
X127553885Y-98708609D01*
X127553885Y-98708609D02*
X127220552Y-98708609D01*
X128411028Y-98232419D02*
X128601504Y-98232419D01*
X128601504Y-98232419D02*
X128696742Y-98280038D01*
X128696742Y-98280038D02*
X128791980Y-98375276D01*
X128791980Y-98375276D02*
X128839599Y-98565752D01*
X128839599Y-98565752D02*
X128839599Y-98899085D01*
X128839599Y-98899085D02*
X128791980Y-99089561D01*
X128791980Y-99089561D02*
X128696742Y-99184800D01*
X128696742Y-99184800D02*
X128601504Y-99232419D01*
X128601504Y-99232419D02*
X128411028Y-99232419D01*
X128411028Y-99232419D02*
X128315790Y-99184800D01*
X128315790Y-99184800D02*
X128220552Y-99089561D01*
X128220552Y-99089561D02*
X128172933Y-98899085D01*
X128172933Y-98899085D02*
X128172933Y-98565752D01*
X128172933Y-98565752D02*
X128220552Y-98375276D01*
X128220552Y-98375276D02*
X128315790Y-98280038D01*
X128315790Y-98280038D02*
X128411028Y-98232419D01*
X129220552Y-98946704D02*
X129696742Y-98946704D01*
X129125314Y-99232419D02*
X129458647Y-98232419D01*
X129458647Y-98232419D02*
X129791980Y-99232419D01*
X130696742Y-99232419D02*
X130363409Y-98756228D01*
X130125314Y-99232419D02*
X130125314Y-98232419D01*
X130125314Y-98232419D02*
X130506266Y-98232419D01*
X130506266Y-98232419D02*
X130601504Y-98280038D01*
X130601504Y-98280038D02*
X130649123Y-98327657D01*
X130649123Y-98327657D02*
X130696742Y-98422895D01*
X130696742Y-98422895D02*
X130696742Y-98565752D01*
X130696742Y-98565752D02*
X130649123Y-98660990D01*
X130649123Y-98660990D02*
X130601504Y-98708609D01*
X130601504Y-98708609D02*
X130506266Y-98756228D01*
X130506266Y-98756228D02*
X130125314Y-98756228D01*
X131125314Y-99232419D02*
X131125314Y-98232419D01*
X131125314Y-98232419D02*
X131363409Y-98232419D01*
X131363409Y-98232419D02*
X131506266Y-98280038D01*
X131506266Y-98280038D02*
X131601504Y-98375276D01*
X131601504Y-98375276D02*
X131649123Y-98470514D01*
X131649123Y-98470514D02*
X131696742Y-98660990D01*
X131696742Y-98660990D02*
X131696742Y-98803847D01*
X131696742Y-98803847D02*
X131649123Y-98994323D01*
X131649123Y-98994323D02*
X131601504Y-99089561D01*
X131601504Y-99089561D02*
X131506266Y-99184800D01*
X131506266Y-99184800D02*
X131363409Y-99232419D01*
X131363409Y-99232419D02*
X131125314Y-99232419D01*
X108744360Y-99842419D02*
X108934836Y-99842419D01*
X108934836Y-99842419D02*
X109030074Y-99890038D01*
X109030074Y-99890038D02*
X109125312Y-99985276D01*
X109125312Y-99985276D02*
X109172931Y-100175752D01*
X109172931Y-100175752D02*
X109172931Y-100509085D01*
X109172931Y-100509085D02*
X109125312Y-100699561D01*
X109125312Y-100699561D02*
X109030074Y-100794800D01*
X109030074Y-100794800D02*
X108934836Y-100842419D01*
X108934836Y-100842419D02*
X108744360Y-100842419D01*
X108744360Y-100842419D02*
X108649122Y-100794800D01*
X108649122Y-100794800D02*
X108553884Y-100699561D01*
X108553884Y-100699561D02*
X108506265Y-100509085D01*
X108506265Y-100509085D02*
X108506265Y-100175752D01*
X108506265Y-100175752D02*
X108553884Y-99985276D01*
X108553884Y-99985276D02*
X108649122Y-99890038D01*
X108649122Y-99890038D02*
X108744360Y-99842419D01*
X110172931Y-100842419D02*
X109839598Y-100366228D01*
X109601503Y-100842419D02*
X109601503Y-99842419D01*
X109601503Y-99842419D02*
X109982455Y-99842419D01*
X109982455Y-99842419D02*
X110077693Y-99890038D01*
X110077693Y-99890038D02*
X110125312Y-99937657D01*
X110125312Y-99937657D02*
X110172931Y-100032895D01*
X110172931Y-100032895D02*
X110172931Y-100175752D01*
X110172931Y-100175752D02*
X110125312Y-100270990D01*
X110125312Y-100270990D02*
X110077693Y-100318609D01*
X110077693Y-100318609D02*
X109982455Y-100366228D01*
X109982455Y-100366228D02*
X109601503Y-100366228D01*
X111934836Y-100747180D02*
X111887217Y-100794800D01*
X111887217Y-100794800D02*
X111744360Y-100842419D01*
X111744360Y-100842419D02*
X111649122Y-100842419D01*
X111649122Y-100842419D02*
X111506265Y-100794800D01*
X111506265Y-100794800D02*
X111411027Y-100699561D01*
X111411027Y-100699561D02*
X111363408Y-100604323D01*
X111363408Y-100604323D02*
X111315789Y-100413847D01*
X111315789Y-100413847D02*
X111315789Y-100270990D01*
X111315789Y-100270990D02*
X111363408Y-100080514D01*
X111363408Y-100080514D02*
X111411027Y-99985276D01*
X111411027Y-99985276D02*
X111506265Y-99890038D01*
X111506265Y-99890038D02*
X111649122Y-99842419D01*
X111649122Y-99842419D02*
X111744360Y-99842419D01*
X111744360Y-99842419D02*
X111887217Y-99890038D01*
X111887217Y-99890038D02*
X111934836Y-99937657D01*
X112553884Y-99842419D02*
X112744360Y-99842419D01*
X112744360Y-99842419D02*
X112839598Y-99890038D01*
X112839598Y-99890038D02*
X112934836Y-99985276D01*
X112934836Y-99985276D02*
X112982455Y-100175752D01*
X112982455Y-100175752D02*
X112982455Y-100509085D01*
X112982455Y-100509085D02*
X112934836Y-100699561D01*
X112934836Y-100699561D02*
X112839598Y-100794800D01*
X112839598Y-100794800D02*
X112744360Y-100842419D01*
X112744360Y-100842419D02*
X112553884Y-100842419D01*
X112553884Y-100842419D02*
X112458646Y-100794800D01*
X112458646Y-100794800D02*
X112363408Y-100699561D01*
X112363408Y-100699561D02*
X112315789Y-100509085D01*
X112315789Y-100509085D02*
X112315789Y-100175752D01*
X112315789Y-100175752D02*
X112363408Y-99985276D01*
X112363408Y-99985276D02*
X112458646Y-99890038D01*
X112458646Y-99890038D02*
X112553884Y-99842419D01*
X113411027Y-100842419D02*
X113411027Y-99842419D01*
X113411027Y-99842419D02*
X113744360Y-100556704D01*
X113744360Y-100556704D02*
X114077693Y-99842419D01*
X114077693Y-99842419D02*
X114077693Y-100842419D01*
X114553884Y-100842419D02*
X114553884Y-99842419D01*
X114553884Y-99842419D02*
X114934836Y-99842419D01*
X114934836Y-99842419D02*
X115030074Y-99890038D01*
X115030074Y-99890038D02*
X115077693Y-99937657D01*
X115077693Y-99937657D02*
X115125312Y-100032895D01*
X115125312Y-100032895D02*
X115125312Y-100175752D01*
X115125312Y-100175752D02*
X115077693Y-100270990D01*
X115077693Y-100270990D02*
X115030074Y-100318609D01*
X115030074Y-100318609D02*
X114934836Y-100366228D01*
X114934836Y-100366228D02*
X114553884Y-100366228D01*
X115744360Y-99842419D02*
X115934836Y-99842419D01*
X115934836Y-99842419D02*
X116030074Y-99890038D01*
X116030074Y-99890038D02*
X116125312Y-99985276D01*
X116125312Y-99985276D02*
X116172931Y-100175752D01*
X116172931Y-100175752D02*
X116172931Y-100509085D01*
X116172931Y-100509085D02*
X116125312Y-100699561D01*
X116125312Y-100699561D02*
X116030074Y-100794800D01*
X116030074Y-100794800D02*
X115934836Y-100842419D01*
X115934836Y-100842419D02*
X115744360Y-100842419D01*
X115744360Y-100842419D02*
X115649122Y-100794800D01*
X115649122Y-100794800D02*
X115553884Y-100699561D01*
X115553884Y-100699561D02*
X115506265Y-100509085D01*
X115506265Y-100509085D02*
X115506265Y-100175752D01*
X115506265Y-100175752D02*
X115553884Y-99985276D01*
X115553884Y-99985276D02*
X115649122Y-99890038D01*
X115649122Y-99890038D02*
X115744360Y-99842419D01*
X116601503Y-100842419D02*
X116601503Y-99842419D01*
X116601503Y-99842419D02*
X117172931Y-100842419D01*
X117172931Y-100842419D02*
X117172931Y-99842419D01*
X117649122Y-100318609D02*
X117982455Y-100318609D01*
X118125312Y-100842419D02*
X117649122Y-100842419D01*
X117649122Y-100842419D02*
X117649122Y-99842419D01*
X117649122Y-99842419D02*
X118125312Y-99842419D01*
X118553884Y-100842419D02*
X118553884Y-99842419D01*
X118553884Y-99842419D02*
X119125312Y-100842419D01*
X119125312Y-100842419D02*
X119125312Y-99842419D01*
X119458646Y-99842419D02*
X120030074Y-99842419D01*
X119744360Y-100842419D02*
X119744360Y-99842419D01*
X120315789Y-100794800D02*
X120458646Y-100842419D01*
X120458646Y-100842419D02*
X120696741Y-100842419D01*
X120696741Y-100842419D02*
X120791979Y-100794800D01*
X120791979Y-100794800D02*
X120839598Y-100747180D01*
X120839598Y-100747180D02*
X120887217Y-100651942D01*
X120887217Y-100651942D02*
X120887217Y-100556704D01*
X120887217Y-100556704D02*
X120839598Y-100461466D01*
X120839598Y-100461466D02*
X120791979Y-100413847D01*
X120791979Y-100413847D02*
X120696741Y-100366228D01*
X120696741Y-100366228D02*
X120506265Y-100318609D01*
X120506265Y-100318609D02*
X120411027Y-100270990D01*
X120411027Y-100270990D02*
X120363408Y-100223371D01*
X120363408Y-100223371D02*
X120315789Y-100128133D01*
X120315789Y-100128133D02*
X120315789Y-100032895D01*
X120315789Y-100032895D02*
X120363408Y-99937657D01*
X120363408Y-99937657D02*
X120411027Y-99890038D01*
X120411027Y-99890038D02*
X120506265Y-99842419D01*
X120506265Y-99842419D02*
X120744360Y-99842419D01*
X120744360Y-99842419D02*
X120887217Y-99890038D01*
X121982456Y-99842419D02*
X122220551Y-100842419D01*
X122220551Y-100842419D02*
X122411027Y-100128133D01*
X122411027Y-100128133D02*
X122601503Y-100842419D01*
X122601503Y-100842419D02*
X122839599Y-99842419D01*
X123220551Y-100842419D02*
X123220551Y-99842419D01*
X123220551Y-100318609D02*
X123791979Y-100318609D01*
X123791979Y-100842419D02*
X123791979Y-99842419D01*
X124268170Y-100318609D02*
X124601503Y-100318609D01*
X124744360Y-100842419D02*
X124268170Y-100842419D01*
X124268170Y-100842419D02*
X124268170Y-99842419D01*
X124268170Y-99842419D02*
X124744360Y-99842419D01*
X125172932Y-100842419D02*
X125172932Y-99842419D01*
X125172932Y-99842419D02*
X125744360Y-100842419D01*
X125744360Y-100842419D02*
X125744360Y-99842419D01*
X127172932Y-99842419D02*
X127363408Y-99842419D01*
X127363408Y-99842419D02*
X127458646Y-99890038D01*
X127458646Y-99890038D02*
X127553884Y-99985276D01*
X127553884Y-99985276D02*
X127601503Y-100175752D01*
X127601503Y-100175752D02*
X127601503Y-100509085D01*
X127601503Y-100509085D02*
X127553884Y-100699561D01*
X127553884Y-100699561D02*
X127458646Y-100794800D01*
X127458646Y-100794800D02*
X127363408Y-100842419D01*
X127363408Y-100842419D02*
X127172932Y-100842419D01*
X127172932Y-100842419D02*
X127077694Y-100794800D01*
X127077694Y-100794800D02*
X126982456Y-100699561D01*
X126982456Y-100699561D02*
X126934837Y-100509085D01*
X126934837Y-100509085D02*
X126934837Y-100175752D01*
X126934837Y-100175752D02*
X126982456Y-99985276D01*
X126982456Y-99985276D02*
X127077694Y-99890038D01*
X127077694Y-99890038D02*
X127172932Y-99842419D01*
X128030075Y-100842419D02*
X128030075Y-99842419D01*
X128030075Y-99842419D02*
X128411027Y-99842419D01*
X128411027Y-99842419D02*
X128506265Y-99890038D01*
X128506265Y-99890038D02*
X128553884Y-99937657D01*
X128553884Y-99937657D02*
X128601503Y-100032895D01*
X128601503Y-100032895D02*
X128601503Y-100175752D01*
X128601503Y-100175752D02*
X128553884Y-100270990D01*
X128553884Y-100270990D02*
X128506265Y-100318609D01*
X128506265Y-100318609D02*
X128411027Y-100366228D01*
X128411027Y-100366228D02*
X128030075Y-100366228D01*
X129030075Y-100318609D02*
X129363408Y-100318609D01*
X129506265Y-100842419D02*
X129030075Y-100842419D01*
X129030075Y-100842419D02*
X129030075Y-99842419D01*
X129030075Y-99842419D02*
X129506265Y-99842419D01*
X130506265Y-100842419D02*
X130172932Y-100366228D01*
X129934837Y-100842419D02*
X129934837Y-99842419D01*
X129934837Y-99842419D02*
X130315789Y-99842419D01*
X130315789Y-99842419D02*
X130411027Y-99890038D01*
X130411027Y-99890038D02*
X130458646Y-99937657D01*
X130458646Y-99937657D02*
X130506265Y-100032895D01*
X130506265Y-100032895D02*
X130506265Y-100175752D01*
X130506265Y-100175752D02*
X130458646Y-100270990D01*
X130458646Y-100270990D02*
X130411027Y-100318609D01*
X130411027Y-100318609D02*
X130315789Y-100366228D01*
X130315789Y-100366228D02*
X129934837Y-100366228D01*
X130887218Y-100556704D02*
X131363408Y-100556704D01*
X130791980Y-100842419D02*
X131125313Y-99842419D01*
X131125313Y-99842419D02*
X131458646Y-100842419D01*
X131649123Y-99842419D02*
X132220551Y-99842419D01*
X131934837Y-100842419D02*
X131934837Y-99842419D01*
X132553885Y-100842419D02*
X132553885Y-99842419D01*
X133030075Y-100842419D02*
X133030075Y-99842419D01*
X133030075Y-99842419D02*
X133601503Y-100842419D01*
X133601503Y-100842419D02*
X133601503Y-99842419D01*
X134601503Y-99890038D02*
X134506265Y-99842419D01*
X134506265Y-99842419D02*
X134363408Y-99842419D01*
X134363408Y-99842419D02*
X134220551Y-99890038D01*
X134220551Y-99890038D02*
X134125313Y-99985276D01*
X134125313Y-99985276D02*
X134077694Y-100080514D01*
X134077694Y-100080514D02*
X134030075Y-100270990D01*
X134030075Y-100270990D02*
X134030075Y-100413847D01*
X134030075Y-100413847D02*
X134077694Y-100604323D01*
X134077694Y-100604323D02*
X134125313Y-100699561D01*
X134125313Y-100699561D02*
X134220551Y-100794800D01*
X134220551Y-100794800D02*
X134363408Y-100842419D01*
X134363408Y-100842419D02*
X134458646Y-100842419D01*
X134458646Y-100842419D02*
X134601503Y-100794800D01*
X134601503Y-100794800D02*
X134649122Y-100747180D01*
X134649122Y-100747180D02*
X134649122Y-100413847D01*
X134649122Y-100413847D02*
X134458646Y-100413847D01*
X135077694Y-100747180D02*
X135125313Y-100794800D01*
X135125313Y-100794800D02*
X135077694Y-100842419D01*
X135077694Y-100842419D02*
X135030075Y-100794800D01*
X135030075Y-100794800D02*
X135077694Y-100747180D01*
X135077694Y-100747180D02*
X135077694Y-100842419D01*
X135077694Y-100461466D02*
X135030075Y-99890038D01*
X135030075Y-99890038D02*
X135077694Y-99842419D01*
X135077694Y-99842419D02*
X135125313Y-99890038D01*
X135125313Y-99890038D02*
X135077694Y-100461466D01*
X135077694Y-100461466D02*
X135077694Y-99842419D01*
X141736115Y-56797580D02*
X141736115Y-57797580D01*
X141736115Y-57797580D02*
X141355163Y-57797580D01*
X141355163Y-57797580D02*
X141259925Y-57749961D01*
X141259925Y-57749961D02*
X141212306Y-57702342D01*
X141212306Y-57702342D02*
X141164687Y-57607104D01*
X141164687Y-57607104D02*
X141164687Y-57464247D01*
X141164687Y-57464247D02*
X141212306Y-57369009D01*
X141212306Y-57369009D02*
X141259925Y-57321390D01*
X141259925Y-57321390D02*
X141355163Y-57273771D01*
X141355163Y-57273771D02*
X141736115Y-57273771D01*
X140831353Y-57797580D02*
X140593258Y-56797580D01*
X140593258Y-56797580D02*
X140402782Y-57511866D01*
X140402782Y-57511866D02*
X140212306Y-56797580D01*
X140212306Y-56797580D02*
X139974211Y-57797580D01*
X139593258Y-56797580D02*
X139593258Y-57797580D01*
X139593258Y-57797580D02*
X139259925Y-57083295D01*
X139259925Y-57083295D02*
X138926592Y-57797580D01*
X138926592Y-57797580D02*
X138926592Y-56797580D01*
X105112419Y-70276115D02*
X104112419Y-70276115D01*
X104112419Y-70276115D02*
X104826704Y-69942782D01*
X104826704Y-69942782D02*
X104112419Y-69609449D01*
X104112419Y-69609449D02*
X105112419Y-69609449D01*
X104112419Y-68942782D02*
X104112419Y-68752306D01*
X104112419Y-68752306D02*
X104160038Y-68657068D01*
X104160038Y-68657068D02*
X104255276Y-68561830D01*
X104255276Y-68561830D02*
X104445752Y-68514211D01*
X104445752Y-68514211D02*
X104779085Y-68514211D01*
X104779085Y-68514211D02*
X104969561Y-68561830D01*
X104969561Y-68561830D02*
X105064800Y-68657068D01*
X105064800Y-68657068D02*
X105112419Y-68752306D01*
X105112419Y-68752306D02*
X105112419Y-68942782D01*
X105112419Y-68942782D02*
X105064800Y-69038020D01*
X105064800Y-69038020D02*
X104969561Y-69133258D01*
X104969561Y-69133258D02*
X104779085Y-69180877D01*
X104779085Y-69180877D02*
X104445752Y-69180877D01*
X104445752Y-69180877D02*
X104255276Y-69133258D01*
X104255276Y-69133258D02*
X104160038Y-69038020D01*
X104160038Y-69038020D02*
X104112419Y-68942782D01*
X105017180Y-67514211D02*
X105064800Y-67561830D01*
X105064800Y-67561830D02*
X105112419Y-67704687D01*
X105112419Y-67704687D02*
X105112419Y-67799925D01*
X105112419Y-67799925D02*
X105064800Y-67942782D01*
X105064800Y-67942782D02*
X104969561Y-68038020D01*
X104969561Y-68038020D02*
X104874323Y-68085639D01*
X104874323Y-68085639D02*
X104683847Y-68133258D01*
X104683847Y-68133258D02*
X104540990Y-68133258D01*
X104540990Y-68133258D02*
X104350514Y-68085639D01*
X104350514Y-68085639D02*
X104255276Y-68038020D01*
X104255276Y-68038020D02*
X104160038Y-67942782D01*
X104160038Y-67942782D02*
X104112419Y-67799925D01*
X104112419Y-67799925D02*
X104112419Y-67704687D01*
X104112419Y-67704687D02*
X104160038Y-67561830D01*
X104160038Y-67561830D02*
X104207657Y-67514211D01*
X104112419Y-67180877D02*
X104112419Y-66561830D01*
X104112419Y-66561830D02*
X104493371Y-66895163D01*
X104493371Y-66895163D02*
X104493371Y-66752306D01*
X104493371Y-66752306D02*
X104540990Y-66657068D01*
X104540990Y-66657068D02*
X104588609Y-66609449D01*
X104588609Y-66609449D02*
X104683847Y-66561830D01*
X104683847Y-66561830D02*
X104921942Y-66561830D01*
X104921942Y-66561830D02*
X105017180Y-66609449D01*
X105017180Y-66609449D02*
X105064800Y-66657068D01*
X105064800Y-66657068D02*
X105112419Y-66752306D01*
X105112419Y-66752306D02*
X105112419Y-67038020D01*
X105112419Y-67038020D02*
X105064800Y-67133258D01*
X105064800Y-67133258D02*
X105017180Y-67180877D01*
X104112419Y-65942782D02*
X104112419Y-65847544D01*
X104112419Y-65847544D02*
X104160038Y-65752306D01*
X104160038Y-65752306D02*
X104207657Y-65704687D01*
X104207657Y-65704687D02*
X104302895Y-65657068D01*
X104302895Y-65657068D02*
X104493371Y-65609449D01*
X104493371Y-65609449D02*
X104731466Y-65609449D01*
X104731466Y-65609449D02*
X104921942Y-65657068D01*
X104921942Y-65657068D02*
X105017180Y-65704687D01*
X105017180Y-65704687D02*
X105064800Y-65752306D01*
X105064800Y-65752306D02*
X105112419Y-65847544D01*
X105112419Y-65847544D02*
X105112419Y-65942782D01*
X105112419Y-65942782D02*
X105064800Y-66038020D01*
X105064800Y-66038020D02*
X105017180Y-66085639D01*
X105017180Y-66085639D02*
X104921942Y-66133258D01*
X104921942Y-66133258D02*
X104731466Y-66180877D01*
X104731466Y-66180877D02*
X104493371Y-66180877D01*
X104493371Y-66180877D02*
X104302895Y-66133258D01*
X104302895Y-66133258D02*
X104207657Y-66085639D01*
X104207657Y-66085639D02*
X104160038Y-66038020D01*
X104160038Y-66038020D02*
X104112419Y-65942782D01*
X104207657Y-65228496D02*
X104160038Y-65180877D01*
X104160038Y-65180877D02*
X104112419Y-65085639D01*
X104112419Y-65085639D02*
X104112419Y-64847544D01*
X104112419Y-64847544D02*
X104160038Y-64752306D01*
X104160038Y-64752306D02*
X104207657Y-64704687D01*
X104207657Y-64704687D02*
X104302895Y-64657068D01*
X104302895Y-64657068D02*
X104398133Y-64657068D01*
X104398133Y-64657068D02*
X104540990Y-64704687D01*
X104540990Y-64704687D02*
X105112419Y-65276115D01*
X105112419Y-65276115D02*
X105112419Y-64657068D01*
X104112419Y-64323734D02*
X104112419Y-63704687D01*
X104112419Y-63704687D02*
X104493371Y-64038020D01*
X104493371Y-64038020D02*
X104493371Y-63895163D01*
X104493371Y-63895163D02*
X104540990Y-63799925D01*
X104540990Y-63799925D02*
X104588609Y-63752306D01*
X104588609Y-63752306D02*
X104683847Y-63704687D01*
X104683847Y-63704687D02*
X104921942Y-63704687D01*
X104921942Y-63704687D02*
X105017180Y-63752306D01*
X105017180Y-63752306D02*
X105064800Y-63799925D01*
X105064800Y-63799925D02*
X105112419Y-63895163D01*
X105112419Y-63895163D02*
X105112419Y-64180877D01*
X105112419Y-64180877D02*
X105064800Y-64276115D01*
X105064800Y-64276115D02*
X105017180Y-64323734D01*
X112257693Y-69612419D02*
X111686265Y-69612419D01*
X111971979Y-69612419D02*
X111971979Y-68612419D01*
X111971979Y-68612419D02*
X111876741Y-68755276D01*
X111876741Y-68755276D02*
X111781503Y-68850514D01*
X111781503Y-68850514D02*
X111686265Y-68898133D01*
X113086265Y-96324800D02*
X113229122Y-96372419D01*
X113229122Y-96372419D02*
X113467217Y-96372419D01*
X113467217Y-96372419D02*
X113562455Y-96324800D01*
X113562455Y-96324800D02*
X113610074Y-96277180D01*
X113610074Y-96277180D02*
X113657693Y-96181942D01*
X113657693Y-96181942D02*
X113657693Y-96086704D01*
X113657693Y-96086704D02*
X113610074Y-95991466D01*
X113610074Y-95991466D02*
X113562455Y-95943847D01*
X113562455Y-95943847D02*
X113467217Y-95896228D01*
X113467217Y-95896228D02*
X113276741Y-95848609D01*
X113276741Y-95848609D02*
X113181503Y-95800990D01*
X113181503Y-95800990D02*
X113133884Y-95753371D01*
X113133884Y-95753371D02*
X113086265Y-95658133D01*
X113086265Y-95658133D02*
X113086265Y-95562895D01*
X113086265Y-95562895D02*
X113133884Y-95467657D01*
X113133884Y-95467657D02*
X113181503Y-95420038D01*
X113181503Y-95420038D02*
X113276741Y-95372419D01*
X113276741Y-95372419D02*
X113514836Y-95372419D01*
X113514836Y-95372419D02*
X113657693Y-95420038D01*
X114276741Y-95896228D02*
X114276741Y-96372419D01*
X113943408Y-95372419D02*
X114276741Y-95896228D01*
X114276741Y-95896228D02*
X114610074Y-95372419D01*
X114943408Y-96372419D02*
X114943408Y-95372419D01*
X114943408Y-95372419D02*
X115514836Y-96372419D01*
X115514836Y-96372419D02*
X115514836Y-95372419D01*
X116562455Y-96277180D02*
X116514836Y-96324800D01*
X116514836Y-96324800D02*
X116371979Y-96372419D01*
X116371979Y-96372419D02*
X116276741Y-96372419D01*
X116276741Y-96372419D02*
X116133884Y-96324800D01*
X116133884Y-96324800D02*
X116038646Y-96229561D01*
X116038646Y-96229561D02*
X115991027Y-96134323D01*
X115991027Y-96134323D02*
X115943408Y-95943847D01*
X115943408Y-95943847D02*
X115943408Y-95800990D01*
X115943408Y-95800990D02*
X115991027Y-95610514D01*
X115991027Y-95610514D02*
X116038646Y-95515276D01*
X116038646Y-95515276D02*
X116133884Y-95420038D01*
X116133884Y-95420038D02*
X116276741Y-95372419D01*
X116276741Y-95372419D02*
X116371979Y-95372419D01*
X116371979Y-95372419D02*
X116514836Y-95420038D01*
X116514836Y-95420038D02*
X116562455Y-95467657D01*
X116991027Y-95991466D02*
X117752932Y-95991466D01*
X101197693Y-83082419D02*
X100626265Y-83082419D01*
X100911979Y-83082419D02*
X100911979Y-82082419D01*
X100911979Y-82082419D02*
X100816741Y-82225276D01*
X100816741Y-82225276D02*
X100721503Y-82320514D01*
X100721503Y-82320514D02*
X100626265Y-82368133D01*
X135333884Y-52472419D02*
X135333884Y-51472419D01*
X135762455Y-52424800D02*
X135905312Y-52472419D01*
X135905312Y-52472419D02*
X136143407Y-52472419D01*
X136143407Y-52472419D02*
X136238645Y-52424800D01*
X136238645Y-52424800D02*
X136286264Y-52377180D01*
X136286264Y-52377180D02*
X136333883Y-52281942D01*
X136333883Y-52281942D02*
X136333883Y-52186704D01*
X136333883Y-52186704D02*
X136286264Y-52091466D01*
X136286264Y-52091466D02*
X136238645Y-52043847D01*
X136238645Y-52043847D02*
X136143407Y-51996228D01*
X136143407Y-51996228D02*
X135952931Y-51948609D01*
X135952931Y-51948609D02*
X135857693Y-51900990D01*
X135857693Y-51900990D02*
X135810074Y-51853371D01*
X135810074Y-51853371D02*
X135762455Y-51758133D01*
X135762455Y-51758133D02*
X135762455Y-51662895D01*
X135762455Y-51662895D02*
X135810074Y-51567657D01*
X135810074Y-51567657D02*
X135857693Y-51520038D01*
X135857693Y-51520038D02*
X135952931Y-51472419D01*
X135952931Y-51472419D02*
X136191026Y-51472419D01*
X136191026Y-51472419D02*
X136333883Y-51520038D01*
X136952931Y-51472419D02*
X137143407Y-51472419D01*
X137143407Y-51472419D02*
X137238645Y-51520038D01*
X137238645Y-51520038D02*
X137333883Y-51615276D01*
X137333883Y-51615276D02*
X137381502Y-51805752D01*
X137381502Y-51805752D02*
X137381502Y-52139085D01*
X137381502Y-52139085D02*
X137333883Y-52329561D01*
X137333883Y-52329561D02*
X137238645Y-52424800D01*
X137238645Y-52424800D02*
X137143407Y-52472419D01*
X137143407Y-52472419D02*
X136952931Y-52472419D01*
X136952931Y-52472419D02*
X136857693Y-52424800D01*
X136857693Y-52424800D02*
X136762455Y-52329561D01*
X136762455Y-52329561D02*
X136714836Y-52139085D01*
X136714836Y-52139085D02*
X136714836Y-51805752D01*
X136714836Y-51805752D02*
X136762455Y-51615276D01*
X136762455Y-51615276D02*
X136857693Y-51520038D01*
X136857693Y-51520038D02*
X136952931Y-51472419D01*
X138286264Y-52472419D02*
X137810074Y-52472419D01*
X137810074Y-52472419D02*
X137810074Y-51472419D01*
X138571979Y-52186704D02*
X139048169Y-52186704D01*
X138476741Y-52472419D02*
X138810074Y-51472419D01*
X138810074Y-51472419D02*
X139143407Y-52472419D01*
X139333884Y-51472419D02*
X139905312Y-51472419D01*
X139619598Y-52472419D02*
X139619598Y-51472419D01*
X140238646Y-51948609D02*
X140571979Y-51948609D01*
X140714836Y-52472419D02*
X140238646Y-52472419D01*
X140238646Y-52472419D02*
X140238646Y-51472419D01*
X140238646Y-51472419D02*
X140714836Y-51472419D01*
X141143408Y-52472419D02*
X141143408Y-51472419D01*
X141143408Y-51472419D02*
X141381503Y-51472419D01*
X141381503Y-51472419D02*
X141524360Y-51520038D01*
X141524360Y-51520038D02*
X141619598Y-51615276D01*
X141619598Y-51615276D02*
X141667217Y-51710514D01*
X141667217Y-51710514D02*
X141714836Y-51900990D01*
X141714836Y-51900990D02*
X141714836Y-52043847D01*
X141714836Y-52043847D02*
X141667217Y-52234323D01*
X141667217Y-52234323D02*
X141619598Y-52329561D01*
X141619598Y-52329561D02*
X141524360Y-52424800D01*
X141524360Y-52424800D02*
X141381503Y-52472419D01*
X141381503Y-52472419D02*
X141143408Y-52472419D01*
X135905312Y-53987180D02*
X135857693Y-54034800D01*
X135857693Y-54034800D02*
X135714836Y-54082419D01*
X135714836Y-54082419D02*
X135619598Y-54082419D01*
X135619598Y-54082419D02*
X135476741Y-54034800D01*
X135476741Y-54034800D02*
X135381503Y-53939561D01*
X135381503Y-53939561D02*
X135333884Y-53844323D01*
X135333884Y-53844323D02*
X135286265Y-53653847D01*
X135286265Y-53653847D02*
X135286265Y-53510990D01*
X135286265Y-53510990D02*
X135333884Y-53320514D01*
X135333884Y-53320514D02*
X135381503Y-53225276D01*
X135381503Y-53225276D02*
X135476741Y-53130038D01*
X135476741Y-53130038D02*
X135619598Y-53082419D01*
X135619598Y-53082419D02*
X135714836Y-53082419D01*
X135714836Y-53082419D02*
X135857693Y-53130038D01*
X135857693Y-53130038D02*
X135905312Y-53177657D01*
X136333884Y-54082419D02*
X136333884Y-53082419D01*
X137381502Y-54082419D02*
X137048169Y-53606228D01*
X136810074Y-54082419D02*
X136810074Y-53082419D01*
X136810074Y-53082419D02*
X137191026Y-53082419D01*
X137191026Y-53082419D02*
X137286264Y-53130038D01*
X137286264Y-53130038D02*
X137333883Y-53177657D01*
X137333883Y-53177657D02*
X137381502Y-53272895D01*
X137381502Y-53272895D02*
X137381502Y-53415752D01*
X137381502Y-53415752D02*
X137333883Y-53510990D01*
X137333883Y-53510990D02*
X137286264Y-53558609D01*
X137286264Y-53558609D02*
X137191026Y-53606228D01*
X137191026Y-53606228D02*
X136810074Y-53606228D01*
X138381502Y-53987180D02*
X138333883Y-54034800D01*
X138333883Y-54034800D02*
X138191026Y-54082419D01*
X138191026Y-54082419D02*
X138095788Y-54082419D01*
X138095788Y-54082419D02*
X137952931Y-54034800D01*
X137952931Y-54034800D02*
X137857693Y-53939561D01*
X137857693Y-53939561D02*
X137810074Y-53844323D01*
X137810074Y-53844323D02*
X137762455Y-53653847D01*
X137762455Y-53653847D02*
X137762455Y-53510990D01*
X137762455Y-53510990D02*
X137810074Y-53320514D01*
X137810074Y-53320514D02*
X137857693Y-53225276D01*
X137857693Y-53225276D02*
X137952931Y-53130038D01*
X137952931Y-53130038D02*
X138095788Y-53082419D01*
X138095788Y-53082419D02*
X138191026Y-53082419D01*
X138191026Y-53082419D02*
X138333883Y-53130038D01*
X138333883Y-53130038D02*
X138381502Y-53177657D01*
X138810074Y-53082419D02*
X138810074Y-53891942D01*
X138810074Y-53891942D02*
X138857693Y-53987180D01*
X138857693Y-53987180D02*
X138905312Y-54034800D01*
X138905312Y-54034800D02*
X139000550Y-54082419D01*
X139000550Y-54082419D02*
X139191026Y-54082419D01*
X139191026Y-54082419D02*
X139286264Y-54034800D01*
X139286264Y-54034800D02*
X139333883Y-53987180D01*
X139333883Y-53987180D02*
X139381502Y-53891942D01*
X139381502Y-53891942D02*
X139381502Y-53082419D01*
X139857693Y-54082419D02*
X139857693Y-53082419D01*
X140191026Y-53082419D02*
X140762454Y-53082419D01*
X140476740Y-54082419D02*
X140476740Y-53082419D01*
X52457580Y-70723884D02*
X53457580Y-70723884D01*
X53457580Y-70723884D02*
X52457580Y-71295312D01*
X52457580Y-71295312D02*
X53457580Y-71295312D01*
X52981390Y-71771503D02*
X52981390Y-72104836D01*
X52457580Y-72247693D02*
X52457580Y-71771503D01*
X52457580Y-71771503D02*
X53457580Y-71771503D01*
X53457580Y-71771503D02*
X53457580Y-72247693D01*
X53457580Y-72676265D02*
X52648057Y-72676265D01*
X52648057Y-72676265D02*
X52552819Y-72723884D01*
X52552819Y-72723884D02*
X52505200Y-72771503D01*
X52505200Y-72771503D02*
X52457580Y-72866741D01*
X52457580Y-72866741D02*
X52457580Y-73057217D01*
X52457580Y-73057217D02*
X52505200Y-73152455D01*
X52505200Y-73152455D02*
X52552819Y-73200074D01*
X52552819Y-73200074D02*
X52648057Y-73247693D01*
X52648057Y-73247693D02*
X53457580Y-73247693D01*
X53457580Y-73581027D02*
X53457580Y-74152455D01*
X52457580Y-73866741D02*
X53457580Y-73866741D01*
X101017693Y-75682419D02*
X100446265Y-75682419D01*
X100731979Y-75682419D02*
X100731979Y-74682419D01*
X100731979Y-74682419D02*
X100636741Y-74825276D01*
X100636741Y-74825276D02*
X100541503Y-74920514D01*
X100541503Y-74920514D02*
X100446265Y-74968133D01*
D11*
X121983333Y-51609580D02*
X121935714Y-51657200D01*
X121935714Y-51657200D02*
X121792857Y-51704819D01*
X121792857Y-51704819D02*
X121697619Y-51704819D01*
X121697619Y-51704819D02*
X121554762Y-51657200D01*
X121554762Y-51657200D02*
X121459524Y-51561961D01*
X121459524Y-51561961D02*
X121411905Y-51466723D01*
X121411905Y-51466723D02*
X121364286Y-51276247D01*
X121364286Y-51276247D02*
X121364286Y-51133390D01*
X121364286Y-51133390D02*
X121411905Y-50942914D01*
X121411905Y-50942914D02*
X121459524Y-50847676D01*
X121459524Y-50847676D02*
X121554762Y-50752438D01*
X121554762Y-50752438D02*
X121697619Y-50704819D01*
X121697619Y-50704819D02*
X121792857Y-50704819D01*
X121792857Y-50704819D02*
X121935714Y-50752438D01*
X121935714Y-50752438D02*
X121983333Y-50800057D01*
X122316667Y-50704819D02*
X122935714Y-50704819D01*
X122935714Y-50704819D02*
X122602381Y-51085771D01*
X122602381Y-51085771D02*
X122745238Y-51085771D01*
X122745238Y-51085771D02*
X122840476Y-51133390D01*
X122840476Y-51133390D02*
X122888095Y-51181009D01*
X122888095Y-51181009D02*
X122935714Y-51276247D01*
X122935714Y-51276247D02*
X122935714Y-51514342D01*
X122935714Y-51514342D02*
X122888095Y-51609580D01*
X122888095Y-51609580D02*
X122840476Y-51657200D01*
X122840476Y-51657200D02*
X122745238Y-51704819D01*
X122745238Y-51704819D02*
X122459524Y-51704819D01*
X122459524Y-51704819D02*
X122364286Y-51657200D01*
X122364286Y-51657200D02*
X122316667Y-51609580D01*
X62054819Y-67233333D02*
X62769104Y-67233333D01*
X62769104Y-67233333D02*
X62911961Y-67280952D01*
X62911961Y-67280952D02*
X63007200Y-67376190D01*
X63007200Y-67376190D02*
X63054819Y-67519047D01*
X63054819Y-67519047D02*
X63054819Y-67614285D01*
X63054819Y-66233333D02*
X63054819Y-66804761D01*
X63054819Y-66519047D02*
X62054819Y-66519047D01*
X62054819Y-66519047D02*
X62197676Y-66614285D01*
X62197676Y-66614285D02*
X62292914Y-66709523D01*
X62292914Y-66709523D02*
X62340533Y-66804761D01*
X142654819Y-76262857D02*
X142178628Y-76596190D01*
X142654819Y-76834285D02*
X141654819Y-76834285D01*
X141654819Y-76834285D02*
X141654819Y-76453333D01*
X141654819Y-76453333D02*
X141702438Y-76358095D01*
X141702438Y-76358095D02*
X141750057Y-76310476D01*
X141750057Y-76310476D02*
X141845295Y-76262857D01*
X141845295Y-76262857D02*
X141988152Y-76262857D01*
X141988152Y-76262857D02*
X142083390Y-76310476D01*
X142083390Y-76310476D02*
X142131009Y-76358095D01*
X142131009Y-76358095D02*
X142178628Y-76453333D01*
X142178628Y-76453333D02*
X142178628Y-76834285D01*
X142654819Y-75310476D02*
X142654819Y-75881904D01*
X142654819Y-75596190D02*
X141654819Y-75596190D01*
X141654819Y-75596190D02*
X141797676Y-75691428D01*
X141797676Y-75691428D02*
X141892914Y-75786666D01*
X141892914Y-75786666D02*
X141940533Y-75881904D01*
X142083390Y-74739047D02*
X142035771Y-74834285D01*
X142035771Y-74834285D02*
X141988152Y-74881904D01*
X141988152Y-74881904D02*
X141892914Y-74929523D01*
X141892914Y-74929523D02*
X141845295Y-74929523D01*
X141845295Y-74929523D02*
X141750057Y-74881904D01*
X141750057Y-74881904D02*
X141702438Y-74834285D01*
X141702438Y-74834285D02*
X141654819Y-74739047D01*
X141654819Y-74739047D02*
X141654819Y-74548571D01*
X141654819Y-74548571D02*
X141702438Y-74453333D01*
X141702438Y-74453333D02*
X141750057Y-74405714D01*
X141750057Y-74405714D02*
X141845295Y-74358095D01*
X141845295Y-74358095D02*
X141892914Y-74358095D01*
X141892914Y-74358095D02*
X141988152Y-74405714D01*
X141988152Y-74405714D02*
X142035771Y-74453333D01*
X142035771Y-74453333D02*
X142083390Y-74548571D01*
X142083390Y-74548571D02*
X142083390Y-74739047D01*
X142083390Y-74739047D02*
X142131009Y-74834285D01*
X142131009Y-74834285D02*
X142178628Y-74881904D01*
X142178628Y-74881904D02*
X142273866Y-74929523D01*
X142273866Y-74929523D02*
X142464342Y-74929523D01*
X142464342Y-74929523D02*
X142559580Y-74881904D01*
X142559580Y-74881904D02*
X142607200Y-74834285D01*
X142607200Y-74834285D02*
X142654819Y-74739047D01*
X142654819Y-74739047D02*
X142654819Y-74548571D01*
X142654819Y-74548571D02*
X142607200Y-74453333D01*
X142607200Y-74453333D02*
X142559580Y-74405714D01*
X142559580Y-74405714D02*
X142464342Y-74358095D01*
X142464342Y-74358095D02*
X142273866Y-74358095D01*
X142273866Y-74358095D02*
X142178628Y-74405714D01*
X142178628Y-74405714D02*
X142131009Y-74453333D01*
X142131009Y-74453333D02*
X142083390Y-74548571D01*
X127783333Y-51704468D02*
X127735714Y-51752088D01*
X127735714Y-51752088D02*
X127592857Y-51799707D01*
X127592857Y-51799707D02*
X127497619Y-51799707D01*
X127497619Y-51799707D02*
X127354762Y-51752088D01*
X127354762Y-51752088D02*
X127259524Y-51656849D01*
X127259524Y-51656849D02*
X127211905Y-51561611D01*
X127211905Y-51561611D02*
X127164286Y-51371135D01*
X127164286Y-51371135D02*
X127164286Y-51228278D01*
X127164286Y-51228278D02*
X127211905Y-51037802D01*
X127211905Y-51037802D02*
X127259524Y-50942564D01*
X127259524Y-50942564D02*
X127354762Y-50847326D01*
X127354762Y-50847326D02*
X127497619Y-50799707D01*
X127497619Y-50799707D02*
X127592857Y-50799707D01*
X127592857Y-50799707D02*
X127735714Y-50847326D01*
X127735714Y-50847326D02*
X127783333Y-50894945D01*
X128640476Y-51133040D02*
X128640476Y-51799707D01*
X128402381Y-50752088D02*
X128164286Y-51466373D01*
X128164286Y-51466373D02*
X128783333Y-51466373D01*
X147804819Y-76232857D02*
X147328628Y-76566190D01*
X147804819Y-76804285D02*
X146804819Y-76804285D01*
X146804819Y-76804285D02*
X146804819Y-76423333D01*
X146804819Y-76423333D02*
X146852438Y-76328095D01*
X146852438Y-76328095D02*
X146900057Y-76280476D01*
X146900057Y-76280476D02*
X146995295Y-76232857D01*
X146995295Y-76232857D02*
X147138152Y-76232857D01*
X147138152Y-76232857D02*
X147233390Y-76280476D01*
X147233390Y-76280476D02*
X147281009Y-76328095D01*
X147281009Y-76328095D02*
X147328628Y-76423333D01*
X147328628Y-76423333D02*
X147328628Y-76804285D01*
X147804819Y-75280476D02*
X147804819Y-75851904D01*
X147804819Y-75566190D02*
X146804819Y-75566190D01*
X146804819Y-75566190D02*
X146947676Y-75661428D01*
X146947676Y-75661428D02*
X147042914Y-75756666D01*
X147042914Y-75756666D02*
X147090533Y-75851904D01*
X146804819Y-74947142D02*
X146804819Y-74280476D01*
X146804819Y-74280476D02*
X147804819Y-74709047D01*
X78573333Y-77266819D02*
X78240000Y-76790628D01*
X78001905Y-77266819D02*
X78001905Y-76266819D01*
X78001905Y-76266819D02*
X78382857Y-76266819D01*
X78382857Y-76266819D02*
X78478095Y-76314438D01*
X78478095Y-76314438D02*
X78525714Y-76362057D01*
X78525714Y-76362057D02*
X78573333Y-76457295D01*
X78573333Y-76457295D02*
X78573333Y-76600152D01*
X78573333Y-76600152D02*
X78525714Y-76695390D01*
X78525714Y-76695390D02*
X78478095Y-76743009D01*
X78478095Y-76743009D02*
X78382857Y-76790628D01*
X78382857Y-76790628D02*
X78001905Y-76790628D01*
X79525714Y-77266819D02*
X78954286Y-77266819D01*
X79240000Y-77266819D02*
X79240000Y-76266819D01*
X79240000Y-76266819D02*
X79144762Y-76409676D01*
X79144762Y-76409676D02*
X79049524Y-76504914D01*
X79049524Y-76504914D02*
X78954286Y-76552533D01*
X68413333Y-90778819D02*
X68080000Y-90302628D01*
X67841905Y-90778819D02*
X67841905Y-89778819D01*
X67841905Y-89778819D02*
X68222857Y-89778819D01*
X68222857Y-89778819D02*
X68318095Y-89826438D01*
X68318095Y-89826438D02*
X68365714Y-89874057D01*
X68365714Y-89874057D02*
X68413333Y-89969295D01*
X68413333Y-89969295D02*
X68413333Y-90112152D01*
X68413333Y-90112152D02*
X68365714Y-90207390D01*
X68365714Y-90207390D02*
X68318095Y-90255009D01*
X68318095Y-90255009D02*
X68222857Y-90302628D01*
X68222857Y-90302628D02*
X67841905Y-90302628D01*
X69270476Y-89778819D02*
X69080000Y-89778819D01*
X69080000Y-89778819D02*
X68984762Y-89826438D01*
X68984762Y-89826438D02*
X68937143Y-89874057D01*
X68937143Y-89874057D02*
X68841905Y-90016914D01*
X68841905Y-90016914D02*
X68794286Y-90207390D01*
X68794286Y-90207390D02*
X68794286Y-90588342D01*
X68794286Y-90588342D02*
X68841905Y-90683580D01*
X68841905Y-90683580D02*
X68889524Y-90731200D01*
X68889524Y-90731200D02*
X68984762Y-90778819D01*
X68984762Y-90778819D02*
X69175238Y-90778819D01*
X69175238Y-90778819D02*
X69270476Y-90731200D01*
X69270476Y-90731200D02*
X69318095Y-90683580D01*
X69318095Y-90683580D02*
X69365714Y-90588342D01*
X69365714Y-90588342D02*
X69365714Y-90350247D01*
X69365714Y-90350247D02*
X69318095Y-90255009D01*
X69318095Y-90255009D02*
X69270476Y-90207390D01*
X69270476Y-90207390D02*
X69175238Y-90159771D01*
X69175238Y-90159771D02*
X68984762Y-90159771D01*
X68984762Y-90159771D02*
X68889524Y-90207390D01*
X68889524Y-90207390D02*
X68841905Y-90255009D01*
X68841905Y-90255009D02*
X68794286Y-90350247D01*
X94087142Y-94474819D02*
X93753809Y-93998628D01*
X93515714Y-94474819D02*
X93515714Y-93474819D01*
X93515714Y-93474819D02*
X93896666Y-93474819D01*
X93896666Y-93474819D02*
X93991904Y-93522438D01*
X93991904Y-93522438D02*
X94039523Y-93570057D01*
X94039523Y-93570057D02*
X94087142Y-93665295D01*
X94087142Y-93665295D02*
X94087142Y-93808152D01*
X94087142Y-93808152D02*
X94039523Y-93903390D01*
X94039523Y-93903390D02*
X93991904Y-93951009D01*
X93991904Y-93951009D02*
X93896666Y-93998628D01*
X93896666Y-93998628D02*
X93515714Y-93998628D01*
X94468095Y-93570057D02*
X94515714Y-93522438D01*
X94515714Y-93522438D02*
X94610952Y-93474819D01*
X94610952Y-93474819D02*
X94849047Y-93474819D01*
X94849047Y-93474819D02*
X94944285Y-93522438D01*
X94944285Y-93522438D02*
X94991904Y-93570057D01*
X94991904Y-93570057D02*
X95039523Y-93665295D01*
X95039523Y-93665295D02*
X95039523Y-93760533D01*
X95039523Y-93760533D02*
X94991904Y-93903390D01*
X94991904Y-93903390D02*
X94420476Y-94474819D01*
X94420476Y-94474819D02*
X95039523Y-94474819D01*
X95372857Y-93474819D02*
X96039523Y-93474819D01*
X96039523Y-93474819D02*
X95610952Y-94474819D01*
X116304819Y-66612857D02*
X115828628Y-66946190D01*
X116304819Y-67184285D02*
X115304819Y-67184285D01*
X115304819Y-67184285D02*
X115304819Y-66803333D01*
X115304819Y-66803333D02*
X115352438Y-66708095D01*
X115352438Y-66708095D02*
X115400057Y-66660476D01*
X115400057Y-66660476D02*
X115495295Y-66612857D01*
X115495295Y-66612857D02*
X115638152Y-66612857D01*
X115638152Y-66612857D02*
X115733390Y-66660476D01*
X115733390Y-66660476D02*
X115781009Y-66708095D01*
X115781009Y-66708095D02*
X115828628Y-66803333D01*
X115828628Y-66803333D02*
X115828628Y-67184285D01*
X115400057Y-66231904D02*
X115352438Y-66184285D01*
X115352438Y-66184285D02*
X115304819Y-66089047D01*
X115304819Y-66089047D02*
X115304819Y-65850952D01*
X115304819Y-65850952D02*
X115352438Y-65755714D01*
X115352438Y-65755714D02*
X115400057Y-65708095D01*
X115400057Y-65708095D02*
X115495295Y-65660476D01*
X115495295Y-65660476D02*
X115590533Y-65660476D01*
X115590533Y-65660476D02*
X115733390Y-65708095D01*
X115733390Y-65708095D02*
X116304819Y-66279523D01*
X116304819Y-66279523D02*
X116304819Y-65660476D01*
X115304819Y-65327142D02*
X115304819Y-64708095D01*
X115304819Y-64708095D02*
X115685771Y-65041428D01*
X115685771Y-65041428D02*
X115685771Y-64898571D01*
X115685771Y-64898571D02*
X115733390Y-64803333D01*
X115733390Y-64803333D02*
X115781009Y-64755714D01*
X115781009Y-64755714D02*
X115876247Y-64708095D01*
X115876247Y-64708095D02*
X116114342Y-64708095D01*
X116114342Y-64708095D02*
X116209580Y-64755714D01*
X116209580Y-64755714D02*
X116257200Y-64803333D01*
X116257200Y-64803333D02*
X116304819Y-64898571D01*
X116304819Y-64898571D02*
X116304819Y-65184285D01*
X116304819Y-65184285D02*
X116257200Y-65279523D01*
X116257200Y-65279523D02*
X116209580Y-65327142D01*
X68413333Y-87526819D02*
X68080000Y-87050628D01*
X67841905Y-87526819D02*
X67841905Y-86526819D01*
X67841905Y-86526819D02*
X68222857Y-86526819D01*
X68222857Y-86526819D02*
X68318095Y-86574438D01*
X68318095Y-86574438D02*
X68365714Y-86622057D01*
X68365714Y-86622057D02*
X68413333Y-86717295D01*
X68413333Y-86717295D02*
X68413333Y-86860152D01*
X68413333Y-86860152D02*
X68365714Y-86955390D01*
X68365714Y-86955390D02*
X68318095Y-87003009D01*
X68318095Y-87003009D02*
X68222857Y-87050628D01*
X68222857Y-87050628D02*
X67841905Y-87050628D01*
X68746667Y-86526819D02*
X69413333Y-86526819D01*
X69413333Y-86526819D02*
X68984762Y-87526819D01*
X94367142Y-74404819D02*
X94033809Y-73928628D01*
X93795714Y-74404819D02*
X93795714Y-73404819D01*
X93795714Y-73404819D02*
X94176666Y-73404819D01*
X94176666Y-73404819D02*
X94271904Y-73452438D01*
X94271904Y-73452438D02*
X94319523Y-73500057D01*
X94319523Y-73500057D02*
X94367142Y-73595295D01*
X94367142Y-73595295D02*
X94367142Y-73738152D01*
X94367142Y-73738152D02*
X94319523Y-73833390D01*
X94319523Y-73833390D02*
X94271904Y-73881009D01*
X94271904Y-73881009D02*
X94176666Y-73928628D01*
X94176666Y-73928628D02*
X93795714Y-73928628D01*
X94748095Y-73500057D02*
X94795714Y-73452438D01*
X94795714Y-73452438D02*
X94890952Y-73404819D01*
X94890952Y-73404819D02*
X95129047Y-73404819D01*
X95129047Y-73404819D02*
X95224285Y-73452438D01*
X95224285Y-73452438D02*
X95271904Y-73500057D01*
X95271904Y-73500057D02*
X95319523Y-73595295D01*
X95319523Y-73595295D02*
X95319523Y-73690533D01*
X95319523Y-73690533D02*
X95271904Y-73833390D01*
X95271904Y-73833390D02*
X94700476Y-74404819D01*
X94700476Y-74404819D02*
X95319523Y-74404819D01*
X95700476Y-73500057D02*
X95748095Y-73452438D01*
X95748095Y-73452438D02*
X95843333Y-73404819D01*
X95843333Y-73404819D02*
X96081428Y-73404819D01*
X96081428Y-73404819D02*
X96176666Y-73452438D01*
X96176666Y-73452438D02*
X96224285Y-73500057D01*
X96224285Y-73500057D02*
X96271904Y-73595295D01*
X96271904Y-73595295D02*
X96271904Y-73690533D01*
X96271904Y-73690533D02*
X96224285Y-73833390D01*
X96224285Y-73833390D02*
X95652857Y-74404819D01*
X95652857Y-74404819D02*
X96271904Y-74404819D01*
X64716819Y-58142857D02*
X64240628Y-58476190D01*
X64716819Y-58714285D02*
X63716819Y-58714285D01*
X63716819Y-58714285D02*
X63716819Y-58333333D01*
X63716819Y-58333333D02*
X63764438Y-58238095D01*
X63764438Y-58238095D02*
X63812057Y-58190476D01*
X63812057Y-58190476D02*
X63907295Y-58142857D01*
X63907295Y-58142857D02*
X64050152Y-58142857D01*
X64050152Y-58142857D02*
X64145390Y-58190476D01*
X64145390Y-58190476D02*
X64193009Y-58238095D01*
X64193009Y-58238095D02*
X64240628Y-58333333D01*
X64240628Y-58333333D02*
X64240628Y-58714285D01*
X64716819Y-57190476D02*
X64716819Y-57761904D01*
X64716819Y-57476190D02*
X63716819Y-57476190D01*
X63716819Y-57476190D02*
X63859676Y-57571428D01*
X63859676Y-57571428D02*
X63954914Y-57666666D01*
X63954914Y-57666666D02*
X64002533Y-57761904D01*
X63716819Y-56333333D02*
X63716819Y-56523809D01*
X63716819Y-56523809D02*
X63764438Y-56619047D01*
X63764438Y-56619047D02*
X63812057Y-56666666D01*
X63812057Y-56666666D02*
X63954914Y-56761904D01*
X63954914Y-56761904D02*
X64145390Y-56809523D01*
X64145390Y-56809523D02*
X64526342Y-56809523D01*
X64526342Y-56809523D02*
X64621580Y-56761904D01*
X64621580Y-56761904D02*
X64669200Y-56714285D01*
X64669200Y-56714285D02*
X64716819Y-56619047D01*
X64716819Y-56619047D02*
X64716819Y-56428571D01*
X64716819Y-56428571D02*
X64669200Y-56333333D01*
X64669200Y-56333333D02*
X64621580Y-56285714D01*
X64621580Y-56285714D02*
X64526342Y-56238095D01*
X64526342Y-56238095D02*
X64288247Y-56238095D01*
X64288247Y-56238095D02*
X64193009Y-56285714D01*
X64193009Y-56285714D02*
X64145390Y-56333333D01*
X64145390Y-56333333D02*
X64097771Y-56428571D01*
X64097771Y-56428571D02*
X64097771Y-56619047D01*
X64097771Y-56619047D02*
X64145390Y-56714285D01*
X64145390Y-56714285D02*
X64193009Y-56761904D01*
X64193009Y-56761904D02*
X64288247Y-56809523D01*
X122966666Y-58074819D02*
X122966666Y-58789104D01*
X122966666Y-58789104D02*
X122919047Y-58931961D01*
X122919047Y-58931961D02*
X122823809Y-59027200D01*
X122823809Y-59027200D02*
X122680952Y-59074819D01*
X122680952Y-59074819D02*
X122585714Y-59074819D01*
X123442857Y-59074819D02*
X123442857Y-58074819D01*
X123442857Y-58074819D02*
X123823809Y-58074819D01*
X123823809Y-58074819D02*
X123919047Y-58122438D01*
X123919047Y-58122438D02*
X123966666Y-58170057D01*
X123966666Y-58170057D02*
X124014285Y-58265295D01*
X124014285Y-58265295D02*
X124014285Y-58408152D01*
X124014285Y-58408152D02*
X123966666Y-58503390D01*
X123966666Y-58503390D02*
X123919047Y-58551009D01*
X123919047Y-58551009D02*
X123823809Y-58598628D01*
X123823809Y-58598628D02*
X123442857Y-58598628D01*
X124871428Y-58074819D02*
X124680952Y-58074819D01*
X124680952Y-58074819D02*
X124585714Y-58122438D01*
X124585714Y-58122438D02*
X124538095Y-58170057D01*
X124538095Y-58170057D02*
X124442857Y-58312914D01*
X124442857Y-58312914D02*
X124395238Y-58503390D01*
X124395238Y-58503390D02*
X124395238Y-58884342D01*
X124395238Y-58884342D02*
X124442857Y-58979580D01*
X124442857Y-58979580D02*
X124490476Y-59027200D01*
X124490476Y-59027200D02*
X124585714Y-59074819D01*
X124585714Y-59074819D02*
X124776190Y-59074819D01*
X124776190Y-59074819D02*
X124871428Y-59027200D01*
X124871428Y-59027200D02*
X124919047Y-58979580D01*
X124919047Y-58979580D02*
X124966666Y-58884342D01*
X124966666Y-58884342D02*
X124966666Y-58646247D01*
X124966666Y-58646247D02*
X124919047Y-58551009D01*
X124919047Y-58551009D02*
X124871428Y-58503390D01*
X124871428Y-58503390D02*
X124776190Y-58455771D01*
X124776190Y-58455771D02*
X124585714Y-58455771D01*
X124585714Y-58455771D02*
X124490476Y-58503390D01*
X124490476Y-58503390D02*
X124442857Y-58551009D01*
X124442857Y-58551009D02*
X124395238Y-58646247D01*
X68187580Y-63790666D02*
X68235200Y-63838285D01*
X68235200Y-63838285D02*
X68282819Y-63981142D01*
X68282819Y-63981142D02*
X68282819Y-64076380D01*
X68282819Y-64076380D02*
X68235200Y-64219237D01*
X68235200Y-64219237D02*
X68139961Y-64314475D01*
X68139961Y-64314475D02*
X68044723Y-64362094D01*
X68044723Y-64362094D02*
X67854247Y-64409713D01*
X67854247Y-64409713D02*
X67711390Y-64409713D01*
X67711390Y-64409713D02*
X67520914Y-64362094D01*
X67520914Y-64362094D02*
X67425676Y-64314475D01*
X67425676Y-64314475D02*
X67330438Y-64219237D01*
X67330438Y-64219237D02*
X67282819Y-64076380D01*
X67282819Y-64076380D02*
X67282819Y-63981142D01*
X67282819Y-63981142D02*
X67330438Y-63838285D01*
X67330438Y-63838285D02*
X67378057Y-63790666D01*
X68282819Y-62838285D02*
X68282819Y-63409713D01*
X68282819Y-63123999D02*
X67282819Y-63123999D01*
X67282819Y-63123999D02*
X67425676Y-63219237D01*
X67425676Y-63219237D02*
X67520914Y-63314475D01*
X67520914Y-63314475D02*
X67568533Y-63409713D01*
X133104819Y-81862857D02*
X132628628Y-82196190D01*
X133104819Y-82434285D02*
X132104819Y-82434285D01*
X132104819Y-82434285D02*
X132104819Y-82053333D01*
X132104819Y-82053333D02*
X132152438Y-81958095D01*
X132152438Y-81958095D02*
X132200057Y-81910476D01*
X132200057Y-81910476D02*
X132295295Y-81862857D01*
X132295295Y-81862857D02*
X132438152Y-81862857D01*
X132438152Y-81862857D02*
X132533390Y-81910476D01*
X132533390Y-81910476D02*
X132581009Y-81958095D01*
X132581009Y-81958095D02*
X132628628Y-82053333D01*
X132628628Y-82053333D02*
X132628628Y-82434285D01*
X132200057Y-81481904D02*
X132152438Y-81434285D01*
X132152438Y-81434285D02*
X132104819Y-81339047D01*
X132104819Y-81339047D02*
X132104819Y-81100952D01*
X132104819Y-81100952D02*
X132152438Y-81005714D01*
X132152438Y-81005714D02*
X132200057Y-80958095D01*
X132200057Y-80958095D02*
X132295295Y-80910476D01*
X132295295Y-80910476D02*
X132390533Y-80910476D01*
X132390533Y-80910476D02*
X132533390Y-80958095D01*
X132533390Y-80958095D02*
X133104819Y-81529523D01*
X133104819Y-81529523D02*
X133104819Y-80910476D01*
X132438152Y-80053333D02*
X133104819Y-80053333D01*
X132057200Y-80291428D02*
X132771485Y-80529523D01*
X132771485Y-80529523D02*
X132771485Y-79910476D01*
X116183333Y-51509580D02*
X116135714Y-51557200D01*
X116135714Y-51557200D02*
X115992857Y-51604819D01*
X115992857Y-51604819D02*
X115897619Y-51604819D01*
X115897619Y-51604819D02*
X115754762Y-51557200D01*
X115754762Y-51557200D02*
X115659524Y-51461961D01*
X115659524Y-51461961D02*
X115611905Y-51366723D01*
X115611905Y-51366723D02*
X115564286Y-51176247D01*
X115564286Y-51176247D02*
X115564286Y-51033390D01*
X115564286Y-51033390D02*
X115611905Y-50842914D01*
X115611905Y-50842914D02*
X115659524Y-50747676D01*
X115659524Y-50747676D02*
X115754762Y-50652438D01*
X115754762Y-50652438D02*
X115897619Y-50604819D01*
X115897619Y-50604819D02*
X115992857Y-50604819D01*
X115992857Y-50604819D02*
X116135714Y-50652438D01*
X116135714Y-50652438D02*
X116183333Y-50700057D01*
X116564286Y-50700057D02*
X116611905Y-50652438D01*
X116611905Y-50652438D02*
X116707143Y-50604819D01*
X116707143Y-50604819D02*
X116945238Y-50604819D01*
X116945238Y-50604819D02*
X117040476Y-50652438D01*
X117040476Y-50652438D02*
X117088095Y-50700057D01*
X117088095Y-50700057D02*
X117135714Y-50795295D01*
X117135714Y-50795295D02*
X117135714Y-50890533D01*
X117135714Y-50890533D02*
X117088095Y-51033390D01*
X117088095Y-51033390D02*
X116516667Y-51604819D01*
X116516667Y-51604819D02*
X117135714Y-51604819D01*
X95427142Y-80254819D02*
X95093809Y-79778628D01*
X94855714Y-80254819D02*
X94855714Y-79254819D01*
X94855714Y-79254819D02*
X95236666Y-79254819D01*
X95236666Y-79254819D02*
X95331904Y-79302438D01*
X95331904Y-79302438D02*
X95379523Y-79350057D01*
X95379523Y-79350057D02*
X95427142Y-79445295D01*
X95427142Y-79445295D02*
X95427142Y-79588152D01*
X95427142Y-79588152D02*
X95379523Y-79683390D01*
X95379523Y-79683390D02*
X95331904Y-79731009D01*
X95331904Y-79731009D02*
X95236666Y-79778628D01*
X95236666Y-79778628D02*
X94855714Y-79778628D01*
X95808095Y-79350057D02*
X95855714Y-79302438D01*
X95855714Y-79302438D02*
X95950952Y-79254819D01*
X95950952Y-79254819D02*
X96189047Y-79254819D01*
X96189047Y-79254819D02*
X96284285Y-79302438D01*
X96284285Y-79302438D02*
X96331904Y-79350057D01*
X96331904Y-79350057D02*
X96379523Y-79445295D01*
X96379523Y-79445295D02*
X96379523Y-79540533D01*
X96379523Y-79540533D02*
X96331904Y-79683390D01*
X96331904Y-79683390D02*
X95760476Y-80254819D01*
X95760476Y-80254819D02*
X96379523Y-80254819D01*
X97331904Y-80254819D02*
X96760476Y-80254819D01*
X97046190Y-80254819D02*
X97046190Y-79254819D01*
X97046190Y-79254819D02*
X96950952Y-79397676D01*
X96950952Y-79397676D02*
X96855714Y-79492914D01*
X96855714Y-79492914D02*
X96760476Y-79540533D01*
X141486666Y-84774819D02*
X141486666Y-85489104D01*
X141486666Y-85489104D02*
X141439047Y-85631961D01*
X141439047Y-85631961D02*
X141343809Y-85727200D01*
X141343809Y-85727200D02*
X141200952Y-85774819D01*
X141200952Y-85774819D02*
X141105714Y-85774819D01*
X141962857Y-85774819D02*
X141962857Y-84774819D01*
X141962857Y-84774819D02*
X142343809Y-84774819D01*
X142343809Y-84774819D02*
X142439047Y-84822438D01*
X142439047Y-84822438D02*
X142486666Y-84870057D01*
X142486666Y-84870057D02*
X142534285Y-84965295D01*
X142534285Y-84965295D02*
X142534285Y-85108152D01*
X142534285Y-85108152D02*
X142486666Y-85203390D01*
X142486666Y-85203390D02*
X142439047Y-85251009D01*
X142439047Y-85251009D02*
X142343809Y-85298628D01*
X142343809Y-85298628D02*
X141962857Y-85298628D01*
X142915238Y-84870057D02*
X142962857Y-84822438D01*
X142962857Y-84822438D02*
X143058095Y-84774819D01*
X143058095Y-84774819D02*
X143296190Y-84774819D01*
X143296190Y-84774819D02*
X143391428Y-84822438D01*
X143391428Y-84822438D02*
X143439047Y-84870057D01*
X143439047Y-84870057D02*
X143486666Y-84965295D01*
X143486666Y-84965295D02*
X143486666Y-85060533D01*
X143486666Y-85060533D02*
X143439047Y-85203390D01*
X143439047Y-85203390D02*
X142867619Y-85774819D01*
X142867619Y-85774819D02*
X143486666Y-85774819D01*
X118916666Y-58124819D02*
X118916666Y-58839104D01*
X118916666Y-58839104D02*
X118869047Y-58981961D01*
X118869047Y-58981961D02*
X118773809Y-59077200D01*
X118773809Y-59077200D02*
X118630952Y-59124819D01*
X118630952Y-59124819D02*
X118535714Y-59124819D01*
X119392857Y-59124819D02*
X119392857Y-58124819D01*
X119392857Y-58124819D02*
X119773809Y-58124819D01*
X119773809Y-58124819D02*
X119869047Y-58172438D01*
X119869047Y-58172438D02*
X119916666Y-58220057D01*
X119916666Y-58220057D02*
X119964285Y-58315295D01*
X119964285Y-58315295D02*
X119964285Y-58458152D01*
X119964285Y-58458152D02*
X119916666Y-58553390D01*
X119916666Y-58553390D02*
X119869047Y-58601009D01*
X119869047Y-58601009D02*
X119773809Y-58648628D01*
X119773809Y-58648628D02*
X119392857Y-58648628D01*
X120869047Y-58124819D02*
X120392857Y-58124819D01*
X120392857Y-58124819D02*
X120345238Y-58601009D01*
X120345238Y-58601009D02*
X120392857Y-58553390D01*
X120392857Y-58553390D02*
X120488095Y-58505771D01*
X120488095Y-58505771D02*
X120726190Y-58505771D01*
X120726190Y-58505771D02*
X120821428Y-58553390D01*
X120821428Y-58553390D02*
X120869047Y-58601009D01*
X120869047Y-58601009D02*
X120916666Y-58696247D01*
X120916666Y-58696247D02*
X120916666Y-58934342D01*
X120916666Y-58934342D02*
X120869047Y-59029580D01*
X120869047Y-59029580D02*
X120821428Y-59077200D01*
X120821428Y-59077200D02*
X120726190Y-59124819D01*
X120726190Y-59124819D02*
X120488095Y-59124819D01*
X120488095Y-59124819D02*
X120392857Y-59077200D01*
X120392857Y-59077200D02*
X120345238Y-59029580D01*
X62104819Y-85783333D02*
X62819104Y-85783333D01*
X62819104Y-85783333D02*
X62961961Y-85830952D01*
X62961961Y-85830952D02*
X63057200Y-85926190D01*
X63057200Y-85926190D02*
X63104819Y-86069047D01*
X63104819Y-86069047D02*
X63104819Y-86164285D01*
X62200057Y-85354761D02*
X62152438Y-85307142D01*
X62152438Y-85307142D02*
X62104819Y-85211904D01*
X62104819Y-85211904D02*
X62104819Y-84973809D01*
X62104819Y-84973809D02*
X62152438Y-84878571D01*
X62152438Y-84878571D02*
X62200057Y-84830952D01*
X62200057Y-84830952D02*
X62295295Y-84783333D01*
X62295295Y-84783333D02*
X62390533Y-84783333D01*
X62390533Y-84783333D02*
X62533390Y-84830952D01*
X62533390Y-84830952D02*
X63104819Y-85402380D01*
X63104819Y-85402380D02*
X63104819Y-84783333D01*
X143594819Y-62563333D02*
X144309104Y-62563333D01*
X144309104Y-62563333D02*
X144451961Y-62610952D01*
X144451961Y-62610952D02*
X144547200Y-62706190D01*
X144547200Y-62706190D02*
X144594819Y-62849047D01*
X144594819Y-62849047D02*
X144594819Y-62944285D01*
X143928152Y-61658571D02*
X144594819Y-61658571D01*
X143547200Y-61896666D02*
X144261485Y-62134761D01*
X144261485Y-62134761D02*
X144261485Y-61515714D01*
X127016666Y-58074819D02*
X127016666Y-58789104D01*
X127016666Y-58789104D02*
X126969047Y-58931961D01*
X126969047Y-58931961D02*
X126873809Y-59027200D01*
X126873809Y-59027200D02*
X126730952Y-59074819D01*
X126730952Y-59074819D02*
X126635714Y-59074819D01*
X127492857Y-59074819D02*
X127492857Y-58074819D01*
X127492857Y-58074819D02*
X127873809Y-58074819D01*
X127873809Y-58074819D02*
X127969047Y-58122438D01*
X127969047Y-58122438D02*
X128016666Y-58170057D01*
X128016666Y-58170057D02*
X128064285Y-58265295D01*
X128064285Y-58265295D02*
X128064285Y-58408152D01*
X128064285Y-58408152D02*
X128016666Y-58503390D01*
X128016666Y-58503390D02*
X127969047Y-58551009D01*
X127969047Y-58551009D02*
X127873809Y-58598628D01*
X127873809Y-58598628D02*
X127492857Y-58598628D01*
X128397619Y-58074819D02*
X129064285Y-58074819D01*
X129064285Y-58074819D02*
X128635714Y-59074819D01*
X79933333Y-91386819D02*
X79600000Y-90910628D01*
X79361905Y-91386819D02*
X79361905Y-90386819D01*
X79361905Y-90386819D02*
X79742857Y-90386819D01*
X79742857Y-90386819D02*
X79838095Y-90434438D01*
X79838095Y-90434438D02*
X79885714Y-90482057D01*
X79885714Y-90482057D02*
X79933333Y-90577295D01*
X79933333Y-90577295D02*
X79933333Y-90720152D01*
X79933333Y-90720152D02*
X79885714Y-90815390D01*
X79885714Y-90815390D02*
X79838095Y-90863009D01*
X79838095Y-90863009D02*
X79742857Y-90910628D01*
X79742857Y-90910628D02*
X79361905Y-90910628D01*
X80790476Y-90720152D02*
X80790476Y-91386819D01*
X80552381Y-90339200D02*
X80314286Y-91053485D01*
X80314286Y-91053485D02*
X80933333Y-91053485D01*
X94904819Y-67432857D02*
X94428628Y-67766190D01*
X94904819Y-68004285D02*
X93904819Y-68004285D01*
X93904819Y-68004285D02*
X93904819Y-67623333D01*
X93904819Y-67623333D02*
X93952438Y-67528095D01*
X93952438Y-67528095D02*
X94000057Y-67480476D01*
X94000057Y-67480476D02*
X94095295Y-67432857D01*
X94095295Y-67432857D02*
X94238152Y-67432857D01*
X94238152Y-67432857D02*
X94333390Y-67480476D01*
X94333390Y-67480476D02*
X94381009Y-67528095D01*
X94381009Y-67528095D02*
X94428628Y-67623333D01*
X94428628Y-67623333D02*
X94428628Y-68004285D01*
X94904819Y-66480476D02*
X94904819Y-67051904D01*
X94904819Y-66766190D02*
X93904819Y-66766190D01*
X93904819Y-66766190D02*
X94047676Y-66861428D01*
X94047676Y-66861428D02*
X94142914Y-66956666D01*
X94142914Y-66956666D02*
X94190533Y-67051904D01*
X94238152Y-65623333D02*
X94904819Y-65623333D01*
X93857200Y-65861428D02*
X94571485Y-66099523D01*
X94571485Y-66099523D02*
X94571485Y-65480476D01*
X79923333Y-88134819D02*
X79590000Y-87658628D01*
X79351905Y-88134819D02*
X79351905Y-87134819D01*
X79351905Y-87134819D02*
X79732857Y-87134819D01*
X79732857Y-87134819D02*
X79828095Y-87182438D01*
X79828095Y-87182438D02*
X79875714Y-87230057D01*
X79875714Y-87230057D02*
X79923333Y-87325295D01*
X79923333Y-87325295D02*
X79923333Y-87468152D01*
X79923333Y-87468152D02*
X79875714Y-87563390D01*
X79875714Y-87563390D02*
X79828095Y-87611009D01*
X79828095Y-87611009D02*
X79732857Y-87658628D01*
X79732857Y-87658628D02*
X79351905Y-87658628D01*
X80256667Y-87134819D02*
X80875714Y-87134819D01*
X80875714Y-87134819D02*
X80542381Y-87515771D01*
X80542381Y-87515771D02*
X80685238Y-87515771D01*
X80685238Y-87515771D02*
X80780476Y-87563390D01*
X80780476Y-87563390D02*
X80828095Y-87611009D01*
X80828095Y-87611009D02*
X80875714Y-87706247D01*
X80875714Y-87706247D02*
X80875714Y-87944342D01*
X80875714Y-87944342D02*
X80828095Y-88039580D01*
X80828095Y-88039580D02*
X80780476Y-88087200D01*
X80780476Y-88087200D02*
X80685238Y-88134819D01*
X80685238Y-88134819D02*
X80399524Y-88134819D01*
X80399524Y-88134819D02*
X80304286Y-88087200D01*
X80304286Y-88087200D02*
X80256667Y-88039580D01*
X125237142Y-80654819D02*
X124903809Y-80178628D01*
X124665714Y-80654819D02*
X124665714Y-79654819D01*
X124665714Y-79654819D02*
X125046666Y-79654819D01*
X125046666Y-79654819D02*
X125141904Y-79702438D01*
X125141904Y-79702438D02*
X125189523Y-79750057D01*
X125189523Y-79750057D02*
X125237142Y-79845295D01*
X125237142Y-79845295D02*
X125237142Y-79988152D01*
X125237142Y-79988152D02*
X125189523Y-80083390D01*
X125189523Y-80083390D02*
X125141904Y-80131009D01*
X125141904Y-80131009D02*
X125046666Y-80178628D01*
X125046666Y-80178628D02*
X124665714Y-80178628D01*
X125618095Y-79750057D02*
X125665714Y-79702438D01*
X125665714Y-79702438D02*
X125760952Y-79654819D01*
X125760952Y-79654819D02*
X125999047Y-79654819D01*
X125999047Y-79654819D02*
X126094285Y-79702438D01*
X126094285Y-79702438D02*
X126141904Y-79750057D01*
X126141904Y-79750057D02*
X126189523Y-79845295D01*
X126189523Y-79845295D02*
X126189523Y-79940533D01*
X126189523Y-79940533D02*
X126141904Y-80083390D01*
X126141904Y-80083390D02*
X125570476Y-80654819D01*
X125570476Y-80654819D02*
X126189523Y-80654819D01*
X127046666Y-79654819D02*
X126856190Y-79654819D01*
X126856190Y-79654819D02*
X126760952Y-79702438D01*
X126760952Y-79702438D02*
X126713333Y-79750057D01*
X126713333Y-79750057D02*
X126618095Y-79892914D01*
X126618095Y-79892914D02*
X126570476Y-80083390D01*
X126570476Y-80083390D02*
X126570476Y-80464342D01*
X126570476Y-80464342D02*
X126618095Y-80559580D01*
X126618095Y-80559580D02*
X126665714Y-80607200D01*
X126665714Y-80607200D02*
X126760952Y-80654819D01*
X126760952Y-80654819D02*
X126951428Y-80654819D01*
X126951428Y-80654819D02*
X127046666Y-80607200D01*
X127046666Y-80607200D02*
X127094285Y-80559580D01*
X127094285Y-80559580D02*
X127141904Y-80464342D01*
X127141904Y-80464342D02*
X127141904Y-80226247D01*
X127141904Y-80226247D02*
X127094285Y-80131009D01*
X127094285Y-80131009D02*
X127046666Y-80083390D01*
X127046666Y-80083390D02*
X126951428Y-80035771D01*
X126951428Y-80035771D02*
X126760952Y-80035771D01*
X126760952Y-80035771D02*
X126665714Y-80083390D01*
X126665714Y-80083390D02*
X126618095Y-80131009D01*
X126618095Y-80131009D02*
X126570476Y-80226247D01*
X117137142Y-74654819D02*
X116803809Y-74178628D01*
X116565714Y-74654819D02*
X116565714Y-73654819D01*
X116565714Y-73654819D02*
X116946666Y-73654819D01*
X116946666Y-73654819D02*
X117041904Y-73702438D01*
X117041904Y-73702438D02*
X117089523Y-73750057D01*
X117089523Y-73750057D02*
X117137142Y-73845295D01*
X117137142Y-73845295D02*
X117137142Y-73988152D01*
X117137142Y-73988152D02*
X117089523Y-74083390D01*
X117089523Y-74083390D02*
X117041904Y-74131009D01*
X117041904Y-74131009D02*
X116946666Y-74178628D01*
X116946666Y-74178628D02*
X116565714Y-74178628D01*
X117518095Y-73750057D02*
X117565714Y-73702438D01*
X117565714Y-73702438D02*
X117660952Y-73654819D01*
X117660952Y-73654819D02*
X117899047Y-73654819D01*
X117899047Y-73654819D02*
X117994285Y-73702438D01*
X117994285Y-73702438D02*
X118041904Y-73750057D01*
X118041904Y-73750057D02*
X118089523Y-73845295D01*
X118089523Y-73845295D02*
X118089523Y-73940533D01*
X118089523Y-73940533D02*
X118041904Y-74083390D01*
X118041904Y-74083390D02*
X117470476Y-74654819D01*
X117470476Y-74654819D02*
X118089523Y-74654819D01*
X118994285Y-73654819D02*
X118518095Y-73654819D01*
X118518095Y-73654819D02*
X118470476Y-74131009D01*
X118470476Y-74131009D02*
X118518095Y-74083390D01*
X118518095Y-74083390D02*
X118613333Y-74035771D01*
X118613333Y-74035771D02*
X118851428Y-74035771D01*
X118851428Y-74035771D02*
X118946666Y-74083390D01*
X118946666Y-74083390D02*
X118994285Y-74131009D01*
X118994285Y-74131009D02*
X119041904Y-74226247D01*
X119041904Y-74226247D02*
X119041904Y-74464342D01*
X119041904Y-74464342D02*
X118994285Y-74559580D01*
X118994285Y-74559580D02*
X118946666Y-74607200D01*
X118946666Y-74607200D02*
X118851428Y-74654819D01*
X118851428Y-74654819D02*
X118613333Y-74654819D01*
X118613333Y-74654819D02*
X118518095Y-74607200D01*
X118518095Y-74607200D02*
X118470476Y-74559580D01*
X98254819Y-67252857D02*
X97778628Y-67586190D01*
X98254819Y-67824285D02*
X97254819Y-67824285D01*
X97254819Y-67824285D02*
X97254819Y-67443333D01*
X97254819Y-67443333D02*
X97302438Y-67348095D01*
X97302438Y-67348095D02*
X97350057Y-67300476D01*
X97350057Y-67300476D02*
X97445295Y-67252857D01*
X97445295Y-67252857D02*
X97588152Y-67252857D01*
X97588152Y-67252857D02*
X97683390Y-67300476D01*
X97683390Y-67300476D02*
X97731009Y-67348095D01*
X97731009Y-67348095D02*
X97778628Y-67443333D01*
X97778628Y-67443333D02*
X97778628Y-67824285D01*
X98254819Y-66300476D02*
X98254819Y-66871904D01*
X98254819Y-66586190D02*
X97254819Y-66586190D01*
X97254819Y-66586190D02*
X97397676Y-66681428D01*
X97397676Y-66681428D02*
X97492914Y-66776666D01*
X97492914Y-66776666D02*
X97540533Y-66871904D01*
X97254819Y-65967142D02*
X97254819Y-65348095D01*
X97254819Y-65348095D02*
X97635771Y-65681428D01*
X97635771Y-65681428D02*
X97635771Y-65538571D01*
X97635771Y-65538571D02*
X97683390Y-65443333D01*
X97683390Y-65443333D02*
X97731009Y-65395714D01*
X97731009Y-65395714D02*
X97826247Y-65348095D01*
X97826247Y-65348095D02*
X98064342Y-65348095D01*
X98064342Y-65348095D02*
X98159580Y-65395714D01*
X98159580Y-65395714D02*
X98207200Y-65443333D01*
X98207200Y-65443333D02*
X98254819Y-65538571D01*
X98254819Y-65538571D02*
X98254819Y-65824285D01*
X98254819Y-65824285D02*
X98207200Y-65919523D01*
X98207200Y-65919523D02*
X98159580Y-65967142D01*
X67651333Y-77162819D02*
X67318000Y-76686628D01*
X67079905Y-77162819D02*
X67079905Y-76162819D01*
X67079905Y-76162819D02*
X67460857Y-76162819D01*
X67460857Y-76162819D02*
X67556095Y-76210438D01*
X67556095Y-76210438D02*
X67603714Y-76258057D01*
X67603714Y-76258057D02*
X67651333Y-76353295D01*
X67651333Y-76353295D02*
X67651333Y-76496152D01*
X67651333Y-76496152D02*
X67603714Y-76591390D01*
X67603714Y-76591390D02*
X67556095Y-76639009D01*
X67556095Y-76639009D02*
X67460857Y-76686628D01*
X67460857Y-76686628D02*
X67079905Y-76686628D01*
X68127524Y-77162819D02*
X68318000Y-77162819D01*
X68318000Y-77162819D02*
X68413238Y-77115200D01*
X68413238Y-77115200D02*
X68460857Y-77067580D01*
X68460857Y-77067580D02*
X68556095Y-76924723D01*
X68556095Y-76924723D02*
X68603714Y-76734247D01*
X68603714Y-76734247D02*
X68603714Y-76353295D01*
X68603714Y-76353295D02*
X68556095Y-76258057D01*
X68556095Y-76258057D02*
X68508476Y-76210438D01*
X68508476Y-76210438D02*
X68413238Y-76162819D01*
X68413238Y-76162819D02*
X68222762Y-76162819D01*
X68222762Y-76162819D02*
X68127524Y-76210438D01*
X68127524Y-76210438D02*
X68079905Y-76258057D01*
X68079905Y-76258057D02*
X68032286Y-76353295D01*
X68032286Y-76353295D02*
X68032286Y-76591390D01*
X68032286Y-76591390D02*
X68079905Y-76686628D01*
X68079905Y-76686628D02*
X68127524Y-76734247D01*
X68127524Y-76734247D02*
X68222762Y-76781866D01*
X68222762Y-76781866D02*
X68413238Y-76781866D01*
X68413238Y-76781866D02*
X68508476Y-76734247D01*
X68508476Y-76734247D02*
X68556095Y-76686628D01*
X68556095Y-76686628D02*
X68603714Y-76591390D01*
X91414819Y-67382857D02*
X90938628Y-67716190D01*
X91414819Y-67954285D02*
X90414819Y-67954285D01*
X90414819Y-67954285D02*
X90414819Y-67573333D01*
X90414819Y-67573333D02*
X90462438Y-67478095D01*
X90462438Y-67478095D02*
X90510057Y-67430476D01*
X90510057Y-67430476D02*
X90605295Y-67382857D01*
X90605295Y-67382857D02*
X90748152Y-67382857D01*
X90748152Y-67382857D02*
X90843390Y-67430476D01*
X90843390Y-67430476D02*
X90891009Y-67478095D01*
X90891009Y-67478095D02*
X90938628Y-67573333D01*
X90938628Y-67573333D02*
X90938628Y-67954285D01*
X91414819Y-66430476D02*
X91414819Y-67001904D01*
X91414819Y-66716190D02*
X90414819Y-66716190D01*
X90414819Y-66716190D02*
X90557676Y-66811428D01*
X90557676Y-66811428D02*
X90652914Y-66906666D01*
X90652914Y-66906666D02*
X90700533Y-67001904D01*
X90414819Y-65525714D02*
X90414819Y-66001904D01*
X90414819Y-66001904D02*
X90891009Y-66049523D01*
X90891009Y-66049523D02*
X90843390Y-66001904D01*
X90843390Y-66001904D02*
X90795771Y-65906666D01*
X90795771Y-65906666D02*
X90795771Y-65668571D01*
X90795771Y-65668571D02*
X90843390Y-65573333D01*
X90843390Y-65573333D02*
X90891009Y-65525714D01*
X90891009Y-65525714D02*
X90986247Y-65478095D01*
X90986247Y-65478095D02*
X91224342Y-65478095D01*
X91224342Y-65478095D02*
X91319580Y-65525714D01*
X91319580Y-65525714D02*
X91367200Y-65573333D01*
X91367200Y-65573333D02*
X91414819Y-65668571D01*
X91414819Y-65668571D02*
X91414819Y-65906666D01*
X91414819Y-65906666D02*
X91367200Y-66001904D01*
X91367200Y-66001904D02*
X91319580Y-66049523D01*
X79024761Y-56670057D02*
X78929523Y-56622438D01*
X78929523Y-56622438D02*
X78834285Y-56527200D01*
X78834285Y-56527200D02*
X78691428Y-56384342D01*
X78691428Y-56384342D02*
X78596190Y-56336723D01*
X78596190Y-56336723D02*
X78500952Y-56336723D01*
X78548571Y-56574819D02*
X78453333Y-56527200D01*
X78453333Y-56527200D02*
X78358095Y-56431961D01*
X78358095Y-56431961D02*
X78310476Y-56241485D01*
X78310476Y-56241485D02*
X78310476Y-55908152D01*
X78310476Y-55908152D02*
X78358095Y-55717676D01*
X78358095Y-55717676D02*
X78453333Y-55622438D01*
X78453333Y-55622438D02*
X78548571Y-55574819D01*
X78548571Y-55574819D02*
X78739047Y-55574819D01*
X78739047Y-55574819D02*
X78834285Y-55622438D01*
X78834285Y-55622438D02*
X78929523Y-55717676D01*
X78929523Y-55717676D02*
X78977142Y-55908152D01*
X78977142Y-55908152D02*
X78977142Y-56241485D01*
X78977142Y-56241485D02*
X78929523Y-56431961D01*
X78929523Y-56431961D02*
X78834285Y-56527200D01*
X78834285Y-56527200D02*
X78739047Y-56574819D01*
X78739047Y-56574819D02*
X78548571Y-56574819D01*
X79929523Y-56574819D02*
X79358095Y-56574819D01*
X79643809Y-56574819D02*
X79643809Y-55574819D01*
X79643809Y-55574819D02*
X79548571Y-55717676D01*
X79548571Y-55717676D02*
X79453333Y-55812914D01*
X79453333Y-55812914D02*
X79358095Y-55860533D01*
X109018095Y-72594819D02*
X109018095Y-73404342D01*
X109018095Y-73404342D02*
X109065714Y-73499580D01*
X109065714Y-73499580D02*
X109113333Y-73547200D01*
X109113333Y-73547200D02*
X109208571Y-73594819D01*
X109208571Y-73594819D02*
X109399047Y-73594819D01*
X109399047Y-73594819D02*
X109494285Y-73547200D01*
X109494285Y-73547200D02*
X109541904Y-73499580D01*
X109541904Y-73499580D02*
X109589523Y-73404342D01*
X109589523Y-73404342D02*
X109589523Y-72594819D01*
X109970476Y-72594819D02*
X110589523Y-72594819D01*
X110589523Y-72594819D02*
X110256190Y-72975771D01*
X110256190Y-72975771D02*
X110399047Y-72975771D01*
X110399047Y-72975771D02*
X110494285Y-73023390D01*
X110494285Y-73023390D02*
X110541904Y-73071009D01*
X110541904Y-73071009D02*
X110589523Y-73166247D01*
X110589523Y-73166247D02*
X110589523Y-73404342D01*
X110589523Y-73404342D02*
X110541904Y-73499580D01*
X110541904Y-73499580D02*
X110494285Y-73547200D01*
X110494285Y-73547200D02*
X110399047Y-73594819D01*
X110399047Y-73594819D02*
X110113333Y-73594819D01*
X110113333Y-73594819D02*
X110018095Y-73547200D01*
X110018095Y-73547200D02*
X109970476Y-73499580D01*
X68413333Y-84020819D02*
X68080000Y-83544628D01*
X67841905Y-84020819D02*
X67841905Y-83020819D01*
X67841905Y-83020819D02*
X68222857Y-83020819D01*
X68222857Y-83020819D02*
X68318095Y-83068438D01*
X68318095Y-83068438D02*
X68365714Y-83116057D01*
X68365714Y-83116057D02*
X68413333Y-83211295D01*
X68413333Y-83211295D02*
X68413333Y-83354152D01*
X68413333Y-83354152D02*
X68365714Y-83449390D01*
X68365714Y-83449390D02*
X68318095Y-83497009D01*
X68318095Y-83497009D02*
X68222857Y-83544628D01*
X68222857Y-83544628D02*
X67841905Y-83544628D01*
X68984762Y-83449390D02*
X68889524Y-83401771D01*
X68889524Y-83401771D02*
X68841905Y-83354152D01*
X68841905Y-83354152D02*
X68794286Y-83258914D01*
X68794286Y-83258914D02*
X68794286Y-83211295D01*
X68794286Y-83211295D02*
X68841905Y-83116057D01*
X68841905Y-83116057D02*
X68889524Y-83068438D01*
X68889524Y-83068438D02*
X68984762Y-83020819D01*
X68984762Y-83020819D02*
X69175238Y-83020819D01*
X69175238Y-83020819D02*
X69270476Y-83068438D01*
X69270476Y-83068438D02*
X69318095Y-83116057D01*
X69318095Y-83116057D02*
X69365714Y-83211295D01*
X69365714Y-83211295D02*
X69365714Y-83258914D01*
X69365714Y-83258914D02*
X69318095Y-83354152D01*
X69318095Y-83354152D02*
X69270476Y-83401771D01*
X69270476Y-83401771D02*
X69175238Y-83449390D01*
X69175238Y-83449390D02*
X68984762Y-83449390D01*
X68984762Y-83449390D02*
X68889524Y-83497009D01*
X68889524Y-83497009D02*
X68841905Y-83544628D01*
X68841905Y-83544628D02*
X68794286Y-83639866D01*
X68794286Y-83639866D02*
X68794286Y-83830342D01*
X68794286Y-83830342D02*
X68841905Y-83925580D01*
X68841905Y-83925580D02*
X68889524Y-83973200D01*
X68889524Y-83973200D02*
X68984762Y-84020819D01*
X68984762Y-84020819D02*
X69175238Y-84020819D01*
X69175238Y-84020819D02*
X69270476Y-83973200D01*
X69270476Y-83973200D02*
X69318095Y-83925580D01*
X69318095Y-83925580D02*
X69365714Y-83830342D01*
X69365714Y-83830342D02*
X69365714Y-83639866D01*
X69365714Y-83639866D02*
X69318095Y-83544628D01*
X69318095Y-83544628D02*
X69270476Y-83497009D01*
X69270476Y-83497009D02*
X69175238Y-83449390D01*
X147126666Y-85084819D02*
X147126666Y-85799104D01*
X147126666Y-85799104D02*
X147079047Y-85941961D01*
X147079047Y-85941961D02*
X146983809Y-86037200D01*
X146983809Y-86037200D02*
X146840952Y-86084819D01*
X146840952Y-86084819D02*
X146745714Y-86084819D01*
X147602857Y-86084819D02*
X147602857Y-85084819D01*
X147602857Y-85084819D02*
X147983809Y-85084819D01*
X147983809Y-85084819D02*
X148079047Y-85132438D01*
X148079047Y-85132438D02*
X148126666Y-85180057D01*
X148126666Y-85180057D02*
X148174285Y-85275295D01*
X148174285Y-85275295D02*
X148174285Y-85418152D01*
X148174285Y-85418152D02*
X148126666Y-85513390D01*
X148126666Y-85513390D02*
X148079047Y-85561009D01*
X148079047Y-85561009D02*
X147983809Y-85608628D01*
X147983809Y-85608628D02*
X147602857Y-85608628D01*
X149126666Y-86084819D02*
X148555238Y-86084819D01*
X148840952Y-86084819D02*
X148840952Y-85084819D01*
X148840952Y-85084819D02*
X148745714Y-85227676D01*
X148745714Y-85227676D02*
X148650476Y-85322914D01*
X148650476Y-85322914D02*
X148555238Y-85370533D01*
X101488095Y-71254819D02*
X101488095Y-72064342D01*
X101488095Y-72064342D02*
X101535714Y-72159580D01*
X101535714Y-72159580D02*
X101583333Y-72207200D01*
X101583333Y-72207200D02*
X101678571Y-72254819D01*
X101678571Y-72254819D02*
X101869047Y-72254819D01*
X101869047Y-72254819D02*
X101964285Y-72207200D01*
X101964285Y-72207200D02*
X102011904Y-72159580D01*
X102011904Y-72159580D02*
X102059523Y-72064342D01*
X102059523Y-72064342D02*
X102059523Y-71254819D01*
X103059523Y-72254819D02*
X102488095Y-72254819D01*
X102773809Y-72254819D02*
X102773809Y-71254819D01*
X102773809Y-71254819D02*
X102678571Y-71397676D01*
X102678571Y-71397676D02*
X102583333Y-71492914D01*
X102583333Y-71492914D02*
X102488095Y-71540533D01*
X91654819Y-87988094D02*
X90654819Y-87988094D01*
X90654819Y-87988094D02*
X90654819Y-87749999D01*
X90654819Y-87749999D02*
X90702438Y-87607142D01*
X90702438Y-87607142D02*
X90797676Y-87511904D01*
X90797676Y-87511904D02*
X90892914Y-87464285D01*
X90892914Y-87464285D02*
X91083390Y-87416666D01*
X91083390Y-87416666D02*
X91226247Y-87416666D01*
X91226247Y-87416666D02*
X91416723Y-87464285D01*
X91416723Y-87464285D02*
X91511961Y-87511904D01*
X91511961Y-87511904D02*
X91607200Y-87607142D01*
X91607200Y-87607142D02*
X91654819Y-87749999D01*
X91654819Y-87749999D02*
X91654819Y-87988094D01*
X90750057Y-87035713D02*
X90702438Y-86988094D01*
X90702438Y-86988094D02*
X90654819Y-86892856D01*
X90654819Y-86892856D02*
X90654819Y-86654761D01*
X90654819Y-86654761D02*
X90702438Y-86559523D01*
X90702438Y-86559523D02*
X90750057Y-86511904D01*
X90750057Y-86511904D02*
X90845295Y-86464285D01*
X90845295Y-86464285D02*
X90940533Y-86464285D01*
X90940533Y-86464285D02*
X91083390Y-86511904D01*
X91083390Y-86511904D02*
X91654819Y-87083332D01*
X91654819Y-87083332D02*
X91654819Y-86464285D01*
X95154819Y-87938094D02*
X94154819Y-87938094D01*
X94154819Y-87938094D02*
X94154819Y-87699999D01*
X94154819Y-87699999D02*
X94202438Y-87557142D01*
X94202438Y-87557142D02*
X94297676Y-87461904D01*
X94297676Y-87461904D02*
X94392914Y-87414285D01*
X94392914Y-87414285D02*
X94583390Y-87366666D01*
X94583390Y-87366666D02*
X94726247Y-87366666D01*
X94726247Y-87366666D02*
X94916723Y-87414285D01*
X94916723Y-87414285D02*
X95011961Y-87461904D01*
X95011961Y-87461904D02*
X95107200Y-87557142D01*
X95107200Y-87557142D02*
X95154819Y-87699999D01*
X95154819Y-87699999D02*
X95154819Y-87938094D01*
X94154819Y-87033332D02*
X94154819Y-86414285D01*
X94154819Y-86414285D02*
X94535771Y-86747618D01*
X94535771Y-86747618D02*
X94535771Y-86604761D01*
X94535771Y-86604761D02*
X94583390Y-86509523D01*
X94583390Y-86509523D02*
X94631009Y-86461904D01*
X94631009Y-86461904D02*
X94726247Y-86414285D01*
X94726247Y-86414285D02*
X94964342Y-86414285D01*
X94964342Y-86414285D02*
X95059580Y-86461904D01*
X95059580Y-86461904D02*
X95107200Y-86509523D01*
X95107200Y-86509523D02*
X95154819Y-86604761D01*
X95154819Y-86604761D02*
X95154819Y-86890475D01*
X95154819Y-86890475D02*
X95107200Y-86985713D01*
X95107200Y-86985713D02*
X95059580Y-87033332D01*
X101908095Y-87094819D02*
X101908095Y-87904342D01*
X101908095Y-87904342D02*
X101955714Y-87999580D01*
X101955714Y-87999580D02*
X102003333Y-88047200D01*
X102003333Y-88047200D02*
X102098571Y-88094819D01*
X102098571Y-88094819D02*
X102289047Y-88094819D01*
X102289047Y-88094819D02*
X102384285Y-88047200D01*
X102384285Y-88047200D02*
X102431904Y-87999580D01*
X102431904Y-87999580D02*
X102479523Y-87904342D01*
X102479523Y-87904342D02*
X102479523Y-87094819D01*
X102908095Y-87190057D02*
X102955714Y-87142438D01*
X102955714Y-87142438D02*
X103050952Y-87094819D01*
X103050952Y-87094819D02*
X103289047Y-87094819D01*
X103289047Y-87094819D02*
X103384285Y-87142438D01*
X103384285Y-87142438D02*
X103431904Y-87190057D01*
X103431904Y-87190057D02*
X103479523Y-87285295D01*
X103479523Y-87285295D02*
X103479523Y-87380533D01*
X103479523Y-87380533D02*
X103431904Y-87523390D01*
X103431904Y-87523390D02*
X102860476Y-88094819D01*
X102860476Y-88094819D02*
X103479523Y-88094819D01*
X68413333Y-94030819D02*
X68080000Y-93554628D01*
X67841905Y-94030819D02*
X67841905Y-93030819D01*
X67841905Y-93030819D02*
X68222857Y-93030819D01*
X68222857Y-93030819D02*
X68318095Y-93078438D01*
X68318095Y-93078438D02*
X68365714Y-93126057D01*
X68365714Y-93126057D02*
X68413333Y-93221295D01*
X68413333Y-93221295D02*
X68413333Y-93364152D01*
X68413333Y-93364152D02*
X68365714Y-93459390D01*
X68365714Y-93459390D02*
X68318095Y-93507009D01*
X68318095Y-93507009D02*
X68222857Y-93554628D01*
X68222857Y-93554628D02*
X67841905Y-93554628D01*
X69318095Y-93030819D02*
X68841905Y-93030819D01*
X68841905Y-93030819D02*
X68794286Y-93507009D01*
X68794286Y-93507009D02*
X68841905Y-93459390D01*
X68841905Y-93459390D02*
X68937143Y-93411771D01*
X68937143Y-93411771D02*
X69175238Y-93411771D01*
X69175238Y-93411771D02*
X69270476Y-93459390D01*
X69270476Y-93459390D02*
X69318095Y-93507009D01*
X69318095Y-93507009D02*
X69365714Y-93602247D01*
X69365714Y-93602247D02*
X69365714Y-93840342D01*
X69365714Y-93840342D02*
X69318095Y-93935580D01*
X69318095Y-93935580D02*
X69270476Y-93983200D01*
X69270476Y-93983200D02*
X69175238Y-94030819D01*
X69175238Y-94030819D02*
X68937143Y-94030819D01*
X68937143Y-94030819D02*
X68841905Y-93983200D01*
X68841905Y-93983200D02*
X68794286Y-93935580D01*
X88204819Y-87188094D02*
X87204819Y-87188094D01*
X87204819Y-87188094D02*
X87204819Y-86949999D01*
X87204819Y-86949999D02*
X87252438Y-86807142D01*
X87252438Y-86807142D02*
X87347676Y-86711904D01*
X87347676Y-86711904D02*
X87442914Y-86664285D01*
X87442914Y-86664285D02*
X87633390Y-86616666D01*
X87633390Y-86616666D02*
X87776247Y-86616666D01*
X87776247Y-86616666D02*
X87966723Y-86664285D01*
X87966723Y-86664285D02*
X88061961Y-86711904D01*
X88061961Y-86711904D02*
X88157200Y-86807142D01*
X88157200Y-86807142D02*
X88204819Y-86949999D01*
X88204819Y-86949999D02*
X88204819Y-87188094D01*
X87538152Y-85759523D02*
X88204819Y-85759523D01*
X87157200Y-85997618D02*
X87871485Y-86235713D01*
X87871485Y-86235713D02*
X87871485Y-85616666D01*
X98504819Y-87238094D02*
X97504819Y-87238094D01*
X97504819Y-87238094D02*
X97504819Y-86999999D01*
X97504819Y-86999999D02*
X97552438Y-86857142D01*
X97552438Y-86857142D02*
X97647676Y-86761904D01*
X97647676Y-86761904D02*
X97742914Y-86714285D01*
X97742914Y-86714285D02*
X97933390Y-86666666D01*
X97933390Y-86666666D02*
X98076247Y-86666666D01*
X98076247Y-86666666D02*
X98266723Y-86714285D01*
X98266723Y-86714285D02*
X98361961Y-86761904D01*
X98361961Y-86761904D02*
X98457200Y-86857142D01*
X98457200Y-86857142D02*
X98504819Y-86999999D01*
X98504819Y-86999999D02*
X98504819Y-87238094D01*
X98504819Y-85714285D02*
X98504819Y-86285713D01*
X98504819Y-85999999D02*
X97504819Y-85999999D01*
X97504819Y-85999999D02*
X97647676Y-86095237D01*
X97647676Y-86095237D02*
X97742914Y-86190475D01*
X97742914Y-86190475D02*
X97790533Y-86285713D01*
X136076666Y-84774819D02*
X136076666Y-85489104D01*
X136076666Y-85489104D02*
X136029047Y-85631961D01*
X136029047Y-85631961D02*
X135933809Y-85727200D01*
X135933809Y-85727200D02*
X135790952Y-85774819D01*
X135790952Y-85774819D02*
X135695714Y-85774819D01*
X136552857Y-85774819D02*
X136552857Y-84774819D01*
X136552857Y-84774819D02*
X136933809Y-84774819D01*
X136933809Y-84774819D02*
X137029047Y-84822438D01*
X137029047Y-84822438D02*
X137076666Y-84870057D01*
X137076666Y-84870057D02*
X137124285Y-84965295D01*
X137124285Y-84965295D02*
X137124285Y-85108152D01*
X137124285Y-85108152D02*
X137076666Y-85203390D01*
X137076666Y-85203390D02*
X137029047Y-85251009D01*
X137029047Y-85251009D02*
X136933809Y-85298628D01*
X136933809Y-85298628D02*
X136552857Y-85298628D01*
X137457619Y-84774819D02*
X138076666Y-84774819D01*
X138076666Y-84774819D02*
X137743333Y-85155771D01*
X137743333Y-85155771D02*
X137886190Y-85155771D01*
X137886190Y-85155771D02*
X137981428Y-85203390D01*
X137981428Y-85203390D02*
X138029047Y-85251009D01*
X138029047Y-85251009D02*
X138076666Y-85346247D01*
X138076666Y-85346247D02*
X138076666Y-85584342D01*
X138076666Y-85584342D02*
X138029047Y-85679580D01*
X138029047Y-85679580D02*
X137981428Y-85727200D01*
X137981428Y-85727200D02*
X137886190Y-85774819D01*
X137886190Y-85774819D02*
X137600476Y-85774819D01*
X137600476Y-85774819D02*
X137505238Y-85727200D01*
X137505238Y-85727200D02*
X137457619Y-85679580D01*
X80127333Y-84468819D02*
X79794000Y-83992628D01*
X79555905Y-84468819D02*
X79555905Y-83468819D01*
X79555905Y-83468819D02*
X79936857Y-83468819D01*
X79936857Y-83468819D02*
X80032095Y-83516438D01*
X80032095Y-83516438D02*
X80079714Y-83564057D01*
X80079714Y-83564057D02*
X80127333Y-83659295D01*
X80127333Y-83659295D02*
X80127333Y-83802152D01*
X80127333Y-83802152D02*
X80079714Y-83897390D01*
X80079714Y-83897390D02*
X80032095Y-83945009D01*
X80032095Y-83945009D02*
X79936857Y-83992628D01*
X79936857Y-83992628D02*
X79555905Y-83992628D01*
X80508286Y-83564057D02*
X80555905Y-83516438D01*
X80555905Y-83516438D02*
X80651143Y-83468819D01*
X80651143Y-83468819D02*
X80889238Y-83468819D01*
X80889238Y-83468819D02*
X80984476Y-83516438D01*
X80984476Y-83516438D02*
X81032095Y-83564057D01*
X81032095Y-83564057D02*
X81079714Y-83659295D01*
X81079714Y-83659295D02*
X81079714Y-83754533D01*
X81079714Y-83754533D02*
X81032095Y-83897390D01*
X81032095Y-83897390D02*
X80460667Y-84468819D01*
X80460667Y-84468819D02*
X81079714Y-84468819D01*
X115440057Y-80405238D02*
X115392438Y-80500476D01*
X115392438Y-80500476D02*
X115297200Y-80595714D01*
X115297200Y-80595714D02*
X115154342Y-80738571D01*
X115154342Y-80738571D02*
X115106723Y-80833809D01*
X115106723Y-80833809D02*
X115106723Y-80929047D01*
X115344819Y-80881428D02*
X115297200Y-80976666D01*
X115297200Y-80976666D02*
X115201961Y-81071904D01*
X115201961Y-81071904D02*
X115011485Y-81119523D01*
X115011485Y-81119523D02*
X114678152Y-81119523D01*
X114678152Y-81119523D02*
X114487676Y-81071904D01*
X114487676Y-81071904D02*
X114392438Y-80976666D01*
X114392438Y-80976666D02*
X114344819Y-80881428D01*
X114344819Y-80881428D02*
X114344819Y-80690952D01*
X114344819Y-80690952D02*
X114392438Y-80595714D01*
X114392438Y-80595714D02*
X114487676Y-80500476D01*
X114487676Y-80500476D02*
X114678152Y-80452857D01*
X114678152Y-80452857D02*
X115011485Y-80452857D01*
X115011485Y-80452857D02*
X115201961Y-80500476D01*
X115201961Y-80500476D02*
X115297200Y-80595714D01*
X115297200Y-80595714D02*
X115344819Y-80690952D01*
X115344819Y-80690952D02*
X115344819Y-80881428D01*
X114440057Y-80071904D02*
X114392438Y-80024285D01*
X114392438Y-80024285D02*
X114344819Y-79929047D01*
X114344819Y-79929047D02*
X114344819Y-79690952D01*
X114344819Y-79690952D02*
X114392438Y-79595714D01*
X114392438Y-79595714D02*
X114440057Y-79548095D01*
X114440057Y-79548095D02*
X114535295Y-79500476D01*
X114535295Y-79500476D02*
X114630533Y-79500476D01*
X114630533Y-79500476D02*
X114773390Y-79548095D01*
X114773390Y-79548095D02*
X115344819Y-80119523D01*
X115344819Y-80119523D02*
X115344819Y-79500476D01*
X123244819Y-91333333D02*
X123959104Y-91333333D01*
X123959104Y-91333333D02*
X124101961Y-91380952D01*
X124101961Y-91380952D02*
X124197200Y-91476190D01*
X124197200Y-91476190D02*
X124244819Y-91619047D01*
X124244819Y-91619047D02*
X124244819Y-91714285D01*
X123244819Y-90952380D02*
X123244819Y-90333333D01*
X123244819Y-90333333D02*
X123625771Y-90666666D01*
X123625771Y-90666666D02*
X123625771Y-90523809D01*
X123625771Y-90523809D02*
X123673390Y-90428571D01*
X123673390Y-90428571D02*
X123721009Y-90380952D01*
X123721009Y-90380952D02*
X123816247Y-90333333D01*
X123816247Y-90333333D02*
X124054342Y-90333333D01*
X124054342Y-90333333D02*
X124149580Y-90380952D01*
X124149580Y-90380952D02*
X124197200Y-90428571D01*
X124197200Y-90428571D02*
X124244819Y-90523809D01*
X124244819Y-90523809D02*
X124244819Y-90809523D01*
X124244819Y-90809523D02*
X124197200Y-90904761D01*
X124197200Y-90904761D02*
X124149580Y-90952380D01*
X137194819Y-76052857D02*
X136718628Y-76386190D01*
X137194819Y-76624285D02*
X136194819Y-76624285D01*
X136194819Y-76624285D02*
X136194819Y-76243333D01*
X136194819Y-76243333D02*
X136242438Y-76148095D01*
X136242438Y-76148095D02*
X136290057Y-76100476D01*
X136290057Y-76100476D02*
X136385295Y-76052857D01*
X136385295Y-76052857D02*
X136528152Y-76052857D01*
X136528152Y-76052857D02*
X136623390Y-76100476D01*
X136623390Y-76100476D02*
X136671009Y-76148095D01*
X136671009Y-76148095D02*
X136718628Y-76243333D01*
X136718628Y-76243333D02*
X136718628Y-76624285D01*
X137194819Y-75100476D02*
X137194819Y-75671904D01*
X137194819Y-75386190D02*
X136194819Y-75386190D01*
X136194819Y-75386190D02*
X136337676Y-75481428D01*
X136337676Y-75481428D02*
X136432914Y-75576666D01*
X136432914Y-75576666D02*
X136480533Y-75671904D01*
X137194819Y-74624285D02*
X137194819Y-74433809D01*
X137194819Y-74433809D02*
X137147200Y-74338571D01*
X137147200Y-74338571D02*
X137099580Y-74290952D01*
X137099580Y-74290952D02*
X136956723Y-74195714D01*
X136956723Y-74195714D02*
X136766247Y-74148095D01*
X136766247Y-74148095D02*
X136385295Y-74148095D01*
X136385295Y-74148095D02*
X136290057Y-74195714D01*
X136290057Y-74195714D02*
X136242438Y-74243333D01*
X136242438Y-74243333D02*
X136194819Y-74338571D01*
X136194819Y-74338571D02*
X136194819Y-74529047D01*
X136194819Y-74529047D02*
X136242438Y-74624285D01*
X136242438Y-74624285D02*
X136290057Y-74671904D01*
X136290057Y-74671904D02*
X136385295Y-74719523D01*
X136385295Y-74719523D02*
X136623390Y-74719523D01*
X136623390Y-74719523D02*
X136718628Y-74671904D01*
X136718628Y-74671904D02*
X136766247Y-74624285D01*
X136766247Y-74624285D02*
X136813866Y-74529047D01*
X136813866Y-74529047D02*
X136813866Y-74338571D01*
X136813866Y-74338571D02*
X136766247Y-74243333D01*
X136766247Y-74243333D02*
X136718628Y-74195714D01*
X136718628Y-74195714D02*
X136623390Y-74148095D01*
X67175142Y-70050819D02*
X66841809Y-69574628D01*
X66603714Y-70050819D02*
X66603714Y-69050819D01*
X66603714Y-69050819D02*
X66984666Y-69050819D01*
X66984666Y-69050819D02*
X67079904Y-69098438D01*
X67079904Y-69098438D02*
X67127523Y-69146057D01*
X67127523Y-69146057D02*
X67175142Y-69241295D01*
X67175142Y-69241295D02*
X67175142Y-69384152D01*
X67175142Y-69384152D02*
X67127523Y-69479390D01*
X67127523Y-69479390D02*
X67079904Y-69527009D01*
X67079904Y-69527009D02*
X66984666Y-69574628D01*
X66984666Y-69574628D02*
X66603714Y-69574628D01*
X68127523Y-70050819D02*
X67556095Y-70050819D01*
X67841809Y-70050819D02*
X67841809Y-69050819D01*
X67841809Y-69050819D02*
X67746571Y-69193676D01*
X67746571Y-69193676D02*
X67651333Y-69288914D01*
X67651333Y-69288914D02*
X67556095Y-69336533D01*
X69079904Y-70050819D02*
X68508476Y-70050819D01*
X68794190Y-70050819D02*
X68794190Y-69050819D01*
X68794190Y-69050819D02*
X68698952Y-69193676D01*
X68698952Y-69193676D02*
X68603714Y-69288914D01*
X68603714Y-69288914D02*
X68508476Y-69336533D01*
X67175142Y-73606819D02*
X66841809Y-73130628D01*
X66603714Y-73606819D02*
X66603714Y-72606819D01*
X66603714Y-72606819D02*
X66984666Y-72606819D01*
X66984666Y-72606819D02*
X67079904Y-72654438D01*
X67079904Y-72654438D02*
X67127523Y-72702057D01*
X67127523Y-72702057D02*
X67175142Y-72797295D01*
X67175142Y-72797295D02*
X67175142Y-72940152D01*
X67175142Y-72940152D02*
X67127523Y-73035390D01*
X67127523Y-73035390D02*
X67079904Y-73083009D01*
X67079904Y-73083009D02*
X66984666Y-73130628D01*
X66984666Y-73130628D02*
X66603714Y-73130628D01*
X68127523Y-73606819D02*
X67556095Y-73606819D01*
X67841809Y-73606819D02*
X67841809Y-72606819D01*
X67841809Y-72606819D02*
X67746571Y-72749676D01*
X67746571Y-72749676D02*
X67651333Y-72844914D01*
X67651333Y-72844914D02*
X67556095Y-72892533D01*
X68746571Y-72606819D02*
X68841809Y-72606819D01*
X68841809Y-72606819D02*
X68937047Y-72654438D01*
X68937047Y-72654438D02*
X68984666Y-72702057D01*
X68984666Y-72702057D02*
X69032285Y-72797295D01*
X69032285Y-72797295D02*
X69079904Y-72987771D01*
X69079904Y-72987771D02*
X69079904Y-73225866D01*
X69079904Y-73225866D02*
X69032285Y-73416342D01*
X69032285Y-73416342D02*
X68984666Y-73511580D01*
X68984666Y-73511580D02*
X68937047Y-73559200D01*
X68937047Y-73559200D02*
X68841809Y-73606819D01*
X68841809Y-73606819D02*
X68746571Y-73606819D01*
X68746571Y-73606819D02*
X68651333Y-73559200D01*
X68651333Y-73559200D02*
X68603714Y-73511580D01*
X68603714Y-73511580D02*
X68556095Y-73416342D01*
X68556095Y-73416342D02*
X68508476Y-73225866D01*
X68508476Y-73225866D02*
X68508476Y-72987771D01*
X68508476Y-72987771D02*
X68556095Y-72797295D01*
X68556095Y-72797295D02*
X68603714Y-72702057D01*
X68603714Y-72702057D02*
X68651333Y-72654438D01*
X68651333Y-72654438D02*
X68746571Y-72606819D01*
D12*
%TO.C,C3*%
X120675000Y-57654775D02*
X120675000Y-57154775D01*
X120425000Y-57404775D02*
X120925000Y-57404775D01*
X119570000Y-54850000D02*
X124730000Y-54850000D01*
X119570000Y-54810000D02*
X124730000Y-54810000D01*
X119571000Y-54770000D02*
X124729000Y-54770000D01*
X119572000Y-54730000D02*
X124728000Y-54730000D01*
X119574000Y-54690000D02*
X124726000Y-54690000D01*
X119577000Y-54650000D02*
X124723000Y-54650000D01*
X119581000Y-54610000D02*
X121110000Y-54610000D01*
X123190000Y-54610000D02*
X124719000Y-54610000D01*
X119585000Y-54570000D02*
X121110000Y-54570000D01*
X123190000Y-54570000D02*
X124715000Y-54570000D01*
X119589000Y-54530000D02*
X121110000Y-54530000D01*
X123190000Y-54530000D02*
X124711000Y-54530000D01*
X119594000Y-54490000D02*
X121110000Y-54490000D01*
X123190000Y-54490000D02*
X124706000Y-54490000D01*
X119600000Y-54450000D02*
X121110000Y-54450000D01*
X123190000Y-54450000D02*
X124700000Y-54450000D01*
X119607000Y-54410000D02*
X121110000Y-54410000D01*
X123190000Y-54410000D02*
X124693000Y-54410000D01*
X119614000Y-54370000D02*
X121110000Y-54370000D01*
X123190000Y-54370000D02*
X124686000Y-54370000D01*
X119622000Y-54330000D02*
X121110000Y-54330000D01*
X123190000Y-54330000D02*
X124678000Y-54330000D01*
X119630000Y-54290000D02*
X121110000Y-54290000D01*
X123190000Y-54290000D02*
X124670000Y-54290000D01*
X119639000Y-54250000D02*
X121110000Y-54250000D01*
X123190000Y-54250000D02*
X124661000Y-54250000D01*
X119649000Y-54210000D02*
X121110000Y-54210000D01*
X123190000Y-54210000D02*
X124651000Y-54210000D01*
X119659000Y-54170000D02*
X121110000Y-54170000D01*
X123190000Y-54170000D02*
X124641000Y-54170000D01*
X119670000Y-54129000D02*
X121110000Y-54129000D01*
X123190000Y-54129000D02*
X124630000Y-54129000D01*
X119682000Y-54089000D02*
X121110000Y-54089000D01*
X123190000Y-54089000D02*
X124618000Y-54089000D01*
X119695000Y-54049000D02*
X121110000Y-54049000D01*
X123190000Y-54049000D02*
X124605000Y-54049000D01*
X119708000Y-54009000D02*
X121110000Y-54009000D01*
X123190000Y-54009000D02*
X124592000Y-54009000D01*
X119722000Y-53969000D02*
X121110000Y-53969000D01*
X123190000Y-53969000D02*
X124578000Y-53969000D01*
X119736000Y-53929000D02*
X121110000Y-53929000D01*
X123190000Y-53929000D02*
X124564000Y-53929000D01*
X119752000Y-53889000D02*
X121110000Y-53889000D01*
X123190000Y-53889000D02*
X124548000Y-53889000D01*
X119768000Y-53849000D02*
X121110000Y-53849000D01*
X123190000Y-53849000D02*
X124532000Y-53849000D01*
X119785000Y-53809000D02*
X121110000Y-53809000D01*
X123190000Y-53809000D02*
X124515000Y-53809000D01*
X119802000Y-53769000D02*
X121110000Y-53769000D01*
X123190000Y-53769000D02*
X124498000Y-53769000D01*
X119821000Y-53729000D02*
X121110000Y-53729000D01*
X123190000Y-53729000D02*
X124479000Y-53729000D01*
X119840000Y-53689000D02*
X121110000Y-53689000D01*
X123190000Y-53689000D02*
X124460000Y-53689000D01*
X119860000Y-53649000D02*
X121110000Y-53649000D01*
X123190000Y-53649000D02*
X124440000Y-53649000D01*
X119882000Y-53609000D02*
X121110000Y-53609000D01*
X123190000Y-53609000D02*
X124418000Y-53609000D01*
X119903000Y-53569000D02*
X121110000Y-53569000D01*
X123190000Y-53569000D02*
X124397000Y-53569000D01*
X119926000Y-53529000D02*
X121110000Y-53529000D01*
X123190000Y-53529000D02*
X124374000Y-53529000D01*
X119950000Y-53489000D02*
X121110000Y-53489000D01*
X123190000Y-53489000D02*
X124350000Y-53489000D01*
X119975000Y-53449000D02*
X121110000Y-53449000D01*
X123190000Y-53449000D02*
X124325000Y-53449000D01*
X120001000Y-53409000D02*
X121110000Y-53409000D01*
X123190000Y-53409000D02*
X124299000Y-53409000D01*
X120028000Y-53369000D02*
X121110000Y-53369000D01*
X123190000Y-53369000D02*
X124272000Y-53369000D01*
X120055000Y-53329000D02*
X121110000Y-53329000D01*
X123190000Y-53329000D02*
X124245000Y-53329000D01*
X120085000Y-53289000D02*
X121110000Y-53289000D01*
X123190000Y-53289000D02*
X124215000Y-53289000D01*
X120115000Y-53249000D02*
X121110000Y-53249000D01*
X123190000Y-53249000D02*
X124185000Y-53249000D01*
X120146000Y-53209000D02*
X121110000Y-53209000D01*
X123190000Y-53209000D02*
X124154000Y-53209000D01*
X120179000Y-53169000D02*
X121110000Y-53169000D01*
X123190000Y-53169000D02*
X124121000Y-53169000D01*
X120213000Y-53129000D02*
X121110000Y-53129000D01*
X123190000Y-53129000D02*
X124087000Y-53129000D01*
X120249000Y-53089000D02*
X121110000Y-53089000D01*
X123190000Y-53089000D02*
X124051000Y-53089000D01*
X120286000Y-53049000D02*
X121110000Y-53049000D01*
X123190000Y-53049000D02*
X124014000Y-53049000D01*
X120324000Y-53009000D02*
X121110000Y-53009000D01*
X123190000Y-53009000D02*
X123976000Y-53009000D01*
X120365000Y-52969000D02*
X121110000Y-52969000D01*
X123190000Y-52969000D02*
X123935000Y-52969000D01*
X120407000Y-52929000D02*
X121110000Y-52929000D01*
X123190000Y-52929000D02*
X123893000Y-52929000D01*
X120451000Y-52889000D02*
X121110000Y-52889000D01*
X123190000Y-52889000D02*
X123849000Y-52889000D01*
X120497000Y-52849000D02*
X121110000Y-52849000D01*
X123190000Y-52849000D02*
X123803000Y-52849000D01*
X120545000Y-52809000D02*
X121110000Y-52809000D01*
X123190000Y-52809000D02*
X123755000Y-52809000D01*
X120596000Y-52769000D02*
X121110000Y-52769000D01*
X123190000Y-52769000D02*
X123704000Y-52769000D01*
X120650000Y-52729000D02*
X121110000Y-52729000D01*
X123190000Y-52729000D02*
X123650000Y-52729000D01*
X120707000Y-52689000D02*
X121110000Y-52689000D01*
X123190000Y-52689000D02*
X123593000Y-52689000D01*
X120767000Y-52649000D02*
X121110000Y-52649000D01*
X123190000Y-52649000D02*
X123533000Y-52649000D01*
X120831000Y-52609000D02*
X121110000Y-52609000D01*
X123190000Y-52609000D02*
X123469000Y-52609000D01*
X120899000Y-52569000D02*
X121110000Y-52569000D01*
X123190000Y-52569000D02*
X123401000Y-52569000D01*
X120972000Y-52529000D02*
X123328000Y-52529000D01*
X121052000Y-52489000D02*
X123248000Y-52489000D01*
X121139000Y-52449000D02*
X123161000Y-52449000D01*
X121235000Y-52409000D02*
X123065000Y-52409000D01*
X121345000Y-52369000D02*
X122955000Y-52369000D01*
X121473000Y-52329000D02*
X122827000Y-52329000D01*
X121632000Y-52289000D02*
X122668000Y-52289000D01*
X121866000Y-52249000D02*
X122434000Y-52249000D01*
X124770000Y-54850000D02*
G75*
G03*
X119530000Y-54850000I-2620000J0D01*
G01*
X119530000Y-54850000D02*
G75*
G03*
X124770000Y-54850000I2620000J0D01*
G01*
%TO.C,J1*%
X61760000Y-59310000D02*
X61760000Y-74550000D01*
X55410000Y-59310000D02*
X55410000Y-74550000D01*
X54140000Y-59310000D02*
X61760000Y-59310000D01*
X54140000Y-59310000D02*
X54140000Y-74550000D01*
X54140000Y-74550000D02*
X61760000Y-74550000D01*
%TO.C,R18*%
X142150000Y-68870000D02*
X142150000Y-70830000D01*
X143870000Y-70830000D02*
X140430000Y-70830000D01*
X140430000Y-70830000D02*
X140430000Y-80070000D01*
X143870000Y-80070000D02*
X143870000Y-70830000D01*
X140430000Y-80070000D02*
X143870000Y-80070000D01*
X142150000Y-82030000D02*
X142150000Y-80070000D01*
%TO.C,C4*%
X126525000Y-57654775D02*
X126525000Y-57154775D01*
X126275000Y-57404775D02*
X126775000Y-57404775D01*
X125420000Y-54850000D02*
X130580000Y-54850000D01*
X125420000Y-54810000D02*
X130580000Y-54810000D01*
X125421000Y-54770000D02*
X130579000Y-54770000D01*
X125422000Y-54730000D02*
X130578000Y-54730000D01*
X125424000Y-54690000D02*
X130576000Y-54690000D01*
X125427000Y-54650000D02*
X130573000Y-54650000D01*
X125431000Y-54610000D02*
X126960000Y-54610000D01*
X129040000Y-54610000D02*
X130569000Y-54610000D01*
X125435000Y-54570000D02*
X126960000Y-54570000D01*
X129040000Y-54570000D02*
X130565000Y-54570000D01*
X125439000Y-54530000D02*
X126960000Y-54530000D01*
X129040000Y-54530000D02*
X130561000Y-54530000D01*
X125444000Y-54490000D02*
X126960000Y-54490000D01*
X129040000Y-54490000D02*
X130556000Y-54490000D01*
X125450000Y-54450000D02*
X126960000Y-54450000D01*
X129040000Y-54450000D02*
X130550000Y-54450000D01*
X125457000Y-54410000D02*
X126960000Y-54410000D01*
X129040000Y-54410000D02*
X130543000Y-54410000D01*
X125464000Y-54370000D02*
X126960000Y-54370000D01*
X129040000Y-54370000D02*
X130536000Y-54370000D01*
X125472000Y-54330000D02*
X126960000Y-54330000D01*
X129040000Y-54330000D02*
X130528000Y-54330000D01*
X125480000Y-54290000D02*
X126960000Y-54290000D01*
X129040000Y-54290000D02*
X130520000Y-54290000D01*
X125489000Y-54250000D02*
X126960000Y-54250000D01*
X129040000Y-54250000D02*
X130511000Y-54250000D01*
X125499000Y-54210000D02*
X126960000Y-54210000D01*
X129040000Y-54210000D02*
X130501000Y-54210000D01*
X125509000Y-54170000D02*
X126960000Y-54170000D01*
X129040000Y-54170000D02*
X130491000Y-54170000D01*
X125520000Y-54129000D02*
X126960000Y-54129000D01*
X129040000Y-54129000D02*
X130480000Y-54129000D01*
X125532000Y-54089000D02*
X126960000Y-54089000D01*
X129040000Y-54089000D02*
X130468000Y-54089000D01*
X125545000Y-54049000D02*
X126960000Y-54049000D01*
X129040000Y-54049000D02*
X130455000Y-54049000D01*
X125558000Y-54009000D02*
X126960000Y-54009000D01*
X129040000Y-54009000D02*
X130442000Y-54009000D01*
X125572000Y-53969000D02*
X126960000Y-53969000D01*
X129040000Y-53969000D02*
X130428000Y-53969000D01*
X125586000Y-53929000D02*
X126960000Y-53929000D01*
X129040000Y-53929000D02*
X130414000Y-53929000D01*
X125602000Y-53889000D02*
X126960000Y-53889000D01*
X129040000Y-53889000D02*
X130398000Y-53889000D01*
X125618000Y-53849000D02*
X126960000Y-53849000D01*
X129040000Y-53849000D02*
X130382000Y-53849000D01*
X125635000Y-53809000D02*
X126960000Y-53809000D01*
X129040000Y-53809000D02*
X130365000Y-53809000D01*
X125652000Y-53769000D02*
X126960000Y-53769000D01*
X129040000Y-53769000D02*
X130348000Y-53769000D01*
X125671000Y-53729000D02*
X126960000Y-53729000D01*
X129040000Y-53729000D02*
X130329000Y-53729000D01*
X125690000Y-53689000D02*
X126960000Y-53689000D01*
X129040000Y-53689000D02*
X130310000Y-53689000D01*
X125710000Y-53649000D02*
X126960000Y-53649000D01*
X129040000Y-53649000D02*
X130290000Y-53649000D01*
X125732000Y-53609000D02*
X126960000Y-53609000D01*
X129040000Y-53609000D02*
X130268000Y-53609000D01*
X125753000Y-53569000D02*
X126960000Y-53569000D01*
X129040000Y-53569000D02*
X130247000Y-53569000D01*
X125776000Y-53529000D02*
X126960000Y-53529000D01*
X129040000Y-53529000D02*
X130224000Y-53529000D01*
X125800000Y-53489000D02*
X126960000Y-53489000D01*
X129040000Y-53489000D02*
X130200000Y-53489000D01*
X125825000Y-53449000D02*
X126960000Y-53449000D01*
X129040000Y-53449000D02*
X130175000Y-53449000D01*
X125851000Y-53409000D02*
X126960000Y-53409000D01*
X129040000Y-53409000D02*
X130149000Y-53409000D01*
X125878000Y-53369000D02*
X126960000Y-53369000D01*
X129040000Y-53369000D02*
X130122000Y-53369000D01*
X125905000Y-53329000D02*
X126960000Y-53329000D01*
X129040000Y-53329000D02*
X130095000Y-53329000D01*
X125935000Y-53289000D02*
X126960000Y-53289000D01*
X129040000Y-53289000D02*
X130065000Y-53289000D01*
X125965000Y-53249000D02*
X126960000Y-53249000D01*
X129040000Y-53249000D02*
X130035000Y-53249000D01*
X125996000Y-53209000D02*
X126960000Y-53209000D01*
X129040000Y-53209000D02*
X130004000Y-53209000D01*
X126029000Y-53169000D02*
X126960000Y-53169000D01*
X129040000Y-53169000D02*
X129971000Y-53169000D01*
X126063000Y-53129000D02*
X126960000Y-53129000D01*
X129040000Y-53129000D02*
X129937000Y-53129000D01*
X126099000Y-53089000D02*
X126960000Y-53089000D01*
X129040000Y-53089000D02*
X129901000Y-53089000D01*
X126136000Y-53049000D02*
X126960000Y-53049000D01*
X129040000Y-53049000D02*
X129864000Y-53049000D01*
X126174000Y-53009000D02*
X126960000Y-53009000D01*
X129040000Y-53009000D02*
X129826000Y-53009000D01*
X126215000Y-52969000D02*
X126960000Y-52969000D01*
X129040000Y-52969000D02*
X129785000Y-52969000D01*
X126257000Y-52929000D02*
X126960000Y-52929000D01*
X129040000Y-52929000D02*
X129743000Y-52929000D01*
X126301000Y-52889000D02*
X126960000Y-52889000D01*
X129040000Y-52889000D02*
X129699000Y-52889000D01*
X126347000Y-52849000D02*
X126960000Y-52849000D01*
X129040000Y-52849000D02*
X129653000Y-52849000D01*
X126395000Y-52809000D02*
X126960000Y-52809000D01*
X129040000Y-52809000D02*
X129605000Y-52809000D01*
X126446000Y-52769000D02*
X126960000Y-52769000D01*
X129040000Y-52769000D02*
X129554000Y-52769000D01*
X126500000Y-52729000D02*
X126960000Y-52729000D01*
X129040000Y-52729000D02*
X129500000Y-52729000D01*
X126557000Y-52689000D02*
X126960000Y-52689000D01*
X129040000Y-52689000D02*
X129443000Y-52689000D01*
X126617000Y-52649000D02*
X126960000Y-52649000D01*
X129040000Y-52649000D02*
X129383000Y-52649000D01*
X126681000Y-52609000D02*
X126960000Y-52609000D01*
X129040000Y-52609000D02*
X129319000Y-52609000D01*
X126749000Y-52569000D02*
X126960000Y-52569000D01*
X129040000Y-52569000D02*
X129251000Y-52569000D01*
X126822000Y-52529000D02*
X129178000Y-52529000D01*
X126902000Y-52489000D02*
X129098000Y-52489000D01*
X126989000Y-52449000D02*
X129011000Y-52449000D01*
X127085000Y-52409000D02*
X128915000Y-52409000D01*
X127195000Y-52369000D02*
X128805000Y-52369000D01*
X127323000Y-52329000D02*
X128677000Y-52329000D01*
X127482000Y-52289000D02*
X128518000Y-52289000D01*
X127716000Y-52249000D02*
X128284000Y-52249000D01*
X130620000Y-54850000D02*
G75*
G03*
X125380000Y-54850000I-2620000J0D01*
G01*
X125380000Y-54850000D02*
G75*
G03*
X130620000Y-54850000I2620000J0D01*
G01*
%TO.C,R17*%
X147400000Y-69040000D02*
X147400000Y-71000000D01*
X149120000Y-71000000D02*
X145680000Y-71000000D01*
X145680000Y-71000000D02*
X145680000Y-80240000D01*
X149120000Y-80240000D02*
X149120000Y-71000000D01*
X145680000Y-80240000D02*
X149120000Y-80240000D01*
X147400000Y-82200000D02*
X147400000Y-80240000D01*
%TO.C,R1*%
X82010000Y-78332000D02*
X75470000Y-78332000D01*
X82010000Y-78002000D02*
X82010000Y-78332000D01*
X82010000Y-75922000D02*
X82010000Y-75592000D01*
X82010000Y-75592000D02*
X75470000Y-75592000D01*
X75470000Y-78332000D02*
X75470000Y-78002000D01*
X75470000Y-75592000D02*
X75470000Y-75922000D01*
%TO.C,R6*%
X71850000Y-91794000D02*
X65310000Y-91794000D01*
X71850000Y-91464000D02*
X71850000Y-91794000D01*
X71850000Y-89384000D02*
X71850000Y-89054000D01*
X71850000Y-89054000D02*
X65310000Y-89054000D01*
X65310000Y-91794000D02*
X65310000Y-91464000D01*
X65310000Y-89054000D02*
X65310000Y-89384000D01*
%TO.C,R27*%
X97930000Y-95450000D02*
X91390000Y-95450000D01*
X97930000Y-95120000D02*
X97930000Y-95450000D01*
X97930000Y-93040000D02*
X97930000Y-92710000D01*
X97930000Y-92710000D02*
X91390000Y-92710000D01*
X91390000Y-95450000D02*
X91390000Y-95120000D01*
X91390000Y-92710000D02*
X91390000Y-93040000D01*
%TO.C,R23*%
X117220000Y-62740000D02*
X117220000Y-69280000D01*
X116890000Y-62740000D02*
X117220000Y-62740000D01*
X114810000Y-62740000D02*
X114480000Y-62740000D01*
X114480000Y-62740000D02*
X114480000Y-69280000D01*
X117220000Y-69280000D02*
X116890000Y-69280000D01*
X114480000Y-69280000D02*
X114810000Y-69280000D01*
%TO.C,R7*%
X71850000Y-88492000D02*
X65310000Y-88492000D01*
X71850000Y-88162000D02*
X71850000Y-88492000D01*
X71850000Y-86082000D02*
X71850000Y-85752000D01*
X71850000Y-85752000D02*
X65310000Y-85752000D01*
X65310000Y-88492000D02*
X65310000Y-88162000D01*
X65310000Y-85752000D02*
X65310000Y-86082000D01*
%TO.C,R22*%
X91740000Y-72580000D02*
X98280000Y-72580000D01*
X91740000Y-72910000D02*
X91740000Y-72580000D01*
X91740000Y-74990000D02*
X91740000Y-75320000D01*
X91740000Y-75320000D02*
X98280000Y-75320000D01*
X98280000Y-72580000D02*
X98280000Y-72910000D01*
X98280000Y-75320000D02*
X98280000Y-74990000D01*
%TO.C,R16*%
X65632000Y-54220000D02*
X65632000Y-60760000D01*
X65302000Y-54220000D02*
X65632000Y-54220000D01*
X63222000Y-54220000D02*
X62892000Y-54220000D01*
X62892000Y-54220000D02*
X62892000Y-60760000D01*
X65632000Y-60760000D02*
X65302000Y-60760000D01*
X62892000Y-60760000D02*
X63222000Y-60760000D01*
%TO.C,JP6*%
X122470000Y-59620000D02*
X123800000Y-59620000D01*
X122470000Y-60950000D02*
X122470000Y-59620000D01*
X122470000Y-62220000D02*
X122470000Y-64820000D01*
X122470000Y-62220000D02*
X125130000Y-62220000D01*
X122470000Y-64820000D02*
X125130000Y-64820000D01*
X125130000Y-62220000D02*
X125130000Y-64820000D01*
%TO.C,C1*%
X69188000Y-61094000D02*
X68873000Y-61094000D01*
X69188000Y-61094000D02*
X69188000Y-66334000D01*
X66763000Y-61094000D02*
X66448000Y-61094000D01*
X66448000Y-61094000D02*
X66448000Y-66334000D01*
X69188000Y-66334000D02*
X68873000Y-66334000D01*
X66763000Y-66334000D02*
X66448000Y-66334000D01*
%TO.C,R24*%
X134070000Y-77990000D02*
X134070000Y-84530000D01*
X133740000Y-77990000D02*
X134070000Y-77990000D01*
X131660000Y-77990000D02*
X131330000Y-77990000D01*
X131330000Y-77990000D02*
X131330000Y-84530000D01*
X134070000Y-84530000D02*
X133740000Y-84530000D01*
X131330000Y-84530000D02*
X131660000Y-84530000D01*
%TO.C,C2*%
X114875000Y-57604775D02*
X114875000Y-57104775D01*
X114625000Y-57354775D02*
X115125000Y-57354775D01*
X113770000Y-54800000D02*
X118930000Y-54800000D01*
X113770000Y-54760000D02*
X118930000Y-54760000D01*
X113771000Y-54720000D02*
X118929000Y-54720000D01*
X113772000Y-54680000D02*
X118928000Y-54680000D01*
X113774000Y-54640000D02*
X118926000Y-54640000D01*
X113777000Y-54600000D02*
X118923000Y-54600000D01*
X113781000Y-54560000D02*
X115310000Y-54560000D01*
X117390000Y-54560000D02*
X118919000Y-54560000D01*
X113785000Y-54520000D02*
X115310000Y-54520000D01*
X117390000Y-54520000D02*
X118915000Y-54520000D01*
X113789000Y-54480000D02*
X115310000Y-54480000D01*
X117390000Y-54480000D02*
X118911000Y-54480000D01*
X113794000Y-54440000D02*
X115310000Y-54440000D01*
X117390000Y-54440000D02*
X118906000Y-54440000D01*
X113800000Y-54400000D02*
X115310000Y-54400000D01*
X117390000Y-54400000D02*
X118900000Y-54400000D01*
X113807000Y-54360000D02*
X115310000Y-54360000D01*
X117390000Y-54360000D02*
X118893000Y-54360000D01*
X113814000Y-54320000D02*
X115310000Y-54320000D01*
X117390000Y-54320000D02*
X118886000Y-54320000D01*
X113822000Y-54280000D02*
X115310000Y-54280000D01*
X117390000Y-54280000D02*
X118878000Y-54280000D01*
X113830000Y-54240000D02*
X115310000Y-54240000D01*
X117390000Y-54240000D02*
X118870000Y-54240000D01*
X113839000Y-54200000D02*
X115310000Y-54200000D01*
X117390000Y-54200000D02*
X118861000Y-54200000D01*
X113849000Y-54160000D02*
X115310000Y-54160000D01*
X117390000Y-54160000D02*
X118851000Y-54160000D01*
X113859000Y-54120000D02*
X115310000Y-54120000D01*
X117390000Y-54120000D02*
X118841000Y-54120000D01*
X113870000Y-54079000D02*
X115310000Y-54079000D01*
X117390000Y-54079000D02*
X118830000Y-54079000D01*
X113882000Y-54039000D02*
X115310000Y-54039000D01*
X117390000Y-54039000D02*
X118818000Y-54039000D01*
X113895000Y-53999000D02*
X115310000Y-53999000D01*
X117390000Y-53999000D02*
X118805000Y-53999000D01*
X113908000Y-53959000D02*
X115310000Y-53959000D01*
X117390000Y-53959000D02*
X118792000Y-53959000D01*
X113922000Y-53919000D02*
X115310000Y-53919000D01*
X117390000Y-53919000D02*
X118778000Y-53919000D01*
X113936000Y-53879000D02*
X115310000Y-53879000D01*
X117390000Y-53879000D02*
X118764000Y-53879000D01*
X113952000Y-53839000D02*
X115310000Y-53839000D01*
X117390000Y-53839000D02*
X118748000Y-53839000D01*
X113968000Y-53799000D02*
X115310000Y-53799000D01*
X117390000Y-53799000D02*
X118732000Y-53799000D01*
X113985000Y-53759000D02*
X115310000Y-53759000D01*
X117390000Y-53759000D02*
X118715000Y-53759000D01*
X114002000Y-53719000D02*
X115310000Y-53719000D01*
X117390000Y-53719000D02*
X118698000Y-53719000D01*
X114021000Y-53679000D02*
X115310000Y-53679000D01*
X117390000Y-53679000D02*
X118679000Y-53679000D01*
X114040000Y-53639000D02*
X115310000Y-53639000D01*
X117390000Y-53639000D02*
X118660000Y-53639000D01*
X114060000Y-53599000D02*
X115310000Y-53599000D01*
X117390000Y-53599000D02*
X118640000Y-53599000D01*
X114082000Y-53559000D02*
X115310000Y-53559000D01*
X117390000Y-53559000D02*
X118618000Y-53559000D01*
X114103000Y-53519000D02*
X115310000Y-53519000D01*
X117390000Y-53519000D02*
X118597000Y-53519000D01*
X114126000Y-53479000D02*
X115310000Y-53479000D01*
X117390000Y-53479000D02*
X118574000Y-53479000D01*
X114150000Y-53439000D02*
X115310000Y-53439000D01*
X117390000Y-53439000D02*
X118550000Y-53439000D01*
X114175000Y-53399000D02*
X115310000Y-53399000D01*
X117390000Y-53399000D02*
X118525000Y-53399000D01*
X114201000Y-53359000D02*
X115310000Y-53359000D01*
X117390000Y-53359000D02*
X118499000Y-53359000D01*
X114228000Y-53319000D02*
X115310000Y-53319000D01*
X117390000Y-53319000D02*
X118472000Y-53319000D01*
X114255000Y-53279000D02*
X115310000Y-53279000D01*
X117390000Y-53279000D02*
X118445000Y-53279000D01*
X114285000Y-53239000D02*
X115310000Y-53239000D01*
X117390000Y-53239000D02*
X118415000Y-53239000D01*
X114315000Y-53199000D02*
X115310000Y-53199000D01*
X117390000Y-53199000D02*
X118385000Y-53199000D01*
X114346000Y-53159000D02*
X115310000Y-53159000D01*
X117390000Y-53159000D02*
X118354000Y-53159000D01*
X114379000Y-53119000D02*
X115310000Y-53119000D01*
X117390000Y-53119000D02*
X118321000Y-53119000D01*
X114413000Y-53079000D02*
X115310000Y-53079000D01*
X117390000Y-53079000D02*
X118287000Y-53079000D01*
X114449000Y-53039000D02*
X115310000Y-53039000D01*
X117390000Y-53039000D02*
X118251000Y-53039000D01*
X114486000Y-52999000D02*
X115310000Y-52999000D01*
X117390000Y-52999000D02*
X118214000Y-52999000D01*
X114524000Y-52959000D02*
X115310000Y-52959000D01*
X117390000Y-52959000D02*
X118176000Y-52959000D01*
X114565000Y-52919000D02*
X115310000Y-52919000D01*
X117390000Y-52919000D02*
X118135000Y-52919000D01*
X114607000Y-52879000D02*
X115310000Y-52879000D01*
X117390000Y-52879000D02*
X118093000Y-52879000D01*
X114651000Y-52839000D02*
X115310000Y-52839000D01*
X117390000Y-52839000D02*
X118049000Y-52839000D01*
X114697000Y-52799000D02*
X115310000Y-52799000D01*
X117390000Y-52799000D02*
X118003000Y-52799000D01*
X114745000Y-52759000D02*
X115310000Y-52759000D01*
X117390000Y-52759000D02*
X117955000Y-52759000D01*
X114796000Y-52719000D02*
X115310000Y-52719000D01*
X117390000Y-52719000D02*
X117904000Y-52719000D01*
X114850000Y-52679000D02*
X115310000Y-52679000D01*
X117390000Y-52679000D02*
X117850000Y-52679000D01*
X114907000Y-52639000D02*
X115310000Y-52639000D01*
X117390000Y-52639000D02*
X117793000Y-52639000D01*
X114967000Y-52599000D02*
X115310000Y-52599000D01*
X117390000Y-52599000D02*
X117733000Y-52599000D01*
X115031000Y-52559000D02*
X115310000Y-52559000D01*
X117390000Y-52559000D02*
X117669000Y-52559000D01*
X115099000Y-52519000D02*
X115310000Y-52519000D01*
X117390000Y-52519000D02*
X117601000Y-52519000D01*
X115172000Y-52479000D02*
X117528000Y-52479000D01*
X115252000Y-52439000D02*
X117448000Y-52439000D01*
X115339000Y-52399000D02*
X117361000Y-52399000D01*
X115435000Y-52359000D02*
X117265000Y-52359000D01*
X115545000Y-52319000D02*
X117155000Y-52319000D01*
X115673000Y-52279000D02*
X117027000Y-52279000D01*
X115832000Y-52239000D02*
X116868000Y-52239000D01*
X116066000Y-52199000D02*
X116634000Y-52199000D01*
X118970000Y-54800000D02*
G75*
G03*
X113730000Y-54800000I-2620000J0D01*
G01*
X113730000Y-54800000D02*
G75*
G03*
X118970000Y-54800000I2620000J0D01*
G01*
%TO.C,R21*%
X92790000Y-78430000D02*
X99330000Y-78430000D01*
X92790000Y-78760000D02*
X92790000Y-78430000D01*
X92790000Y-80840000D02*
X92790000Y-81170000D01*
X92790000Y-81170000D02*
X99330000Y-81170000D01*
X99330000Y-78430000D02*
X99330000Y-78760000D01*
X99330000Y-81170000D02*
X99330000Y-80840000D01*
%TO.C,JP2*%
X140990000Y-86320000D02*
X142320000Y-86320000D01*
X140990000Y-87650000D02*
X140990000Y-86320000D01*
X140990000Y-88920000D02*
X140990000Y-91520000D01*
X140990000Y-88920000D02*
X143650000Y-88920000D01*
X140990000Y-91520000D02*
X143650000Y-91520000D01*
X143650000Y-88920000D02*
X143650000Y-91520000D01*
%TO.C,JP5*%
X118420000Y-59670000D02*
X119750000Y-59670000D01*
X118420000Y-61000000D02*
X118420000Y-59670000D01*
X118420000Y-62270000D02*
X118420000Y-64870000D01*
X118420000Y-62270000D02*
X121080000Y-62270000D01*
X118420000Y-64870000D02*
X121080000Y-64870000D01*
X121080000Y-62270000D02*
X121080000Y-64870000D01*
%TO.C,J2*%
X61810000Y-77860000D02*
X61810000Y-93100000D01*
X55460000Y-77860000D02*
X55460000Y-93100000D01*
X54190000Y-77860000D02*
X61810000Y-77860000D01*
X54190000Y-77860000D02*
X54190000Y-93100000D01*
X54190000Y-93100000D02*
X61810000Y-93100000D01*
%TO.C,J4*%
X143060000Y-65920000D02*
X143060000Y-58300000D01*
X143060000Y-58300000D02*
X132900000Y-58300000D01*
X132900000Y-65920000D02*
X143060000Y-65920000D01*
X132900000Y-59570000D02*
X143060000Y-59570000D01*
X132900000Y-58300000D02*
X132900000Y-65920000D01*
%TO.C,JP7*%
X126520000Y-59620000D02*
X127850000Y-59620000D01*
X126520000Y-60950000D02*
X126520000Y-59620000D01*
X126520000Y-62220000D02*
X126520000Y-64820000D01*
X126520000Y-62220000D02*
X129180000Y-62220000D01*
X126520000Y-64820000D02*
X129180000Y-64820000D01*
X129180000Y-62220000D02*
X129180000Y-64820000D01*
%TO.C,R4*%
X76830000Y-89562000D02*
X83370000Y-89562000D01*
X76830000Y-89892000D02*
X76830000Y-89562000D01*
X76830000Y-91972000D02*
X76830000Y-92302000D01*
X76830000Y-92302000D02*
X83370000Y-92302000D01*
X83370000Y-89562000D02*
X83370000Y-89892000D01*
X83370000Y-92302000D02*
X83370000Y-91972000D01*
%TO.C,R14*%
X95820000Y-63520000D02*
X95820000Y-70060000D01*
X95490000Y-63520000D02*
X95820000Y-63520000D01*
X93410000Y-63520000D02*
X93080000Y-63520000D01*
X93080000Y-63520000D02*
X93080000Y-70060000D01*
X95820000Y-70060000D02*
X95490000Y-70060000D01*
X93080000Y-70060000D02*
X93410000Y-70060000D01*
%TO.C,R3*%
X76820000Y-86260000D02*
X83360000Y-86260000D01*
X76820000Y-86590000D02*
X76820000Y-86260000D01*
X76820000Y-88670000D02*
X76820000Y-89000000D01*
X76820000Y-89000000D02*
X83360000Y-89000000D01*
X83360000Y-86260000D02*
X83360000Y-86590000D01*
X83360000Y-89000000D02*
X83360000Y-88670000D01*
%TO.C,R26*%
X129060000Y-81620000D02*
X122520000Y-81620000D01*
X129060000Y-81290000D02*
X129060000Y-81620000D01*
X129060000Y-79210000D02*
X129060000Y-78880000D01*
X129060000Y-78880000D02*
X122520000Y-78880000D01*
X122520000Y-81620000D02*
X122520000Y-81290000D01*
X122520000Y-78880000D02*
X122520000Y-79210000D01*
%TO.C,R25*%
X121010000Y-75570000D02*
X114470000Y-75570000D01*
X121010000Y-75240000D02*
X121010000Y-75570000D01*
X121010000Y-73160000D02*
X121010000Y-72830000D01*
X121010000Y-72830000D02*
X114470000Y-72830000D01*
X114470000Y-75570000D02*
X114470000Y-75240000D01*
X114470000Y-72830000D02*
X114470000Y-73160000D01*
%TO.C,R13*%
X99120000Y-63480000D02*
X99120000Y-70020000D01*
X98790000Y-63480000D02*
X99120000Y-63480000D01*
X96710000Y-63480000D02*
X96380000Y-63480000D01*
X96380000Y-63480000D02*
X96380000Y-70020000D01*
X99120000Y-70020000D02*
X98790000Y-70020000D01*
X96380000Y-70020000D02*
X96710000Y-70020000D01*
%TO.C,R9*%
X64548000Y-75338000D02*
X71088000Y-75338000D01*
X64548000Y-75668000D02*
X64548000Y-75338000D01*
X64548000Y-77748000D02*
X64548000Y-78078000D01*
X64548000Y-78078000D02*
X71088000Y-78078000D01*
X71088000Y-75338000D02*
X71088000Y-75668000D01*
X71088000Y-78078000D02*
X71088000Y-77748000D01*
%TO.C,R15*%
X92330000Y-63460000D02*
X92330000Y-70000000D01*
X92000000Y-63460000D02*
X92330000Y-63460000D01*
X89920000Y-63460000D02*
X89590000Y-63460000D01*
X89590000Y-63460000D02*
X89590000Y-70000000D01*
X92330000Y-70000000D02*
X92000000Y-70000000D01*
X89590000Y-70000000D02*
X89920000Y-70000000D01*
%TO.C,Q1*%
X74000000Y-57120000D02*
X74000000Y-61761000D01*
X74000000Y-57120000D02*
X84240000Y-57120000D01*
X74000000Y-58630000D02*
X84240000Y-58630000D01*
X74000000Y-61761000D02*
X84240000Y-61761000D01*
X77270000Y-57120000D02*
X77270000Y-58630000D01*
X80971000Y-57120000D02*
X80971000Y-58630000D01*
X84240000Y-57120000D02*
X84240000Y-61761000D01*
%TO.C,U3*%
X103610000Y-74070000D02*
X103610000Y-79270000D01*
X103610000Y-79270000D02*
X108910000Y-79270000D01*
X105260000Y-74070000D02*
X103610000Y-74070000D01*
X108910000Y-74070000D02*
X107260000Y-74070000D01*
X108910000Y-79270000D02*
X108910000Y-74070000D01*
X105260000Y-74070000D02*
G75*
G03*
X107260000Y-74070000I1000000J0D01*
G01*
%TO.C,R8*%
X71850000Y-84936000D02*
X65310000Y-84936000D01*
X71850000Y-84606000D02*
X71850000Y-84936000D01*
X71850000Y-82526000D02*
X71850000Y-82196000D01*
X71850000Y-82196000D02*
X65310000Y-82196000D01*
X65310000Y-84936000D02*
X65310000Y-84606000D01*
X65310000Y-82196000D02*
X65310000Y-82526000D01*
%TO.C,JP1*%
X146630000Y-86630000D02*
X147960000Y-86630000D01*
X146630000Y-87960000D02*
X146630000Y-86630000D01*
X146630000Y-89230000D02*
X146630000Y-91830000D01*
X146630000Y-89230000D02*
X149290000Y-89230000D01*
X146630000Y-91830000D02*
X149290000Y-91830000D01*
X149290000Y-89230000D02*
X149290000Y-91830000D01*
%TO.C,U1*%
X111380000Y-70640000D02*
X111380000Y-62780000D01*
X111380000Y-62780000D02*
X101100000Y-62780000D01*
X108890000Y-70580000D02*
X108890000Y-62840000D01*
X108890000Y-62840000D02*
X103590000Y-62840000D01*
X107240000Y-70580000D02*
X108890000Y-70580000D01*
X103590000Y-70580000D02*
X105240000Y-70580000D01*
X103590000Y-62840000D02*
X103590000Y-70580000D01*
X101100000Y-70640000D02*
X111380000Y-70640000D01*
X101100000Y-62780000D02*
X101100000Y-70640000D01*
X107240000Y-70580000D02*
G75*
G03*
X105240000Y-70580000I-1000000J0D01*
G01*
%TO.C,D2*%
X92670000Y-84140000D02*
X92670000Y-89580000D01*
X92540000Y-84140000D02*
X92670000Y-84140000D01*
X89860000Y-84140000D02*
X89730000Y-84140000D01*
X89730000Y-84140000D02*
X89730000Y-89580000D01*
X92670000Y-84920000D02*
X89730000Y-84920000D01*
X92670000Y-85040000D02*
X89730000Y-85040000D01*
X92670000Y-85160000D02*
X89730000Y-85160000D01*
X92670000Y-89580000D02*
X92540000Y-89580000D01*
X89730000Y-89580000D02*
X89860000Y-89580000D01*
%TO.C,D3*%
X96580000Y-89610000D02*
X96580000Y-84170000D01*
X96710000Y-89610000D02*
X96580000Y-89610000D01*
X99390000Y-89610000D02*
X99520000Y-89610000D01*
X99520000Y-89610000D02*
X99520000Y-84170000D01*
X96580000Y-88830000D02*
X99520000Y-88830000D01*
X96580000Y-88710000D02*
X99520000Y-88710000D01*
X96580000Y-88590000D02*
X99520000Y-88590000D01*
X96580000Y-84170000D02*
X96710000Y-84170000D01*
X99520000Y-84170000D02*
X99390000Y-84170000D01*
%TO.C,U2*%
X103660000Y-81320000D02*
X103660000Y-86520000D01*
X103660000Y-86520000D02*
X108960000Y-86520000D01*
X105310000Y-81320000D02*
X103660000Y-81320000D01*
X108960000Y-81320000D02*
X107310000Y-81320000D01*
X108960000Y-86520000D02*
X108960000Y-81320000D01*
X105310000Y-81320000D02*
G75*
G03*
X107310000Y-81320000I1000000J0D01*
G01*
%TO.C,R5*%
X71850000Y-95096000D02*
X65310000Y-95096000D01*
X71850000Y-94766000D02*
X71850000Y-95096000D01*
X71850000Y-92686000D02*
X71850000Y-92356000D01*
X71850000Y-92356000D02*
X65310000Y-92356000D01*
X65310000Y-95096000D02*
X65310000Y-94766000D01*
X65310000Y-92356000D02*
X65310000Y-92686000D01*
%TO.C,D4*%
X86280000Y-89510000D02*
X86280000Y-84070000D01*
X86410000Y-89510000D02*
X86280000Y-89510000D01*
X89090000Y-89510000D02*
X89220000Y-89510000D01*
X89220000Y-89510000D02*
X89220000Y-84070000D01*
X86280000Y-88730000D02*
X89220000Y-88730000D01*
X86280000Y-88610000D02*
X89220000Y-88610000D01*
X86280000Y-88490000D02*
X89220000Y-88490000D01*
X86280000Y-84070000D02*
X86410000Y-84070000D01*
X89220000Y-84070000D02*
X89090000Y-84070000D01*
%TO.C,D1*%
X96170000Y-84140000D02*
X96170000Y-89580000D01*
X96040000Y-84140000D02*
X96170000Y-84140000D01*
X93360000Y-84140000D02*
X93230000Y-84140000D01*
X93230000Y-84140000D02*
X93230000Y-89580000D01*
X96170000Y-84920000D02*
X93230000Y-84920000D01*
X96170000Y-85040000D02*
X93230000Y-85040000D01*
X96170000Y-85160000D02*
X93230000Y-85160000D01*
X96170000Y-89580000D02*
X96040000Y-89580000D01*
X93230000Y-89580000D02*
X93360000Y-89580000D01*
%TO.C,JP3*%
X135580000Y-86320000D02*
X136910000Y-86320000D01*
X135580000Y-87650000D02*
X135580000Y-86320000D01*
X135580000Y-88920000D02*
X135580000Y-91520000D01*
X135580000Y-88920000D02*
X138240000Y-88920000D01*
X135580000Y-91520000D02*
X138240000Y-91520000D01*
X138240000Y-88920000D02*
X138240000Y-91520000D01*
%TO.C,R2*%
X76994000Y-82704000D02*
X83534000Y-82704000D01*
X76994000Y-83034000D02*
X76994000Y-82704000D01*
X76994000Y-85114000D02*
X76994000Y-85444000D01*
X76994000Y-85444000D02*
X83534000Y-85444000D01*
X83534000Y-82704000D02*
X83534000Y-83034000D01*
X83534000Y-85444000D02*
X83534000Y-85114000D01*
%TO.C,Q2*%
X120300000Y-82110000D02*
X120300000Y-78510000D01*
X115850001Y-80310000D02*
G75*
G03*
X117351193Y-82666399I2599999J0D01*
G01*
X119572795Y-82634183D02*
G75*
G03*
X120299999Y-82109999I-1122795J2324183D01*
G01*
X117351193Y-77953600D02*
G75*
G03*
X115850000Y-80310000I1098807J-2356400D01*
G01*
X120299999Y-78510001D02*
G75*
G03*
X119572795Y-77985817I-1849999J-1799999D01*
G01*
%TO.C,J3*%
X122750000Y-94830000D02*
X122750000Y-87210000D01*
X122750000Y-87210000D02*
X112590000Y-87210000D01*
X112590000Y-94830000D02*
X122750000Y-94830000D01*
X112590000Y-88480000D02*
X122750000Y-88480000D01*
X112590000Y-87210000D02*
X112590000Y-94830000D01*
%TO.C,R19*%
X136740000Y-68820000D02*
X136740000Y-70780000D01*
X138460000Y-70780000D02*
X135020000Y-70780000D01*
X135020000Y-70780000D02*
X135020000Y-80020000D01*
X138460000Y-80020000D02*
X138460000Y-70780000D01*
X135020000Y-80020000D02*
X138460000Y-80020000D01*
X136740000Y-81980000D02*
X136740000Y-80020000D01*
%TO.C,R11*%
X64548000Y-68226000D02*
X71088000Y-68226000D01*
X64548000Y-68556000D02*
X64548000Y-68226000D01*
X64548000Y-70636000D02*
X64548000Y-70966000D01*
X64548000Y-70966000D02*
X71088000Y-70966000D01*
X71088000Y-68226000D02*
X71088000Y-68556000D01*
X71088000Y-70966000D02*
X71088000Y-70636000D01*
%TO.C,R10*%
X64548000Y-71782000D02*
X71088000Y-71782000D01*
X64548000Y-72112000D02*
X64548000Y-71782000D01*
X64548000Y-74192000D02*
X64548000Y-74522000D01*
X64548000Y-74522000D02*
X71088000Y-74522000D01*
X71088000Y-71782000D02*
X71088000Y-72112000D01*
X71088000Y-74522000D02*
X71088000Y-74192000D01*
%TD*%
M02*
