%TF.GenerationSoftware,KiCad,Pcbnew,7.0.11+dfsg-1build4*%
%TF.CreationDate,2025-01-27T20:35:56-06:00*%
%TF.ProjectId,TriacControl,54726961-6343-46f6-9e74-726f6c2e6b69,rev?*%
%TF.SameCoordinates,Original*%
%TF.FileFunction,Copper,L1,Top*%
%TF.FilePolarity,Positive*%
%FSLAX46Y46*%
G04 Gerber Fmt 4.6, Leading zero omitted, Abs format (unit mm)*
G04 Created by KiCad (PCBNEW 7.0.11+dfsg-1build4) date 2025-01-27 20:35:56*
%MOMM*%
%LPD*%
G01*
G04 APERTURE LIST*
%TA.AperFunction,ComponentPad*%
%ADD10R,1.500000X1.500000*%
%TD*%
%TA.AperFunction,ComponentPad*%
%ADD11C,1.500000*%
%TD*%
%TA.AperFunction,ComponentPad*%
%ADD12R,1.600000X1.600000*%
%TD*%
%TA.AperFunction,ComponentPad*%
%ADD13O,1.600000X1.600000*%
%TD*%
%TA.AperFunction,ComponentPad*%
%ADD14C,1.600000*%
%TD*%
%TA.AperFunction,ComponentPad*%
%ADD15O,1.905000X2.000000*%
%TD*%
%TA.AperFunction,ComponentPad*%
%ADD16R,1.905000X2.000000*%
%TD*%
%TA.AperFunction,ComponentPad*%
%ADD17R,1.700000X1.700000*%
%TD*%
%TA.AperFunction,ComponentPad*%
%ADD18O,1.700000X1.700000*%
%TD*%
%TA.AperFunction,ComponentPad*%
%ADD19R,3.000000X3.000000*%
%TD*%
%TA.AperFunction,ComponentPad*%
%ADD20C,3.000000*%
%TD*%
%TA.AperFunction,ComponentPad*%
%ADD21R,2.200000X2.200000*%
%TD*%
%TA.AperFunction,ComponentPad*%
%ADD22O,2.200000X2.200000*%
%TD*%
%TA.AperFunction,Conductor*%
%ADD23C,2.000000*%
%TD*%
G04 APERTURE END LIST*
D10*
%TO.P,Q2,1,E*%
%TO.N,Net-(Q2-E)*%
X118450000Y-82850000D03*
D11*
%TO.P,Q2,2,B*%
%TO.N,Net-(Q2-B)*%
X118450000Y-80310000D03*
%TO.P,Q2,3,C*%
%TO.N,GND2*%
X118450000Y-77770000D03*
%TD*%
D12*
%TO.P,U3,1*%
%TO.N,Net-(R22-Pad2)*%
X102450000Y-75400000D03*
D13*
%TO.P,U3,2*%
%TO.N,Net-(D3-A)*%
X102450000Y-77940000D03*
%TO.P,U3,3*%
%TO.N,Net-(Q2-B)*%
X110070000Y-77940000D03*
%TO.P,U3,4*%
%TO.N,Net-(R25-Pad2)*%
X110070000Y-75400000D03*
%TD*%
%TO.P,U2,4*%
%TO.N,Net-(J3-Pin_2)*%
X110120000Y-82650000D03*
%TO.P,U2,3*%
%TO.N,GND*%
X110120000Y-85190000D03*
%TO.P,U2,2*%
%TO.N,Net-(D3-A)*%
X102500000Y-85190000D03*
D12*
%TO.P,U2,1*%
%TO.N,Net-(R21-Pad2)*%
X102500000Y-82650000D03*
%TD*%
%TO.P,U1,1*%
%TO.N,Net-(R23-Pad2)*%
X110050000Y-69250000D03*
D13*
%TO.P,U1,2*%
%TO.N,GND2*%
X110050000Y-66710000D03*
%TO.P,U1,3,NC*%
%TO.N,unconnected-(U1-NC-Pad3)*%
X110050000Y-64170000D03*
%TO.P,U1,4*%
%TO.N,Net-(R16-Pad1)*%
X102430000Y-64170000D03*
%TO.P,U1,5,NC*%
%TO.N,unconnected-(U1-NC-Pad5)*%
X102430000Y-66710000D03*
%TO.P,U1,6*%
%TO.N,Net-(Q1-G)*%
X102430000Y-69250000D03*
%TD*%
D14*
%TO.P,R26,1*%
%TO.N,GND2*%
X129600000Y-80250000D03*
D13*
%TO.P,R26,2*%
%TO.N,Net-(Q2-B)*%
X121980000Y-80250000D03*
%TD*%
D14*
%TO.P,R25,1*%
%TO.N,Net-(Q2-E)*%
X121550000Y-74200000D03*
D13*
%TO.P,R25,2*%
%TO.N,Net-(R25-Pad2)*%
X113930000Y-74200000D03*
%TD*%
D14*
%TO.P,R24,1*%
%TO.N,Net-(JP1-B)*%
X132700000Y-77450000D03*
D13*
%TO.P,R24,2*%
%TO.N,Net-(Q2-E)*%
X132700000Y-85070000D03*
%TD*%
D14*
%TO.P,R23,1*%
%TO.N,Net-(JP1-B)*%
X115850000Y-62200000D03*
D13*
%TO.P,R23,2*%
%TO.N,Net-(R23-Pad2)*%
X115850000Y-69820000D03*
%TD*%
%TO.P,R22,2*%
%TO.N,Net-(R22-Pad2)*%
X98820000Y-73950000D03*
D14*
%TO.P,R22,1*%
%TO.N,Net-(D1-K)*%
X91200000Y-73950000D03*
%TD*%
%TO.P,R21,1*%
%TO.N,Net-(D1-K)*%
X92250000Y-79800000D03*
D13*
%TO.P,R21,2*%
%TO.N,Net-(R21-Pad2)*%
X99870000Y-79800000D03*
%TD*%
D14*
%TO.P,R20,1*%
%TO.N,Net-(J4-Pin_1)*%
X137350000Y-68830000D03*
D13*
%TO.P,R20,2*%
%TO.N,Net-(JP4-A)*%
X137350000Y-76450000D03*
%TD*%
%TO.P,R19,2*%
%TO.N,Net-(JP3-A)*%
X140700000Y-76470000D03*
D14*
%TO.P,R19,1*%
%TO.N,Net-(J4-Pin_1)*%
X140700000Y-68850000D03*
%TD*%
%TO.P,R18,1*%
%TO.N,Net-(J4-Pin_1)*%
X144150000Y-68800000D03*
D13*
%TO.P,R18,2*%
%TO.N,Net-(JP2-A)*%
X144150000Y-76420000D03*
%TD*%
D14*
%TO.P,R17,1*%
%TO.N,Net-(J4-Pin_1)*%
X147600000Y-68800000D03*
D13*
%TO.P,R17,2*%
%TO.N,Net-(JP1-A)*%
X147600000Y-76420000D03*
%TD*%
D14*
%TO.P,R16,1*%
%TO.N,Net-(R16-Pad1)*%
X96250000Y-59950000D03*
D13*
%TO.P,R16,2*%
%TO.N,Net-(J2-Pin_1)*%
X88630000Y-59950000D03*
%TD*%
D14*
%TO.P,R15,1*%
%TO.N,Net-(J1-Pin_1)*%
X83700000Y-63100000D03*
D13*
%TO.P,R15,2*%
%TO.N,Net-(Q1-G)*%
X83700000Y-70720000D03*
%TD*%
D14*
%TO.P,R14,1*%
%TO.N,Net-(J1-Pin_1)*%
X87050000Y-63100000D03*
D13*
%TO.P,R14,2*%
%TO.N,Net-(Q1-G)*%
X87050000Y-70720000D03*
%TD*%
D14*
%TO.P,R13,1*%
%TO.N,Net-(J1-Pin_1)*%
X90350000Y-63100000D03*
D13*
%TO.P,R13,2*%
%TO.N,Net-(Q1-G)*%
X90350000Y-70720000D03*
%TD*%
D14*
%TO.P,R12,1*%
%TO.N,Net-(J3-Pin_1)*%
X113150000Y-91650000D03*
D13*
%TO.P,R12,2*%
%TO.N,Net-(J3-Pin_2)*%
X113150000Y-84030000D03*
%TD*%
D14*
%TO.P,R11,1*%
%TO.N,Net-(C1-Pad2)*%
X64000000Y-67500000D03*
D13*
%TO.P,R11,2*%
%TO.N,Net-(J2-Pin_1)*%
X71620000Y-67500000D03*
%TD*%
%TO.P,R10,2*%
%TO.N,Net-(J2-Pin_1)*%
X71620000Y-70800000D03*
D14*
%TO.P,R10,1*%
%TO.N,Net-(C1-Pad2)*%
X64000000Y-70800000D03*
%TD*%
D13*
%TO.P,R9,2*%
%TO.N,Net-(J2-Pin_1)*%
X71620000Y-74000000D03*
D14*
%TO.P,R9,1*%
%TO.N,Net-(C1-Pad2)*%
X64000000Y-74000000D03*
%TD*%
D13*
%TO.P,R8,2*%
%TO.N,Net-(J1-Pin_3)*%
X64980000Y-81600000D03*
D14*
%TO.P,R8,1*%
%TO.N,Net-(R7-Pad2)*%
X72600000Y-81600000D03*
%TD*%
%TO.P,R7,1*%
%TO.N,Net-(R6-Pad2)*%
X72600000Y-84800000D03*
D13*
%TO.P,R7,2*%
%TO.N,Net-(R7-Pad2)*%
X64980000Y-84800000D03*
%TD*%
%TO.P,R6,2*%
%TO.N,Net-(R6-Pad2)*%
X64980000Y-88200000D03*
D14*
%TO.P,R6,1*%
%TO.N,Net-(R5-Pad2)*%
X72600000Y-88200000D03*
%TD*%
%TO.P,R5,1*%
%TO.N,Net-(D1-A)*%
X72500000Y-91600000D03*
D13*
%TO.P,R5,2*%
%TO.N,Net-(R5-Pad2)*%
X64880000Y-91600000D03*
%TD*%
D14*
%TO.P,R4,1*%
%TO.N,Net-(D2-A)*%
X76290000Y-88600000D03*
D13*
%TO.P,R4,2*%
%TO.N,Net-(R3-Pad1)*%
X83910000Y-88600000D03*
%TD*%
D14*
%TO.P,R3,1*%
%TO.N,Net-(R3-Pad1)*%
X76280000Y-85100000D03*
D13*
%TO.P,R3,2*%
%TO.N,Net-(R2-Pad1)*%
X83900000Y-85100000D03*
%TD*%
D14*
%TO.P,R2,1*%
%TO.N,Net-(R2-Pad1)*%
X76180000Y-81700000D03*
D13*
%TO.P,R2,2*%
%TO.N,Net-(R1-Pad1)*%
X83800000Y-81700000D03*
%TD*%
D14*
%TO.P,R1,1*%
%TO.N,Net-(R1-Pad1)*%
X82100000Y-73900000D03*
D13*
%TO.P,R1,2*%
%TO.N,Net-(J1-Pin_1)*%
X74480000Y-73900000D03*
%TD*%
D15*
%TO.P,Q1,3,G*%
%TO.N,Net-(Q1-G)*%
X75380000Y-58900000D03*
%TO.P,Q1,2,A2*%
%TO.N,Net-(J2-Pin_1)*%
X72840000Y-58900000D03*
D16*
%TO.P,Q1,1,A1*%
%TO.N,Net-(J1-Pin_1)*%
X70300000Y-58900000D03*
%TD*%
D17*
%TO.P,JP7,1,A*%
%TO.N,Net-(JP7-A)*%
X127850000Y-60950000D03*
D18*
%TO.P,JP7,2,B*%
%TO.N,Net-(JP1-B)*%
X127850000Y-63490000D03*
%TD*%
D17*
%TO.P,JP6,1,A*%
%TO.N,Net-(JP6-A)*%
X123800000Y-60950000D03*
D18*
%TO.P,JP6,2,B*%
%TO.N,Net-(JP1-B)*%
X123800000Y-63490000D03*
%TD*%
D17*
%TO.P,JP5,1,A*%
%TO.N,Net-(JP5-A)*%
X119750000Y-61000000D03*
D18*
%TO.P,JP5,2,B*%
%TO.N,Net-(JP1-B)*%
X119750000Y-63540000D03*
%TD*%
D17*
%TO.P,JP4,1,A*%
%TO.N,Net-(JP4-A)*%
X136650000Y-80450000D03*
D18*
%TO.P,JP4,2,B*%
%TO.N,Net-(JP1-B)*%
X136650000Y-82990000D03*
%TD*%
%TO.P,JP3,2,B*%
%TO.N,Net-(JP1-B)*%
X140400000Y-82990000D03*
D17*
%TO.P,JP3,1,A*%
%TO.N,Net-(JP3-A)*%
X140400000Y-80450000D03*
%TD*%
%TO.P,JP2,1,A*%
%TO.N,Net-(JP2-A)*%
X144200000Y-80450000D03*
D18*
%TO.P,JP2,2,B*%
%TO.N,Net-(JP1-B)*%
X144200000Y-82990000D03*
%TD*%
D17*
%TO.P,JP1,1,A*%
%TO.N,Net-(JP1-A)*%
X148000000Y-80450000D03*
D18*
%TO.P,JP1,2,B*%
%TO.N,Net-(JP1-B)*%
X148000000Y-82990000D03*
%TD*%
D19*
%TO.P,J4,1,Pin_1*%
%TO.N,Net-(J4-Pin_1)*%
X145650000Y-62150000D03*
D20*
%TO.P,J4,2,Pin_2*%
%TO.N,unconnected-(J4-Pin_2-Pad2)*%
X140570000Y-62150000D03*
%TO.P,J4,3,Pin_3*%
%TO.N,GND2*%
X135490000Y-62150000D03*
%TD*%
D19*
%TO.P,J3,1,Pin_1*%
%TO.N,Net-(J3-Pin_1)*%
X117850000Y-89050000D03*
D20*
%TO.P,J3,2,Pin_2*%
%TO.N,Net-(J3-Pin_2)*%
X122930000Y-89050000D03*
%TO.P,J3,3,Pin_3*%
%TO.N,GND*%
X128010000Y-89050000D03*
%TD*%
D19*
%TO.P,J2,1,Pin_1*%
%TO.N,Net-(J2-Pin_1)*%
X58000000Y-80400000D03*
D20*
%TO.P,J2,2,Pin_2*%
%TO.N,unconnected-(J2-Pin_2-Pad2)*%
X58000000Y-85480000D03*
%TO.P,J2,3,Pin_3*%
%TO.N,Net-(J1-Pin_3)*%
X58000000Y-90560000D03*
%TD*%
D19*
%TO.P,J1,1,Pin_1*%
%TO.N,Net-(J1-Pin_1)*%
X57950000Y-61850000D03*
D20*
%TO.P,J1,2,Pin_2*%
%TO.N,unconnected-(J1-Pin_2-Pad2)*%
X57950000Y-66930000D03*
%TO.P,J1,3,Pin_3*%
%TO.N,Net-(J1-Pin_3)*%
X57950000Y-72010000D03*
%TD*%
D21*
%TO.P,D4,1,K*%
%TO.N,Net-(D2-A)*%
X87750000Y-90600000D03*
D22*
%TO.P,D4,2,A*%
%TO.N,Net-(D3-A)*%
X87750000Y-82980000D03*
%TD*%
D21*
%TO.P,D3,1,K*%
%TO.N,Net-(D1-A)*%
X98050000Y-90700000D03*
D22*
%TO.P,D3,2,A*%
%TO.N,Net-(D3-A)*%
X98050000Y-83080000D03*
%TD*%
D21*
%TO.P,D2,1,K*%
%TO.N,Net-(D1-K)*%
X91200000Y-83050000D03*
D22*
%TO.P,D2,2,A*%
%TO.N,Net-(D2-A)*%
X91200000Y-90670000D03*
%TD*%
D21*
%TO.P,D1,1,K*%
%TO.N,Net-(D1-K)*%
X94700000Y-83050000D03*
D22*
%TO.P,D1,2,A*%
%TO.N,Net-(D1-A)*%
X94700000Y-90670000D03*
%TD*%
D12*
%TO.P,C4,1*%
%TO.N,Net-(JP7-A)*%
X128000000Y-56100000D03*
D14*
%TO.P,C4,2*%
%TO.N,GND2*%
X128000000Y-53600000D03*
%TD*%
D12*
%TO.P,C3,1*%
%TO.N,Net-(JP6-A)*%
X122150000Y-56100000D03*
D14*
%TO.P,C3,2*%
%TO.N,GND2*%
X122150000Y-53600000D03*
%TD*%
D12*
%TO.P,C2,1*%
%TO.N,Net-(JP5-A)*%
X116350000Y-56050000D03*
D14*
%TO.P,C2,2*%
%TO.N,GND2*%
X116350000Y-53550000D03*
%TD*%
%TO.P,C1,1*%
%TO.N,Net-(J1-Pin_1)*%
X69100000Y-62900000D03*
%TO.P,C1,2*%
%TO.N,Net-(C1-Pad2)*%
X64100000Y-62900000D03*
%TD*%
D23*
%TO.N,GND2*%
X135490000Y-62150000D02*
X135490000Y-58240000D01*
X135490000Y-58240000D02*
X130850000Y-53600000D01*
X130850000Y-53600000D02*
X128000000Y-53600000D01*
%TO.N,Net-(J4-Pin_1)*%
X144150000Y-68800000D02*
X144150000Y-63650000D01*
X144150000Y-63650000D02*
X145650000Y-62150000D01*
X144150000Y-68800000D02*
X147600000Y-68800000D01*
X140700000Y-68850000D02*
X144100000Y-68850000D01*
X144100000Y-68850000D02*
X144150000Y-68800000D01*
X137350000Y-68830000D02*
X140680000Y-68830000D01*
X140680000Y-68830000D02*
X140700000Y-68850000D01*
%TO.N,Net-(JP4-A)*%
X136650000Y-80450000D02*
X136650000Y-77150000D01*
X136650000Y-77150000D02*
X137350000Y-76450000D01*
%TO.N,Net-(JP3-A)*%
X140400000Y-80450000D02*
X140400000Y-76770000D01*
X140400000Y-76770000D02*
X140700000Y-76470000D01*
%TO.N,Net-(JP2-A)*%
X144200000Y-80450000D02*
X144200000Y-76470000D01*
X144200000Y-76470000D02*
X144150000Y-76420000D01*
%TO.N,Net-(JP1-A)*%
X148000000Y-80450000D02*
X148000000Y-76820000D01*
X148000000Y-76820000D02*
X147600000Y-76420000D01*
%TO.N,Net-(JP1-B)*%
X144200000Y-82990000D02*
X148000000Y-82990000D01*
X140400000Y-82990000D02*
X144200000Y-82990000D01*
X136650000Y-82990000D02*
X140400000Y-82990000D01*
X132700000Y-77450000D02*
X132700000Y-80600000D01*
X132700000Y-80600000D02*
X135090000Y-82990000D01*
X135090000Y-82990000D02*
X136650000Y-82990000D01*
X132700000Y-77450000D02*
X132700000Y-74980000D01*
X132700000Y-74980000D02*
X126820000Y-69100000D01*
X126820000Y-69100000D02*
X125310000Y-69100000D01*
%TO.N,Net-(Q2-E)*%
X127100000Y-85250000D02*
X132520000Y-85250000D01*
%TO.N,Net-(JP1-B)*%
X125310000Y-69100000D02*
X119750000Y-63540000D01*
%TO.N,Net-(Q2-E)*%
X123600000Y-82850000D02*
X124700000Y-82850000D01*
X124700000Y-82850000D02*
X127100000Y-85250000D01*
X132520000Y-85250000D02*
X132700000Y-85070000D01*
%TO.N,GND*%
X110120000Y-85190000D02*
X110120000Y-94070000D01*
X128500000Y-94200000D02*
X128500000Y-89540000D01*
X110120000Y-94070000D02*
X110700000Y-94650000D01*
X110700000Y-94650000D02*
X128050000Y-94650000D01*
X128050000Y-94650000D02*
X128500000Y-94200000D01*
X128500000Y-89540000D02*
X128010000Y-89050000D01*
%TO.N,Net-(J3-Pin_2)*%
X119680000Y-85800000D02*
X122930000Y-89050000D01*
%TO.N,Net-(J3-Pin_1)*%
X115100000Y-91650000D02*
X117700000Y-89050000D01*
%TO.N,Net-(J3-Pin_2)*%
X113150000Y-84030000D02*
X114920000Y-85800000D01*
X114920000Y-85800000D02*
X119680000Y-85800000D01*
%TO.N,Net-(J3-Pin_1)*%
X113150000Y-91650000D02*
X115100000Y-91650000D01*
X117700000Y-89050000D02*
X117850000Y-89050000D01*
%TO.N,Net-(J3-Pin_2)*%
X110120000Y-82650000D02*
X111770000Y-82650000D01*
X111770000Y-82650000D02*
X113150000Y-84030000D01*
%TO.N,Net-(JP1-B)*%
X117100000Y-63450000D02*
X117250000Y-63450000D01*
X115850000Y-62200000D02*
X117100000Y-63450000D01*
X117250000Y-63450000D02*
X117340000Y-63540000D01*
X117340000Y-63540000D02*
X119750000Y-63540000D01*
X119750000Y-63540000D02*
X123750000Y-63540000D01*
X123750000Y-63540000D02*
X123800000Y-63490000D01*
X127850000Y-63490000D02*
X123800000Y-63490000D01*
%TO.N,Net-(J1-Pin_1)*%
X68400000Y-58800000D02*
X68400000Y-54400000D01*
X68400000Y-54400000D02*
X69950000Y-52850000D01*
X69950000Y-52850000D02*
X87450000Y-52850000D01*
X92050000Y-62100000D02*
X91350000Y-62100000D01*
X87450000Y-52850000D02*
X92050000Y-57450000D01*
X92050000Y-57450000D02*
X92050000Y-62100000D01*
X91350000Y-62100000D02*
X90350000Y-63100000D01*
%TO.N,Net-(R16-Pad1)*%
X96250000Y-59950000D02*
X97150000Y-59950000D01*
X97150000Y-59950000D02*
X101370000Y-64170000D01*
X101370000Y-64170000D02*
X102430000Y-64170000D01*
%TO.N,Net-(J2-Pin_1)*%
X78850000Y-56000000D02*
X82800000Y-59950000D01*
X73200000Y-56000000D02*
X78850000Y-56000000D01*
X72840000Y-56160000D02*
X73100000Y-55900000D01*
X72840000Y-58900000D02*
X72840000Y-56160000D01*
X73100000Y-55900000D02*
X73200000Y-56000000D01*
X82800000Y-59950000D02*
X88630000Y-59950000D01*
%TO.N,GND2*%
X118450000Y-77770000D02*
X118450000Y-71650000D01*
X118450000Y-71650000D02*
X118450000Y-68250000D01*
X118450000Y-71650000D02*
X124500000Y-71650000D01*
X124500000Y-71650000D02*
X129600000Y-76750000D01*
X129600000Y-76750000D02*
X129600000Y-80250000D01*
%TO.N,Net-(Q2-E)*%
X123600000Y-82850000D02*
X124450000Y-82000000D01*
X124450000Y-77100000D02*
X121550000Y-74200000D01*
X118450000Y-82850000D02*
X123600000Y-82850000D01*
X124450000Y-82000000D02*
X124450000Y-77100000D01*
%TO.N,Net-(Q2-B)*%
X121980000Y-80250000D02*
X118510000Y-80250000D01*
X118510000Y-80250000D02*
X118450000Y-80310000D01*
X110070000Y-77940000D02*
X112040000Y-77940000D01*
X112040000Y-77940000D02*
X114410000Y-80310000D01*
X114410000Y-80310000D02*
X118450000Y-80310000D01*
%TO.N,Net-(R25-Pad2)*%
X110070000Y-75400000D02*
X112730000Y-75400000D01*
X112730000Y-75400000D02*
X113930000Y-74200000D01*
%TO.N,GND2*%
X118450000Y-68250000D02*
X116200000Y-66000000D01*
X116200000Y-66000000D02*
X112700000Y-66000000D01*
%TO.N,Net-(JP5-A)*%
X116350000Y-56050000D02*
X116350000Y-57600000D01*
X116350000Y-57600000D02*
X119750000Y-61000000D01*
%TO.N,Net-(JP6-A)*%
X122150000Y-57450000D02*
X123800000Y-59100000D01*
X122150000Y-56100000D02*
X122150000Y-57450000D01*
X123800000Y-59100000D02*
X123800000Y-60950000D01*
%TO.N,Net-(JP7-A)*%
X128000000Y-56100000D02*
X128000000Y-60800000D01*
X128000000Y-60800000D02*
X127850000Y-60950000D01*
%TO.N,Net-(R23-Pad2)*%
X111120000Y-70320000D02*
X115350000Y-70320000D01*
X110050000Y-69250000D02*
X111120000Y-70320000D01*
X115350000Y-70320000D02*
X115850000Y-69820000D01*
%TO.N,GND2*%
X122150000Y-53600000D02*
X128000000Y-53600000D01*
X116350000Y-53550000D02*
X122100000Y-53550000D01*
X122100000Y-53550000D02*
X122150000Y-53600000D01*
X110050000Y-66710000D02*
X111990000Y-66710000D01*
X111990000Y-66710000D02*
X112700000Y-66000000D01*
X112700000Y-66000000D02*
X112700000Y-55050000D01*
X112700000Y-55050000D02*
X114250000Y-53500000D01*
X114250000Y-53500000D02*
X114300000Y-53550000D01*
X114300000Y-53550000D02*
X116350000Y-53550000D01*
%TO.N,Net-(J1-Pin_3)*%
X52000000Y-86650000D02*
X55910000Y-90560000D01*
X57950000Y-72010000D02*
X54990000Y-72010000D01*
X52000000Y-75000000D02*
X52000000Y-86650000D01*
X54990000Y-72010000D02*
X52000000Y-75000000D01*
%TO.N,Net-(J2-Pin_1)*%
X60400000Y-78000000D02*
X58000000Y-80400000D01*
X71300000Y-78000000D02*
X60400000Y-78000000D01*
%TO.N,Net-(J1-Pin_3)*%
X55910000Y-90560000D02*
X58000000Y-90560000D01*
X59340000Y-90560000D02*
X61800000Y-88100000D01*
X58000000Y-90560000D02*
X59340000Y-90560000D01*
X61800000Y-88100000D02*
X61800000Y-81800000D01*
X61800000Y-81800000D02*
X62000000Y-81600000D01*
X62000000Y-81600000D02*
X64980000Y-81600000D01*
%TO.N,Net-(Q1-G)*%
X75380000Y-58900000D02*
X76550000Y-58900000D01*
X76550000Y-58900000D02*
X81000000Y-63350000D01*
X81000000Y-63350000D02*
X81000000Y-65700000D01*
X81000000Y-65700000D02*
X83700000Y-68400000D01*
X83700000Y-68400000D02*
X83700000Y-70720000D01*
X90350000Y-70720000D02*
X90430000Y-70800000D01*
X90430000Y-70800000D02*
X98080000Y-70800000D01*
X98080000Y-70800000D02*
X99630000Y-69250000D01*
X99630000Y-69250000D02*
X102430000Y-69250000D01*
X90350000Y-70720000D02*
X90330000Y-70700000D01*
X87070000Y-70700000D02*
X87050000Y-70720000D01*
X90330000Y-70700000D02*
X87070000Y-70700000D01*
X87050000Y-70720000D02*
X87030000Y-70700000D01*
X87030000Y-70700000D02*
X83720000Y-70700000D01*
X83720000Y-70700000D02*
X83700000Y-70720000D01*
%TO.N,Net-(J1-Pin_1)*%
X83700000Y-63100000D02*
X83750000Y-63050000D01*
X87000000Y-63050000D02*
X87050000Y-63100000D01*
X83750000Y-63050000D02*
X87000000Y-63050000D01*
X90350000Y-63100000D02*
X90250000Y-63000000D01*
X90250000Y-63000000D02*
X86250000Y-63000000D01*
X86350000Y-63100000D02*
X87050000Y-63100000D01*
X61000000Y-58800000D02*
X57950000Y-61850000D01*
X68400000Y-58800000D02*
X61000000Y-58800000D01*
%TO.N,Net-(R21-Pad2)*%
X99870000Y-79800000D02*
X99870000Y-80220000D01*
X99870000Y-80220000D02*
X102300000Y-82650000D01*
X102300000Y-82650000D02*
X102500000Y-82650000D01*
%TO.N,Net-(D3-A)*%
X102450000Y-77940000D02*
X101318630Y-77940000D01*
X101318630Y-77940000D02*
X100328630Y-76950000D01*
X100328630Y-76950000D02*
X98350000Y-76950000D01*
X98350000Y-76950000D02*
X96750000Y-78550000D01*
X96750000Y-78550000D02*
X96750000Y-80550000D01*
X96750000Y-80550000D02*
X98050000Y-81850000D01*
X98050000Y-81850000D02*
X98050000Y-83080000D01*
%TO.N,Net-(D1-K)*%
X90890000Y-78440000D02*
X90890000Y-74260000D01*
X92250000Y-79800000D02*
X90890000Y-78440000D01*
X90890000Y-74260000D02*
X91200000Y-73950000D01*
X91200000Y-83050000D02*
X91200000Y-80850000D01*
X91200000Y-80850000D02*
X92250000Y-79800000D01*
%TO.N,Net-(D3-A)*%
X100950000Y-86740000D02*
X100950000Y-86800000D01*
X97850000Y-86800000D02*
X97150000Y-86100000D01*
X102500000Y-85190000D02*
X100950000Y-86740000D01*
X100950000Y-86800000D02*
X97850000Y-86800000D01*
%TO.N,Net-(R22-Pad2)*%
X102350000Y-75400000D02*
X102450000Y-75400000D01*
X98820000Y-73950000D02*
X100900000Y-73950000D01*
X100900000Y-73950000D02*
X102350000Y-75400000D01*
%TO.N,Net-(D3-A)*%
X98220000Y-83250000D02*
X98050000Y-83080000D01*
%TO.N,Net-(D1-K)*%
X90900000Y-82750000D02*
X91200000Y-83050000D01*
%TO.N,Net-(D3-A)*%
X98050000Y-83080000D02*
X98050000Y-85200000D01*
X98050000Y-85200000D02*
X97150000Y-86100000D01*
X87750000Y-85200000D02*
X87750000Y-82980000D01*
X97150000Y-86100000D02*
X88650000Y-86100000D01*
X88650000Y-86100000D02*
X87750000Y-85200000D01*
%TO.N,Net-(D2-A)*%
X87750000Y-90600000D02*
X86700000Y-91650000D01*
X86700000Y-91650000D02*
X79340000Y-91650000D01*
X79340000Y-91650000D02*
X76290000Y-88600000D01*
X91200000Y-90670000D02*
X90970000Y-90900000D01*
X90970000Y-90900000D02*
X88050000Y-90900000D01*
X88050000Y-90900000D02*
X87750000Y-90600000D01*
%TO.N,Net-(D1-A)*%
X94700000Y-90670000D02*
X97980000Y-90670000D01*
X97980000Y-90670000D02*
X98010000Y-90700000D01*
X98010000Y-90700000D02*
X98050000Y-90700000D01*
X74000000Y-91600000D02*
X76800000Y-94400000D01*
X94700000Y-92100000D02*
X94700000Y-90670000D01*
%TO.N,Net-(D1-K)*%
X91200000Y-83050000D02*
X94700000Y-83050000D01*
%TO.N,Net-(D1-A)*%
X72500000Y-91600000D02*
X74000000Y-91600000D01*
X92400000Y-94400000D02*
X94700000Y-92100000D01*
X76800000Y-94400000D02*
X92400000Y-94400000D01*
%TO.N,Net-(J2-Pin_1)*%
X71300000Y-78000000D02*
X76500000Y-78000000D01*
X76500000Y-78000000D02*
X78000000Y-76500000D01*
X78000000Y-76500000D02*
X78000000Y-66000000D01*
X78000000Y-66000000D02*
X72840000Y-60840000D01*
X72840000Y-60840000D02*
X72840000Y-58900000D01*
%TO.N,Net-(J1-Pin_1)*%
X69100000Y-62900000D02*
X70800000Y-62900000D01*
X70800000Y-62900000D02*
X75200000Y-67300000D01*
X75200000Y-67300000D02*
X75200000Y-73180000D01*
X75200000Y-73180000D02*
X74480000Y-73900000D01*
X70200000Y-58800000D02*
X68400000Y-58800000D01*
X69100000Y-62900000D02*
X69100000Y-59500000D01*
X69100000Y-59500000D02*
X68400000Y-58800000D01*
%TO.N,Net-(R1-Pad1)*%
X82100000Y-73900000D02*
X82300000Y-74100000D01*
X82300000Y-74100000D02*
X82300000Y-80200000D01*
X82300000Y-80200000D02*
X83800000Y-81700000D01*
%TO.N,Net-(J1-Pin_1)*%
X70300000Y-58900000D02*
X70200000Y-58800000D01*
%TO.N,Net-(J2-Pin_1)*%
X71620000Y-77680000D02*
X71300000Y-78000000D01*
X71620000Y-74000000D02*
X71620000Y-77680000D01*
%TO.N,Net-(R3-Pad1)*%
X76280000Y-85100000D02*
X77600000Y-85100000D01*
X77600000Y-85100000D02*
X78600000Y-86100000D01*
X78600000Y-86100000D02*
X78600000Y-86200000D01*
X78600000Y-86200000D02*
X81000000Y-88600000D01*
X81000000Y-88600000D02*
X83910000Y-88600000D01*
%TO.N,Net-(R2-Pad1)*%
X76180000Y-81700000D02*
X78500000Y-81700000D01*
X78500000Y-81700000D02*
X81900000Y-85100000D01*
X81900000Y-85100000D02*
X83900000Y-85100000D01*
%TO.N,Net-(R5-Pad2)*%
X64880000Y-91600000D02*
X68200000Y-91600000D01*
X68200000Y-91600000D02*
X71600000Y-88200000D01*
X71600000Y-88200000D02*
X72600000Y-88200000D01*
%TO.N,Net-(R6-Pad2)*%
X64980000Y-88200000D02*
X67600000Y-88200000D01*
X67600000Y-88200000D02*
X71000000Y-84800000D01*
X71000000Y-84800000D02*
X72600000Y-84800000D01*
%TO.N,Net-(R7-Pad2)*%
X64980000Y-84800000D02*
X66700000Y-84800000D01*
X66700000Y-84800000D02*
X69900000Y-81600000D01*
X69900000Y-81600000D02*
X72600000Y-81600000D01*
%TO.N,Net-(C1-Pad2)*%
X64100000Y-67400000D02*
X64000000Y-67500000D01*
X64100000Y-62900000D02*
X64100000Y-67400000D01*
X64000000Y-70800000D02*
X64000000Y-67500000D01*
%TO.N,Net-(J2-Pin_1)*%
X71620000Y-67500000D02*
X71620000Y-70800000D01*
X71620000Y-70800000D02*
X71620000Y-74000000D01*
%TO.N,Net-(C1-Pad2)*%
X64000000Y-74000000D02*
X64000000Y-70800000D01*
%TD*%
M02*
