%TF.GenerationSoftware,KiCad,Pcbnew,7.0.11+dfsg-1build4*%
%TF.CreationDate,2025-03-10T20:05:57-05:00*%
%TF.ProjectId,TriacControl,54726961-6343-46f6-9e74-726f6c2e6b69,rev?*%
%TF.SameCoordinates,Original*%
%TF.FileFunction,Soldermask,Bot*%
%TF.FilePolarity,Negative*%
%FSLAX46Y46*%
G04 Gerber Fmt 4.6, Leading zero omitted, Abs format (unit mm)*
G04 Created by KiCad (PCBNEW 7.0.11+dfsg-1build4) date 2025-03-10 20:05:57*
%MOMM*%
%LPD*%
G01*
G04 APERTURE LIST*
%ADD10R,1.600000X1.600000*%
%ADD11C,1.600000*%
%ADD12R,3.000000X3.000000*%
%ADD13C,3.000000*%
%ADD14O,1.600000X1.600000*%
%ADD15C,3.200000*%
%ADD16R,1.700000X1.700000*%
%ADD17O,1.700000X1.700000*%
%ADD18R,1.905000X2.000000*%
%ADD19O,1.905000X2.000000*%
%ADD20O,2.100000X40.000000*%
%ADD21R,2.200000X2.200000*%
%ADD22O,2.200000X2.200000*%
%ADD23R,1.500000X1.500000*%
%ADD24C,1.500000*%
G04 APERTURE END LIST*
D10*
%TO.C,C3*%
X122150000Y-56100000D03*
D11*
X122150000Y-53600000D03*
%TD*%
D12*
%TO.C,J1*%
X57950000Y-61850000D03*
D13*
X57950000Y-66930000D03*
X57950000Y-72010000D03*
%TD*%
D11*
%TO.C,R18*%
X142150000Y-67830000D03*
D14*
X142150000Y-83070000D03*
%TD*%
D15*
%TO.C,H3*%
X54000000Y-98000000D03*
%TD*%
D10*
%TO.C,C4*%
X128000000Y-56100000D03*
D11*
X128000000Y-53600000D03*
%TD*%
%TO.C,R17*%
X147400000Y-68000000D03*
D14*
X147400000Y-83240000D03*
%TD*%
D11*
%TO.C,R1*%
X82550000Y-76962000D03*
D14*
X74930000Y-76962000D03*
%TD*%
D11*
%TO.C,R6*%
X72390000Y-90424000D03*
D14*
X64770000Y-90424000D03*
%TD*%
D11*
%TO.C,R27*%
X98470000Y-94080000D03*
D14*
X90850000Y-94080000D03*
%TD*%
D11*
%TO.C,R23*%
X115850000Y-62200000D03*
D14*
X115850000Y-69820000D03*
%TD*%
D11*
%TO.C,R7*%
X72390000Y-87122000D03*
D14*
X64770000Y-87122000D03*
%TD*%
D11*
%TO.C,R22*%
X91200000Y-73950000D03*
D14*
X98820000Y-73950000D03*
%TD*%
D15*
%TO.C,H4*%
X146000000Y-98000000D03*
%TD*%
D11*
%TO.C,R16*%
X64262000Y-53680000D03*
D14*
X64262000Y-61300000D03*
%TD*%
D16*
%TO.C,JP6*%
X123800000Y-60950000D03*
D17*
X123800000Y-63490000D03*
%TD*%
D11*
%TO.C,C1*%
X67818000Y-61214000D03*
X67818000Y-66214000D03*
%TD*%
%TO.C,R24*%
X132700000Y-77450000D03*
D14*
X132700000Y-85070000D03*
%TD*%
D10*
%TO.C,C2*%
X116350000Y-56050000D03*
D11*
X116350000Y-53550000D03*
%TD*%
%TO.C,R21*%
X92250000Y-79800000D03*
D14*
X99870000Y-79800000D03*
%TD*%
D16*
%TO.C,JP2*%
X142320000Y-87650000D03*
D17*
X142320000Y-90190000D03*
%TD*%
D16*
%TO.C,JP5*%
X119750000Y-61000000D03*
D17*
X119750000Y-63540000D03*
%TD*%
D12*
%TO.C,J2*%
X58000000Y-80400000D03*
D13*
X58000000Y-85480000D03*
X58000000Y-90560000D03*
%TD*%
D12*
%TO.C,J4*%
X140520000Y-62110000D03*
D13*
X135440000Y-62110000D03*
%TD*%
D16*
%TO.C,JP7*%
X127850000Y-60950000D03*
D17*
X127850000Y-63490000D03*
%TD*%
D11*
%TO.C,R4*%
X76290000Y-90932000D03*
D14*
X83910000Y-90932000D03*
%TD*%
D11*
%TO.C,R14*%
X94450000Y-62980000D03*
D14*
X94450000Y-70600000D03*
%TD*%
D11*
%TO.C,R3*%
X76280000Y-87630000D03*
D14*
X83900000Y-87630000D03*
%TD*%
D11*
%TO.C,R26*%
X129600000Y-80250000D03*
D14*
X121980000Y-80250000D03*
%TD*%
D11*
%TO.C,R25*%
X121550000Y-74200000D03*
D14*
X113930000Y-74200000D03*
%TD*%
D11*
%TO.C,R13*%
X97750000Y-62940000D03*
D14*
X97750000Y-70560000D03*
%TD*%
D11*
%TO.C,R9*%
X64008000Y-76708000D03*
D14*
X71628000Y-76708000D03*
%TD*%
D11*
%TO.C,R15*%
X90960000Y-62920000D03*
D14*
X90960000Y-70540000D03*
%TD*%
D18*
%TO.C,Q1*%
X76580000Y-60390000D03*
D19*
X79120000Y-60390000D03*
X81660000Y-60390000D03*
%TD*%
D10*
%TO.C,U3*%
X102450000Y-75400000D03*
D14*
X102450000Y-77940000D03*
X110070000Y-77940000D03*
X110070000Y-75400000D03*
%TD*%
D20*
%TO.C,H5*%
X107210000Y-75440000D03*
%TD*%
D15*
%TO.C,H1*%
X54000000Y-54000000D03*
%TD*%
D11*
%TO.C,R8*%
X72390000Y-83566000D03*
D14*
X64770000Y-83566000D03*
%TD*%
D16*
%TO.C,JP1*%
X147960000Y-87960000D03*
D17*
X147960000Y-90500000D03*
%TD*%
D10*
%TO.C,U1*%
X110050000Y-69250000D03*
D14*
X110050000Y-66710000D03*
X110050000Y-64170000D03*
X102430000Y-64170000D03*
X102430000Y-66710000D03*
X102430000Y-69250000D03*
%TD*%
D21*
%TO.C,D2*%
X91200000Y-83050000D03*
D22*
X91200000Y-90670000D03*
%TD*%
D21*
%TO.C,D3*%
X98050000Y-90700000D03*
D22*
X98050000Y-83080000D03*
%TD*%
D10*
%TO.C,U2*%
X102500000Y-82650000D03*
D14*
X102500000Y-85190000D03*
X110120000Y-85190000D03*
X110120000Y-82650000D03*
%TD*%
D11*
%TO.C,R5*%
X72390000Y-93726000D03*
D14*
X64770000Y-93726000D03*
%TD*%
D21*
%TO.C,D4*%
X87750000Y-90600000D03*
D22*
X87750000Y-82980000D03*
%TD*%
D21*
%TO.C,D1*%
X94700000Y-83050000D03*
D22*
X94700000Y-90670000D03*
%TD*%
D15*
%TO.C,H2*%
X146000000Y-54000000D03*
%TD*%
D16*
%TO.C,JP3*%
X136910000Y-87650000D03*
D17*
X136910000Y-90190000D03*
%TD*%
D11*
%TO.C,R2*%
X76454000Y-84074000D03*
D14*
X84074000Y-84074000D03*
%TD*%
D23*
%TO.C,Q2*%
X118450000Y-82850000D03*
D24*
X118450000Y-80310000D03*
X118450000Y-77770000D03*
%TD*%
D12*
%TO.C,J3*%
X120210000Y-91020000D03*
D13*
X115130000Y-91020000D03*
%TD*%
D11*
%TO.C,R19*%
X136740000Y-67780000D03*
D14*
X136740000Y-83020000D03*
%TD*%
D11*
%TO.C,R11*%
X64008000Y-69596000D03*
D14*
X71628000Y-69596000D03*
%TD*%
D11*
%TO.C,R10*%
X64008000Y-73152000D03*
D14*
X71628000Y-73152000D03*
%TD*%
M02*
